<svg width="103" height="32" viewBox="0 0 103 32" fill="none" xmlns="http://www.w3.org/2000/svg">
<path d="M98 0H5C2.23858 0 0 2.23858 0 5V26C0 28.7614 2.23858 31 5 31H98C100.761 31 103 28.7614 103 26V5C103 2.23858 100.761 0 98 0Z" fill="#0F1418"/>
<path d="M33.1936 22H30.8205V17.7227H26.4699V22H24.1042V11.4971H26.4699V15.6865H30.8205V11.4971H33.1936V22ZM42.5581 18.9092H37.6655C37.7437 19.998 38.4297 20.5425 39.7237 20.5425C40.5488 20.5425 41.2739 20.3472 41.8989 19.9565V21.6265C41.2056 21.9976 40.3047 22.1831 39.1963 22.1831C37.9854 22.1831 37.0454 21.8486 36.3765 21.1797C35.7075 20.5059 35.3731 19.5684 35.3731 18.3672C35.3731 17.1221 35.7344 16.1357 36.4571 15.4082C37.1797 14.6807 38.0684 14.3169 39.1231 14.3169C40.2168 14.3169 41.0615 14.6416 41.6572 15.291C42.2578 15.9404 42.5581 16.8218 42.5581 17.9351V18.9092ZM40.4121 17.4883C40.4121 16.4141 39.9776 15.877 39.1084 15.877C38.7373 15.877 38.4151 16.0308 38.1416 16.3384C37.8731 16.646 37.7095 17.0293 37.6509 17.4883H40.4121ZM49.9671 11.4971L44.8475 23.7432H42.7821L47.8797 11.4971H49.9671ZM60.5255 22H58.1525V17.7227H53.8019V22H51.4362V11.4971H53.8019V15.6865H58.1525V11.4971H60.5255V22ZM64.3237 13.3135C63.9331 13.3135 63.6133 13.1987 63.3642 12.9692C63.1152 12.7349 62.9907 12.4492 62.9907 12.1123C62.9907 11.7656 63.1152 11.4824 63.3642 11.2627C63.6133 11.043 63.9331 10.9331 64.3237 10.9331C64.7192 10.9331 65.039 11.043 65.2832 11.2627C65.5322 11.4824 65.6567 11.7656 65.6567 12.1123C65.6567 12.4639 65.5322 12.752 65.2832 12.9766C65.039 13.2012 64.7192 13.3135 64.3237 13.3135ZM65.4663 22H63.1518V14.5H65.4663V22ZM79.5037 22H77.1966V17.7227C77.1966 16.6338 76.7962 16.0894 75.9954 16.0894C75.6145 16.0894 75.3045 16.2529 75.0652 16.5801C74.826 16.9072 74.7063 17.3149 74.7063 17.8032V22H72.3919V17.6787C72.3919 16.6191 71.9988 16.0894 71.2127 16.0894C70.8172 16.0894 70.4998 16.2456 70.2605 16.5581C70.0262 16.8706 69.909 17.2954 69.909 17.8325V22H67.5945V14.5H69.909V15.6719H69.9383C70.1775 15.2715 70.512 14.9468 70.9417 14.6978C71.3763 14.4438 71.8499 14.3169 72.3626 14.3169C73.4222 14.3169 74.1473 14.7832 74.5379 15.7158C75.1092 14.7832 75.949 14.3169 77.0574 14.3169C78.6883 14.3169 79.5037 15.3228 79.5037 17.3345V22Z" fill="white"/>
<path d="M98 0H5C2.23858 0 0 2.23858 0 5V27C0 29.7614 2.23858 32 5 32H98C100.761 32 103 29.7614 103 27V5C103 2.23858 100.761 0 98 0Z" fill="url(#paint0_linear)"/>
<defs>
<linearGradient id="paint0_linear" x1="0" y1="0" x2="0" y2="32" gradientUnits="userSpaceOnUse">
<stop stop-color="#BBBBBB" stop-opacity="0.1"/>
<stop offset="1" stop-opacity="0.1"/>
</linearGradient>
</defs>
</svg>
