<svg width="103" height="32" viewBox="0 0 103 32" fill="none" xmlns="http://www.w3.org/2000/svg">
<path d="M98 0H5C2.23858 0 0 2.23858 0 5V26C0 28.7614 2.23858 31 5 31H98C100.761 31 103 28.7614 103 26V5C103 2.23858 100.761 0 98 0Z" fill="#0F1418"/>
<path d="M22.5127 21.5972V19.2534C22.9375 19.6099 23.399 19.8784 23.897 20.0591C24.3951 20.2349 24.898 20.3228 25.4058 20.3228C25.7037 20.3228 25.9624 20.2959 26.1822 20.2422C26.4068 20.1885 26.5923 20.1152 26.7388 20.0225C26.8902 19.9248 27.0025 19.8125 27.0757 19.6855C27.149 19.5537 27.1856 19.4121 27.1856 19.2607C27.1856 19.0557 27.127 18.8726 27.0098 18.7114C26.8926 18.5503 26.7315 18.4014 26.5264 18.2646C26.3262 18.1279 26.087 17.9961 25.8086 17.8691C25.5303 17.7422 25.23 17.6128 24.9078 17.481C24.0874 17.1392 23.4746 16.7217 23.0694 16.2285C22.669 15.7354 22.4688 15.1396 22.4688 14.4414C22.4688 13.8945 22.5787 13.4258 22.7984 13.0352C23.0181 12.6396 23.316 12.3149 23.6919 12.061C24.0728 11.8071 24.5122 11.6216 25.0103 11.5044C25.5083 11.3823 26.0357 11.3213 26.5923 11.3213C27.1392 11.3213 27.6226 11.3555 28.0425 11.4238C28.4673 11.4873 28.8579 11.5874 29.2144 11.7241V13.9141C29.0386 13.792 28.8457 13.6846 28.6358 13.5918C28.4307 13.499 28.2183 13.4233 27.9986 13.3647C27.7788 13.3013 27.5591 13.2549 27.3394 13.2256C27.1245 13.1963 26.9195 13.1816 26.7242 13.1816C26.4556 13.1816 26.2115 13.2085 25.9917 13.2622C25.772 13.311 25.5865 13.3818 25.4351 13.4746C25.2837 13.5674 25.1665 13.6797 25.0835 13.8115C25.0005 13.9385 24.959 14.0825 24.959 14.2437C24.959 14.4194 25.0054 14.5781 25.0982 14.7197C25.191 14.8564 25.3228 14.9883 25.4937 15.1152C25.6646 15.2373 25.8721 15.3594 26.1162 15.4814C26.3604 15.5986 26.6363 15.7207 26.9439 15.8477C27.3638 16.0234 27.7398 16.2114 28.0718 16.4116C28.4087 16.6069 28.6968 16.8291 28.9361 17.0781C29.1753 17.3271 29.3584 17.6128 29.4854 17.9351C29.6123 18.2524 29.6758 18.6235 29.6758 19.0483C29.6758 19.6343 29.5635 20.1274 29.3389 20.5278C29.1192 20.9233 28.8189 21.2456 28.438 21.4946C28.0572 21.7388 27.6128 21.9146 27.105 22.022C26.6021 22.1294 26.0699 22.1831 25.5083 22.1831C24.9322 22.1831 24.3829 22.1343 23.8604 22.0366C23.3428 21.939 22.8936 21.7925 22.5127 21.5972ZM38.8207 22H36.5135V17.7373C36.5135 16.6387 36.1131 16.0894 35.3124 16.0894C34.9022 16.0894 34.5702 16.2432 34.3163 16.5508C34.0624 16.8584 33.9354 17.249 33.9354 17.7227V22H31.621V10.8965H33.9354V15.6133H33.9647C34.5311 14.749 35.3002 14.3169 36.2718 14.3169C37.9711 14.3169 38.8207 15.3423 38.8207 17.3931V22ZM47.5773 18.9092H42.6847C42.7629 19.998 43.4489 20.5425 44.7429 20.5425C45.568 20.5425 46.2931 20.3472 46.9181 19.9565V21.6265C46.2248 21.9976 45.3239 22.1831 44.2155 22.1831C43.0046 22.1831 42.0646 21.8486 41.3957 21.1797C40.7267 20.5059 40.3923 19.5684 40.3923 18.3672C40.3923 17.1221 40.7536 16.1357 41.4762 15.4082C42.1989 14.6807 43.0876 14.3169 44.1423 14.3169C45.236 14.3169 46.0807 14.6416 46.6764 15.291C47.277 15.9404 47.5773 16.8218 47.5773 17.9351V18.9092ZM45.4313 17.4883C45.4313 16.4141 44.9968 15.877 44.1276 15.877C43.7565 15.877 43.4343 16.0308 43.1608 16.3384C42.8923 16.646 42.7287 17.0293 42.6701 17.4883H45.4313ZM54.9863 11.4971L49.8667 23.7432H47.8013L52.8989 11.4971H54.9863ZM65.5447 22H63.1717V17.7227H58.8211V22H56.4554V11.4971H58.8211V15.6865H63.1717V11.4971H65.5447V22ZM74.9093 18.9092H70.0167C70.0949 19.998 70.7809 20.5425 72.0748 20.5425C72.9 20.5425 73.6251 20.3472 74.2501 19.9565V21.6265C73.5568 21.9976 72.6559 22.1831 71.5475 22.1831C70.3366 22.1831 69.3966 21.8486 68.7277 21.1797C68.0587 20.5059 67.7243 19.5684 67.7243 18.3672C67.7243 17.1221 68.0856 16.1357 68.8082 15.4082C69.5309 14.6807 70.4196 14.3169 71.4743 14.3169C72.568 14.3169 73.4127 14.6416 74.0084 15.291C74.609 15.9404 74.9093 16.8218 74.9093 17.9351V18.9092ZM72.7633 17.4883C72.7633 16.4141 72.3288 15.877 71.4596 15.877C71.0885 15.877 70.7663 16.0308 70.4928 16.3384C70.2243 16.646 70.0607 17.0293 70.0021 17.4883H72.7633ZM81.3588 16.5874C81.0805 16.436 80.7558 16.3604 80.3847 16.3604C79.8818 16.3604 79.4887 16.5459 79.2055 16.917C78.9223 17.2832 78.7807 17.7837 78.7807 18.4185V22H76.4663V14.5H78.7807V15.8916H78.81C79.1762 14.876 79.8354 14.3682 80.7876 14.3682C81.0317 14.3682 81.2221 14.3975 81.3588 14.4561V16.5874Z" fill="white"/>
<path d="M98 0H5C2.23858 0 0 2.23858 0 5V27C0 29.7614 2.23858 32 5 32H98C100.761 32 103 29.7614 103 27V5C103 2.23858 100.761 0 98 0Z" fill="url(#paint0_linear)"/>
<defs>
<linearGradient id="paint0_linear" x1="0" y1="0" x2="0" y2="32" gradientUnits="userSpaceOnUse">
<stop stop-color="#BBBBBB" stop-opacity="0.1"/>
<stop offset="1" stop-opacity="0.1"/>
</linearGradient>
</defs>
</svg>
