<svg width="103" height="32" viewBox="0 0 103 32" fill="none" xmlns="http://www.w3.org/2000/svg">
<path d="M98 0H5C2.23858 0 0 2.23858 0 5V26C0 28.7614 2.23858 31 5 31H98C100.761 31 103 28.7614 103 26V5C103 2.23858 100.761 0 98 0Z" fill="#0F1418"/>
<path d="M18.9196 13.4233H15.924V22H13.551V13.4233H10.57V11.4971H18.9196V13.4233ZM27.7495 22H25.4424V17.7373C25.4424 16.6387 25.042 16.0894 24.2412 16.0894C23.8311 16.0894 23.4991 16.2432 23.2452 16.5508C22.9912 16.8584 22.8643 17.249 22.8643 17.7227V22H20.5498V10.8965H22.8643V15.6133H22.8936C23.46 14.749 24.229 14.3169 25.2007 14.3169C26.8999 14.3169 27.7495 15.3423 27.7495 17.3931V22ZM36.5062 18.9092H31.6136C31.6918 19.998 32.3778 20.5425 33.6717 20.5425C34.4969 20.5425 35.222 20.3472 35.847 19.9565V21.6265C35.1537 21.9976 34.2528 22.1831 33.1444 22.1831C31.9335 22.1831 30.9935 21.8486 30.3246 21.1797C29.6556 20.5059 29.3212 19.5684 29.3212 18.3672C29.3212 17.1221 29.6825 16.1357 30.4051 15.4082C31.1278 14.6807 32.0165 14.3169 33.0712 14.3169C34.1649 14.3169 35.0096 14.6416 35.6053 15.291C36.2059 15.9404 36.5062 16.8218 36.5062 17.9351V18.9092ZM34.3602 17.4883C34.3602 16.4141 33.9256 15.877 33.0565 15.877C32.6854 15.877 32.3631 16.0308 32.0897 16.3384C31.8212 16.646 31.6576 17.0293 31.599 17.4883H34.3602ZM45.2043 14.5L42.1574 22.6006C41.425 24.5488 40.3215 25.5229 38.8469 25.5229C38.2853 25.5229 37.8239 25.4595 37.4626 25.3325V23.4868C37.7702 23.6675 38.1047 23.7578 38.466 23.7578C39.0617 23.7578 39.4767 23.4771 39.7111 22.9155L40.1066 21.9854L37.0597 14.5H39.6232L41.0221 19.063C41.11 19.3462 41.1784 19.6807 41.2272 20.0664H41.2565C41.3005 19.7832 41.381 19.4536 41.4982 19.0776L42.9118 14.5H45.2043ZM52.1665 11.4971L47.0469 23.7432H44.9814L50.0791 11.4971H52.1665ZM61.0111 13.4233H58.0154V22H55.6424V13.4233H52.6614V11.4971H61.0111V13.4233ZM69.841 22H67.5338V17.7373C67.5338 16.6387 67.1334 16.0894 66.3327 16.0894C65.9225 16.0894 65.5905 16.2432 65.3366 16.5508C65.0827 16.8584 64.9557 17.249 64.9557 17.7227V22H62.6413V10.8965H64.9557V15.6133H64.985C65.5514 14.749 66.3204 14.3169 67.2921 14.3169C68.9913 14.3169 69.841 15.3423 69.841 17.3931V22ZM78.5976 18.9092H73.705C73.7832 19.998 74.4692 20.5425 75.7631 20.5425C76.5883 20.5425 77.3134 20.3472 77.9384 19.9565V21.6265C77.2451 21.9976 76.3442 22.1831 75.2358 22.1831C74.0249 22.1831 73.0849 21.8486 72.416 21.1797C71.747 20.5059 71.4126 19.5684 71.4126 18.3672C71.4126 17.1221 71.7739 16.1357 72.4965 15.4082C73.2192 14.6807 74.1079 14.3169 75.1626 14.3169C76.2563 14.3169 77.101 14.6416 77.6967 15.291C78.2973 15.9404 78.5976 16.8218 78.5976 17.9351V18.9092ZM76.4516 17.4883C76.4516 16.4141 76.017 15.877 75.1479 15.877C74.7768 15.877 74.4545 16.0308 74.1811 16.3384C73.9126 16.646 73.749 17.0293 73.6904 17.4883H76.4516ZM92.0638 22H89.7566V17.7227C89.7566 16.6338 89.3562 16.0894 88.5555 16.0894C88.1746 16.0894 87.8645 16.2529 87.6253 16.5801C87.386 16.9072 87.2664 17.3149 87.2664 17.8032V22H84.9519V17.6787C84.9519 16.6191 84.5589 16.0894 83.7727 16.0894C83.3772 16.0894 83.0598 16.2456 82.8206 16.5581C82.5862 16.8706 82.469 17.2954 82.469 17.8325V22H80.1546V14.5H82.469V15.6719H82.4983C82.7376 15.2715 83.0721 14.9468 83.5017 14.6978C83.9363 14.4438 84.4099 14.3169 84.9226 14.3169C85.9822 14.3169 86.7073 14.7832 87.0979 15.7158C87.6692 14.7832 88.5091 14.3169 89.6175 14.3169C91.2483 14.3169 92.0638 15.3228 92.0638 17.3345V22Z" fill="white"/>
<path d="M98 0H5C2.23858 0 0 2.23858 0 5V27C0 29.7614 2.23858 32 5 32H98C100.761 32 103 29.7614 103 27V5C103 2.23858 100.761 0 98 0Z" fill="url(#paint0_linear)"/>
<defs>
<linearGradient id="paint0_linear" x1="0" y1="0" x2="0" y2="32" gradientUnits="userSpaceOnUse">
<stop stop-color="#BBBBBB" stop-opacity="0.1"/>
<stop offset="1" stop-opacity="0.1"/>
</linearGradient>
</defs>
</svg>
