<svg width="115" height="32" viewBox="0 0 115 32" fill="none" xmlns="http://www.w3.org/2000/svg">
<path d="M110 0H31V32H110C112.761 32 115 29.7614 115 27V5C115 2.23858 112.761 0 110 0Z" fill="#0F1418"/>
<path d="M31 0H5C2.23858 0 0 2.23858 0 5V27C0 29.7614 2.23858 32 5 32H31V0Z" fill="#3DDC84"/>
<path d="M27.5 31.1613H3.5C3.88406 27.183 6.20934 23.7848 9.64239 21.9656L7.65153 18.5929C7.53919 18.4038 7.60451 18.1636 7.79784 18.0538C7.99118 17.9439 8.23677 18.0078 8.34912 18.1968L10.3661 21.613C11.905 20.9257 13.6372 20.5424 15.5 20.5424C17.3628 20.5424 19.095 20.9257 20.6339 21.613L22.6509 18.1968C22.7606 18.0078 23.0088 17.9439 23.1995 18.0538C23.3903 18.1636 23.4582 18.4038 23.3459 18.5929L21.355 21.9656C24.7907 23.7848 27.1159 27.183 27.5 31.1613ZM21.0075 27.8652C21.564 27.8652 22.016 27.4232 22.0134 26.8815C22.0134 26.3399 21.564 25.8978 21.0075 25.8978C20.4536 25.8978 20.0016 26.3373 20.0016 26.8815C20.0016 27.4232 20.451 27.8652 21.0075 27.8652ZM9.98988 27.8652C10.5464 27.8652 10.9984 27.4232 10.9958 26.8815C10.9958 26.3399 10.5464 25.8978 9.98988 25.8978C9.43599 25.8978 8.984 26.3373 8.984 26.8815C8.984 27.4232 9.43338 27.8652 9.98988 27.8652Z" fill="white"/>
<path d="M54.1202 22H51.542L50.795 19.6636H47.0596L46.3199 22H43.7564L47.5796 11.4971H50.3848L54.1202 22ZM50.253 17.8472L49.125 14.3169C49.042 14.0532 48.9834 13.7383 48.9493 13.3721H48.8907C48.8662 13.6797 48.8052 13.9849 48.7076 14.2876L47.565 17.8472H50.253ZM62.8915 22H60.5843V17.8325C60.5843 16.6704 60.1693 16.0894 59.3392 16.0894C58.9388 16.0894 58.6092 16.2432 58.3504 16.5508C58.0917 16.8584 57.9623 17.249 57.9623 17.7227V22H55.6478V14.5H57.9623V15.6865H57.9916C58.5433 14.7734 59.3465 14.3169 60.4012 14.3169C62.0614 14.3169 62.8915 15.3472 62.8915 17.4077V22ZM72.2487 22H69.9343V20.9673H69.905C69.3776 21.7778 68.6037 22.1831 67.5832 22.1831C66.6457 22.1831 65.8913 21.8535 65.32 21.1943C64.7487 20.5303 64.4631 19.605 64.4631 18.4185C64.4631 17.1782 64.778 16.1846 65.4079 15.4375C66.0378 14.6904 66.863 14.3169 67.8835 14.3169C68.8503 14.3169 69.5241 14.6636 69.905 15.3569H69.9343V10.8965H72.2487V22ZM69.9782 18.3525V17.7886C69.9782 17.3003 69.8366 16.895 69.5534 16.5728C69.2702 16.2505 68.9015 16.0894 68.4474 16.0894C67.9347 16.0894 67.5344 16.292 67.2463 16.6973C66.9582 17.0977 66.8141 17.6494 66.8141 18.3525C66.8141 19.0117 66.9533 19.5195 67.2316 19.876C67.5099 20.2324 67.8957 20.4106 68.3888 20.4106C68.8576 20.4106 69.2385 20.2227 69.5314 19.8467C69.8293 19.4707 69.9782 18.9727 69.9782 18.3525ZM79.2695 16.5874C78.9912 16.436 78.6665 16.3604 78.2954 16.3604C77.7925 16.3604 77.3994 16.5459 77.1162 16.917C76.833 17.2832 76.6914 17.7837 76.6914 18.4185V22H74.377V14.5H76.6914V15.8916H76.7207C77.0869 14.876 77.7461 14.3682 78.6982 14.3682C78.9424 14.3682 79.1328 14.3975 79.2695 14.4561V16.5874ZM84.0491 22.1831C82.7991 22.1831 81.8153 21.834 81.0975 21.1357C80.3846 20.4326 80.0281 19.4805 80.0281 18.2793C80.0281 17.0391 80.3992 16.0698 81.1414 15.3716C81.8836 14.6685 82.887 14.3169 84.1517 14.3169C85.3968 14.3169 86.3734 14.6685 87.0814 15.3716C87.7894 16.0698 88.1434 16.9951 88.1434 18.1475C88.1434 19.3926 87.7772 20.3765 87.0447 21.0991C86.3172 21.8218 85.3187 22.1831 84.0491 22.1831ZM84.1077 16.0894C83.5609 16.0894 83.1361 16.2773 82.8333 16.6533C82.5306 17.0293 82.3792 17.5615 82.3792 18.25C82.3792 19.6904 82.9603 20.4106 84.1224 20.4106C85.2308 20.4106 85.785 19.6709 85.785 18.1914C85.785 16.79 85.2259 16.0894 84.1077 16.0894ZM90.9967 13.3135C90.6061 13.3135 90.2863 13.1987 90.0372 12.9692C89.7882 12.7349 89.6637 12.4492 89.6637 12.1123C89.6637 11.7656 89.7882 11.4824 90.0372 11.2627C90.2863 11.043 90.6061 10.9331 90.9967 10.9331C91.3922 10.9331 91.7121 11.043 91.9562 11.2627C92.2052 11.4824 92.3297 11.7656 92.3297 12.1123C92.3297 12.4639 92.2052 12.752 91.9562 12.9766C91.7121 13.2012 91.3922 13.3135 90.9967 13.3135ZM92.1393 22H89.8248V14.5H92.1393V22ZM101.606 22H99.292V20.9673H99.2627C98.7353 21.7778 97.9614 22.1831 96.9409 22.1831C96.0034 22.1831 95.249 21.8535 94.6777 21.1943C94.1064 20.5303 93.8208 19.605 93.8208 18.4185C93.8208 17.1782 94.1357 16.1846 94.7656 15.4375C95.3955 14.6904 96.2207 14.3169 97.2412 14.3169C98.208 14.3169 98.8818 14.6636 99.2627 15.3569H99.292V10.8965H101.606V22ZM99.3359 18.3525V17.7886C99.3359 17.3003 99.1943 16.895 98.9111 16.5728C98.6279 16.2505 98.2592 16.0894 97.8051 16.0894C97.2924 16.0894 96.8921 16.292 96.604 16.6973C96.3159 17.0977 96.1718 17.6494 96.1718 18.3525C96.1718 19.0117 96.311 19.5195 96.5893 19.876C96.8676 20.2324 97.2534 20.4106 97.7465 20.4106C98.2153 20.4106 98.5962 20.2227 98.8891 19.8467C99.187 19.4707 99.3359 18.9727 99.3359 18.3525Z" fill="white"/>
<path d="M110 0H5C2.23858 0 0 2.23858 0 5V27C0 29.7614 2.23857 32 5 32H110C112.761 32 115 29.7614 115 27V5C115 2.23858 112.761 0 110 0Z" fill="url(#paint0_linear_4_9)"/>
<defs>
<linearGradient id="paint0_linear_4_9" x1="0" y1="0" x2="0" y2="32" gradientUnits="userSpaceOnUse">
<stop stop-color="#BBBBBB" stop-opacity="0.1"/>
<stop offset="1" stop-opacity="0.1"/>
</linearGradient>
</defs>
</svg>
