<svg width="81" height="32" viewBox="0 0 81 32" fill="none" xmlns="http://www.w3.org/2000/svg">
<path d="M76 0H31V32H76C78.7614 32 81 29.7614 81 27V5C81 2.23858 78.7614 0 76 0Z" fill="#0F1418"/>
<path d="M31 0H5C2.23858 0 0 2.23858 0 5V27C0 29.7614 2.23858 32 5 32H31V0Z" fill="white"/>
<path d="M24.3781 12.5005C24.2502 12.5996 21.9922 13.8691 21.9922 16.692C21.9922 19.9571 24.8654 21.1122 24.9514 21.1408C24.9381 21.2112 24.4949 22.7228 23.4365 24.2629C22.4927 25.6183 21.5071 26.9714 20.0076 26.9714C18.5082 26.9714 18.1223 26.1023 16.3913 26.1023C14.7045 26.1023 14.1047 27 12.7331 27C11.3616 27 10.4046 25.7459 9.30428 24.2057C8.02976 22.3971 7 19.5875 7 16.9208C7 12.6436 9.78719 10.3751 12.5303 10.3751C13.9878 10.3751 15.2028 11.33 16.1179 11.33C16.9889 11.33 18.3472 10.3179 20.0054 10.3179C20.6339 10.3179 22.8918 10.3751 24.3781 12.5005ZM19.2182 8.50715C19.904 7.69527 20.3891 6.56876 20.3891 5.44224C20.3891 5.28603 20.3759 5.12761 20.3472 5C19.2315 5.0418 17.904 5.74147 17.1036 6.66777C16.4751 7.38064 15.8886 8.50715 15.8886 9.64906C15.8886 9.82068 15.9172 9.9923 15.9305 10.0473C16.001 10.0605 16.1157 10.0759 16.2304 10.0759C17.2315 10.0759 18.4906 9.40704 19.2182 8.50715Z" fill="black"/>
<path d="M45.4123 13.3135C45.0217 13.3135 44.7018 13.1987 44.4528 12.9692C44.2038 12.7349 44.0793 12.4492 44.0793 12.1123C44.0793 11.7656 44.2038 11.4824 44.4528 11.2627C44.7018 11.043 45.0217 10.9331 45.4123 10.9331C45.8078 10.9331 46.1276 11.043 46.3718 11.2627C46.6208 11.4824 46.7453 11.7656 46.7453 12.1123C46.7453 12.4639 46.6208 12.752 46.3718 12.9766C46.1276 13.2012 45.8078 13.3135 45.4123 13.3135ZM46.5549 22H44.2404V14.5H46.5549V22ZM53.6123 22.1831C52.1084 22.1831 50.8828 21.6948 49.9355 20.7183C48.9883 19.7368 48.5146 18.46 48.5146 16.8877C48.5146 15.2275 48.9956 13.8848 49.9575 12.8594C50.9194 11.834 52.1938 11.3213 53.7808 11.3213C55.2798 11.3213 56.4907 11.812 57.4136 12.7935C58.3413 13.7749 58.8052 15.0688 58.8052 16.6753C58.8052 18.3257 58.3242 19.6562 57.3623 20.667C56.4053 21.6777 55.1553 22.1831 53.6123 22.1831ZM53.7148 13.3574C52.8848 13.3574 52.2256 13.6699 51.7373 14.2949C51.249 14.915 51.0049 15.7378 51.0049 16.7632C51.0049 17.8032 51.249 18.626 51.7373 19.2314C52.2256 19.8369 52.8652 20.1396 53.6562 20.1396C54.4717 20.1396 55.1187 19.8467 55.5972 19.2607C56.0757 18.6699 56.3149 17.8521 56.3149 16.8071C56.3149 15.7183 56.083 14.8711 55.6191 14.2656C55.1553 13.6602 54.5205 13.3574 53.7148 13.3574ZM60.7796 21.5972V19.2534C61.2044 19.6099 61.6658 19.8784 62.1639 20.0591C62.6619 20.2349 63.1649 20.3228 63.6727 20.3228C63.9705 20.3228 64.2293 20.2959 64.449 20.2422C64.6737 20.1885 64.8592 20.1152 65.0057 20.0225C65.1571 19.9248 65.2694 19.8125 65.3426 19.6855C65.4158 19.5537 65.4525 19.4121 65.4525 19.2607C65.4525 19.0557 65.3939 18.8726 65.2767 18.7114C65.1595 18.5503 64.9984 18.4014 64.7933 18.2646C64.5931 18.1279 64.3538 17.9961 64.0755 17.8691C63.7972 17.7422 63.4969 17.6128 63.1746 17.481C62.3543 17.1392 61.7415 16.7217 61.3363 16.2285C60.9359 15.7354 60.7357 15.1396 60.7357 14.4414C60.7357 13.8945 60.8455 13.4258 61.0653 13.0352C61.285 12.6396 61.5828 12.3149 61.9588 12.061C62.3397 11.8071 62.7791 11.6216 63.2772 11.5044C63.7752 11.3823 64.3026 11.3213 64.8592 11.3213C65.4061 11.3213 65.8895 11.3555 66.3094 11.4238C66.7342 11.4873 67.1248 11.5874 67.4813 11.7241V13.9141C67.3055 13.792 67.1126 13.6846 66.9027 13.5918C66.6976 13.499 66.4852 13.4233 66.2654 13.3647C66.0457 13.3013 65.826 13.2549 65.6063 13.2256C65.3914 13.1963 65.1863 13.1816 64.991 13.1816C64.7225 13.1816 64.4783 13.2085 64.2586 13.2622C64.0389 13.311 63.8533 13.3818 63.702 13.4746C63.5506 13.5674 63.4334 13.6797 63.3504 13.8115C63.2674 13.9385 63.2259 14.0825 63.2259 14.2437C63.2259 14.4194 63.2723 14.5781 63.3651 14.7197C63.4578 14.8564 63.5897 14.9883 63.7606 15.1152C63.9315 15.2373 64.139 15.3594 64.3831 15.4814C64.6273 15.5986 64.9031 15.7207 65.2108 15.8477C65.6307 16.0234 66.0067 16.2114 66.3387 16.4116C66.6756 16.6069 66.9637 16.8291 67.2029 17.0781C67.4422 17.3271 67.6253 17.6128 67.7523 17.9351C67.8792 18.2524 67.9427 18.6235 67.9427 19.0483C67.9427 19.6343 67.8304 20.1274 67.6058 20.5278C67.3861 20.9233 67.0858 21.2456 66.7049 21.4946C66.324 21.7388 65.8797 21.9146 65.3719 22.022C64.869 22.1294 64.3367 22.1831 63.7752 22.1831C63.199 22.1831 62.6497 22.1343 62.1273 22.0366C61.6097 21.939 61.1605 21.7925 60.7796 21.5972Z" fill="white"/>
<path d="M76 0H5C2.23858 0 0 2.23858 0 5V27C0 29.7614 2.23858 32 5 32H76C78.7614 32 81 29.7614 81 27V5C81 2.23858 78.7614 0 76 0Z" fill="url(#paint0_linear_4_62)"/>
<defs>
<linearGradient id="paint0_linear_4_62" x1="0" y1="0" x2="0" y2="32" gradientUnits="userSpaceOnUse">
<stop stop-color="#BBBBBB" stop-opacity="0.1"/>
<stop offset="1" stop-opacity="0.1"/>
</linearGradient>
</defs>
</svg>
