<svg width="106" height="32" viewBox="0 0 106 32" fill="none" xmlns="http://www.w3.org/2000/svg">
<path d="M101 0H31V32H101C103.761 32 106 29.7614 106 27V5C106 2.23858 103.761 0 101 0Z" fill="#0F1418"/>
<path d="M31 0H5C2.23858 0 0 2.23858 0 5V27C0 29.7614 2.23858 32 5 32H31V0Z" fill="white"/>
<path d="M24.3781 12.5005C24.2502 12.5996 21.9922 13.8691 21.9922 16.692C21.9922 19.9571 24.8654 21.1122 24.9514 21.1408C24.9381 21.2112 24.4949 22.7228 23.4365 24.2629C22.4927 25.6183 21.5071 26.9714 20.0076 26.9714C18.5082 26.9714 18.1223 26.1023 16.3913 26.1023C14.7045 26.1023 14.1047 27 12.7331 27C11.3616 27 10.4046 25.7459 9.30428 24.2057C8.02976 22.3971 7 19.5875 7 16.9208C7 12.6436 9.78719 10.3751 12.5303 10.3751C13.9878 10.3751 15.2028 11.33 16.1179 11.33C16.9889 11.33 18.3472 10.3179 20.0054 10.3179C20.6339 10.3179 22.8918 10.3751 24.3781 12.5005ZM19.2182 8.50715C19.904 7.69527 20.3891 6.56876 20.3891 5.44224C20.3891 5.28603 20.3759 5.12761 20.3472 5C19.2315 5.0418 17.904 5.74147 17.1036 6.66777C16.4751 7.38064 15.8886 8.50715 15.8886 9.64906C15.8886 9.82068 15.9172 9.9923 15.9305 10.0473C16.001 10.0605 16.1157 10.0759 16.2304 10.0759C17.2315 10.0759 18.4906 9.40704 19.2182 8.50715Z" fill="black"/>
<path d="M56.0917 22H53.7845V17.7227C53.7845 16.6338 53.3841 16.0894 52.5834 16.0894C52.2025 16.0894 51.8924 16.2529 51.6532 16.5801C51.4139 16.9072 51.2943 17.3149 51.2943 17.8032V22H48.9798V17.6787C48.9798 16.6191 48.5868 16.0894 47.8006 16.0894C47.4051 16.0894 47.0878 16.2456 46.8485 16.5581C46.6141 16.8706 46.4969 17.2954 46.4969 17.8325V22H44.1825V14.5H46.4969V15.6719H46.5262C46.7655 15.2715 47.1 14.9468 47.5296 14.6978C47.9642 14.4438 48.4379 14.3169 48.9505 14.3169C50.0101 14.3169 50.7352 14.7832 51.1258 15.7158C51.6971 14.7832 52.537 14.3169 53.6454 14.3169C55.2762 14.3169 56.0917 15.3228 56.0917 17.3345V22ZM64.3429 22H62.153V20.9233H62.1237C61.6208 21.7632 60.8762 22.1831 59.8898 22.1831C59.1623 22.1831 58.5886 21.978 58.1686 21.5679C57.7536 21.1528 57.5461 20.6011 57.5461 19.9126C57.5461 18.4575 58.4079 17.6177 60.1315 17.3931L62.1677 17.1221C62.1677 16.3018 61.7233 15.8916 60.8346 15.8916C59.9411 15.8916 59.0915 16.1577 58.2858 16.6899V14.9468C58.6081 14.7808 59.0475 14.6343 59.6042 14.5073C60.1657 14.3804 60.676 14.3169 61.1349 14.3169C63.2736 14.3169 64.3429 15.3838 64.3429 17.5176V22ZM62.1677 18.9531V18.4478L60.8054 18.6235C60.0534 18.7212 59.6774 19.0605 59.6774 19.6416C59.6774 19.9053 59.7678 20.1226 59.9484 20.2935C60.134 20.4595 60.383 20.5425 60.6955 20.5425C61.1301 20.5425 61.4841 20.3936 61.7575 20.0957C62.0309 19.793 62.1677 19.4121 62.1677 18.9531ZM72.0376 21.729C71.5151 22.0317 70.7607 22.1831 69.7744 22.1831C68.6221 22.1831 67.6895 21.834 66.9766 21.1357C66.2637 20.4375 65.9072 19.5366 65.9072 18.4331C65.9072 17.1587 66.2881 16.1553 67.0498 15.4229C67.8164 14.6855 68.8394 14.3169 70.1187 14.3169C71.0024 14.3169 71.6421 14.4341 72.0376 14.6685V16.6313C71.5542 16.27 71.0146 16.0894 70.4189 16.0894C69.7549 16.0894 69.2275 16.2847 68.8369 16.6753C68.4512 17.061 68.2583 17.5957 68.2583 18.2793C68.2583 18.9434 68.4438 19.4658 68.8149 19.8467C69.186 20.2227 69.6963 20.4106 70.3457 20.4106C70.9219 20.4106 71.4858 20.23 72.0376 19.8687V21.729ZM78.6702 22.1831C77.1663 22.1831 75.9407 21.6948 74.9935 20.7183C74.0462 19.7368 73.5726 18.46 73.5726 16.8877C73.5726 15.2275 74.0535 13.8848 75.0154 12.8594C75.9774 11.834 77.2518 11.3213 78.8387 11.3213C80.3377 11.3213 81.5487 11.812 82.4715 12.7935C83.3992 13.7749 83.8631 15.0688 83.8631 16.6753C83.8631 18.3257 83.3821 19.6562 82.4202 20.667C81.4632 21.6777 80.2132 22.1831 78.6702 22.1831ZM78.7728 13.3574C77.9427 13.3574 77.2835 13.6699 76.7952 14.2949C76.307 14.915 76.0628 15.7378 76.0628 16.7632C76.0628 17.8032 76.307 18.626 76.7952 19.2314C77.2835 19.8369 77.9232 20.1396 78.7142 20.1396C79.5296 20.1396 80.1766 19.8467 80.6551 19.2607C81.1336 18.6699 81.3729 17.8521 81.3729 16.8071C81.3729 15.7183 81.1409 14.8711 80.6771 14.2656C80.2132 13.6602 79.5784 13.3574 78.7728 13.3574ZM85.8375 21.5972V19.2534C86.2623 19.6099 86.7238 19.8784 87.2218 20.0591C87.7199 20.2349 88.2228 20.3228 88.7306 20.3228C89.0285 20.3228 89.2872 20.2959 89.507 20.2422C89.7316 20.1885 89.9171 20.1152 90.0636 20.0225C90.215 19.9248 90.3273 19.8125 90.4005 19.6855C90.4738 19.5537 90.5104 19.4121 90.5104 19.2607C90.5104 19.0557 90.4518 18.8726 90.3346 18.7114C90.2174 18.5503 90.0563 18.4014 89.8512 18.2646C89.651 18.1279 89.4118 17.9961 89.1334 17.8691C88.8551 17.7422 88.5548 17.6128 88.2326 17.481C87.4122 17.1392 86.7995 16.7217 86.3942 16.2285C85.9938 15.7354 85.7936 15.1396 85.7936 14.4414C85.7936 13.8945 85.9035 13.4258 86.1232 13.0352C86.3429 12.6396 86.6408 12.3149 87.0167 12.061C87.3976 11.8071 87.8371 11.6216 88.3351 11.5044C88.8331 11.3823 89.3605 11.3213 89.9171 11.3213C90.464 11.3213 90.9474 11.3555 91.3673 11.4238C91.7921 11.4873 92.1828 11.5874 92.5392 11.7241V13.9141C92.3634 13.792 92.1705 13.6846 91.9606 13.5918C91.7555 13.499 91.5431 13.4233 91.3234 13.3647C91.1037 13.3013 90.8839 13.2549 90.6642 13.2256C90.4494 13.1963 90.2443 13.1816 90.049 13.1816C89.7804 13.1816 89.5363 13.2085 89.3165 13.2622C89.0968 13.311 88.9113 13.3818 88.7599 13.4746C88.6085 13.5674 88.4913 13.6797 88.4083 13.8115C88.3253 13.9385 88.2838 14.0825 88.2838 14.2437C88.2838 14.4194 88.3302 14.5781 88.423 14.7197C88.5158 14.8564 88.6476 14.9883 88.8185 15.1152C88.9894 15.2373 89.1969 15.3594 89.4411 15.4814C89.6852 15.5986 89.9611 15.7207 90.2687 15.8477C90.6886 16.0234 91.0646 16.2114 91.3966 16.4116C91.7335 16.6069 92.0216 16.8291 92.2609 17.0781C92.5001 17.3271 92.6832 17.6128 92.8102 17.9351C92.9371 18.2524 93.0006 18.6235 93.0006 19.0483C93.0006 19.6343 92.8883 20.1274 92.6637 20.5278C92.444 20.9233 92.1437 21.2456 91.7628 21.4946C91.382 21.7388 90.9376 21.9146 90.4298 22.022C89.9269 22.1294 89.3947 22.1831 88.8331 22.1831C88.257 22.1831 87.7077 22.1343 87.1852 22.0366C86.6676 21.939 86.2184 21.7925 85.8375 21.5972Z" fill="white"/>
<path d="M101 0H5C2.23858 0 0 2.23858 0 5V27C0 29.7614 2.23858 32 5 32H101C103.761 32 106 29.7614 106 27V5C106 2.23858 103.761 0 101 0Z" fill="url(#paint0_linear_4_55)"/>
<defs>
<linearGradient id="paint0_linear_4_55" x1="0" y1="0" x2="0" y2="32" gradientUnits="userSpaceOnUse">
<stop stop-color="#BBBBBB" stop-opacity="0.1"/>
<stop offset="1" stop-opacity="0.1"/>
</linearGradient>
</defs>
</svg>
