<svg width="110" height="32" viewBox="0 0 110 32" fill="none" xmlns="http://www.w3.org/2000/svg">
<path d="M105 0H31V32H105C107.761 32 110 29.7614 110 27V5C110 2.23858 107.761 0 105 0Z" fill="#0F1418"/>
<path d="M31 0H5C2.23858 0 0 2.23858 0 5V27C0 29.7614 2.23858 32 5 32H31V0Z" fill="#E95420"/>
<path d="M7.45278 18.4898C9.25359 18.4898 10.7134 17.03 10.7134 15.2292C10.7134 13.4283 9.25359 11.9685 7.45278 11.9685C5.65198 11.9685 4.19214 13.4283 4.19214 15.2292C4.19214 17.03 5.65198 18.4898 7.45278 18.4898Z" fill="white"/>
<path d="M21.0345 11.3397C22.8353 11.3397 24.2952 9.87981 24.2952 8.07901C24.2952 6.2782 22.8353 4.81836 21.0345 4.81836C19.2337 4.81836 17.7739 6.2782 17.7739 8.07901C17.7739 9.87981 19.2337 11.3397 21.0345 11.3397Z" fill="white"/>
<path d="M14.8077 23.6221C12.4592 23.1192 10.4951 21.618 9.39202 19.4917C8.52226 19.8873 7.54519 20.0083 6.60431 19.8349C7.93951 23.1142 10.7721 25.4964 14.2474 26.2413C15.0099 26.4048 15.7885 26.4847 16.5634 26.4797C15.9645 25.6923 15.6313 24.7427 15.6088 23.7531C15.3405 23.7232 15.0723 23.6795 14.809 23.6233L14.8077 23.6221Z" fill="white"/>
<path d="M20.2995 26.9014C22.1003 26.9014 23.5601 25.4416 23.5601 23.6408C23.5601 21.84 22.1003 20.3801 20.2995 20.3801C18.4987 20.3801 17.0388 21.84 17.0388 23.6408C17.0388 25.4416 18.4987 26.9014 20.2995 26.9014Z" fill="white"/>
<path d="M24.8367 22.443C25.8512 21.1652 26.565 19.6541 26.9094 18.0469C27.5096 15.2467 26.9493 12.308 25.372 9.92456C24.9964 10.8093 24.3587 11.558 23.5377 12.0721C24.4174 13.7305 24.6857 15.6447 24.2914 17.4866C24.0979 18.3875 23.7573 19.2373 23.2769 20.0135C24.0443 20.6424 24.5859 21.4897 24.8379 22.443H24.8367Z" fill="white"/>
<path d="M7.20074 10.5533C7.2831 10.5483 7.36671 10.5471 7.44907 10.5471C7.7785 10.5471 8.10794 10.582 8.43363 10.6519C8.96521 10.7655 9.4656 10.9676 9.92232 11.2509C11.391 9.13952 13.7595 7.8717 16.3263 7.82552C16.34 7.5797 16.3725 7.33262 16.4249 7.09179C16.5746 6.39299 16.8804 5.74036 17.3159 5.18132C13.2154 4.85688 9.22976 6.97324 7.20074 10.5533Z" fill="white"/>
<path d="M53.1896 17.4517C53.1896 20.606 51.7199 22.1831 48.7805 22.1831C45.9289 22.1831 44.5031 20.6426 44.5031 17.5615V11.4971H46.8762V17.5908C46.8762 19.29 47.5402 20.1396 48.8684 20.1396C50.1721 20.1396 50.8239 19.3193 50.8239 17.6787V11.4971H53.1896V17.4517ZM58.0425 21.1284H58.0132V22H55.6987V10.8965H58.0132V15.6279H58.0425C58.6138 14.7539 59.4268 14.3169 60.4815 14.3169C61.4483 14.3169 62.1929 14.6489 62.7154 15.313C63.2378 15.9771 63.499 16.8853 63.499 18.0376C63.499 19.2876 63.1939 20.291 62.5835 21.0479C61.9732 21.8047 61.1577 22.1831 60.1372 22.1831C59.2144 22.1831 58.5161 21.8315 58.0425 21.1284ZM57.9766 17.9644V18.7334C57.9766 19.2168 58.1157 19.6172 58.3941 19.9346C58.6724 20.252 59.0288 20.4106 59.4634 20.4106C59.9907 20.4106 60.3985 20.208 60.6865 19.8027C60.9795 19.3926 61.126 18.814 61.126 18.0669C61.126 17.4468 60.9917 16.9634 60.7232 16.6167C60.4595 16.2651 60.0811 16.0894 59.5879 16.0894C59.124 16.0894 58.7383 16.2627 58.4307 16.6094C58.1279 16.9561 57.9766 17.4077 57.9766 17.9644ZM72.307 22H69.9998V20.8574H69.9632C69.3919 21.7412 68.6278 22.1831 67.6707 22.1831C65.9325 22.1831 65.0633 21.1309 65.0633 19.0264V14.5H67.3704V18.8213C67.3704 19.8809 67.7904 20.4106 68.6302 20.4106C69.0453 20.4106 69.3773 20.2666 69.6263 19.9785C69.8753 19.6855 69.9998 19.29 69.9998 18.792V14.5H72.307V22ZM81.6862 22H79.3791V17.8325C79.3791 16.6704 78.964 16.0894 78.1339 16.0894C77.7336 16.0894 77.404 16.2432 77.1452 16.5508C76.8864 16.8584 76.757 17.249 76.757 17.7227V22H74.4425V14.5H76.757V15.6865H76.7863C77.338 14.7734 78.1413 14.3169 79.196 14.3169C80.8561 14.3169 81.6862 15.3472 81.6862 17.4077V22ZM88.2383 21.9121C87.8965 22.0928 87.3813 22.1831 86.6929 22.1831C85.062 22.1831 84.2466 21.3359 84.2466 19.6416V16.2065H83.0307V14.5H84.2466V12.8813L86.5537 12.2222V14.5H88.2383V16.2065H86.5537V19.2388C86.5537 20.02 86.8638 20.4106 87.4839 20.4106C87.728 20.4106 87.9795 20.3398 88.2383 20.1982V21.9121ZM96.8558 22H94.5486V20.8574H94.512C93.9407 21.7412 93.1766 22.1831 92.2195 22.1831C90.4813 22.1831 89.6121 21.1309 89.6121 19.0264V14.5H91.9192V18.8213C91.9192 19.8809 92.3392 20.4106 93.179 20.4106C93.594 20.4106 93.9261 20.2666 94.1751 19.9785C94.4241 19.6855 94.5486 19.29 94.5486 18.792V14.5H96.8558V22Z" fill="white"/>
<path d="M105 0H5C2.23858 0 0 2.23858 0 5V27C0 29.7614 2.23858 32 5 32H105C107.761 32 110 29.7614 110 27V5C110 2.23858 107.761 0 105 0Z" fill="url(#paint0_linear_4_2)"/>
<defs>
<linearGradient id="paint0_linear_4_2" x1="0" y1="0" x2="0" y2="32" gradientUnits="userSpaceOnUse">
<stop stop-color="#BBBBBB" stop-opacity="0.1"/>
<stop offset="1" stop-opacity="0.1"/>
</linearGradient>
</defs>
</svg>
