<svg width="144" height="32" viewBox="0 0 144 32" fill="none" xmlns="http://www.w3.org/2000/svg">
<path d="M139 0H31V32H139C141.761 32 144 29.7614 144 27V5C144 2.23858 141.761 0 139 0Z" fill="#0F1418"/>
<path d="M31 0H5C2.23858 0 0 2.23858 0 5V27C0 29.7614 2.23858 32 5 32H31V0Z" fill="#00ADEF"/>
<path d="M5 8.11484L13.963 6.89422L13.967 15.5398L5.00829 15.5907L5 8.11484ZM13.9587 16.5358L13.9658 25.1889L5.00703 23.9572L5.00653 16.4778L13.9587 16.5358ZM15.0452 6.73448L26.9294 5V15.4298L15.0452 15.5242V6.73448ZM26.9322 16.6172L26.9294 27L15.0452 25.3228L15.0287 16.5979L26.9322 16.6172Z" fill="white"/>
<path d="M58.2061 11.4971L55.4302 22H52.8082L51.065 15.2617C50.9722 14.9102 50.9161 14.5171 50.8965 14.0825H50.8672C50.8233 14.561 50.7598 14.9541 50.6768 15.2617L48.8897 22H46.1578L43.3965 11.4971H45.982L47.4615 18.4917C47.525 18.7896 47.5713 19.1899 47.6006 19.6929H47.6446C47.6641 19.3169 47.7349 18.9067 47.857 18.4624L49.7613 11.4971H52.2955L54.0167 18.5503C54.0801 18.8091 54.1363 19.1851 54.1851 19.6782H54.2144C54.2339 19.2925 54.2852 18.9019 54.3682 18.5063L55.8184 11.4971H58.2061ZM60.9276 13.3135C60.537 13.3135 60.2172 13.1987 59.9681 12.9692C59.7191 12.7349 59.5946 12.4492 59.5946 12.1123C59.5946 11.7656 59.7191 11.4824 59.9681 11.2627C60.2172 11.043 60.537 10.9331 60.9276 10.9331C61.3231 10.9331 61.6429 11.043 61.8871 11.2627C62.1361 11.4824 62.2606 11.7656 62.2606 12.1123C62.2606 12.4639 62.1361 12.752 61.8871 12.9766C61.6429 13.2012 61.3231 13.3135 60.9276 13.3135ZM62.0702 22H59.7557V14.5H62.0702V22ZM71.4421 22H69.135V17.8325C69.135 16.6704 68.7199 16.0894 67.8898 16.0894C67.4895 16.0894 67.1599 16.2432 66.9011 16.5508C66.6423 16.8584 66.5129 17.249 66.5129 17.7227V22H64.1984V14.5H66.5129V15.6865H66.5422C67.0939 14.7734 67.8972 14.3169 68.9519 14.3169C70.612 14.3169 71.4421 15.3472 71.4421 17.4077V22ZM80.7993 22H78.4849V20.9673H78.4556C77.9282 21.7778 77.1543 22.1831 76.1338 22.1831C75.1963 22.1831 74.4419 21.8535 73.8706 21.1943C73.2993 20.5303 73.0137 19.605 73.0137 18.4185C73.0137 17.1782 73.3286 16.1846 73.9585 15.4375C74.5884 14.6904 75.4136 14.3169 76.4341 14.3169C77.4009 14.3169 78.0747 14.6636 78.4556 15.3569H78.4849V10.8965H80.7993V22ZM78.5288 18.3525V17.7886C78.5288 17.3003 78.3872 16.895 78.104 16.5728C77.8208 16.2505 77.4522 16.0894 76.9981 16.0894C76.4854 16.0894 76.085 16.292 75.7969 16.6973C75.5088 17.0977 75.3648 17.6494 75.3648 18.3525C75.3648 19.0117 75.5039 19.5195 75.7822 19.876C76.0606 20.2324 76.4463 20.4106 76.9395 20.4106C77.4082 20.4106 77.7891 20.2227 78.0821 19.8467C78.3799 19.4707 78.5288 18.9727 78.5288 18.3525ZM86.5018 22.1831C85.2518 22.1831 84.2679 21.834 83.5501 21.1357C82.8372 20.4326 82.4808 19.4805 82.4808 18.2793C82.4808 17.0391 82.8519 16.0698 83.5941 15.3716C84.3363 14.6685 85.3397 14.3169 86.6043 14.3169C87.8495 14.3169 88.826 14.6685 89.534 15.3716C90.242 16.0698 90.596 16.9951 90.596 18.1475C90.596 19.3926 90.2298 20.3765 89.4974 21.0991C88.7699 21.8218 87.7713 22.1831 86.5018 22.1831ZM86.5604 16.0894C86.0135 16.0894 85.5887 16.2773 85.286 16.6533C84.9832 17.0293 84.8319 17.5615 84.8319 18.25C84.8319 19.6904 85.4129 20.4106 86.575 20.4106C87.6834 20.4106 88.2376 19.6709 88.2376 18.1914C88.2376 16.79 87.6786 16.0894 86.5604 16.0894ZM103.139 14.5L100.979 22H98.547L97.4411 17.6055C97.3678 17.3125 97.3263 16.9927 97.3166 16.646H97.2726C97.2384 17.0269 97.1896 17.3369 97.1261 17.5762L95.9396 22H93.5373L91.4206 14.5H93.779L94.8117 19.3926C94.8605 19.6221 94.8971 19.9004 94.9215 20.2275H94.9655C94.9899 19.8857 95.0338 19.5977 95.0973 19.3633L96.3864 14.5H98.591L99.7482 19.3926C99.7775 19.5146 99.8117 19.7979 99.8507 20.2422H99.902C99.9264 19.959 99.9655 19.6758 100.019 19.3926L100.993 14.5H103.139ZM103.935 21.8022V19.9272C104.315 20.1567 104.694 20.3276 105.07 20.4399C105.451 20.5522 105.81 20.6084 106.146 20.6084C106.557 20.6084 106.879 20.5522 107.113 20.4399C107.353 20.3276 107.472 20.1567 107.472 19.9272C107.472 19.7808 107.418 19.6587 107.311 19.561C107.204 19.4634 107.064 19.3779 106.894 19.3047C106.728 19.2314 106.544 19.1655 106.344 19.1069C106.144 19.0483 105.951 18.9824 105.766 18.9092C105.468 18.7969 105.204 18.6772 104.975 18.5503C104.75 18.4185 104.56 18.2671 104.403 18.0962C104.252 17.9253 104.135 17.7275 104.052 17.5029C103.974 17.2783 103.935 17.0122 103.935 16.7046C103.935 16.2847 104.025 15.9233 104.206 15.6206C104.391 15.3179 104.635 15.0713 104.938 14.8809C105.246 14.6855 105.595 14.5439 105.985 14.4561C106.381 14.3633 106.791 14.3169 107.216 14.3169C107.548 14.3169 107.885 14.3438 108.227 14.3975C108.568 14.4463 108.905 14.5195 109.237 14.6172V16.4043C108.944 16.2334 108.629 16.1064 108.292 16.0234C107.96 15.9355 107.633 15.8916 107.311 15.8916C107.16 15.8916 107.016 15.9062 106.879 15.9355C106.747 15.96 106.63 15.999 106.527 16.0527C106.425 16.1016 106.344 16.1675 106.286 16.2505C106.227 16.3286 106.198 16.4189 106.198 16.5215C106.198 16.6582 106.242 16.7754 106.33 16.873C106.417 16.9707 106.532 17.0562 106.674 17.1294C106.815 17.1978 106.972 17.2612 107.143 17.3198C107.318 17.3735 107.492 17.4297 107.663 17.4883C107.97 17.5957 108.249 17.7129 108.498 17.8398C108.747 17.9668 108.959 18.1157 109.135 18.2866C109.315 18.4575 109.452 18.6577 109.545 18.8872C109.643 19.1167 109.691 19.3901 109.691 19.7075C109.691 20.1519 109.594 20.5327 109.398 20.8501C109.208 21.1626 108.952 21.4189 108.629 21.6191C108.312 21.8145 107.943 21.9561 107.523 22.0439C107.108 22.1367 106.676 22.1831 106.227 22.1831C105.402 22.1831 104.638 22.0562 103.935 21.8022ZM120.657 11.2627V22H118.35V13.8701C118.223 13.9824 118.071 14.0898 117.896 14.1924C117.725 14.29 117.542 14.3804 117.346 14.4634C117.151 14.5415 116.948 14.6099 116.738 14.6685C116.528 14.7222 116.321 14.7612 116.116 14.7856V12.8374C116.716 12.6616 117.283 12.437 117.815 12.1636C118.347 11.8901 118.828 11.5898 119.258 11.2627H120.657ZM127.626 22.1831C125.126 22.1831 123.876 20.4277 123.876 16.917C123.876 15.0957 124.213 13.709 124.887 12.7568C125.566 11.7998 126.547 11.3213 127.831 11.3213C130.273 11.3213 131.494 13.106 131.494 16.6753C131.494 18.4526 131.159 19.8149 130.49 20.7622C129.826 21.7095 128.872 22.1831 127.626 22.1831ZM127.729 13.0864C126.728 13.0864 126.227 14.3438 126.227 16.8584C126.227 19.2266 126.718 20.4106 127.7 20.4106C128.657 20.4106 129.135 19.1899 129.135 16.7485C129.135 14.3071 128.666 13.0864 127.729 13.0864Z" fill="white"/>
<path d="M139 0H5C2.23858 0 0 2.23858 0 5V27C0 29.7614 2.23857 32 5 32H139C141.761 32 144 29.7614 144 27V5C144 2.23858 141.761 0 139 0Z" fill="url(#paint0_linear_3_958)"/>
<defs>
<linearGradient id="paint0_linear_3_958" x1="0" y1="0" x2="0" y2="32" gradientUnits="userSpaceOnUse">
<stop stop-color="#BBBBBB" stop-opacity="0.1"/>
<stop offset="1" stop-opacity="0.1"/>
</linearGradient>
</defs>
</svg>
