<svg width="136" height="32" viewBox="0 0 136 32" fill="none" xmlns="http://www.w3.org/2000/svg">
<path d="M131 0H31V32H131C133.761 32 136 29.7614 136 27V5C136 2.23858 133.761 0 131 0Z" fill="#0F1418"/>
<path d="M31 0H5C2.23858 0 0 2.23858 0 5V27C0 29.7614 2.23858 32 5 32H31V0Z" fill="#00B4F1"/>
<g clip-path="url(#clip0_1_4301)">
<path d="M28 7.91048C23.3412 9.83678 21.0823 8.75412 19.0776 7.4043L16.8188 15.3345C18.8376 16.6984 21.2659 17.8232 25.7412 15.8266L28.0423 7.91048H28Z" fill="white"/>
<path d="M12.8941 23.8692C10.8753 22.5194 8.65882 21.3946 4 23.3209L6.28706 15.3626C10.9459 13.4503 13.2047 14.533 15.2235 15.8969L12.8941 23.8692Z" fill="white"/>
<path d="M15.6047 14.4627C14.3485 13.4905 12.8179 12.9348 11.2282 12.8739C9.99999 12.8598 8.53175 13.2113 6.68234 13.9706L8.9694 6.04041C13.6423 4.1141 15.887 5.19677 17.9059 6.56065L15.6047 14.4627Z" fill="white"/>
<path d="M16.4235 16.6704C18.4565 18.0202 20.7012 19.1029 25.36 17.1766L23.0588 25.0787C18.4 27.005 16.1553 25.9223 14.1365 24.5584L16.4377 16.6704H16.4235Z" fill="white"/>
</g>
<path d="M58.6101 11.4971L55.8342 22H53.2121L51.469 15.2617C51.3762 14.9102 51.32 14.5171 51.3005 14.0825H51.2712C51.2273 14.561 51.1638 14.9541 51.0808 15.2617L49.2937 22H46.5617L43.8005 11.4971H46.386L47.8654 18.4917C47.9289 18.7896 47.9753 19.1899 48.0046 19.6929H48.0486C48.0681 19.3169 48.1389 18.9067 48.261 18.4624L50.1653 11.4971H52.6994L54.4206 18.5503C54.4841 18.8091 54.5403 19.1851 54.5891 19.6782H54.6184C54.6379 19.2925 54.6892 18.9019 54.7722 18.5063L56.2224 11.4971H58.6101ZM61.3316 13.3135C60.941 13.3135 60.6211 13.1987 60.3721 12.9692C60.1231 12.7349 59.9986 12.4492 59.9986 12.1123C59.9986 11.7656 60.1231 11.4824 60.3721 11.2627C60.6211 11.043 60.941 10.9331 61.3316 10.9331C61.7271 10.9331 62.0469 11.043 62.2911 11.2627C62.5401 11.4824 62.6646 11.7656 62.6646 12.1123C62.6646 12.4639 62.5401 12.752 62.2911 12.9766C62.0469 13.2012 61.7271 13.3135 61.3316 13.3135ZM62.4742 22H60.1597V14.5H62.4742V22ZM71.8461 22H69.5389V17.8325C69.5389 16.6704 69.1239 16.0894 68.2938 16.0894C67.8934 16.0894 67.5638 16.2432 67.305 16.5508C67.0462 16.8584 66.9169 17.249 66.9169 17.7227V22H64.6024V14.5H66.9169V15.6865H66.9462C67.4979 14.7734 68.3011 14.3169 69.3558 14.3169C71.016 14.3169 71.8461 15.3472 71.8461 17.4077V22ZM81.2033 22H78.8888V20.9673H78.8596C78.3322 21.7778 77.5583 22.1831 76.5378 22.1831C75.6003 22.1831 74.8459 21.8535 74.2746 21.1943C73.7033 20.5303 73.4177 19.605 73.4177 18.4185C73.4177 17.1782 73.7326 16.1846 74.3625 15.4375C74.9924 14.6904 75.8176 14.3169 76.8381 14.3169C77.8049 14.3169 78.4787 14.6636 78.8596 15.3569H78.8888V10.8965H81.2033V22ZM78.9328 18.3525V17.7886C78.9328 17.3003 78.7912 16.895 78.508 16.5728C78.2248 16.2505 77.8561 16.0894 77.402 16.0894C76.8893 16.0894 76.4889 16.292 76.2009 16.6973C75.9128 17.0977 75.7687 17.6494 75.7687 18.3525C75.7687 19.0117 75.9079 19.5195 76.1862 19.876C76.4645 20.2324 76.8503 20.4106 77.3434 20.4106C77.8122 20.4106 78.193 20.2227 78.486 19.8467C78.7839 19.4707 78.9328 18.9727 78.9328 18.3525ZM86.9058 22.1831C85.6558 22.1831 84.6719 21.834 83.9541 21.1357C83.2412 20.4326 82.8848 19.4805 82.8848 18.2793C82.8848 17.0391 83.2559 16.0698 83.998 15.3716C84.7402 14.6685 85.7437 14.3169 87.0083 14.3169C88.2534 14.3169 89.23 14.6685 89.938 15.3716C90.646 16.0698 91 16.9951 91 18.1475C91 19.3926 90.6338 20.3765 89.9014 21.0991C89.1738 21.8218 88.1753 22.1831 86.9058 22.1831ZM86.9644 16.0894C86.4175 16.0894 85.9927 16.2773 85.6899 16.6533C85.3872 17.0293 85.2358 17.5615 85.2358 18.25C85.2358 19.6904 85.8169 20.4106 86.979 20.4106C88.0874 20.4106 88.6416 19.6709 88.6416 18.1914C88.6416 16.79 88.0825 16.0894 86.9644 16.0894ZM103.543 14.5L101.383 22H98.951L97.845 17.6055C97.7718 17.3125 97.7303 16.9927 97.7205 16.646H97.6766C97.6424 17.0269 97.5936 17.3369 97.5301 17.5762L96.3436 22H93.9412L91.8245 14.5H94.1829L95.2156 19.3926C95.2645 19.6221 95.3011 19.9004 95.3255 20.2275H95.3695C95.3939 19.8857 95.4378 19.5977 95.5013 19.3633L96.7904 14.5H98.9949L100.152 19.3926C100.181 19.5146 100.216 19.7979 100.255 20.2422H100.306C100.33 19.959 100.369 19.6758 100.423 19.3926L101.397 14.5H103.543ZM104.339 21.8022V19.9272C104.719 20.1567 105.098 20.3276 105.474 20.4399C105.855 20.5522 106.214 20.6084 106.55 20.6084C106.961 20.6084 107.283 20.5522 107.517 20.4399C107.756 20.3276 107.876 20.1567 107.876 19.9272C107.876 19.7808 107.822 19.6587 107.715 19.561C107.608 19.4634 107.468 19.3779 107.298 19.3047C107.131 19.2314 106.948 19.1655 106.748 19.1069C106.548 19.0483 106.355 18.9824 106.17 18.9092C105.872 18.7969 105.608 18.6772 105.379 18.5503C105.154 18.4185 104.964 18.2671 104.807 18.0962C104.656 17.9253 104.539 17.7275 104.456 17.5029C104.378 17.2783 104.339 17.0122 104.339 16.7046C104.339 16.2847 104.429 15.9233 104.61 15.6206C104.795 15.3179 105.039 15.0713 105.342 14.8809C105.65 14.6855 105.999 14.5439 106.389 14.4561C106.785 14.3633 107.195 14.3169 107.62 14.3169C107.952 14.3169 108.289 14.3438 108.631 14.3975C108.972 14.4463 109.309 14.5195 109.641 14.6172V16.4043C109.348 16.2334 109.033 16.1064 108.696 16.0234C108.364 15.9355 108.037 15.8916 107.715 15.8916C107.564 15.8916 107.42 15.9062 107.283 15.9355C107.151 15.96 107.034 15.999 106.931 16.0527C106.829 16.1016 106.748 16.1675 106.69 16.2505C106.631 16.3286 106.602 16.4189 106.602 16.5215C106.602 16.6582 106.646 16.7754 106.734 16.873C106.821 16.9707 106.936 17.0562 107.078 17.1294C107.219 17.1978 107.376 17.2612 107.547 17.3198C107.722 17.3735 107.896 17.4297 108.067 17.4883C108.374 17.5957 108.652 17.7129 108.902 17.8398C109.151 17.9668 109.363 18.1157 109.539 18.2866C109.719 18.4575 109.856 18.6577 109.949 18.8872C110.047 19.1167 110.095 19.3901 110.095 19.7075C110.095 20.1519 109.998 20.5327 109.802 20.8501C109.612 21.1626 109.356 21.4189 109.033 21.6191C108.716 21.8145 108.347 21.9561 107.927 22.0439C107.512 22.1367 107.08 22.1831 106.631 22.1831C105.806 22.1831 105.042 22.0562 104.339 21.8022ZM122.98 12.8301C122.511 13.6748 122.091 14.4683 121.72 15.2104C121.349 15.9478 121.022 16.6777 120.739 17.4004C120.455 18.1182 120.214 18.8506 120.013 19.5977C119.813 20.3398 119.65 21.1406 119.523 22H117.106C117.242 21.1846 117.423 20.3984 117.648 19.6416C117.872 18.8848 118.131 18.1523 118.424 17.4443C118.722 16.7314 119.049 16.0381 119.406 15.3643C119.767 14.6904 120.148 14.0312 120.548 13.3867H115.67V11.4971H122.98V12.8301Z" fill="white"/>
<path d="M131 0H5C2.23858 0 0 2.23858 0 5V27C0 29.7614 2.23857 32 5 32H131C133.761 32 136 29.7614 136 27V5C136 2.23858 133.761 0 131 0Z" fill="url(#paint0_linear_1_4301)"/>
<defs>
<linearGradient id="paint0_linear_1_4301" x1="0" y1="0" x2="0" y2="32" gradientUnits="userSpaceOnUse">
<stop stop-color="#BBBBBB" stop-opacity="0.1"/>
<stop offset="1" stop-opacity="0.1"/>
</linearGradient>
<clipPath id="clip0_1_4301">
<rect width="24" height="21.0909" fill="white" transform="translate(4 5)"/>
</clipPath>
</defs>
</svg>
