<svg width="123" height="32" viewBox="0 0 123 32" fill="none" xmlns="http://www.w3.org/2000/svg">
<path d="M118 0H31V32H118C120.761 32 123 29.7614 123 27V5C123 2.23858 120.761 0 118 0Z" fill="#0F1418"/>
<path d="M31 0H5C2.23858 0 0 2.23858 0 5V27C0 29.7614 2.23858 32 5 32H31V0Z" fill="#00ADEF"/>
<path d="M5 8.11484L13.963 6.89422L13.967 15.5398L5.00829 15.5907L5 8.11484ZM13.9587 16.5358L13.9658 25.1889L5.00703 23.9572L5.00653 16.4778L13.9587 16.5358ZM15.0452 6.73448L26.9294 5V15.4298L15.0452 15.5242V6.73448ZM26.9322 16.6172L26.9294 27L15.0452 25.3228L15.0287 16.5979L26.9322 16.6172Z" fill="white"/>
<path d="M58.6768 11.4971L55.9009 22H53.2788L51.5357 15.2617C51.4429 14.9102 51.3868 14.5171 51.3672 14.0825H51.3379C51.294 14.561 51.2305 14.9541 51.1475 15.2617L49.3604 22H46.6285L43.8672 11.4971H46.4527L47.9322 18.4917C47.9956 18.7896 48.042 19.1899 48.0713 19.6929H48.1153C48.1348 19.3169 48.2056 18.9067 48.3277 18.4624L50.232 11.4971H52.7662L54.4873 18.5503C54.5508 18.8091 54.607 19.1851 54.6558 19.6782H54.6851C54.7046 19.2925 54.7559 18.9019 54.8389 18.5063L56.2891 11.4971H58.6768ZM61.3983 13.3135C61.0077 13.3135 60.6879 13.1987 60.4388 12.9692C60.1898 12.7349 60.0653 12.4492 60.0653 12.1123C60.0653 11.7656 60.1898 11.4824 60.4388 11.2627C60.6879 11.043 61.0077 10.9331 61.3983 10.9331C61.7938 10.9331 62.1136 11.043 62.3578 11.2627C62.6068 11.4824 62.7313 11.7656 62.7313 12.1123C62.7313 12.4639 62.6068 12.752 62.3578 12.9766C62.1136 13.2012 61.7938 13.3135 61.3983 13.3135ZM62.5409 22H60.2264V14.5H62.5409V22ZM71.9128 22H69.6056V17.8325C69.6056 16.6704 69.1906 16.0894 68.3605 16.0894C67.9601 16.0894 67.6305 16.2432 67.3718 16.5508C67.113 16.8584 66.9836 17.249 66.9836 17.7227V22H64.6691V14.5H66.9836V15.6865H67.0129C67.5646 14.7734 68.3679 14.3169 69.4225 14.3169C71.0827 14.3169 71.9128 15.3472 71.9128 17.4077V22ZM81.27 22H78.9556V20.9673H78.9263C78.3989 21.7778 77.625 22.1831 76.6045 22.1831C75.667 22.1831 74.9126 21.8535 74.3413 21.1943C73.77 20.5303 73.4844 19.605 73.4844 18.4185C73.4844 17.1782 73.7993 16.1846 74.4292 15.4375C75.0591 14.6904 75.8843 14.3169 76.9048 14.3169C77.8716 14.3169 78.5454 14.6636 78.9263 15.3569H78.9556V10.8965H81.27V22ZM78.9995 18.3525V17.7886C78.9995 17.3003 78.8579 16.895 78.5747 16.5728C78.2915 16.2505 77.9229 16.0894 77.4688 16.0894C76.9561 16.0894 76.5557 16.292 76.2676 16.6973C75.9795 17.0977 75.8354 17.6494 75.8354 18.3525C75.8354 19.0117 75.9746 19.5195 76.2529 19.876C76.5312 20.2324 76.917 20.4106 77.4102 20.4106C77.8789 20.4106 78.2598 20.2227 78.5527 19.8467C78.8506 19.4707 78.9995 18.9727 78.9995 18.3525ZM86.9725 22.1831C85.7225 22.1831 84.7386 21.834 84.0208 21.1357C83.3079 20.4326 82.9515 19.4805 82.9515 18.2793C82.9515 17.0391 83.3226 16.0698 84.0648 15.3716C84.807 14.6685 85.8104 14.3169 87.075 14.3169C88.3201 14.3169 89.2967 14.6685 90.0047 15.3716C90.7127 16.0698 91.0667 16.9951 91.0667 18.1475C91.0667 19.3926 90.7005 20.3765 89.9681 21.0991C89.2405 21.8218 88.242 22.1831 86.9725 22.1831ZM87.0311 16.0894C86.4842 16.0894 86.0594 16.2773 85.7567 16.6533C85.4539 17.0293 85.3026 17.5615 85.3026 18.25C85.3026 19.6904 85.8836 20.4106 87.0457 20.4106C88.1541 20.4106 88.7083 19.6709 88.7083 18.1914C88.7083 16.79 88.1492 16.0894 87.0311 16.0894ZM103.61 14.5L101.449 22H99.0177L97.9118 17.6055C97.8385 17.3125 97.797 16.9927 97.7872 16.646H97.7433C97.7091 17.0269 97.6603 17.3369 97.5968 17.5762L96.4103 22H94.0079L91.8913 14.5H94.2496L95.2824 19.3926C95.3312 19.6221 95.3678 19.9004 95.3922 20.2275H95.4362C95.4606 19.8857 95.5045 19.5977 95.568 19.3633L96.8571 14.5H99.0617L100.219 19.3926C100.248 19.5146 100.282 19.7979 100.321 20.2422H100.373C100.397 19.959 100.436 19.6758 100.49 19.3926L101.464 14.5H103.61ZM104.405 21.8022V19.9272C104.786 20.1567 105.165 20.3276 105.54 20.4399C105.921 20.5522 106.28 20.6084 106.617 20.6084C107.027 20.6084 107.35 20.5522 107.584 20.4399C107.823 20.3276 107.943 20.1567 107.943 19.9272C107.943 19.7808 107.889 19.6587 107.782 19.561C107.674 19.4634 107.535 19.3779 107.364 19.3047C107.198 19.2314 107.015 19.1655 106.815 19.1069C106.615 19.0483 106.422 18.9824 106.236 18.9092C105.938 18.7969 105.675 18.6772 105.445 18.5503C105.221 18.4185 105.03 18.2671 104.874 18.0962C104.723 17.9253 104.605 17.7275 104.522 17.5029C104.444 17.2783 104.405 17.0122 104.405 16.7046C104.405 16.2847 104.496 15.9233 104.676 15.6206C104.862 15.3179 105.106 15.0713 105.409 14.8809C105.716 14.6855 106.065 14.5439 106.456 14.4561C106.852 14.3633 107.262 14.3169 107.686 14.3169C108.019 14.3169 108.355 14.3438 108.697 14.3975C109.039 14.4463 109.376 14.5195 109.708 14.6172V16.4043C109.415 16.2334 109.1 16.1064 108.763 16.0234C108.431 15.9355 108.104 15.8916 107.782 15.8916C107.63 15.8916 107.486 15.9062 107.35 15.9355C107.218 15.96 107.101 15.999 106.998 16.0527C106.895 16.1016 106.815 16.1675 106.756 16.2505C106.698 16.3286 106.668 16.4189 106.668 16.5215C106.668 16.6582 106.712 16.7754 106.8 16.873C106.888 16.9707 107.003 17.0562 107.144 17.1294C107.286 17.1978 107.442 17.2612 107.613 17.3198C107.789 17.3735 107.962 17.4297 108.133 17.4883C108.441 17.5957 108.719 17.7129 108.968 17.8398C109.217 17.9668 109.43 18.1157 109.605 18.2866C109.786 18.4575 109.923 18.6577 110.016 18.8872C110.113 19.1167 110.162 19.3901 110.162 19.7075C110.162 20.1519 110.064 20.5327 109.869 20.8501C109.679 21.1626 109.422 21.4189 109.1 21.6191C108.783 21.8145 108.414 21.9561 107.994 22.0439C107.579 22.1367 107.147 22.1831 106.698 22.1831C105.873 22.1831 105.108 22.0562 104.405 21.8022Z" fill="white"/>
<path d="M118 0H5C2.23858 0 0 2.23858 0 5V27C0 29.7614 2.23858 32 5 32H118C120.761 32 123 29.7614 123 27V5C123 2.23858 120.761 0 118 0Z" fill="url(#paint0_linear_4_46)"/>
<defs>
<linearGradient id="paint0_linear_4_46" x1="0" y1="0" x2="0" y2="32" gradientUnits="userSpaceOnUse">
<stop stop-color="#BBBBBB" stop-opacity="0.1"/>
<stop offset="1" stop-opacity="0.1"/>
</linearGradient>
</defs>
</svg>
