<svg width="124" height="32" viewBox="0 0 124 32" fill="none" xmlns="http://www.w3.org/2000/svg">
<path d="M119 0H31V32H119C121.761 32 124 29.7614 124 27V5C124 2.23858 121.761 0 119 0Z" fill="#0F1418"/>
<path d="M31 0H5C2.23858 0 0 2.23858 0 5V27C0 29.7614 2.23858 32 5 32H31V0Z" fill="#176EEF"/>
<path d="M22.2093 14.0969C22.7577 12.5687 24.3374 8.14844 24.3374 6.73281C24.3374 5.48594 23.6015 4.44062 22.289 4.44062C20.1984 4.44062 18.3234 10.6141 17.7374 12.0859C17.2827 10.75 15.1546 4 13.2796 4C11.8218 4 11.1374 5.07344 11.1374 6.42344C11.1374 8.07812 12.7405 12.3672 13.3218 14.0172C13.0265 13.9094 12.7077 13.8156 12.3843 13.8156C11.2874 13.8156 10.1202 15.1797 10.1202 16.2812C10.1202 16.6984 10.3499 17.2844 10.4952 17.6734C8.76554 18.1422 8.09992 19.2953 8.09992 21.0344C8.09523 24.4187 11.3015 28 15.8109 28C21.3421 28 24.7827 23.8469 24.7827 18.4891C24.7827 16.4688 24.4593 14.6453 22.2093 14.0969ZM20.5499 9.0625C20.7374 8.48594 21.539 6.04844 22.289 6.04844C22.6921 6.04844 22.7999 6.46563 22.7999 6.79844C22.7999 7.69375 20.9905 12.6391 20.5921 13.7359L18.9984 13.4547L20.5499 9.0625ZM12.6093 6.26406C12.6093 5.70625 13.289 4.12187 14.7796 8.47188L16.4015 13.1734C15.6702 13.1125 15.103 13.0328 14.7421 13.2391C14.2312 11.8891 12.6093 7.62812 12.6093 6.26406ZM12.5015 15.4375C13.8749 15.4375 15.6468 19.8719 15.6468 20.4719C15.6468 20.7109 15.4171 21.0062 15.1499 21.0062C14.1702 21.0062 11.5452 17.4016 11.5452 16.4266C11.5499 16.0656 12.1405 15.4375 12.5015 15.4375ZM21.1405 24.1703C19.7765 25.6703 18.0327 26.4484 15.9984 26.4484C13.214 26.4484 11.0155 24.9203 9.95617 22.3094C9.15461 20.275 10.1343 19.1078 10.9218 19.1078C11.4562 19.1078 13.4671 21.9344 13.4671 22.5344C13.4671 22.7641 13.1062 22.9234 12.9187 22.9234C12.164 22.9234 11.8687 22.1969 10.5234 20.5141C9.13117 21.9062 11.4843 24.5875 13.2562 24.5875C14.4796 24.5875 15.2765 23.4531 15.0374 22.6188C15.2109 22.6188 15.4265 22.6328 15.5859 22.5906C15.6374 23.8609 16.0124 25.375 17.5405 25.4828C17.5405 25.4406 17.6343 25.15 17.6343 25.1359C17.6343 24.3203 17.1374 23.6078 17.1374 22.7781C17.1374 21.4516 18.1546 20.1672 19.1859 19.4172C19.5609 19.1359 20.0155 18.9625 20.4562 18.8031C20.9109 18.6297 21.3937 18.4281 21.7405 18.0812C21.689 17.5562 21.4734 17.0922 20.9484 17.0922C19.6499 17.0922 15.2952 17.2797 15.2952 15.2313C15.2952 14.9172 15.2999 14.6172 16.1109 14.6172C17.6249 14.6172 21.4687 14.9922 22.5937 15.9813C23.4421 16.7359 23.7327 21.2875 21.1405 24.1703ZM16.5187 18.2641C16.9734 18.4094 17.4421 18.4516 17.9109 18.5453C17.564 18.7984 17.2546 19.1078 16.9593 19.4406C16.828 19.0422 16.6687 18.6531 16.5187 18.2641Z" fill="white"/>
<path d="M54.1115 22H51.5334L50.7863 19.6636H47.051L46.3112 22H43.7478L47.571 11.4971H50.3762L54.1115 22ZM50.2444 17.8472L49.1164 14.3169C49.0334 14.0532 48.9748 13.7383 48.9406 13.3721H48.882C48.8576 13.6797 48.7966 13.9849 48.6989 14.2876L47.5564 17.8472H50.2444ZM62.8829 22H60.5757V17.8325C60.5757 16.6704 60.1607 16.0894 59.3306 16.0894C58.9302 16.0894 58.6006 16.2432 58.3418 16.5508C58.083 16.8584 57.9537 17.249 57.9537 17.7227V22H55.6392V14.5H57.9537V15.6865H57.9829C58.5347 14.7734 59.3379 14.3169 60.3926 14.3169C62.0528 14.3169 62.8829 15.3472 62.8829 17.4077V22ZM72.2547 21.1431C72.2547 22.5347 71.8519 23.6113 71.0462 24.373C70.2406 25.1396 69.0736 25.5229 67.5453 25.5229C66.5345 25.5229 65.7337 25.3789 65.1429 25.0908V23.1426C65.9144 23.5918 66.6932 23.8164 67.4794 23.8164C68.2606 23.8164 68.8661 23.6089 69.2958 23.1938C69.7254 22.7837 69.9403 22.2246 69.9403 21.5166V20.9233H69.911C69.3837 21.7632 68.6048 22.1831 67.5746 22.1831C66.6175 22.1831 65.8583 21.8462 65.2967 21.1724C64.7352 20.4985 64.4545 19.5952 64.4545 18.4624C64.4545 17.1929 64.767 16.1846 65.392 15.4375C66.017 14.6904 66.8397 14.3169 67.8602 14.3169C68.7733 14.3169 69.4569 14.6685 69.911 15.3716H69.9403V14.5H72.2547V21.1431ZM69.9696 18.3965V17.8032C69.9696 17.3296 69.828 16.9268 69.5448 16.5947C69.2665 16.2578 68.9027 16.0894 68.4535 16.0894C67.9408 16.0894 67.5379 16.2896 67.245 16.6899C66.952 17.0903 66.8055 17.6543 66.8055 18.3818C66.8055 19.0068 66.9447 19.5024 67.223 19.8687C67.5013 20.23 67.8822 20.4106 68.3656 20.4106C68.8441 20.4106 69.2298 20.2275 69.5228 19.8613C69.8207 19.4902 69.9696 19.002 69.9696 18.3965ZM81.1066 18.9092H76.214C76.2922 19.998 76.9782 20.5425 78.2721 20.5425C79.0973 20.5425 79.8224 20.3472 80.4474 19.9565V21.6265C79.7541 21.9976 78.8532 22.1831 77.7448 22.1831C76.5339 22.1831 75.5939 21.8486 74.925 21.1797C74.256 20.5059 73.9216 19.5684 73.9216 18.3672C73.9216 17.1221 74.2829 16.1357 75.0055 15.4082C75.7282 14.6807 76.6169 14.3169 77.6716 14.3169C78.7653 14.3169 79.61 14.6416 80.2057 15.291C80.8063 15.9404 81.1066 16.8218 81.1066 17.9351V18.9092ZM78.9606 17.4883C78.9606 16.4141 78.5261 15.877 77.6569 15.877C77.2858 15.877 76.9636 16.0308 76.6901 16.3384C76.4216 16.646 76.258 17.0293 76.1994 17.4883H78.9606ZM84.978 22H82.6636V10.8965H84.978V22ZM93.8519 22H87.597V11.4971H89.9627V20.0811H93.8519V22ZM96.6613 13.3135C96.2706 13.3135 95.9508 13.1987 95.7018 12.9692C95.4528 12.7349 95.3283 12.4492 95.3283 12.1123C95.3283 11.7656 95.4528 11.4824 95.7018 11.2627C95.9508 11.043 96.2706 10.9331 96.6613 10.9331C97.0568 10.9331 97.3766 11.043 97.6207 11.2627C97.8698 11.4824 97.9943 11.7656 97.9943 12.1123C97.9943 12.4639 97.8698 12.752 97.6207 12.9766C97.3766 13.2012 97.0568 13.3135 96.6613 13.3135ZM97.8038 22H95.4894V14.5H97.8038V22ZM99.4414 21.8022V19.9272C99.8222 20.1567 100.201 20.3276 100.577 20.4399C100.957 20.5522 101.316 20.6084 101.653 20.6084C102.063 20.6084 102.386 20.5522 102.62 20.4399C102.859 20.3276 102.979 20.1567 102.979 19.9272C102.979 19.7808 102.925 19.6587 102.818 19.561C102.71 19.4634 102.571 19.3779 102.4 19.3047C102.234 19.2314 102.051 19.1655 101.851 19.1069C101.651 19.0483 101.458 18.9824 101.272 18.9092C100.975 18.7969 100.711 18.6772 100.481 18.5503C100.257 18.4185 100.066 18.2671 99.9101 18.0962C99.7587 17.9253 99.6416 17.7275 99.5585 17.5029C99.4804 17.2783 99.4414 17.0122 99.4414 16.7046C99.4414 16.2847 99.5317 15.9233 99.7124 15.6206C99.8979 15.3179 100.142 15.0713 100.445 14.8809C100.752 14.6855 101.102 14.5439 101.492 14.4561C101.888 14.3633 102.298 14.3169 102.723 14.3169C103.055 14.3169 103.392 14.3438 103.733 14.3975C104.075 14.4463 104.412 14.5195 104.744 14.6172V16.4043C104.451 16.2334 104.136 16.1064 103.799 16.0234C103.467 15.9355 103.14 15.8916 102.818 15.8916C102.666 15.8916 102.522 15.9062 102.386 15.9355C102.254 15.96 102.137 15.999 102.034 16.0527C101.932 16.1016 101.851 16.1675 101.792 16.2505C101.734 16.3286 101.705 16.4189 101.705 16.5215C101.705 16.6582 101.748 16.7754 101.836 16.873C101.924 16.9707 102.039 17.0562 102.181 17.1294C102.322 17.1978 102.478 17.2612 102.649 17.3198C102.825 17.3735 102.998 17.4297 103.169 17.4883C103.477 17.5957 103.755 17.7129 104.004 17.8398C104.253 17.9668 104.466 18.1157 104.642 18.2866C104.822 18.4575 104.959 18.6577 105.052 18.8872C105.149 19.1167 105.198 19.3901 105.198 19.7075C105.198 20.1519 105.101 20.5327 104.905 20.8501C104.715 21.1626 104.458 21.4189 104.136 21.6191C103.819 21.8145 103.45 21.9561 103.03 22.0439C102.615 22.1367 102.183 22.1831 101.734 22.1831C100.909 22.1831 100.144 22.0562 99.4414 21.8022ZM111.252 21.9121C110.91 22.0928 110.395 22.1831 109.707 22.1831C108.076 22.1831 107.261 21.3359 107.261 19.6416V16.2065H106.045V14.5H107.261V12.8813L109.568 12.2222V14.5H111.252V16.2065H109.568V19.2388C109.568 20.02 109.878 20.4106 110.498 20.4106C110.742 20.4106 110.993 20.3398 111.252 20.1982V21.9121Z" fill="white"/>
<path d="M119 0H5C2.23858 0 0 2.23858 0 5V27C0 29.7614 2.23858 32 5 32H119C121.761 32 124 29.7614 124 27V5C124 2.23858 121.761 0 119 0Z" fill="url(#paint0_linear)"/>
<defs>
<linearGradient id="paint0_linear" x1="0" y1="0" x2="0" y2="32" gradientUnits="userSpaceOnUse">
<stop stop-color="#BBBBBB" stop-opacity="0.1"/>
<stop offset="1" stop-opacity="0.1"/>
</linearGradient>
</defs>
</svg>
