<svg width="113" height="32" viewBox="0 0 113 32" fill="none" xmlns="http://www.w3.org/2000/svg">
<path d="M108 0H31V32H108C110.761 32 113 29.7614 113 27V5C113 2.23858 110.761 0 108 0Z" fill="#0F1418"/>
<path d="M31 0H5C2.23858 0 0 2.23858 0 5V27C0 29.7614 2.23858 32 5 32H31V0Z" fill="#7289DA"/>
<g clip-path="url(#clip0_56_74)">
<path fill-rule="evenodd" clip-rule="evenodd" d="M12.3689 8.00016C12.3689 8.00016 9.67126 7.94302 6.83567 10.0001C6.83567 10.0001 4 14.9717 4 21.1049C4 21.1049 5.6541 23.8666 10.0059 24C10.0059 24 10.7348 23.1431 11.3255 22.4193C8.82468 21.6955 7.87948 20.1715 7.87948 20.1715C7.87948 20.1715 8.07616 20.3047 8.43061 20.4952C8.4503 20.5142 8.47007 20.5334 8.50946 20.5525C8.56853 20.5906 8.62768 20.6096 8.68676 20.6477C9.17905 20.9144 9.67149 21.124 10.1244 21.2954C10.9318 21.6001 11.8965 21.9047 13.0189 22.1142C14.4958 22.3809 16.2287 22.4764 18.1191 22.1335C19.0446 21.9812 19.9898 21.7144 20.9744 21.3144C21.6636 21.0667 22.4316 20.7048 23.2389 20.1905C23.2389 20.1905 22.2544 21.7524 19.6748 22.4572C20.2656 23.181 20.9744 24 20.9744 24C25.3262 23.8666 27 21.1049 27 21.1049C27 14.9717 24.1643 10.0001 24.1643 10.0001C21.3287 7.94302 18.631 8.00016 18.631 8.00016L18.3553 8.30484C21.7028 9.29531 23.2586 10.7241 23.2586 10.7241C21.2106 9.63838 19.2022 9.10513 17.3315 8.89561C15.9137 8.74323 14.5547 8.78118 13.3535 8.93355C13.2354 8.93355 13.1371 8.95245 13.0189 8.9715C12.3297 9.02864 10.6561 9.27641 8.54907 10.1716C7.82048 10.4954 7.38719 10.7241 7.38719 10.7241C7.38719 10.7241 9.02136 9.21941 12.5659 8.22895L12.3689 8.00016ZM11.8178 15.105C12.9402 15.105 13.8459 16.0573 13.8262 17.2192C13.8262 18.3811 12.9402 19.3334 11.8178 19.3334C10.7151 19.3334 9.80903 18.3811 9.80903 17.2192C9.80903 16.0573 10.6954 15.105 11.8178 15.105ZM19.0052 15.105C20.1277 15.105 21.0136 16.0573 21.0136 17.2192C21.0136 18.3811 20.1277 19.3334 19.0052 19.3334C17.9025 19.3334 16.9965 18.3811 16.9965 17.2192C16.9965 16.0573 17.8828 15.105 19.0052 15.105Z" fill="white"/>
</g>
<path d="M45.9058 22V11.4971H49.6265C53.357 11.4971 55.2222 13.2036 55.2222 16.6167C55.2222 18.2524 54.712 19.5586 53.6914 20.5352C52.6758 21.5117 51.3208 22 49.6265 22H45.9058ZM48.2715 13.4233V20.0811H49.4434C50.4688 20.0811 51.272 19.7734 51.8531 19.1582C52.439 18.543 52.732 17.7056 52.732 16.646C52.732 15.645 52.4414 14.8589 51.8604 14.2876C51.2842 13.7114 50.4737 13.4233 49.4287 13.4233H48.2715ZM58.3539 13.3135C57.9632 13.3135 57.6434 13.1987 57.3944 12.9692C57.1454 12.7349 57.0209 12.4492 57.0209 12.1123C57.0209 11.7656 57.1454 11.4824 57.3944 11.2627C57.6434 11.043 57.9632 10.9331 58.3539 10.9331C58.7494 10.9331 59.0692 11.043 59.3133 11.2627C59.5624 11.4824 59.6869 11.7656 59.6869 12.1123C59.6869 12.4639 59.5624 12.752 59.3133 12.9766C59.0692 13.2012 58.7494 13.3135 58.3539 13.3135ZM59.4964 22H57.182V14.5H59.4964V22ZM61.134 21.8022V19.9272C61.5148 20.1567 61.8932 20.3276 62.2692 20.4399C62.6501 20.5522 63.009 20.6084 63.3459 20.6084C63.756 20.6084 64.0783 20.5522 64.3127 20.4399C64.5519 20.3276 64.6716 20.1567 64.6716 19.9272C64.6716 19.7808 64.6179 19.6587 64.5104 19.561C64.403 19.4634 64.2638 19.3779 64.0929 19.3047C63.9269 19.2314 63.7438 19.1655 63.5436 19.1069C63.3434 19.0483 63.1506 18.9824 62.965 18.9092C62.6672 18.7969 62.4035 18.6772 62.174 18.5503C61.9494 18.4185 61.759 18.2671 61.6027 18.0962C61.4513 17.9253 61.3342 17.7275 61.2512 17.5029C61.173 17.2783 61.134 17.0122 61.134 16.7046C61.134 16.2847 61.2243 15.9233 61.405 15.6206C61.5905 15.3179 61.8346 15.0713 62.1374 14.8809C62.445 14.6855 62.7941 14.5439 63.1847 14.4561C63.5803 14.3633 63.9904 14.3169 64.4152 14.3169C64.7472 14.3169 65.0842 14.3438 65.426 14.3975C65.7678 14.4463 66.1047 14.5195 66.4367 14.6172V16.4043C66.1437 16.2334 65.8288 16.1064 65.4919 16.0234C65.1598 15.9355 64.8327 15.8916 64.5104 15.8916C64.3591 15.8916 64.215 15.9062 64.0783 15.9355C63.9465 15.96 63.8293 15.999 63.7267 16.0527C63.6242 16.1016 63.5436 16.1675 63.485 16.2505C63.4264 16.3286 63.3971 16.4189 63.3971 16.5215C63.3971 16.6582 63.4411 16.7754 63.529 16.873C63.6169 16.9707 63.7316 17.0562 63.8732 17.1294C64.0148 17.1978 64.1711 17.2612 64.342 17.3198C64.5178 17.3735 64.6911 17.4297 64.862 17.4883C65.1696 17.5957 65.4479 17.7129 65.697 17.8398C65.946 17.9668 66.1584 18.1157 66.3342 18.2866C66.5148 18.4575 66.6515 18.6577 66.7443 18.8872C66.842 19.1167 66.8908 19.3901 66.8908 19.7075C66.8908 20.1519 66.7931 20.5327 66.5978 20.8501C66.4074 21.1626 66.1511 21.4189 65.8288 21.6191C65.5114 21.8145 65.1428 21.9561 64.7228 22.0439C64.3078 22.1367 63.8757 22.1831 63.4264 22.1831C62.6012 22.1831 61.8371 22.0562 61.134 21.8022ZM74.0947 21.729C73.5723 22.0317 72.8179 22.1831 71.8315 22.1831C70.6792 22.1831 69.7466 21.834 69.0337 21.1357C68.3208 20.4375 67.9644 19.5366 67.9644 18.4331C67.9644 17.1587 68.3452 16.1553 69.1069 15.4229C69.8735 14.6855 70.8965 14.3169 72.1758 14.3169C73.0596 14.3169 73.6992 14.4341 74.0947 14.6685V16.6313C73.6113 16.27 73.0718 16.0894 72.4761 16.0894C71.812 16.0894 71.2847 16.2847 70.894 16.6753C70.5083 17.061 70.3154 17.5957 70.3154 18.2793C70.3154 18.9434 70.501 19.4658 70.8721 19.8467C71.2432 20.2227 71.7534 20.4106 72.4028 20.4106C72.979 20.4106 73.543 20.23 74.0947 19.8687V21.729ZM79.3724 22.1831C78.1224 22.1831 77.1385 21.834 76.4207 21.1357C75.7078 20.4326 75.3514 19.4805 75.3514 18.2793C75.3514 17.0391 75.7225 16.0698 76.4647 15.3716C77.2069 14.6685 78.2103 14.3169 79.4749 14.3169C80.72 14.3169 81.6966 14.6685 82.4046 15.3716C83.1126 16.0698 83.4666 16.9951 83.4666 18.1475C83.4666 19.3926 83.1004 20.3765 82.368 21.0991C81.6404 21.8218 80.6419 22.1831 79.3724 22.1831ZM79.431 16.0894C78.8841 16.0894 78.4593 16.2773 78.1566 16.6533C77.8538 17.0293 77.7025 17.5615 77.7025 18.25C77.7025 19.6904 78.2835 20.4106 79.4456 20.4106C80.554 20.4106 81.1082 19.6709 81.1082 18.1914C81.1082 16.79 80.5491 16.0894 79.431 16.0894ZM90.0407 16.5874C89.7623 16.436 89.4376 16.3604 89.0665 16.3604C88.5636 16.3604 88.1705 16.5459 87.8873 16.917C87.6041 17.2832 87.4625 17.7837 87.4625 18.4185V22H85.1481V14.5H87.4625V15.8916H87.4918C87.858 14.876 88.5172 14.3682 89.4694 14.3682C89.7135 14.3682 89.9039 14.3975 90.0407 14.4561V16.5874ZM98.5849 22H96.2705V20.9673H96.2412C95.7138 21.7778 94.9399 22.1831 93.9194 22.1831C92.9819 22.1831 92.2275 21.8535 91.6562 21.1943C91.0849 20.5303 90.7993 19.605 90.7993 18.4185C90.7993 17.1782 91.1142 16.1846 91.7441 15.4375C92.374 14.6904 93.1992 14.3169 94.2197 14.3169C95.1865 14.3169 95.8603 14.6636 96.2412 15.3569H96.2705V10.8965H98.5849V22ZM96.3144 18.3525V17.7886C96.3144 17.3003 96.1728 16.895 95.8896 16.5728C95.6064 16.2505 95.2378 16.0894 94.7837 16.0894C94.271 16.0894 93.8706 16.292 93.5825 16.6973C93.2944 17.0977 93.1504 17.6494 93.1504 18.3525C93.1504 19.0117 93.2895 19.5195 93.5678 19.876C93.8462 20.2324 94.2319 20.4106 94.7251 20.4106C95.1938 20.4106 95.5747 20.2227 95.8676 19.8467C96.1655 19.4707 96.3144 18.9727 96.3144 18.3525Z" fill="white"/>
<path d="M108 0H5C2.23858 0 0 2.23858 0 5V27C0 29.7614 2.23858 32 5 32H108C110.761 32 113 29.7614 113 27V5C113 2.23858 110.761 0 108 0Z" fill="url(#paint0_linear_56_74)"/>
<defs>
<linearGradient id="paint0_linear_56_74" x1="0" y1="0" x2="0" y2="32" gradientUnits="userSpaceOnUse">
<stop stop-color="#BBBBBB" stop-opacity="0.1"/>
<stop offset="1" stop-opacity="0.1"/>
</linearGradient>
<clipPath id="clip0_56_74">
<rect width="23" height="16" fill="white" transform="translate(4 8)"/>
</clipPath>
</defs>
</svg>
