<svg width="111" height="32" viewBox="0 0 111 32" fill="none" xmlns="http://www.w3.org/2000/svg">
<path d="M106 0H31V32H106C108.761 32 111 29.7614 111 27V5C111 2.23858 108.761 0 106 0Z" fill="#0F1418"/>
<path d="M31 0H5C2.23858 0 0 2.23858 0 5V27C0 29.7614 2.23858 32 5 32H31V0Z" fill="#5865F2"/>
<path d="M23.8303 8.50747C22.2535 7.79309 20.5888 7.28628 18.8789 7C18.6449 7.41392 18.4332 7.8398 18.2446 8.27584C16.4232 8.00424 14.571 8.00424 12.7496 8.27584C12.561 7.83984 12.3492 7.41397 12.1153 7C10.4043 7.2887 8.7386 7.79671 7.16019 8.5112C4.02664 13.099 3.17719 17.5728 3.60192 21.9832C5.437 23.3249 7.49098 24.3452 9.67458 25C10.1663 24.3456 10.6013 23.6513 10.9752 22.9246C10.2651 22.6622 9.57975 22.3384 8.92706 21.957C9.09884 21.8337 9.26684 21.7067 9.42918 21.5834C11.3284 22.4672 13.4012 22.9255 15.5 22.9255C17.5987 22.9255 19.6715 22.4672 21.5707 21.5834C21.735 21.716 21.903 21.8431 22.0729 21.957C21.4189 22.339 20.7323 22.6634 20.0209 22.9265C20.3943 23.6529 20.8294 24.3465 21.3216 25C23.507 24.3479 25.5626 23.328 27.398 21.985C27.8963 16.8705 26.5467 12.4377 23.8303 8.50747ZM11.5132 19.2708C10.3296 19.2708 9.35179 18.2079 9.35179 16.9004C9.35179 15.5928 10.2956 14.5205 11.5094 14.5205C12.7232 14.5205 13.6934 15.5928 13.6727 16.9004C13.6519 18.2079 12.7194 19.2708 11.5132 19.2708ZM19.4867 19.2708C18.3013 19.2708 17.3272 18.2079 17.3272 16.9004C17.3272 15.5928 18.2711 14.5205 19.4867 14.5205C20.7024 14.5205 21.6651 15.5928 21.6444 16.9004C21.6236 18.2079 20.693 19.2708 19.4867 19.2708Z" fill="white"/>
<path d="M44.9058 22V11.4971H48.6265C52.357 11.4971 54.2222 13.2036 54.2222 16.6167C54.2222 18.2524 53.712 19.5586 52.6914 20.5352C51.6758 21.5117 50.3208 22 48.6265 22H44.9058ZM47.2715 13.4233V20.0811H48.4434C49.4688 20.0811 50.272 19.7734 50.8531 19.1582C51.439 18.543 51.732 17.7056 51.732 16.646C51.732 15.645 51.4414 14.8589 50.8604 14.2876C50.2842 13.7114 49.4737 13.4233 48.4287 13.4233H47.2715ZM57.3539 13.3135C56.9632 13.3135 56.6434 13.1987 56.3944 12.9692C56.1454 12.7349 56.0209 12.4492 56.0209 12.1123C56.0209 11.7656 56.1454 11.4824 56.3944 11.2627C56.6434 11.043 56.9632 10.9331 57.3539 10.9331C57.7494 10.9331 58.0692 11.043 58.3133 11.2627C58.5624 11.4824 58.6869 11.7656 58.6869 12.1123C58.6869 12.4639 58.5624 12.752 58.3133 12.9766C58.0692 13.2012 57.7494 13.3135 57.3539 13.3135ZM58.4964 22H56.182V14.5H58.4964V22ZM60.134 21.8022V19.9272C60.5148 20.1567 60.8932 20.3276 61.2692 20.4399C61.6501 20.5522 62.009 20.6084 62.3459 20.6084C62.756 20.6084 63.0783 20.5522 63.3127 20.4399C63.5519 20.3276 63.6716 20.1567 63.6716 19.9272C63.6716 19.7808 63.6179 19.6587 63.5104 19.561C63.403 19.4634 63.2638 19.3779 63.0929 19.3047C62.9269 19.2314 62.7438 19.1655 62.5436 19.1069C62.3434 19.0483 62.1506 18.9824 61.965 18.9092C61.6672 18.7969 61.4035 18.6772 61.174 18.5503C60.9494 18.4185 60.759 18.2671 60.6027 18.0962C60.4513 17.9253 60.3342 17.7275 60.2512 17.5029C60.173 17.2783 60.134 17.0122 60.134 16.7046C60.134 16.2847 60.2243 15.9233 60.405 15.6206C60.5905 15.3179 60.8346 15.0713 61.1374 14.8809C61.445 14.6855 61.7941 14.5439 62.1847 14.4561C62.5803 14.3633 62.9904 14.3169 63.4152 14.3169C63.7472 14.3169 64.0842 14.3438 64.426 14.3975C64.7678 14.4463 65.1047 14.5195 65.4367 14.6172V16.4043C65.1437 16.2334 64.8288 16.1064 64.4919 16.0234C64.1598 15.9355 63.8327 15.8916 63.5104 15.8916C63.3591 15.8916 63.215 15.9062 63.0783 15.9355C62.9465 15.96 62.8293 15.999 62.7267 16.0527C62.6242 16.1016 62.5436 16.1675 62.485 16.2505C62.4264 16.3286 62.3971 16.4189 62.3971 16.5215C62.3971 16.6582 62.4411 16.7754 62.529 16.873C62.6169 16.9707 62.7316 17.0562 62.8732 17.1294C63.0148 17.1978 63.1711 17.2612 63.342 17.3198C63.5178 17.3735 63.6911 17.4297 63.862 17.4883C64.1696 17.5957 64.4479 17.7129 64.697 17.8398C64.946 17.9668 65.1584 18.1157 65.3342 18.2866C65.5148 18.4575 65.6515 18.6577 65.7443 18.8872C65.842 19.1167 65.8908 19.3901 65.8908 19.7075C65.8908 20.1519 65.7931 20.5327 65.5978 20.8501C65.4074 21.1626 65.1511 21.4189 64.8288 21.6191C64.5114 21.8145 64.1428 21.9561 63.7228 22.0439C63.3078 22.1367 62.8757 22.1831 62.4264 22.1831C61.6012 22.1831 60.8371 22.0562 60.134 21.8022ZM73.0947 21.729C72.5723 22.0317 71.8179 22.1831 70.8315 22.1831C69.6792 22.1831 68.7466 21.834 68.0337 21.1357C67.3208 20.4375 66.9644 19.5366 66.9644 18.4331C66.9644 17.1587 67.3452 16.1553 68.1069 15.4229C68.8735 14.6855 69.8965 14.3169 71.1758 14.3169C72.0596 14.3169 72.6992 14.4341 73.0947 14.6685V16.6313C72.6113 16.27 72.0718 16.0894 71.4761 16.0894C70.812 16.0894 70.2847 16.2847 69.894 16.6753C69.5083 17.061 69.3154 17.5957 69.3154 18.2793C69.3154 18.9434 69.501 19.4658 69.8721 19.8467C70.2432 20.2227 70.7534 20.4106 71.4028 20.4106C71.979 20.4106 72.543 20.23 73.0947 19.8687V21.729ZM78.3724 22.1831C77.1224 22.1831 76.1385 21.834 75.4207 21.1357C74.7078 20.4326 74.3514 19.4805 74.3514 18.2793C74.3514 17.0391 74.7225 16.0698 75.4647 15.3716C76.2069 14.6685 77.2103 14.3169 78.4749 14.3169C79.72 14.3169 80.6966 14.6685 81.4046 15.3716C82.1126 16.0698 82.4666 16.9951 82.4666 18.1475C82.4666 19.3926 82.1004 20.3765 81.368 21.0991C80.6404 21.8218 79.6419 22.1831 78.3724 22.1831ZM78.431 16.0894C77.8841 16.0894 77.4593 16.2773 77.1566 16.6533C76.8538 17.0293 76.7025 17.5615 76.7025 18.25C76.7025 19.6904 77.2835 20.4106 78.4456 20.4106C79.554 20.4106 80.1082 19.6709 80.1082 18.1914C80.1082 16.79 79.5491 16.0894 78.431 16.0894ZM89.0407 16.5874C88.7623 16.436 88.4376 16.3604 88.0665 16.3604C87.5636 16.3604 87.1705 16.5459 86.8873 16.917C86.6041 17.2832 86.4625 17.7837 86.4625 18.4185V22H84.1481V14.5H86.4625V15.8916H86.4918C86.858 14.876 87.5172 14.3682 88.4694 14.3682C88.7135 14.3682 88.9039 14.3975 89.0407 14.4561V16.5874ZM97.5849 22H95.2705V20.9673H95.2412C94.7138 21.7778 93.9399 22.1831 92.9194 22.1831C91.9819 22.1831 91.2275 21.8535 90.6562 21.1943C90.0849 20.5303 89.7993 19.605 89.7993 18.4185C89.7993 17.1782 90.1142 16.1846 90.7441 15.4375C91.374 14.6904 92.1992 14.3169 93.2197 14.3169C94.1865 14.3169 94.8603 14.6636 95.2412 15.3569H95.2705V10.8965H97.5849V22ZM95.3144 18.3525V17.7886C95.3144 17.3003 95.1728 16.895 94.8896 16.5728C94.6064 16.2505 94.2378 16.0894 93.7837 16.0894C93.271 16.0894 92.8706 16.292 92.5825 16.6973C92.2944 17.0977 92.1504 17.6494 92.1504 18.3525C92.1504 19.0117 92.2895 19.5195 92.5678 19.876C92.8462 20.2324 93.2319 20.4106 93.7251 20.4106C94.1938 20.4106 94.5747 20.2227 94.8676 19.8467C95.1655 19.4707 95.3144 18.9727 95.3144 18.3525Z" fill="white"/>
<path d="M106 0H5C2.23858 0 0 2.23858 0 5V27C0 29.7614 2.23857 32 5 32H106C108.761 32 111 29.7614 111 27V5C111 2.23858 108.761 0 106 0Z" fill="url(#paint0_linear_14_1538)"/>
<defs>
<linearGradient id="paint0_linear_14_1538" x1="0" y1="0" x2="0" y2="32" gradientUnits="userSpaceOnUse">
<stop stop-color="#BBBBBB" stop-opacity="0.1"/>
<stop offset="1" stop-opacity="0.1"/>
</linearGradient>
</defs>
</svg>
