<svg width="137" height="32" viewBox="0 0 137 32" fill="none" xmlns="http://www.w3.org/2000/svg">
<path d="M132 0H31V32H132C134.761 32 137 29.7614 137 27V5C137 2.23858 134.761 0 132 0Z" fill="#0F1418"/>
<path d="M31 0H5C2.23858 0 0 2.23858 0 5V27C0 29.7614 2.23858 32 5 32H31V0Z" fill="#F94877"/>
<path d="M23.1453 4H10.3391C8.58125 4 8 5.32656 8 6.16094V26.4953C8 27.4469 8.56719 27.7938 8.85312 27.9062C9.14375 28.0234 9.92187 28.1219 10.3953 27.5734C16.4375 20.5703 16.5406 20.4531 16.5406 20.4531C16.6859 20.2938 16.7 20.3078 16.8594 20.3078H20.7687C22.414 20.3078 22.6719 19.1266 22.8453 18.4469L25.1234 7.05625C25.5218 5.06875 25.0203 4 23.1453 4ZM22.3812 7.45938L21.8469 10.2578C21.7906 10.5625 21.4015 10.8766 21.0547 10.8766H16.0672C15.5047 10.8766 15.1016 11.2656 15.1016 11.8281V12.4375C15.1016 13 15.5047 13.4031 16.0672 13.4031H20.3047C20.6937 13.4031 21.0828 13.8344 20.9984 14.2563C20.914 14.6734 20.5062 16.7781 20.464 17.0125C20.4219 17.2422 20.1453 17.6453 19.6719 17.6453H16.2265C15.5937 17.6453 15.4203 17.7297 14.9844 18.2359C14.9844 18.2359 14.5672 18.7703 10.7891 23.3125C10.7469 23.3547 10.7047 23.3406 10.7047 23.2984V7.41719C10.7047 7.05625 11.0234 6.63906 11.4828 6.63906H21.7484C22.1328 6.63906 22.4797 7 22.3812 7.45938Z" fill="white"/>
<path d="M50.8609 13.4233H47.1548V16.0015H50.5606V17.9204H47.1548V22H44.7891V11.4971H50.8609V13.4233ZM56.3876 22.1831C55.1376 22.1831 54.1537 21.834 53.4359 21.1357C52.723 20.4326 52.3666 19.4805 52.3666 18.2793C52.3666 17.0391 52.7377 16.0698 53.4799 15.3716C54.222 14.6685 55.2255 14.3169 56.4901 14.3169C57.7352 14.3169 58.7118 14.6685 59.4198 15.3716C60.1278 16.0698 60.4818 16.9951 60.4818 18.1475C60.4818 19.3926 60.1156 20.3765 59.3832 21.0991C58.6556 21.8218 57.6571 22.1831 56.3876 22.1831ZM56.4462 16.0894C55.8993 16.0894 55.4745 16.2773 55.1718 16.6533C54.869 17.0293 54.7177 17.5615 54.7177 18.25C54.7177 19.6904 55.2987 20.4106 56.4608 20.4106C57.5692 20.4106 58.1234 19.6709 58.1234 18.1914C58.1234 16.79 57.5643 16.0894 56.4462 16.0894ZM69.2897 22H66.9826V20.8574H66.946C66.3747 21.7412 65.6105 22.1831 64.6535 22.1831C62.9152 22.1831 62.0461 21.1309 62.0461 19.0264V14.5H64.3532V18.8213C64.3532 19.8809 64.7731 20.4106 65.613 20.4106C66.028 20.4106 66.3601 20.2666 66.6091 19.9785C66.8581 19.6855 66.9826 19.29 66.9826 18.792V14.5H69.2897V22ZM76.3179 16.5874C76.0396 16.436 75.7149 16.3604 75.3438 16.3604C74.8408 16.3604 74.4478 16.5459 74.1646 16.917C73.8814 17.2832 73.7398 17.7837 73.7398 18.4185V22H71.4253V14.5H73.7398V15.8916H73.7691C74.1353 14.876 74.7945 14.3682 75.7466 14.3682C75.9907 14.3682 76.1812 14.3975 76.3179 14.4561V16.5874ZM77.179 21.8022V19.9272C77.5599 20.1567 77.9383 20.3276 78.3143 20.4399C78.6952 20.5522 79.054 20.6084 79.391 20.6084C79.8011 20.6084 80.1234 20.5522 80.3578 20.4399C80.597 20.3276 80.7166 20.1567 80.7166 19.9272C80.7166 19.7808 80.6629 19.6587 80.5555 19.561C80.4481 19.4634 80.3089 19.3779 80.138 19.3047C79.972 19.2314 79.7889 19.1655 79.5887 19.1069C79.3885 19.0483 79.1956 18.9824 79.0101 18.9092C78.7122 18.7969 78.4486 18.6772 78.2191 18.5503C77.9945 18.4185 77.804 18.2671 77.6478 18.0962C77.4964 17.9253 77.3792 17.7275 77.2962 17.5029C77.2181 17.2783 77.179 17.0122 77.179 16.7046C77.179 16.2847 77.2694 15.9233 77.45 15.6206C77.6356 15.3179 77.8797 15.0713 78.1825 14.8809C78.4901 14.6855 78.8392 14.5439 79.2298 14.4561C79.6253 14.3633 80.0355 14.3169 80.4603 14.3169C80.7923 14.3169 81.1292 14.3438 81.471 14.3975C81.8128 14.4463 82.1497 14.5195 82.4818 14.6172V16.4043C82.1888 16.2334 81.8739 16.1064 81.537 16.0234C81.2049 15.9355 80.8778 15.8916 80.5555 15.8916C80.4041 15.8916 80.2601 15.9062 80.1234 15.9355C79.9915 15.96 79.8744 15.999 79.7718 16.0527C79.6693 16.1016 79.5887 16.1675 79.5301 16.2505C79.4715 16.3286 79.4422 16.4189 79.4422 16.5215C79.4422 16.6582 79.4862 16.7754 79.5741 16.873C79.662 16.9707 79.7767 17.0562 79.9183 17.1294C80.0599 17.1978 80.2162 17.2612 80.3871 17.3198C80.5628 17.3735 80.7362 17.4297 80.9071 17.4883C81.2147 17.5957 81.493 17.7129 81.742 17.8398C81.9911 17.9668 82.2035 18.1157 82.3792 18.2866C82.5599 18.4575 82.6966 18.6577 82.7894 18.8872C82.8871 19.1167 82.9359 19.3901 82.9359 19.7075C82.9359 20.1519 82.8382 20.5327 82.6429 20.8501C82.4525 21.1626 82.1961 21.4189 81.8739 21.6191C81.5565 21.8145 81.1878 21.9561 80.7679 22.0439C80.3529 22.1367 79.9207 22.1831 79.4715 22.1831C78.6463 22.1831 77.8822 22.0562 77.179 21.8022ZM91.7951 25.4497H89.4806V20.9673H89.4513C88.9289 21.7778 88.1598 22.1831 87.1442 22.1831C86.2018 22.1831 85.4425 21.856 84.8664 21.2017C84.2951 20.5425 84.0094 19.6196 84.0094 18.4331C84.0094 17.1831 84.3244 16.1846 84.9543 15.4375C85.5841 14.6904 86.4045 14.3169 87.4152 14.3169C88.3332 14.3169 89.0119 14.6685 89.4513 15.3716H89.4806V14.5H91.7951V25.4497ZM89.5246 18.4185V17.8179C89.5246 17.3296 89.383 16.9194 89.0998 16.5874C88.8166 16.2554 88.4528 16.0894 88.0085 16.0894C87.4958 16.0894 87.0929 16.292 86.8 16.6973C86.507 17.0977 86.3605 17.6543 86.3605 18.3672C86.3605 19.0068 86.5021 19.5073 86.7853 19.8687C87.0734 20.23 87.4469 20.4106 87.9059 20.4106C88.3942 20.4106 88.7848 20.2275 89.0778 19.8613C89.3756 19.4951 89.5246 19.0142 89.5246 18.4185ZM101.05 22H98.7427V20.8574H98.706C98.1347 21.7412 97.3706 22.1831 96.4136 22.1831C94.6753 22.1831 93.8061 21.1309 93.8061 19.0264V14.5H96.1133V18.8213C96.1133 19.8809 96.5332 20.4106 97.373 20.4106C97.7881 20.4106 98.1201 20.2666 98.3691 19.9785C98.6181 19.6855 98.7427 19.29 98.7427 18.792V14.5H101.05V22ZM109.426 22H107.236V20.9233H107.206C106.703 21.7632 105.959 22.1831 104.972 22.1831C104.245 22.1831 103.671 21.978 103.251 21.5679C102.836 21.1528 102.629 20.6011 102.629 19.9126C102.629 18.4575 103.491 17.6177 105.214 17.3931L107.25 17.1221C107.25 16.3018 106.806 15.8916 105.917 15.8916C105.024 15.8916 104.174 16.1577 103.368 16.6899V14.9468C103.691 14.7808 104.13 14.6343 104.687 14.5073C105.248 14.3804 105.759 14.3169 106.218 14.3169C108.356 14.3169 109.426 15.3838 109.426 17.5176V22ZM107.25 18.9531V18.4478L105.888 18.6235C105.136 18.7212 104.76 19.0605 104.76 19.6416C104.76 19.9053 104.85 20.1226 105.031 20.2935C105.217 20.4595 105.466 20.5425 105.778 20.5425C106.213 20.5425 106.567 20.3936 106.84 20.0957C107.114 19.793 107.25 19.4121 107.25 18.9531ZM116.329 16.5874C116.051 16.436 115.726 16.3604 115.355 16.3604C114.852 16.3604 114.459 16.5459 114.176 16.917C113.893 17.2832 113.751 17.7837 113.751 18.4185V22H111.437V14.5H113.751V15.8916H113.78C114.147 14.876 114.806 14.3682 115.758 14.3682C116.002 14.3682 116.193 14.3975 116.329 14.4561V16.5874ZM124.273 18.9092H119.38C119.458 19.998 120.144 20.5425 121.438 20.5425C122.264 20.5425 122.989 20.3472 123.614 19.9565V21.6265C122.92 21.9976 122.019 22.1831 120.911 22.1831C119.7 22.1831 118.76 21.8486 118.091 21.1797C117.422 20.5059 117.088 19.5684 117.088 18.3672C117.088 17.1221 117.449 16.1357 118.172 15.4082C118.894 14.6807 119.783 14.3169 120.838 14.3169C121.932 14.3169 122.776 14.6416 123.372 15.291C123.973 15.9404 124.273 16.8218 124.273 17.9351V18.9092ZM122.127 17.4883C122.127 16.4141 121.692 15.877 120.823 15.877C120.452 15.877 120.13 16.0308 119.856 16.3384C119.588 16.646 119.424 17.0293 119.366 17.4883H122.127Z" fill="white"/>
<path d="M132 0H5C2.23858 0 0 2.23858 0 5V27C0 29.7614 2.23858 32 5 32H132C134.761 32 137 29.7614 137 27V5C137 2.23858 134.761 0 132 0Z" fill="url(#paint0_linear)"/>
<defs>
<linearGradient id="paint0_linear" x1="0" y1="0" x2="0" y2="32" gradientUnits="userSpaceOnUse">
<stop stop-color="#BBBBBB" stop-opacity="0.1"/>
<stop offset="1" stop-opacity="0.1"/>
</linearGradient>
</defs>
</svg>
