<svg width="98" height="32" viewBox="0 0 98 32" fill="none" xmlns="http://www.w3.org/2000/svg">
<path d="M93 0H31V32H93C95.7614 32 98 29.7614 98 27V5C98 2.23858 95.7614 0 93 0Z" fill="#0F1418"/>
<path d="M31 0H5C2.23858 0 0 2.23858 0 5V27C0 29.7614 2.23858 32 5 32H31V0Z" fill="#D3044C"/>
<path d="M9.3625 19.1172H7V4H9.3625V19.1172ZM14.0734 7.56719H11.7109V28H14.0734V7.56719ZM18.7891 7.56719H16.4266V28H18.7891V7.56719ZM23.5 7.5625H21.1375V19.1406H23.5V7.5625Z" fill="white"/>
<path d="M53.5471 21.2969C52.5217 21.8877 51.2473 22.1831 49.7238 22.1831C48.0344 22.1831 46.7014 21.7168 45.7248 20.7842C44.7531 19.8467 44.2673 18.5576 44.2673 16.917C44.2673 15.2666 44.7995 13.9214 45.864 12.8813C46.9284 11.8413 48.3444 11.3213 50.112 11.3213C51.2253 11.3213 52.2067 11.4751 53.0563 11.7827V14.002C52.2458 13.5332 51.2546 13.2988 50.0827 13.2988C49.1013 13.2988 48.3005 13.6187 47.6804 14.2583C47.0651 14.8931 46.7575 15.7427 46.7575 16.8071C46.7575 17.8862 47.0334 18.7212 47.5852 19.312C48.1418 19.9028 48.8913 20.1982 49.8337 20.1982C50.4001 20.1982 50.8493 20.1177 51.1813 19.9565V17.9058H49.0793V16.0161H53.5471V21.2969ZM56.979 13.3135C56.5884 13.3135 56.2686 13.1987 56.0196 12.9692C55.7705 12.7349 55.646 12.4492 55.646 12.1123C55.646 11.7656 55.7705 11.4824 56.0196 11.2627C56.2686 11.043 56.5884 10.9331 56.979 10.9331C57.3745 10.9331 57.6944 11.043 57.9385 11.2627C58.1875 11.4824 58.312 11.7656 58.312 12.1123C58.312 12.4639 58.1875 12.752 57.9385 12.9766C57.6944 13.2012 57.3745 13.3135 56.979 13.3135ZM58.1216 22H55.8071V14.5H58.1216V22ZM64.7835 21.9121C64.4417 22.0928 63.9266 22.1831 63.2381 22.1831C61.6073 22.1831 60.7918 21.3359 60.7918 19.6416V16.2065H59.576V14.5H60.7918V12.8813L63.099 12.2222V14.5H64.7835V16.2065H63.099V19.2388C63.099 20.02 63.409 20.4106 64.0291 20.4106C64.2733 20.4106 64.5247 20.3398 64.7835 20.1982V21.9121ZM70.8083 21.9121C70.4665 22.0928 69.9513 22.1831 69.2629 22.1831C67.632 22.1831 66.8166 21.3359 66.8166 19.6416V16.2065H65.6007V14.5H66.8166V12.8813L69.1237 12.2222V14.5H70.8083V16.2065H69.1237V19.2388C69.1237 20.02 69.4338 20.4106 70.0539 20.4106C70.298 20.4106 70.5495 20.3398 70.8083 20.1982V21.9121ZM78.979 18.9092H74.0864C74.1645 19.998 74.8506 20.5425 76.1445 20.5425C76.9697 20.5425 77.6948 20.3472 78.3198 19.9565V21.6265C77.6264 21.9976 76.7256 22.1831 75.6172 22.1831C74.4062 22.1831 73.4663 21.8486 72.7973 21.1797C72.1284 20.5059 71.7939 19.5684 71.7939 18.3672C71.7939 17.1221 72.1553 16.1357 72.8779 15.4082C73.6006 14.6807 74.4892 14.3169 75.5439 14.3169C76.6377 14.3169 77.4824 14.6416 78.0781 15.291C78.6787 15.9404 78.979 16.8218 78.979 17.9351V18.9092ZM76.833 17.4883C76.833 16.4141 76.3984 15.877 75.5293 15.877C75.1582 15.877 74.8359 16.0308 74.5625 16.3384C74.2939 16.646 74.1303 17.0293 74.0718 17.4883H76.833ZM85.4285 16.5874C85.1502 16.436 84.8255 16.3604 84.4544 16.3604C83.9515 16.3604 83.5584 16.5459 83.2752 16.917C82.992 17.2832 82.8504 17.7837 82.8504 18.4185V22H80.5359V14.5H82.8504V15.8916H82.8797C83.2459 14.876 83.9051 14.3682 84.8572 14.3682C85.1014 14.3682 85.2918 14.3975 85.4285 14.4561V16.5874Z" fill="white"/>
<path d="M93 0H5C2.23858 0 0 2.23858 0 5V27C0 29.7614 2.23857 32 5 32H93C95.7614 32 98 29.7614 98 27V5C98 2.23858 95.7614 0 93 0Z" fill="url(#paint0_linear)"/>
<defs>
<linearGradient id="paint0_linear" x1="0" y1="0" x2="0" y2="32" gradientUnits="userSpaceOnUse">
<stop stop-color="#BBBBBB" stop-opacity="0.1"/>
<stop offset="1" stop-opacity="0.1"/>
</linearGradient>
</defs>
</svg>
