<svg width="98" height="32" viewBox="0 0 98 32" fill="none" xmlns="http://www.w3.org/2000/svg">
<path d="M93 0H31V32H93C95.7614 32 98 29.7614 98 27V5C98 2.23858 95.7614 0 93 0Z" fill="#0F1418"/>
<path d="M5 0.5H30.5V31.5H5C2.51472 31.5 0.5 29.4853 0.5 27V5C0.5 2.51472 2.51472 0.5 5 0.5Z" fill="white" stroke="#151A1E"/>
<path d="M25 7H7V25H25V7Z" fill="#ECEFF1"/>
<path d="M16 17.8932L25 25.0002V10.9692L16 17.8932Z" fill="#CFD8DC"/>
<path d="M25.75 7H25L16 14.107L7 7H6.25C5.008 7 4 8.008 4 9.25V22.75C4 23.992 5.008 25 6.25 25H7V10.969L16 17.8915L25 10.9675V25H25.75C26.992 25 28 23.992 28 22.75V9.25C28 8.008 26.992 7 25.75 7Z" fill="#F44336"/>
<path d="M53.4613 21.2969C52.4359 21.8877 51.1615 22.1831 49.638 22.1831C47.9486 22.1831 46.6156 21.7168 45.639 20.7842C44.6673 19.8467 44.1815 18.5576 44.1815 16.917C44.1815 15.2666 44.7137 13.9214 45.7782 12.8813C46.8426 11.8413 48.2587 11.3213 50.0262 11.3213C51.1395 11.3213 52.121 11.4751 52.9706 11.7827V14.002C52.16 13.5332 51.1688 13.2988 49.9969 13.2988C49.0155 13.2988 48.2147 13.6187 47.5946 14.2583C46.9794 14.8931 46.6717 15.7427 46.6717 16.8071C46.6717 17.8862 46.9476 18.7212 47.4994 19.312C48.056 19.9028 48.8055 20.1982 49.7479 20.1982C50.3143 20.1982 50.7635 20.1177 51.0956 19.9565V17.9058H48.9935V16.0161H53.4613V21.2969ZM67.6305 22H65.3234V17.7227C65.3234 16.6338 64.923 16.0894 64.1222 16.0894C63.7414 16.0894 63.4313 16.2529 63.1921 16.5801C62.9528 16.9072 62.8332 17.3149 62.8332 17.8032V22H60.5187V17.6787C60.5187 16.6191 60.1257 16.0894 59.3395 16.0894C58.944 16.0894 58.6266 16.2456 58.3874 16.5581C58.153 16.8706 58.0358 17.2954 58.0358 17.8325V22H55.7214V14.5H58.0358V15.6719H58.0651C58.3044 15.2715 58.6388 14.9468 59.0685 14.6978C59.5031 14.4438 59.9767 14.3169 60.4894 14.3169C61.549 14.3169 62.2741 14.7832 62.6647 15.7158C63.236 14.7832 64.0759 14.3169 65.1843 14.3169C66.8151 14.3169 67.6305 15.3228 67.6305 17.3345V22ZM75.8818 22H73.6919V20.9233H73.6626C73.1597 21.7632 72.415 22.1831 71.4287 22.1831C70.7012 22.1831 70.1274 21.978 69.7075 21.5679C69.2925 21.1528 69.085 20.6011 69.085 19.9126C69.085 18.4575 69.9468 17.6177 71.6704 17.3931L73.7065 17.1221C73.7065 16.3018 73.2622 15.8916 72.3735 15.8916C71.48 15.8916 70.6304 16.1577 69.8247 16.6899V14.9468C70.147 14.7808 70.5864 14.6343 71.1431 14.5073C71.7046 14.3804 72.2148 14.3169 72.6738 14.3169C74.8125 14.3169 75.8818 15.3838 75.8818 17.5176V22ZM73.7065 18.9531V18.4478L72.3442 18.6235C71.5923 18.7212 71.2163 19.0605 71.2163 19.6416C71.2163 19.9053 71.3066 20.1226 71.4873 20.2935C71.6729 20.4595 71.9219 20.5425 72.2344 20.5425C72.6689 20.5425 73.0229 20.3936 73.2964 20.0957C73.5698 19.793 73.7065 19.4121 73.7065 18.9531ZM79.0648 13.3135C78.6741 13.3135 78.3543 13.1987 78.1053 12.9692C77.8563 12.7349 77.7318 12.4492 77.7318 12.1123C77.7318 11.7656 77.8563 11.4824 78.1053 11.2627C78.3543 11.043 78.6741 10.9331 79.0648 10.9331C79.4603 10.9331 79.7801 11.043 80.0242 11.2627C80.2733 11.4824 80.3978 11.7656 80.3978 12.1123C80.3978 12.4639 80.2733 12.752 80.0242 12.9766C79.7801 13.2012 79.4603 13.3135 79.0648 13.3135ZM80.2073 22H77.8929V14.5H80.2073V22ZM84.65 22H82.3356V10.8965H84.65V22Z" fill="white"/>
<path d="M93 0H5C2.23858 0 0 2.23858 0 5V27C0 29.7614 2.23857 32 5 32H93C95.7614 32 98 29.7614 98 27V5C98 2.23858 95.7614 0 93 0Z" fill="url(#paint0_linear)"/>
<defs>
<linearGradient id="paint0_linear" x1="0" y1="0" x2="0" y2="32" gradientUnits="userSpaceOnUse">
<stop stop-color="#BBBBBB" stop-opacity="0.1"/>
<stop offset="1" stop-opacity="0.1"/>
</linearGradient>
</defs>
</svg>
