<svg width="129" height="32" viewBox="0 0 129 32" fill="none" xmlns="http://www.w3.org/2000/svg">
<path d="M124 0H31V32H124C126.761 32 129 29.7614 129 27V5C129 2.23858 126.761 0 124 0Z" fill="#0F1418"/>
<path d="M31 0H5C2.23858 0 0 2.23858 0 5V27C0 29.7614 2.23858 32 5 32H31V0Z" fill="url(#paint0_linear)"/>
<path d="M15.9277 9.67035C12.5224 9.67035 9.77574 12.417 9.77574 15.8223C9.77574 19.2275 12.5224 21.9742 15.9277 21.9742C19.3329 21.9742 22.0796 19.2275 22.0796 15.8223C22.0796 12.417 19.3329 9.67035 15.9277 9.67035ZM15.9277 19.8218C13.7271 19.8218 11.9281 18.0282 11.9281 15.8223C11.9281 13.6164 13.7218 11.8227 15.9277 11.8227C18.1336 11.8227 19.9272 13.6164 19.9272 15.8223C19.9272 18.0282 18.1282 19.8218 15.9277 19.8218ZM23.7661 9.4187C23.7661 10.2165 23.1237 10.8536 22.3312 10.8536C21.5335 10.8536 20.8963 10.2111 20.8963 9.4187C20.8963 8.62629 21.5388 7.98379 22.3312 7.98379C23.1237 7.98379 23.7661 8.62629 23.7661 9.4187ZM27.8407 10.875C27.7496 8.95289 27.3106 7.25027 25.9025 5.84748C24.4997 4.44469 22.797 4.00565 20.8749 3.90928C18.8939 3.79684 12.9561 3.79684 10.9751 3.90928C9.05828 4.0003 7.35566 4.43934 5.94752 5.84213C4.53938 7.24492 4.10569 8.94754 4.00932 10.8697C3.89688 12.8507 3.89688 18.7885 4.00932 20.7695C4.10034 22.6917 4.53938 24.3943 5.94752 25.7971C7.35566 27.1999 9.05293 27.6389 10.9751 27.7353C12.9561 27.8477 18.8939 27.8477 20.8749 27.7353C22.797 27.6442 24.4997 27.2052 25.9025 25.7971C27.3052 24.3943 27.7443 22.6917 27.8407 20.7695C27.9531 18.7885 27.9531 12.8561 27.8407 10.875ZM25.2814 22.8951C24.8638 23.9445 24.0553 24.753 23.0005 25.176C21.421 25.8024 17.6731 25.6579 15.9277 25.6579C14.1822 25.6579 10.4289 25.7971 8.85483 25.176C7.80541 24.7584 6.99693 23.9499 6.57396 22.8951C5.94752 21.3156 6.09208 17.5677 6.09208 15.8223C6.09208 14.0768 5.95287 10.3236 6.57396 8.74944C6.99158 7.70002 7.80006 6.89154 8.85483 6.46857C10.4343 5.84213 14.1822 5.98669 15.9277 5.98669C17.6731 5.98669 21.4264 5.84748 23.0005 6.46857C24.0499 6.88619 24.8584 7.69467 25.2814 8.74944C25.9078 10.3289 25.7632 14.0768 25.7632 15.8223C25.7632 17.5677 25.9078 21.321 25.2814 22.8951Z" fill="white"/>
<path d="M47.1267 22H44.761V11.4971H47.1267V22ZM56.982 22H54.6748V17.8325C54.6748 16.6704 54.2598 16.0894 53.4297 16.0894C53.0293 16.0894 52.6997 16.2432 52.441 16.5508C52.1822 16.8584 52.0528 17.249 52.0528 17.7227V22H49.7383V14.5H52.0528V15.6865H52.0821C52.6338 14.7734 53.437 14.3169 54.4917 14.3169C56.1519 14.3169 56.982 15.3472 56.982 17.4077V22ZM58.5096 21.8022V19.9272C58.8905 20.1567 59.2689 20.3276 59.6449 20.4399C60.0257 20.5522 60.3846 20.6084 60.7215 20.6084C61.1317 20.6084 61.454 20.5522 61.6883 20.4399C61.9276 20.3276 62.0472 20.1567 62.0472 19.9272C62.0472 19.7808 61.9935 19.6587 61.8861 19.561C61.7787 19.4634 61.6395 19.3779 61.4686 19.3047C61.3026 19.2314 61.1195 19.1655 60.9193 19.1069C60.7191 19.0483 60.5262 18.9824 60.3407 18.9092C60.0428 18.7969 59.7792 18.6772 59.5497 18.5503C59.3251 18.4185 59.1346 18.2671 58.9784 18.0962C58.827 17.9253 58.7098 17.7275 58.6268 17.5029C58.5487 17.2783 58.5096 17.0122 58.5096 16.7046C58.5096 16.2847 58.6 15.9233 58.7806 15.6206C58.9662 15.3179 59.2103 15.0713 59.513 14.8809C59.8207 14.6855 60.1698 14.5439 60.5604 14.4561C60.9559 14.3633 61.3661 14.3169 61.7909 14.3169C62.1229 14.3169 62.4598 14.3438 62.8016 14.3975C63.1434 14.4463 63.4803 14.5195 63.8124 14.6172V16.4043C63.5194 16.2334 63.2045 16.1064 62.8675 16.0234C62.5355 15.9355 62.2084 15.8916 61.8861 15.8916C61.7347 15.8916 61.5907 15.9062 61.454 15.9355C61.3221 15.96 61.2049 15.999 61.1024 16.0527C60.9999 16.1016 60.9193 16.1675 60.8607 16.2505C60.8021 16.3286 60.7728 16.4189 60.7728 16.5215C60.7728 16.6582 60.8168 16.7754 60.9046 16.873C60.9925 16.9707 61.1073 17.0562 61.2489 17.1294C61.3905 17.1978 61.5467 17.2612 61.7176 17.3198C61.8934 17.3735 62.0668 17.4297 62.2377 17.4883C62.5453 17.5957 62.8236 17.7129 63.0726 17.8398C63.3216 17.9668 63.534 18.1157 63.7098 18.2866C63.8905 18.4575 64.0272 18.6577 64.12 18.8872C64.2176 19.1167 64.2665 19.3901 64.2665 19.7075C64.2665 20.1519 64.1688 20.5327 63.9735 20.8501C63.7831 21.1626 63.5267 21.4189 63.2045 21.6191C62.8871 21.8145 62.5184 21.9561 62.0985 22.0439C61.6835 22.1367 61.2513 22.1831 60.8021 22.1831C59.9769 22.1831 59.2128 22.0562 58.5096 21.8022ZM70.3205 21.9121C69.9787 22.0928 69.4636 22.1831 68.7751 22.1831C67.1442 22.1831 66.3288 21.3359 66.3288 19.6416V16.2065H65.113V14.5H66.3288V12.8813L68.6359 12.2222V14.5H70.3205V16.2065H68.6359V19.2388C68.6359 20.02 68.946 20.4106 69.5661 20.4106C69.8102 20.4106 70.0617 20.3398 70.3205 20.1982V21.9121ZM78.0518 22H75.8618V20.9233H75.8325C75.3296 21.7632 74.585 22.1831 73.5986 22.1831C72.8711 22.1831 72.2974 21.978 71.8774 21.5679C71.4624 21.1528 71.2549 20.6011 71.2549 19.9126C71.2549 18.4575 72.1167 17.6177 73.8403 17.3931L75.8765 17.1221C75.8765 16.3018 75.4321 15.8916 74.5435 15.8916C73.6499 15.8916 72.8003 16.1577 71.9946 16.6899V14.9468C72.3169 14.7808 72.7563 14.6343 73.313 14.5073C73.8745 14.3804 74.3848 14.3169 74.8438 14.3169C76.9824 14.3169 78.0518 15.3838 78.0518 17.5176V22ZM75.8765 18.9531V18.4478L74.5142 18.6235C73.7622 18.7212 73.3862 19.0605 73.3862 19.6416C73.3862 19.9053 73.4766 20.1226 73.6572 20.2935C73.8428 20.4595 74.0918 20.5425 74.4043 20.5425C74.8389 20.5425 75.1929 20.3936 75.4663 20.0957C75.7397 19.793 75.8765 19.4121 75.8765 18.9531ZM87.4163 21.1431C87.4163 22.5347 87.0135 23.6113 86.2078 24.373C85.4022 25.1396 84.2352 25.5229 82.7069 25.5229C81.6961 25.5229 80.8953 25.3789 80.3045 25.0908V23.1426C81.076 23.5918 81.8548 23.8164 82.6409 23.8164C83.4222 23.8164 84.0277 23.6089 84.4573 23.1938C84.887 22.7837 85.1019 22.2246 85.1019 21.5166V20.9233H85.0726C84.5452 21.7632 83.7664 22.1831 82.7362 22.1831C81.7791 22.1831 81.0198 21.8462 80.4583 21.1724C79.8968 20.4985 79.616 19.5952 79.616 18.4624C79.616 17.1929 79.9285 16.1846 80.5535 15.4375C81.1785 14.6904 82.0013 14.3169 83.0218 14.3169C83.9349 14.3169 84.6185 14.6685 85.0726 15.3716H85.1019V14.5H87.4163V21.1431ZM85.1312 18.3965V17.8032C85.1312 17.3296 84.9896 16.9268 84.7064 16.5947C84.428 16.2578 84.0643 16.0894 83.6151 16.0894C83.1024 16.0894 82.6995 16.2896 82.4066 16.6899C82.1136 17.0903 81.9671 17.6543 81.9671 18.3818C81.9671 19.0068 82.1063 19.5024 82.3846 19.8687C82.6629 20.23 83.0438 20.4106 83.5272 20.4106C84.0057 20.4106 84.3914 20.2275 84.6844 19.8613C84.9822 19.4902 85.1312 19.002 85.1312 18.3965ZM94.4225 16.5874C94.1442 16.436 93.8195 16.3604 93.4484 16.3604C92.9454 16.3604 92.5524 16.5459 92.2692 16.917C91.986 17.2832 91.8444 17.7837 91.8444 18.4185V22H89.5299V14.5H91.8444V15.8916H91.8737C92.2399 14.876 92.8991 14.3682 93.8512 14.3682C94.0954 14.3682 94.2858 14.3975 94.4225 14.4561V16.5874ZM101.927 22H99.7368V20.9233H99.7075C99.2045 21.7632 98.4599 22.1831 97.4736 22.1831C96.7461 22.1831 96.1723 21.978 95.7524 21.5679C95.3374 21.1528 95.1298 20.6011 95.1298 19.9126C95.1298 18.4575 95.9917 17.6177 97.7153 17.3931L99.7514 17.1221C99.7514 16.3018 99.3071 15.8916 98.4184 15.8916C97.5249 15.8916 96.6753 16.1577 95.8696 16.6899V14.9468C96.1919 14.7808 96.6313 14.6343 97.1879 14.5073C97.7495 14.3804 98.2597 14.3169 98.7187 14.3169C100.857 14.3169 101.927 15.3838 101.927 17.5176V22ZM99.7514 18.9531V18.4478L98.3891 18.6235C97.6372 18.7212 97.2612 19.0605 97.2612 19.6416C97.2612 19.9053 97.3515 20.1226 97.5322 20.2935C97.7177 20.4595 97.9668 20.5425 98.2793 20.5425C98.7138 20.5425 99.0678 20.3936 99.3413 20.0957C99.6147 19.793 99.7514 19.4121 99.7514 18.9531ZM115.847 22H113.54V17.7227C113.54 16.6338 113.139 16.0894 112.339 16.0894C111.958 16.0894 111.648 16.2529 111.408 16.5801C111.169 16.9072 111.05 17.3149 111.05 17.8032V22H108.735V17.6787C108.735 16.6191 108.342 16.0894 107.556 16.0894C107.16 16.0894 106.843 16.2456 106.604 16.5581C106.369 16.8706 106.252 17.2954 106.252 17.8325V22H103.938V14.5H106.252V15.6719H106.282C106.521 15.2715 106.855 14.9468 107.285 14.6978C107.72 14.4438 108.193 14.3169 108.706 14.3169C109.765 14.3169 110.491 14.7832 110.881 15.7158C111.452 14.7832 112.292 14.3169 113.401 14.3169C115.032 14.3169 115.847 15.3228 115.847 17.3345V22Z" fill="white"/>
<path d="M124 0H5C2.23858 0 0 2.23858 0 5V27C0 29.7614 2.23858 32 5 32H124C126.761 32 129 29.7614 129 27V5C129 2.23858 126.761 0 124 0Z" fill="url(#paint1_linear)"/>
<defs>
<linearGradient id="paint0_linear" x1="31" y1="9.53674e-07" x2="-6.81608e-07" y2="32" gradientUnits="userSpaceOnUse">
<stop stop-color="#A835B6"/>
<stop offset="0.578125" stop-color="#E94657"/>
<stop offset="1" stop-color="#FEBD59"/>
</linearGradient>
<linearGradient id="paint1_linear" x1="0" y1="0" x2="0" y2="32" gradientUnits="userSpaceOnUse">
<stop stop-color="#BBBBBB" stop-opacity="0.1"/>
<stop offset="1" stop-opacity="0.1"/>
</linearGradient>
</defs>
</svg>
