<svg width="103" height="32" viewBox="0 0 103 32" fill="none" xmlns="http://www.w3.org/2000/svg">
<path d="M98 0H31V32H98C100.761 32 103 29.7614 103 27V5C103 2.23858 100.761 0 98 0Z" fill="#0F1418"/>
<path d="M31 0H5C2.23858 0 0 2.23858 0 5V27C0 29.7614 2.23858 32 5 32H31V0Z" fill="#ABA6A5"/>
<path d="M14.7659 23.5396C14.377 23.5004 14.0203 23.3779 13.721 23.1807C13.4563 23.0064 13.2245 22.7601 13.068 22.4873L13.027 22.4158L12.8551 22.3574C12.2762 22.1609 11.7221 21.9075 11.1695 21.5864C11.0874 21.5387 10.9879 21.4793 10.9484 21.4544C10.9089 21.4296 10.8735 21.4111 10.8699 21.4133C10.8662 21.4156 10.5738 21.8007 10.2201 22.269C9.86645 22.7374 9.56077 23.135 9.54084 23.1525C9.46272 23.2213 9.36384 23.2538 9.2526 23.2474C9.04548 23.2353 8.89026 23.0796 8.87883 22.8723C8.87448 22.7935 8.88203 22.7491 8.91141 22.6808C8.92132 22.6578 9.1976 22.2846 9.56469 21.7984C9.91456 21.3351 10.2008 20.9531 10.2008 20.9496C10.2008 20.9461 10.1545 20.9072 10.0979 20.8632C9.88132 20.6945 9.61669 20.4665 9.4461 20.3016C9.21938 20.0824 9.01826 19.8718 8.88496 19.7142C8.83358 19.6534 8.81229 19.6337 8.8002 19.6358C8.79132 19.6374 8.30817 19.8331 7.72654 20.0707C7.1449 20.3083 6.64929 20.5086 6.62517 20.5158C6.57028 20.5321 6.48076 20.5325 6.42033 20.5168C6.21801 20.4641 6.08941 20.2663 6.12402 20.0611C6.14268 19.9505 6.21974 19.8363 6.31141 19.7834C6.33049 19.7724 6.63128 19.647 6.97982 19.5047C7.32835 19.3625 7.76599 19.1839 7.95235 19.1078C8.13871 19.0318 8.29578 18.967 8.30139 18.9638C8.30886 18.9597 8.30375 18.9465 8.28231 18.9146C8.2662 18.8907 8.21782 18.8127 8.17479 18.7413C7.72723 17.9987 7.46146 17.238 7.37214 16.444C7.34559 16.2081 7.33919 16.0503 7.33919 15.6326L7.33919 15.2126L7.21399 15.1853C6.88661 15.1139 6.50063 14.993 6.17214 14.8589C5.88769 14.7428 5.5017 14.5485 5.19362 14.3664C4.96135 14.2292 4.62833 13.9619 4.38135 13.7145C3.78421 13.1164 3.43585 12.4195 3.36295 11.6771C3.3517 11.5625 3.35168 11.2664 3.36292 11.1524C3.41323 10.642 3.59363 10.1432 3.89129 9.69125C4.3038 9.06499 4.92656 8.65051 5.66786 8.50884C6.01205 8.44307 6.40034 8.43481 6.78098 8.48518C7.46273 8.5754 8.23116 8.87473 8.83249 9.28434C9.26601 9.57964 9.71505 10.0223 10.0705 10.5049L10.1288 10.5839L10.2112 10.5386C10.425 10.421 10.7841 10.2545 11.0323 10.1578C12.2711 9.67549 13.7927 9.4466 15.5489 9.47838C17.113 9.50669 18.4551 9.79152 19.553 10.3282C19.6462 10.3737 19.7659 10.4353 19.819 10.465C19.8951 10.5076 19.9173 10.5168 19.9245 10.5087C19.9296 10.5031 19.9715 10.4495 20.0177 10.3895C20.3081 10.0127 20.6681 9.654 21.0222 9.38879C21.5684 8.97968 22.3097 8.65333 22.9919 8.52161C23.4431 8.43451 23.9173 8.42995 24.3321 8.50874C24.6511 8.56931 24.9611 8.68643 25.2385 8.85109C25.6327 9.08508 25.9691 9.43408 26.2177 9.86704C26.4466 10.2656 26.587 10.6897 26.6326 11.1201C26.6468 11.2533 26.6486 11.5588 26.6361 11.6858C26.5443 12.6165 26.0104 13.4785 25.1016 14.1638C24.9618 14.2692 24.8755 14.3269 24.7437 14.4032C24.0662 14.7954 23.4109 15.0543 22.7336 15.1972L22.669 15.2108L22.6687 15.5792C22.6682 16.2994 22.6047 16.7705 22.4313 17.3417C22.2738 17.8607 21.993 18.4511 21.6861 18.909C21.6598 18.9484 21.6413 18.9834 21.645 18.9869C21.6488 18.9904 22.0769 19.1666 22.5964 19.3785C23.1158 19.5903 23.5559 19.7724 23.5742 19.7832C23.7069 19.8608 23.7871 20.0321 23.7629 20.1866C23.7385 20.3428 23.6182 20.4773 23.4679 20.5164C23.4094 20.5317 23.3201 20.5322 23.2664 20.5177C23.2277 20.5072 22.9032 20.3756 21.4351 19.7751L21.1296 19.6501L21.1041 19.6796C20.738 20.104 20.3055 20.5096 19.7969 20.9056L19.7743 20.9231L20.4229 21.782C20.8023 22.2845 21.0784 22.6574 21.0884 22.6807C21.1153 22.7438 21.123 22.7808 21.1229 22.8456C21.1226 22.9617 21.0853 23.0529 21.0055 23.1329C20.8574 23.2815 20.6147 23.2895 20.4574 23.151C20.4385 23.1343 20.1279 22.7299 19.7672 22.2522C19.1169 21.3912 19.1111 21.3839 19.0927 21.3959C19.0825 21.4026 18.993 21.4568 18.8938 21.5164C18.3212 21.8602 17.7366 22.1337 17.1119 22.3499C17.0302 22.3781 16.9628 22.4023 16.9621 22.4035C16.8298 22.6285 16.7553 22.7263 16.5909 22.8905C16.4541 23.0271 16.3756 23.0921 16.2432 23.1786C15.9626 23.3618 15.6701 23.4732 15.335 23.5244C15.2104 23.5435 14.8896 23.552 14.7659 23.5396H14.7659ZM15.1361 22.8373C15.8384 22.7707 16.3955 22.2668 16.5011 21.6024C16.5166 21.5054 16.5187 21.3086 16.5054 21.2016C16.4284 20.5792 16.0035 20.1254 15.3806 20.0003C15.0042 19.9246 14.5862 19.9666 14.267 20.1121C14.0588 20.2069 13.8633 20.366 13.7343 20.5454C13.6705 20.6343 13.5864 20.8 13.5519 20.9052C13.4461 21.2276 13.4631 21.6289 13.5966 21.9627C13.706 22.2361 13.8977 22.4618 14.1565 22.6217C14.4193 22.7842 14.8038 22.8688 15.1361 22.8373V22.8373ZM12.7805 21.3663C12.7809 21.1891 12.7839 21.1355 12.799 21.0385C12.8672 20.5986 13.0472 20.2256 13.3368 19.9242C13.7844 19.4582 14.4197 19.2246 15.1384 19.2617C15.7471 19.2931 16.2568 19.5129 16.6389 19.9086C16.8964 20.1754 17.0637 20.4805 17.1588 20.8568C17.2024 21.029 17.2291 21.283 17.222 21.4583L17.2179 21.5603L17.332 21.5138C17.922 21.2728 18.5609 20.9224 19.0806 20.5547C19.9036 19.9724 20.5693 19.3061 21.0625 18.5712C21.5757 17.8064 21.8709 17.003 21.9421 16.1776C22.0131 15.354 21.9394 14.5358 21.7313 13.8366C21.431 12.8278 20.8352 11.9962 19.9849 11.3992C19.0529 10.7448 17.8419 10.3532 16.3522 10.2244C15.9721 10.1915 15.782 10.1846 15.2543 10.1842C14.7435 10.1838 14.5808 10.1887 14.1847 10.2164C11.9361 10.3735 10.2522 11.0444 9.23156 12.1898C8.64797 12.8448 8.27677 13.653 8.1223 14.605C8.02399 15.2109 8.01304 15.9749 8.09471 16.5288C8.29344 17.8766 9.12729 19.1853 10.4707 20.2579C11.0148 20.6923 11.6747 21.0952 12.3239 21.3892C12.4831 21.4613 12.7571 21.5766 12.7719 21.5776C12.7771 21.578 12.7802 21.5023 12.7805 21.3663V21.3663ZM11.3552 18.9334C10.8761 18.8728 10.504 18.5206 10.4223 18.0505C10.4024 17.936 10.4096 17.7269 10.4371 17.6226C10.5204 17.3063 10.7164 17.0605 10.996 16.9219C11.1597 16.8408 11.2868 16.8115 11.4722 16.8121C11.6655 16.8128 11.7969 16.8445 11.9618 16.9301C12.2462 17.0777 12.4463 17.3457 12.5149 17.6711C12.5351 17.7666 12.5351 17.9792 12.5149 18.0747C12.4236 18.5075 12.1026 18.8296 11.6741 18.9184C11.6114 18.9314 11.4131 18.9408 11.3552 18.9334V18.9334ZM18.4237 18.9224C18.1749 18.891 17.9728 18.7924 17.7961 18.6163C17.6409 18.4616 17.5481 18.2879 17.5051 18.0713C17.4829 17.9595 17.4829 17.7864 17.505 17.6751C17.5908 17.2442 17.9192 16.9183 18.352 16.8345C18.4459 16.8164 18.624 16.8161 18.7225 16.834C19.1582 16.913 19.5005 17.2567 19.5766 17.6916C19.5839 17.7333 19.5892 17.8101 19.5892 17.8729C19.5892 17.9967 19.575 18.0919 19.5405 18.1995C19.4426 18.5046 19.1936 18.7604 18.8889 18.8689C18.7582 18.9154 18.5543 18.9389 18.4237 18.9224L18.4237 18.9224ZM7.42797 14.4723C7.44497 14.3676 7.4937 14.1301 7.52196 14.0142C7.82076 12.7882 8.45263 11.8063 9.43189 11.0461C9.48628 11.0039 9.53078 10.9675 9.53078 10.9652C9.53078 10.957 9.3934 10.7792 9.31049 10.6799C8.98605 10.2916 8.63708 9.98361 8.26749 9.75947C8.15578 9.69173 7.92181 9.56981 7.78708 9.50914C7.3926 9.33151 6.99413 9.21852 6.60444 9.1738C6.45925 9.15714 6.13582 9.15458 6.01513 9.16914C5.55651 9.22445 5.18502 9.37517 4.88021 9.62959C4.46186 9.97877 4.15518 10.5554 4.0724 11.1484C4.05577 11.2675 4.05811 11.5804 4.07659 11.7094C4.17157 12.3723 4.56096 12.9909 5.2119 13.5129C5.44781 13.702 5.62118 13.8104 5.97477 13.9898C6.43067 14.221 6.83558 14.3714 7.30272 14.4828C7.42703 14.5125 7.42136 14.5129 7.42797 14.4723ZM22.9839 14.4068C23.4371 14.2756 23.8876 14.0808 24.3481 13.8166C24.6157 13.6631 24.866 13.4685 25.1113 13.2233C25.5804 12.7542 25.848 12.2488 25.9276 11.6812C25.9417 11.5808 25.9416 11.2506 25.9275 11.1484C25.8527 10.6079 25.5918 10.0801 25.2231 9.72343C24.8996 9.41051 24.4936 9.22886 23.9849 9.16935C23.8574 9.15444 23.5444 9.15683 23.3956 9.17385C22.888 9.23189 22.3647 9.40699 21.8537 9.68978C21.3882 9.94735 20.9466 10.3401 20.5601 10.84L20.5097 10.9052L20.6004 10.9763C20.9159 11.2237 21.2293 11.5307 21.464 11.8224C22.041 12.5398 22.4197 13.4093 22.5801 14.3855C22.5871 14.4277 22.5946 14.4717 22.597 14.4832L22.6012 14.5043L22.7158 14.4777C22.7789 14.4631 22.8995 14.4312 22.9839 14.4068H22.9839Z" fill="white"/>
<path d="M48.4247 22H42.1698V11.4971H44.5355V20.0811H48.4247V22ZM56.8005 18.9092H51.9079C51.986 19.998 52.6721 20.5425 53.966 20.5425C54.7912 20.5425 55.5163 20.3472 56.1413 19.9565V21.6265C55.4479 21.9976 54.5471 22.1831 53.4387 22.1831C52.2277 22.1831 51.2878 21.8486 50.6188 21.1797C49.9499 20.5059 49.6154 19.5684 49.6154 18.3672C49.6154 17.1221 49.9767 16.1357 50.6994 15.4082C51.4221 14.6807 52.3107 14.3169 53.3654 14.3169C54.4592 14.3169 55.3039 14.6416 55.8996 15.291C56.5002 15.9404 56.8005 16.8218 56.8005 17.9351V18.9092ZM54.6545 17.4883C54.6545 16.4141 54.2199 15.877 53.3508 15.877C52.9797 15.877 52.6574 16.0308 52.384 16.3384C52.1154 16.646 51.9518 17.0293 51.8932 17.4883H54.6545ZM70.2666 22H67.9595V17.7227C67.9595 16.6338 67.5591 16.0894 66.7583 16.0894C66.3774 16.0894 66.0674 16.2529 65.8281 16.5801C65.5889 16.9072 65.4692 17.3149 65.4692 17.8032V22H63.1548V17.6787C63.1548 16.6191 62.7617 16.0894 61.9756 16.0894C61.5801 16.0894 61.2627 16.2456 61.0234 16.5581C60.7891 16.8706 60.6719 17.2954 60.6719 17.8325V22H58.3574V14.5H60.6719V15.6719H60.7012C60.9404 15.2715 61.2749 14.9468 61.7046 14.6978C62.1392 14.4438 62.6128 14.3169 63.1255 14.3169C64.1851 14.3169 64.9102 14.7832 65.3008 15.7158C65.8721 14.7832 66.7119 14.3169 67.8203 14.3169C69.4512 14.3169 70.2666 15.3228 70.2666 17.3345V22ZM84.1868 22H81.8797V17.7227C81.8797 16.6338 81.4793 16.0894 80.6785 16.0894C80.2977 16.0894 79.9876 16.2529 79.7484 16.5801C79.5091 16.9072 79.3895 17.3149 79.3895 17.8032V22H77.075V17.6787C77.075 16.6191 76.682 16.0894 75.8958 16.0894C75.5003 16.0894 75.1829 16.2456 74.9437 16.5581C74.7093 16.8706 74.5921 17.2954 74.5921 17.8325V22H72.2777V14.5H74.5921V15.6719H74.6214C74.8607 15.2715 75.1951 14.9468 75.6248 14.6978C76.0594 14.4438 76.533 14.3169 77.0457 14.3169C78.1053 14.3169 78.8304 14.7832 79.221 15.7158C79.7923 14.7832 80.6321 14.3169 81.7405 14.3169C83.3714 14.3169 84.1868 15.3228 84.1868 17.3345V22ZM93.339 14.5L90.2921 22.6006C89.5597 24.5488 88.4562 25.5229 86.9816 25.5229C86.4201 25.5229 85.9586 25.4595 85.5973 25.3325V23.4868C85.9049 23.6675 86.2394 23.7578 86.6007 23.7578C87.1964 23.7578 87.6115 23.4771 87.8458 22.9155L88.2413 21.9854L85.1945 14.5H87.7579L89.1569 19.063C89.2448 19.3462 89.3131 19.6807 89.362 20.0664H89.3913C89.4352 19.7832 89.5158 19.4536 89.6329 19.0776L91.0465 14.5H93.339Z" fill="white"/>
<path d="M98 0H5C2.23858 0 0 2.23858 0 5V27C0 29.7614 2.23858 32 5 32H98C100.761 32 103 29.7614 103 27V5C103 2.23858 100.761 0 98 0Z" fill="url(#paint0_linear)"/>
<defs>
<linearGradient id="paint0_linear" x1="0" y1="0" x2="0" y2="32" gradientUnits="userSpaceOnUse">
<stop stop-color="#BBBBBB" stop-opacity="0.1"/>
<stop offset="1" stop-opacity="0.1"/>
</linearGradient>
</defs>
</svg>
