<svg width="118" height="32" viewBox="0 0 118 32" fill="none" xmlns="http://www.w3.org/2000/svg">
<path d="M113 0H31V32H113C115.761 32 118 29.7614 118 27V5C118 2.23858 115.761 0 113 0Z" fill="#0F1418"/>
<path d="M31 0H5C2.23858 0 0 2.23858 0 5V27C0 29.7614 2.23858 32 5 32H31V0Z" fill="#004880"/>
<path d="M9.92457 26H5.3634V11.3117H9.92457V26ZM7.64153 9.30811C6.18302 9.30811 5 8.10005 5 6.64153C5 5.94095 5.2783 5.26907 5.77369 4.77369C6.26907 4.2783 6.94095 4 7.64153 4C8.34211 4 9.01399 4.2783 9.50938 4.77369C10.0048 5.26907 10.2831 5.94095 10.2831 6.64153C10.2831 8.10005 9.09956 9.30811 7.64153 9.30811ZM26.9956 26H22.4442V18.8498C22.4442 17.1458 22.4099 14.9605 20.0728 14.9605C17.7014 14.9605 17.338 16.8118 17.338 18.7271V26H12.7817V11.3117H17.1563V13.3153H17.2201C17.829 12.1613 19.3165 10.9434 21.5357 10.9434C26.1519 10.9434 27.0005 13.9832 27.0005 17.9315V26H26.9956Z" fill="white"/>
<path d="M50.8427 22H44.5878V11.4971H46.9535V20.0811H50.8427V22ZM53.6521 13.3135C53.2614 13.3135 52.9416 13.1987 52.6926 12.9692C52.4436 12.7349 52.319 12.4492 52.319 12.1123C52.319 11.7656 52.4436 11.4824 52.6926 11.2627C52.9416 11.043 53.2614 10.9331 53.6521 10.9331C54.0476 10.9331 54.3674 11.043 54.6115 11.2627C54.8605 11.4824 54.9851 11.7656 54.9851 12.1123C54.9851 12.4639 54.8605 12.752 54.6115 12.9766C54.3674 13.2012 54.0476 13.3135 53.6521 13.3135ZM54.7946 22H52.4802V14.5H54.7946V22ZM64.1665 22H61.8594V17.8325C61.8594 16.6704 61.4444 16.0894 60.6143 16.0894C60.2139 16.0894 59.8843 16.2432 59.6255 16.5508C59.3667 16.8584 59.2373 17.249 59.2373 17.7227V22H56.9229V14.5H59.2373V15.6865H59.2666C59.8184 14.7734 60.6216 14.3169 61.6763 14.3169C63.3364 14.3169 64.1665 15.3472 64.1665 17.4077V22ZM73.6996 22H70.9237L68.5287 18.2793H68.4994V22H66.1849V10.8965H68.4994V17.9644H68.5287L70.7625 14.5H73.5091L70.8211 18.0229L73.6996 22ZM81.277 18.9092H76.3844C76.4626 19.998 77.1486 20.5425 78.4425 20.5425C79.2677 20.5425 79.9928 20.3472 80.6178 19.9565V21.6265C79.9245 21.9976 79.0236 22.1831 77.9152 22.1831C76.7043 22.1831 75.7643 21.8486 75.0954 21.1797C74.4264 20.5059 74.092 19.5684 74.092 18.3672C74.092 17.1221 74.4533 16.1357 75.1759 15.4082C75.8986 14.6807 76.7873 14.3169 77.842 14.3169C78.9357 14.3169 79.7804 14.6416 80.3761 15.291C80.9767 15.9404 81.277 16.8218 81.277 17.9351V18.9092ZM79.131 17.4883C79.131 16.4141 78.6964 15.877 77.8273 15.877C77.4562 15.877 77.1339 16.0308 76.8605 16.3384C76.592 16.646 76.4284 17.0293 76.3698 17.4883H79.131ZM90.1728 22H87.8584V20.9673H87.8291C87.3017 21.7778 86.5278 22.1831 85.5073 22.1831C84.5698 22.1831 83.8154 21.8535 83.2441 21.1943C82.6728 20.5303 82.3872 19.605 82.3872 18.4185C82.3872 17.1782 82.7021 16.1846 83.332 15.4375C83.9619 14.6904 84.7871 14.3169 85.8076 14.3169C86.7744 14.3169 87.4482 14.6636 87.8291 15.3569H87.8584V10.8965H90.1728V22ZM87.9023 18.3525V17.7886C87.9023 17.3003 87.7607 16.895 87.4775 16.5728C87.1943 16.2505 86.8257 16.0894 86.3716 16.0894C85.8589 16.0894 85.4585 16.292 85.1704 16.6973C84.8823 17.0977 84.7383 17.6494 84.7383 18.3525C84.7383 19.0117 84.8774 19.5195 85.1557 19.876C85.4341 20.2324 85.8198 20.4106 86.313 20.4106C86.7817 20.4106 87.1626 20.2227 87.4556 19.8467C87.7534 19.4707 87.9023 18.9727 87.9023 18.3525ZM95.1575 22H92.7918V11.4971H95.1575V22ZM105.013 22H102.706V17.8325C102.706 16.6704 102.291 16.0894 101.461 16.0894C101.06 16.0894 100.731 16.2432 100.472 16.5508C100.213 16.8584 100.084 17.249 100.084 17.7227V22H97.7692V14.5H100.084V15.6865H100.113C100.665 14.7734 101.468 14.3169 102.523 14.3169C104.183 14.3169 105.013 15.3472 105.013 17.4077V22Z" fill="white"/>
<path d="M113 0H5C2.23858 0 0 2.23858 0 5V27C0 29.7614 2.23858 32 5 32H113C115.761 32 118 29.7614 118 27V5C118 2.23858 115.761 0 113 0Z" fill="url(#paint0_linear)"/>
<defs>
<linearGradient id="paint0_linear" x1="0" y1="0" x2="0" y2="32" gradientUnits="userSpaceOnUse">
<stop stop-color="#BBBBBB" stop-opacity="0.1"/>
<stop offset="1" stop-opacity="0.1"/>
</linearGradient>
</defs>
</svg>
