<svg width="122" height="32" viewBox="0 0 122 32" fill="none" xmlns="http://www.w3.org/2000/svg">
<path d="M117 0H31V32H117C119.761 32 122 29.7614 122 27V5C122 2.23858 119.761 0 117 0Z" fill="#0F1418"/>
<path d="M31 0H5C2.23858 0 0 2.23858 0 5V27C0 29.7614 2.23858 32 5 32H31V0Z" fill="#2B90D9"/>
<g clip-path="url(#clip0)">
<path d="M24.7015 18.0677C24.4056 19.4877 22.0512 21.0418 19.3472 21.3429C17.9372 21.4999 16.549 21.6441 15.0686 21.5808C12.6476 21.4773 10.7373 21.0418 10.7373 21.0418C10.7373 21.2616 10.7519 21.4709 10.7809 21.6667C11.0957 23.8953 13.15 24.0288 15.0961 24.0911C17.0602 24.1538 18.8091 23.6394 18.8091 23.6394L18.8898 25.2957C18.8898 25.2957 17.516 25.9838 15.0686 26.1104C13.7191 26.1796 12.0434 26.0787 10.0917 25.5969C5.85875 24.5518 5.13079 20.343 5.0194 16.0725C4.98545 14.8046 5.00638 13.6089 5.00638 12.609C5.00638 8.24219 8.07369 6.96221 8.07369 6.96221C9.62032 6.29966 12.2742 6.02104 15.0331 6H15.1009C17.8599 6.02104 20.5155 6.29966 22.062 6.96221C22.062 6.96221 25.1292 8.24219 25.1292 12.609C25.1292 12.609 25.1677 15.8309 24.7015 18.0677Z" fill="white"/>
<path d="M21.5113 12.9478V18.2353H19.2655V13.1033C19.2655 12.0214 18.7775 11.4723 17.8014 11.4723C16.7222 11.4723 16.1813 12.1237 16.1813 13.4117V16.2208H13.9488V13.4117C13.9488 12.1237 13.4078 11.4723 12.3286 11.4723C11.3525 11.4723 10.8645 12.0214 10.8645 13.1033V18.2353H8.61877V12.9478C8.61877 11.8672 8.91375 11.0085 9.50626 10.3731C10.1173 9.7378 10.9174 9.41211 11.9107 9.41211C13.0599 9.41211 13.9302 9.82413 14.5056 10.6483L15.065 11.523L15.6245 10.6483C16.1998 9.82413 17.0701 9.41211 18.2194 9.41211C19.2126 9.41211 20.0128 9.7378 20.6239 10.3731C21.2163 11.0085 21.5113 11.8672 21.5113 12.9478Z" fill="#3088D4"/>
</g>
<path d="M53.2748 22H50.9384V15.7158C50.9384 15.0371 50.9677 14.2876 51.0262 13.4673H50.9677C50.8456 14.1118 50.7357 14.5757 50.6381 14.8589L48.1771 22H46.2435L43.7387 14.9321C43.6703 14.7417 43.5604 14.2534 43.4091 13.4673H43.3431C43.4066 14.5024 43.4384 15.4106 43.4384 16.1919V22H41.307V11.4971H44.7714L46.9174 17.7227C47.0883 18.2207 47.2128 18.7212 47.2909 19.2241H47.3348C47.4667 18.6431 47.6058 18.1377 47.7523 17.708L49.8983 11.4971H53.2748V22ZM62.1193 22H59.9294V20.9233H59.9001C59.3972 21.7632 58.6525 22.1831 57.6662 22.1831C56.9387 22.1831 56.3649 21.978 55.945 21.5679C55.53 21.1528 55.3225 20.6011 55.3225 19.9126C55.3225 18.4575 56.1843 17.6177 57.9079 17.3931L59.944 17.1221C59.944 16.3018 59.4997 15.8916 58.611 15.8916C57.7175 15.8916 56.8679 16.1577 56.0622 16.6899V14.9468C56.3845 14.7808 56.8239 14.6343 57.3806 14.5073C57.9421 14.3804 58.4523 14.3169 58.9113 14.3169C61.05 14.3169 62.1193 15.3838 62.1193 17.5176V22ZM59.944 18.9531V18.4478L58.5817 18.6235C57.8298 18.7212 57.4538 19.0605 57.4538 19.6416C57.4538 19.9053 57.5441 20.1226 57.7248 20.2935C57.9104 20.4595 58.1594 20.5425 58.4719 20.5425C58.9064 20.5425 59.2604 20.3936 59.5339 20.0957C59.8073 19.793 59.944 19.4121 59.944 18.9531ZM63.6397 21.8022V19.9272C64.0205 20.1567 64.3989 20.3276 64.7749 20.4399C65.1558 20.5522 65.5147 20.6084 65.8516 20.6084C66.2617 20.6084 66.584 20.5522 66.8184 20.4399C67.0576 20.3276 67.1773 20.1567 67.1773 19.9272C67.1773 19.7808 67.1236 19.6587 67.0161 19.561C66.9087 19.4634 66.7696 19.3779 66.5987 19.3047C66.4326 19.2314 66.2495 19.1655 66.0493 19.1069C65.8491 19.0483 65.6563 18.9824 65.4707 18.9092C65.1729 18.7969 64.9092 18.6772 64.6797 18.5503C64.4551 18.4185 64.2647 18.2671 64.1084 18.0962C63.9571 17.9253 63.8399 17.7275 63.7569 17.5029C63.6787 17.2783 63.6397 17.0122 63.6397 16.7046C63.6397 16.2847 63.73 15.9233 63.9107 15.6206C64.0962 15.3179 64.3404 15.0713 64.6431 14.8809C64.9507 14.6855 65.2998 14.5439 65.6904 14.4561C66.086 14.3633 66.4961 14.3169 66.9209 14.3169C67.2529 14.3169 67.5899 14.3438 67.9317 14.3975C68.2735 14.4463 68.6104 14.5195 68.9424 14.6172V16.4043C68.6494 16.2334 68.3345 16.1064 67.9976 16.0234C67.6655 15.9355 67.3384 15.8916 67.0161 15.8916C66.8648 15.8916 66.7207 15.9062 66.584 15.9355C66.4522 15.96 66.335 15.999 66.2324 16.0527C66.1299 16.1016 66.0493 16.1675 65.9907 16.2505C65.9321 16.3286 65.9029 16.4189 65.9029 16.5215C65.9029 16.6582 65.9468 16.7754 66.0347 16.873C66.1226 16.9707 66.2373 17.0562 66.3789 17.1294C66.5205 17.1978 66.6768 17.2612 66.8477 17.3198C67.0235 17.3735 67.1968 17.4297 67.3677 17.4883C67.6753 17.5957 67.9536 17.7129 68.2027 17.8398C68.4517 17.9668 68.6641 18.1157 68.8399 18.2866C69.0205 18.4575 69.1572 18.6577 69.25 18.8872C69.3477 19.1167 69.3965 19.3901 69.3965 19.7075C69.3965 20.1519 69.2988 20.5327 69.1035 20.8501C68.9131 21.1626 68.6568 21.4189 68.3345 21.6191C68.0171 21.8145 67.6485 21.9561 67.2285 22.0439C66.8135 22.1367 66.3814 22.1831 65.9321 22.1831C65.107 22.1831 64.3428 22.0562 63.6397 21.8022ZM75.4505 21.9121C75.1087 22.0928 74.5936 22.1831 73.9051 22.1831C72.2743 22.1831 71.4588 21.3359 71.4588 19.6416V16.2065H70.243V14.5H71.4588V12.8813L73.766 12.2222V14.5H75.4505V16.2065H73.766V19.2388C73.766 20.02 74.076 20.4106 74.6961 20.4106C74.9403 20.4106 75.1917 20.3398 75.4505 20.1982V21.9121ZM80.4572 22.1831C79.2072 22.1831 78.2233 21.834 77.5055 21.1357C76.7926 20.4326 76.4362 19.4805 76.4362 18.2793C76.4362 17.0391 76.8073 16.0698 77.5495 15.3716C78.2917 14.6685 79.2951 14.3169 80.5597 14.3169C81.8048 14.3169 82.7814 14.6685 83.4894 15.3716C84.1974 16.0698 84.5514 16.9951 84.5514 18.1475C84.5514 19.3926 84.1852 20.3765 83.4528 21.0991C82.7253 21.8218 81.7267 22.1831 80.4572 22.1831ZM80.5158 16.0894C79.9689 16.0894 79.5441 16.2773 79.2414 16.6533C78.9386 17.0293 78.7873 17.5615 78.7873 18.25C78.7873 19.6904 79.3683 20.4106 80.5304 20.4106C81.6388 20.4106 82.193 19.6709 82.193 18.1914C82.193 16.79 81.6339 16.0894 80.5158 16.0894ZM93.5718 22H91.2573V20.9673H91.228C90.7007 21.7778 89.9267 22.1831 88.9062 22.1831C87.9687 22.1831 87.2143 21.8535 86.643 21.1943C86.0718 20.5303 85.7861 19.605 85.7861 18.4185C85.7861 17.1782 86.1011 16.1846 86.7309 15.4375C87.3608 14.6904 88.186 14.3169 89.2065 14.3169C90.1733 14.3169 90.8471 14.6636 91.228 15.3569H91.2573V10.8965H93.5718V22ZM91.3013 18.3525V17.7886C91.3013 17.3003 91.1596 16.895 90.8764 16.5728C90.5932 16.2505 90.2246 16.0894 89.7705 16.0894C89.2578 16.0894 88.8574 16.292 88.5693 16.6973C88.2812 17.0977 88.1372 17.6494 88.1372 18.3525C88.1372 19.0117 88.2763 19.5195 88.5547 19.876C88.833 20.2324 89.2187 20.4106 89.7119 20.4106C90.1806 20.4106 90.5615 20.2227 90.8545 19.8467C91.1523 19.4707 91.3013 18.9727 91.3013 18.3525ZM99.2742 22.1831C98.0242 22.1831 97.0403 21.834 96.3226 21.1357C95.6097 20.4326 95.2532 19.4805 95.2532 18.2793C95.2532 17.0391 95.6243 16.0698 96.3665 15.3716C97.1087 14.6685 98.1121 14.3169 99.3768 14.3169C100.622 14.3169 101.598 14.6685 102.306 15.3716C103.014 16.0698 103.368 16.9951 103.368 18.1475C103.368 19.3926 103.002 20.3765 102.27 21.0991C101.542 21.8218 100.544 22.1831 99.2742 22.1831ZM99.3328 16.0894C98.7859 16.0894 98.3611 16.2773 98.0584 16.6533C97.7557 17.0293 97.6043 17.5615 97.6043 18.25C97.6043 19.6904 98.1854 20.4106 99.3475 20.4106C100.456 20.4106 101.01 19.6709 101.01 18.1914C101.01 16.79 100.451 16.0894 99.3328 16.0894ZM112.294 22H109.986V17.8325C109.986 16.6704 109.571 16.0894 108.741 16.0894C108.341 16.0894 108.011 16.2432 107.753 16.5508C107.494 16.8584 107.364 17.249 107.364 17.7227V22H105.05V14.5H107.364V15.6865H107.394C107.945 14.7734 108.749 14.3169 109.803 14.3169C111.464 14.3169 112.294 15.3472 112.294 17.4077V22Z" fill="white"/>
<path d="M117 0H5C2.23858 0 0 2.23858 0 5V27C0 29.7614 2.23858 32 5 32H117C119.761 32 122 29.7614 122 27V5C122 2.23858 119.761 0 117 0Z" fill="url(#paint0_linear)"/>
<defs>
<linearGradient id="paint0_linear" x1="0" y1="0" x2="0" y2="32" gradientUnits="userSpaceOnUse">
<stop stop-color="#BBBBBB" stop-opacity="0.1"/>
<stop offset="1" stop-opacity="0.1"/>
</linearGradient>
<clipPath id="clip0">
<rect width="20.13" height="20.13" fill="white" transform="translate(5 6)"/>
</clipPath>
</defs>
</svg>
