<svg width="123" height="32" viewBox="0 0 123 32" fill="none" xmlns="http://www.w3.org/2000/svg">
<path d="M118 0H31V32H118C120.761 32 123 29.7614 123 27V5C123 2.23858 120.761 0 118 0Z" fill="#0F1418"/>
<path d="M5 0.5H30.5V31.5H5C2.51472 31.5 0.5 29.4853 0.5 27V5C0.5 2.51472 2.51472 0.5 5 0.5Z" fill="white" stroke="#151A1E"/>
<path d="M66.716 20H65.381V11.255H65.321L62.321 20H60.956L57.971 11.255H57.896V20H56.561V9.215H58.586L61.616 18.23H61.691L64.706 9.215H66.716V20ZM74.8437 19.94H73.4487V19.07H73.3887C73.3387 19.15 73.2587 19.25 73.1487 19.37C73.0387 19.49 72.8887 19.605 72.6987 19.715C72.5087 19.825 72.2687 19.92 71.9787 20C71.6987 20.08 71.3637 20.12 70.9737 20.12C70.7037 20.12 70.4337 20.075 70.1637 19.985C69.9037 19.895 69.6687 19.76 69.4587 19.58C69.2487 19.41 69.0787 19.2 68.9487 18.95C68.8287 18.7 68.7687 18.415 68.7687 18.095C68.7687 17.525 68.9437 17.03 69.2937 16.61C69.6537 16.18 70.0887 15.89 70.5987 15.74C70.9287 15.65 71.2337 15.585 71.5137 15.545C71.8037 15.505 72.0687 15.48 72.3087 15.47C72.5387 15.46 72.7487 15.46 72.9387 15.47C73.1287 15.48 73.2987 15.485 73.4487 15.485V14.945C73.4487 14.825 73.4387 14.685 73.4187 14.525C73.3987 14.365 73.3337 14.19 73.2237 14C73.1337 13.85 72.9737 13.72 72.7437 13.61C72.5137 13.49 72.2437 13.43 71.9337 13.43C71.4937 13.43 71.1437 13.535 70.8837 13.745C70.6237 13.945 70.4937 14.24 70.4937 14.63H68.9787C68.9787 14.34 69.0387 14.055 69.1587 13.775C69.2787 13.495 69.4637 13.245 69.7137 13.025C69.9637 12.805 70.2737 12.63 70.6437 12.5C71.0137 12.36 71.4487 12.29 71.9487 12.29C72.9487 12.29 73.6787 12.545 74.1387 13.055C74.6087 13.555 74.8437 14.16 74.8437 14.87V19.94ZM73.4487 17.075V16.46C73.1987 16.45 72.9187 16.45 72.6087 16.46C72.3087 16.46 71.9937 16.5 71.6637 16.58C71.5037 16.62 71.3387 16.68 71.1687 16.76C71.0087 16.83 70.8587 16.92 70.7187 17.03C70.5787 17.14 70.4637 17.275 70.3737 17.435C70.2937 17.585 70.2537 17.75 70.2537 17.93C70.2537 18.33 70.3787 18.605 70.6287 18.755C70.8887 18.905 71.1837 18.98 71.5137 18.98C71.8037 18.98 72.1387 18.88 72.5187 18.68C72.8987 18.48 73.1687 18.195 73.3287 17.825C73.3587 17.715 73.3837 17.6 73.4037 17.48C73.4337 17.35 73.4487 17.215 73.4487 17.075ZM80.9902 13.64H78.8302V17.435C78.8302 17.645 78.8352 17.845 78.8452 18.035C78.8652 18.225 78.9152 18.395 78.9952 18.545C79.0652 18.695 79.1752 18.815 79.3252 18.905C79.4852 18.985 79.7002 19.025 79.9702 19.025C80.1302 19.025 80.2852 19.02 80.4352 19.01C80.5952 18.99 80.7652 18.95 80.9452 18.89V20.09C80.7052 20.12 80.4902 20.14 80.3002 20.15C80.1102 20.16 79.9302 20.165 79.7602 20.165C78.9802 20.165 78.3952 20 78.0052 19.67C77.6252 19.34 77.4352 18.845 77.4352 18.185V13.64H76.1452V12.515H77.4352V10.835L78.8302 9.995V12.515H80.9902V13.64ZM87.2504 13.73C86.5304 13.73 85.8804 13.88 85.3004 14.18C84.7204 14.47 84.3454 14.95 84.1754 15.62C84.1254 15.82 84.0854 16.035 84.0554 16.265C84.0354 16.485 84.0254 16.715 84.0254 16.955V20H82.6904V12.515H84.0254V14.075H84.1004C84.1304 14.015 84.1704 13.94 84.2204 13.85C84.2804 13.76 84.3454 13.66 84.4154 13.55C84.4954 13.45 84.5804 13.35 84.6704 13.25C84.7604 13.14 84.8654 13.04 84.9854 12.95C85.2854 12.74 85.6004 12.59 85.9304 12.5C86.2604 12.4 86.7004 12.35 87.2504 12.35V13.73ZM90.0704 10.955H88.3604V9.245H90.0704V10.955ZM89.9204 20.045H88.5404V12.575H89.9204V20.045ZM98.6355 19.955H97.0755L95.0055 17.135L92.8905 19.955H91.3304L94.2255 16.055L91.6155 12.485H93.2055L95.0055 14.975L96.8205 12.485H98.3805L95.7555 16.04L98.6355 19.955Z" fill="white"/>
<path d="M118 0H5C2.23858 0 0 2.23858 0 5V27C0 29.7614 2.23858 32 5 32H118C120.761 32 123 29.7614 123 27V5C123 2.23858 120.761 0 118 0Z" fill="url(#paint0_linear_23_3)"/>
<path opacity="0.5" d="M22.0931 20.1437H19.9319C19.8596 20.1437 19.8007 20.0848 19.8007 20.0125V15.5571L19.7706 14.8226C19.7515 14.6073 19.7003 14.4196 19.6178 14.2636C19.539 14.1145 19.42 13.9939 19.2652 13.9049C19.1104 13.816 18.8874 13.77 18.6071 13.77C18.3268 13.77 18.1042 13.8229 17.938 13.9252C17.7718 14.0276 17.6362 14.1678 17.5415 14.3355C17.4397 14.5197 17.3728 14.721 17.3441 14.9295C17.3095 15.1598 17.2921 15.3967 17.2921 15.6331V20.0165C17.2921 20.0889 17.2332 20.1478 17.1608 20.1478H15C14.9277 20.1478 14.8688 20.0889 14.8688 20.0165V15.6018L14.8537 14.9153C14.844 14.7024 14.8034 14.5037 14.7331 14.3262C14.6665 14.1576 14.5584 14.0256 14.4024 13.9232C14.2464 13.8208 14.0075 13.7696 13.6907 13.7696C13.6013 13.7696 13.4766 13.7912 13.3218 13.8334C13.1723 13.874 13.0244 13.9529 12.883 14.0678C12.7417 14.1828 12.619 14.3498 12.5158 14.5695C12.4126 14.7893 12.3606 15.0855 12.3606 15.4499V20.0161C12.3606 20.0885 12.3021 20.1474 12.2294 20.1474H10.0681C9.99581 20.1474 9.9369 20.0885 9.9369 20.0161V12.1467C9.9369 12.0744 9.99581 12.0159 10.0681 12.0159H12.1075C12.1798 12.0159 12.2387 12.0748 12.2387 12.1467V12.8718C12.4898 12.5769 12.779 12.3376 13.102 12.158C13.5212 11.9249 14.0059 11.8066 14.5434 11.8066C15.0573 11.8066 15.5346 11.9082 15.9652 12.1085C16.3447 12.2872 16.6477 12.5838 16.8687 12.9941C17.0946 12.7085 17.3818 12.4497 17.7251 12.2243C18.146 11.9472 18.6489 11.8066 19.2201 11.8066C19.6459 11.8066 20.0472 11.8595 20.4133 11.9639C20.7858 12.0707 21.11 12.2442 21.3773 12.4786C21.6446 12.713 21.8567 13.0262 22.0062 13.404C22.1537 13.7786 22.2284 14.2328 22.2284 14.754V20.0206C22.2284 20.0929 22.1695 20.1518 22.0972 20.1518L22.0931 20.1437Z" fill="white"/>
<path opacity="0.5" d="M12.1075 12.1467V13.2123H12.138C12.4223 12.8069 12.7644 12.4916 13.1658 12.2686C13.5672 12.0456 14.0258 11.9338 14.543 11.9338C15.0402 11.9338 15.4944 12.0305 15.9051 12.2231C16.3158 12.4157 16.6282 12.7553 16.8415 13.2428C17.0747 12.8975 17.392 12.5928 17.793 12.3295C18.1939 12.0663 18.668 11.9338 19.2165 11.9338C19.6325 11.9338 20.018 11.9846 20.3735 12.0862C20.7289 12.1877 21.0328 12.3502 21.2867 12.5737C21.5406 12.7971 21.7377 13.0888 21.8807 13.4487C22.0237 13.8087 22.0939 14.243 22.0939 14.7504V20.017H19.9327V15.5572L19.9022 14.8113C19.8819 14.5781 19.8262 14.3754 19.7348 14.2019C19.6434 14.0285 19.509 13.8924 19.3314 13.7908C19.1539 13.6892 18.913 13.6389 18.6083 13.6389C18.3036 13.6389 18.0578 13.6978 17.8702 13.8136C17.6825 13.9293 17.5354 14.0829 17.4286 14.2702C17.3217 14.4575 17.251 14.6712 17.2157 14.9096C17.18 15.149 17.1622 15.3907 17.1625 15.6327V20.0162H15V15.6027L14.985 14.91C14.9748 14.6817 14.9322 14.4713 14.855 14.2779C14.7778 14.0845 14.6518 13.9306 14.4743 13.8136C14.2968 13.6966 14.0356 13.6389 13.6902 13.6389C13.5887 13.6389 13.4546 13.6616 13.2868 13.7079C13.1083 13.7595 12.9424 13.8476 12.7997 13.9667C12.6421 14.0939 12.5081 14.2763 12.3963 14.5152C12.2846 14.754 12.229 15.0656 12.229 15.4512V20.0174H10.0677V12.1467H12.1075Z" fill="white"/>
<path d="M2.58175 5.47168V26.5288H4.09706V27.0342H2V16.0003V4.96631H4.09706V5.47128L2.58175 5.47168ZM11.0269 12.1464V13.212H11.0573C11.3417 12.8065 11.6838 12.4913 12.0852 12.2682C12.4865 12.0452 12.9452 11.9335 13.4664 11.9335C13.9637 11.9335 14.4178 12.0302 14.8286 12.2227C15.2393 12.4153 15.5517 12.7509 15.765 13.2384C15.9982 12.8931 16.3154 12.5884 16.7164 12.3251C17.1174 12.0619 17.5915 11.9294 18.1399 11.9294C18.5559 11.9294 18.9414 11.9802 19.2969 12.0818C19.6524 12.1833 19.9563 12.3458 20.2102 12.5693C20.4641 12.7927 20.657 13.0844 20.8041 13.4443C20.9512 13.8043 21.0174 14.2386 21.0174 14.746V20.0126H18.8561V15.5532L18.8257 14.8073C18.8053 14.5741 18.7497 14.3714 18.6583 14.1979C18.5669 14.0245 18.4324 13.8884 18.2549 13.7868C18.0773 13.6852 17.8364 13.6349 17.5317 13.6349C17.2271 13.6349 16.9813 13.6938 16.7936 13.8096C16.61 13.9218 16.4581 14.079 16.352 14.2662C16.2452 14.4531 16.1745 14.6672 16.1391 14.9056C16.1035 15.145 16.0857 15.3867 16.0859 15.6287V20.0162H13.9247V15.6027L13.9096 14.9101C13.8995 14.6818 13.8568 14.4713 13.7796 14.278C13.7024 14.0846 13.5765 13.9306 13.399 13.8136C13.2214 13.6966 12.9602 13.6389 12.6149 13.6389C12.5133 13.6389 12.3793 13.6617 12.2115 13.708C12.033 13.7596 11.8671 13.8477 11.7244 13.9668C11.5668 14.0939 11.4327 14.2763 11.321 14.5152C11.2093 14.7541 11.1536 15.0657 11.1536 15.4512V20.0175H8.9875V12.1468L11.0269 12.1464ZM27.4183 26.5284V5.47168H25.9029V4.96631H28V27.0338H25.9029V26.5284H27.4183Z" fill="black"/>
<defs>
<linearGradient id="paint0_linear_23_3" x1="0" y1="0" x2="0" y2="32" gradientUnits="userSpaceOnUse">
<stop stop-color="#BBBBBB" stop-opacity="0.1"/>
<stop offset="1" stop-opacity="0.1"/>
</linearGradient>
</defs>
</svg>
