<svg width="114" height="32" viewBox="0 0 114 32" fill="none" xmlns="http://www.w3.org/2000/svg">
<path d="M109 0H31V32H109C111.761 32 114 29.7614 114 27V5C114 2.23858 111.761 0 109 0Z" fill="#0F1418"/>
<path d="M5 0.5H30.5V31.5H5C2.51472 31.5 0.5 29.4853 0.5 27V5C0.5 2.51472 2.51472 0.5 5 0.5Z" fill="#0078D4" stroke="#151A1E"/>
<path d="M18.8333 9.16675H26.8889C27.037 9.16675 27.213 9.25934 27.4167 9.44453C27.6204 9.62971 27.7222 9.85193 27.7222 10.1112L20.6667 14.8334H20.4444L18.8333 13.8334V9.16675ZM18.8333 15.5556L20.3333 16.5556C20.4074 16.5927 20.4815 16.6112 20.5556 16.6112H20.7222L20.7778 16.5556C20.7037 16.5927 21.2407 16.2316 22.3889 15.4723C23.537 14.713 24.7222 13.9445 25.9444 13.1667L27.7222 12.0001V20.5001C27.7222 20.9445 27.6019 21.2779 27.3611 21.5001C27.1204 21.7223 26.8148 21.8334 26.4444 21.8334H18.8333V15.5556ZM11.1111 13.389C11.5926 13.389 11.9722 13.6205 12.25 14.0834C12.5278 14.5464 12.6667 15.1853 12.6667 16.0001C12.6667 16.8149 12.5278 17.4445 12.25 17.889C11.9722 18.3334 11.5741 18.5556 11.0556 18.5556C10.5741 18.5556 10.1852 18.3242 9.88889 17.8612C9.59259 17.3982 9.44444 16.7779 9.44444 16.0001C9.44444 15.2223 9.59259 14.5927 9.88889 14.1112C10.1852 13.6297 10.5926 13.389 11.1111 13.389ZM4 6.83341L17.9444 4.16675V27.8334L4 24.9445V6.83341ZM13.3333 18.9445C13.9259 18.1667 14.2222 17.1667 14.2222 15.9445C14.2222 14.7223 13.9352 13.7316 13.3611 12.9723C12.787 12.213 12.037 11.8334 11.1111 11.8334C10.1481 11.8334 9.37037 12.2223 8.77778 13.0001C8.18518 13.7779 7.88889 14.8149 7.88889 16.1112C7.88889 17.2964 8.18518 18.2593 8.77778 19.0001C9.37037 19.7408 10.1296 20.1112 11.0556 20.1112C11.9815 20.1112 12.7407 19.7223 13.3333 18.9445Z" fill="white"/>
<path d="M48.9473 22.1831C47.4434 22.1831 46.2178 21.6948 45.2705 20.7183C44.3233 19.7368 43.8496 18.46 43.8496 16.8877C43.8496 15.2275 44.3306 13.8848 45.2925 12.8594C46.2544 11.834 47.5288 11.3213 49.1158 11.3213C50.6148 11.3213 51.8257 11.812 52.7486 12.7935C53.6763 13.7749 54.1402 15.0688 54.1402 16.6753C54.1402 18.3257 53.6592 19.6562 52.6973 20.667C51.7403 21.6777 50.4903 22.1831 48.9473 22.1831ZM49.0498 13.3574C48.2198 13.3574 47.5606 13.6699 47.0723 14.2949C46.584 14.915 46.3399 15.7378 46.3399 16.7632C46.3399 17.8032 46.584 18.626 47.0723 19.2314C47.5606 19.8369 48.2002 20.1396 48.9912 20.1396C49.8067 20.1396 50.4537 19.8467 50.9322 19.2607C51.4107 18.6699 51.6499 17.8521 51.6499 16.8071C51.6499 15.7183 51.418 14.8711 50.9541 14.2656C50.4903 13.6602 49.8555 13.3574 49.0498 13.3574ZM63.2337 22H60.9266V20.8574H60.89C60.3187 21.7412 59.5546 22.1831 58.5975 22.1831C56.8592 22.1831 55.9901 21.1309 55.9901 19.0264V14.5H58.2972V18.8213C58.2972 19.8809 58.7171 20.4106 59.557 20.4106C59.972 20.4106 60.3041 20.2666 60.5531 19.9785C60.8021 19.6855 60.9266 19.29 60.9266 18.792V14.5H63.2337V22ZM69.903 21.9121C69.5612 22.0928 69.0461 22.1831 68.3576 22.1831C66.7267 22.1831 65.9113 21.3359 65.9113 19.6416V16.2065H64.6955V14.5H65.9113V12.8813L68.2184 12.2222V14.5H69.903V16.2065H68.2184V19.2388C68.2184 20.02 68.5285 20.4106 69.1486 20.4106C69.3928 20.4106 69.6442 20.3398 69.903 20.1982V21.9121ZM73.7085 22H71.394V10.8965H73.7085V22ZM79.411 22.1831C78.161 22.1831 77.1771 21.834 76.4593 21.1357C75.7464 20.4326 75.39 19.4805 75.39 18.2793C75.39 17.0391 75.7611 16.0698 76.5032 15.3716C77.2454 14.6685 78.2488 14.3169 79.5135 14.3169C80.7586 14.3169 81.7352 14.6685 82.4432 15.3716C83.1512 16.0698 83.5052 16.9951 83.5052 18.1475C83.5052 19.3926 83.139 20.3765 82.4066 21.0991C81.679 21.8218 80.6805 22.1831 79.411 22.1831ZM79.4696 16.0894C78.9227 16.0894 78.4979 16.2773 78.1951 16.6533C77.8924 17.0293 77.741 17.5615 77.741 18.25C77.741 19.6904 78.3221 20.4106 79.4842 20.4106C80.5926 20.4106 81.1468 19.6709 81.1468 18.1914C81.1468 16.79 80.5877 16.0894 79.4696 16.0894ZM88.7609 22.1831C87.5109 22.1831 86.527 21.834 85.8092 21.1357C85.0963 20.4326 84.7399 19.4805 84.7399 18.2793C84.7399 17.0391 85.111 16.0698 85.8532 15.3716C86.5954 14.6685 87.5988 14.3169 88.8634 14.3169C90.1085 14.3169 91.0851 14.6685 91.7931 15.3716C92.5011 16.0698 92.8551 16.9951 92.8551 18.1475C92.8551 19.3926 92.4889 20.3765 91.7565 21.0991C91.0289 21.8218 90.0304 22.1831 88.7609 22.1831ZM88.8195 16.0894C88.2726 16.0894 87.8478 16.2773 87.5451 16.6533C87.2423 17.0293 87.091 17.5615 87.091 18.25C87.091 19.6904 87.672 20.4106 88.8341 20.4106C89.9425 20.4106 90.4967 19.6709 90.4967 18.1914C90.4967 16.79 89.9376 16.0894 88.8195 16.0894ZM102.051 22H99.2754L96.8803 18.2793H96.851V22H94.5366V10.8965H96.851V17.9644H96.8803L99.1142 14.5H101.861L99.1728 18.0229L102.051 22Z" fill="white"/>
<path d="M109 0H5C2.23858 0 0 2.23858 0 5V27C0 29.7614 2.23858 32 5 32H109C111.761 32 114 29.7614 114 27V5C114 2.23858 111.761 0 109 0Z" fill="url(#paint0_linear)"/>
<defs>
<linearGradient id="paint0_linear" x1="0" y1="0" x2="0" y2="32" gradientUnits="userSpaceOnUse">
<stop stop-color="#BBBBBB" stop-opacity="0.1"/>
<stop offset="1" stop-opacity="0.1"/>
</linearGradient>
</defs>
</svg>
