<svg width="103" height="32" viewBox="0 0 103 32" fill="none" xmlns="http://www.w3.org/2000/svg">
<path d="M98 0H31V32H98C100.761 32 103 29.7614 103 27V5C103 2.23858 100.761 0 98 0Z" fill="#0F1418"/>
<path d="M31 0H5C2.23858 0 0 2.23858 0 5V27C0 29.7614 2.23858 32 5 32H31V0Z" fill="#FF4500"/>
<path d="M24.3237 13.6803C23.565 13.6803 22.8973 13.9939 22.4066 14.4846C20.6007 13.2352 18.1676 12.4309 15.4715 12.3449L16.8726 6.03192L21.3342 7.0335C21.3342 8.12612 22.2245 9.01641 23.3171 9.01641C24.43 9.01641 25.3253 8.10083 25.3253 7.0082C25.3253 5.91558 24.435 5 23.3171 5C22.5381 5 21.8653 5.47044 21.5315 6.11286L16.6046 5.02023C16.3567 4.95447 16.1139 5.13152 16.0481 5.37938L14.5104 12.3398C11.8344 12.4511 9.42661 13.2554 7.61569 14.5048C7.12502 13.9939 6.43201 13.6803 5.67325 13.6803C2.86075 13.6803 1.94011 17.4539 4.51486 18.7438C4.42381 19.1434 4.38334 19.5683 4.38334 19.9932C4.38334 24.2322 9.15852 27.6669 15.0213 27.6669C20.9093 27.6669 25.6845 24.2322 25.6845 19.9932C25.6845 19.5683 25.6389 19.1232 25.5277 18.7236C28.0518 17.4286 27.1211 13.6803 24.3237 13.6803ZM8.59703 19.0119C8.59703 17.899 9.48732 17.0037 10.6052 17.0037C11.6979 17.0037 12.5881 17.894 12.5881 19.0119C12.5881 20.1045 11.6979 20.9948 10.6052 20.9948C9.49237 20.9999 8.59703 20.1045 8.59703 19.0119ZM19.4373 23.7415C17.596 25.5828 12.401 25.5828 10.5597 23.7415C10.3574 23.5645 10.3574 23.2509 10.5597 23.0485C10.7368 22.8715 11.0504 22.8715 11.2274 23.0485C12.6337 24.4902 17.2976 24.5155 18.7645 23.0485C18.9416 22.8715 19.2552 22.8715 19.4322 23.0485C19.6396 23.2509 19.6396 23.5645 19.4373 23.7415ZM19.3968 20.9999C18.3042 20.9999 17.4139 20.1096 17.4139 19.017C17.4139 17.9041 18.3042 17.0088 19.3968 17.0088C20.5097 17.0088 21.405 17.899 21.405 19.017C21.4 20.1045 20.5097 20.9999 19.3968 20.9999Z" fill="white"/>
<path d="M53.4543 22H50.737L49.1037 19.2974C48.9816 19.0923 48.8645 18.9092 48.7521 18.748C48.6398 18.5869 48.5251 18.4502 48.4079 18.3379C48.2956 18.2207 48.176 18.1328 48.049 18.0742C47.927 18.0107 47.7927 17.979 47.6462 17.979H47.009V22H44.6433V11.4971H48.3933C50.9421 11.4971 52.2165 12.4492 52.2165 14.3535C52.2165 14.7197 52.1604 15.0591 52.048 15.3716C51.9357 15.6792 51.7771 15.9575 51.572 16.2065C51.3669 16.4556 51.1179 16.6704 50.8249 16.8511C50.5368 17.0317 50.2146 17.1733 49.8581 17.2759V17.3052C50.0144 17.354 50.1657 17.4346 50.3122 17.5469C50.4587 17.6543 50.6003 17.7812 50.737 17.9277C50.8737 18.0742 51.0031 18.2329 51.1252 18.4038C51.2521 18.5698 51.3669 18.7334 51.4694 18.8945L53.4543 22ZM47.009 13.2695V16.1919H48.0344C48.5422 16.1919 48.9499 16.0454 49.2575 15.7524C49.57 15.4546 49.7263 15.0859 49.7263 14.6465C49.7263 13.7285 49.177 13.2695 48.0783 13.2695H47.009ZM61.0171 18.9092H56.1245C56.2027 19.998 56.8887 20.5425 58.1826 20.5425C59.0078 20.5425 59.7329 20.3472 60.3579 19.9565V21.6265C59.6646 21.9976 58.7637 22.1831 57.6553 22.1831C56.4444 22.1831 55.5044 21.8486 54.8355 21.1797C54.1665 20.5059 53.8321 19.5684 53.8321 18.3672C53.8321 17.1221 54.1934 16.1357 54.916 15.4082C55.6387 14.6807 56.5274 14.3169 57.5821 14.3169C58.6758 14.3169 59.5205 14.6416 60.1162 15.291C60.7168 15.9404 61.0171 16.8218 61.0171 17.9351V18.9092ZM58.8711 17.4883C58.8711 16.4141 58.4365 15.877 57.5674 15.877C57.1963 15.877 56.874 16.0308 56.6006 16.3384C56.3321 16.646 56.1685 17.0293 56.1099 17.4883H58.8711ZM69.9129 22H67.5985V20.9673H67.5692C67.0418 21.7778 66.2679 22.1831 65.2474 22.1831C64.3099 22.1831 63.5555 21.8535 62.9842 21.1943C62.4129 20.5303 62.1273 19.605 62.1273 18.4185C62.1273 17.1782 62.4422 16.1846 63.0721 15.4375C63.702 14.6904 64.5272 14.3169 65.5477 14.3169C66.5145 14.3169 67.1883 14.6636 67.5692 15.3569H67.5985V10.8965H69.9129V22ZM67.6424 18.3525V17.7886C67.6424 17.3003 67.5008 16.895 67.2176 16.5728C66.9344 16.2505 66.5658 16.0894 66.1117 16.0894C65.599 16.0894 65.1986 16.292 64.9105 16.6973C64.6224 17.0977 64.4784 17.6494 64.4784 18.3525C64.4784 19.0117 64.6175 19.5195 64.8958 19.876C65.1742 20.2324 65.5599 20.4106 66.0531 20.4106C66.5218 20.4106 66.9027 20.2227 67.1956 19.8467C67.4935 19.4707 67.6424 18.9727 67.6424 18.3525ZM79.38 22H77.0656V20.9673H77.0363C76.5089 21.7778 75.735 22.1831 74.7145 22.1831C73.777 22.1831 73.0226 21.8535 72.4513 21.1943C71.88 20.5303 71.5944 19.605 71.5944 18.4185C71.5944 17.1782 71.9093 16.1846 72.5392 15.4375C73.1691 14.6904 73.9943 14.3169 75.0148 14.3169C75.9816 14.3169 76.6554 14.6636 77.0363 15.3569H77.0656V10.8965H79.38V22ZM77.1095 18.3525V17.7886C77.1095 17.3003 76.9679 16.895 76.6847 16.5728C76.4015 16.2505 76.0329 16.0894 75.5788 16.0894C75.0661 16.0894 74.6657 16.292 74.3776 16.6973C74.0895 17.0977 73.9455 17.6494 73.9455 18.3525C73.9455 19.0117 74.0846 19.5195 74.3629 19.876C74.6413 20.2324 75.027 20.4106 75.5202 20.4106C75.9889 20.4106 76.3698 20.2227 76.6628 19.8467C76.9606 19.4707 77.1095 18.9727 77.1095 18.3525ZM82.6802 13.3135C82.2895 13.3135 81.9697 13.1987 81.7207 12.9692C81.4717 12.7349 81.3471 12.4492 81.3471 12.1123C81.3471 11.7656 81.4717 11.4824 81.7207 11.2627C81.9697 11.043 82.2895 10.9331 82.6802 10.9331C83.0757 10.9331 83.3955 11.043 83.6396 11.2627C83.8887 11.4824 84.0132 11.7656 84.0132 12.1123C84.0132 12.4639 83.8887 12.752 83.6396 12.9766C83.3955 13.2012 83.0757 13.3135 82.6802 13.3135ZM83.8227 22H81.5083V14.5H83.8227V22ZM90.4847 21.9121C90.1429 22.0928 89.6277 22.1831 88.9393 22.1831C87.3084 22.1831 86.493 21.3359 86.493 19.6416V16.2065H85.2771V14.5H86.493V12.8813L88.8001 12.2222V14.5H90.4847V16.2065H88.8001V19.2388C88.8001 20.02 89.1102 20.4106 89.7303 20.4106C89.9744 20.4106 90.2259 20.3398 90.4847 20.1982V21.9121Z" fill="white"/>
<path d="M98 0H5C2.23858 0 0 2.23858 0 5V27C0 29.7614 2.23858 32 5 32H98C100.761 32 103 29.7614 103 27V5C103 2.23858 100.761 0 98 0Z" fill="url(#paint0_linear)"/>
<defs>
<linearGradient id="paint0_linear" x1="0" y1="0" x2="0" y2="32" gradientUnits="userSpaceOnUse">
<stop stop-color="#BBBBBB" stop-opacity="0.1"/>
<stop offset="1" stop-opacity="0.1"/>
</linearGradient>
</defs>
</svg>
