<svg width="99" height="32" viewBox="0 0 99 32" fill="none" xmlns="http://www.w3.org/2000/svg">
<path d="M94 0H31V32H94C96.7614 32 99 29.7614 99 27V5C99 2.23858 96.7614 0 94 0Z" fill="#0F1418"/>
<path d="M31 0H5C2.23858 0 0 2.23858 0 5V27C0 29.7614 2.23858 32 5 32H31V0Z" fill="#01AFF1"/>
<path d="M26.7569 18.3496C26.9123 17.5995 27.0087 16.8011 27.0087 16.0027C27.0087 9.92096 22.0844 5.00201 16.008 5.00201C15.2096 5.00201 14.4166 5.0931 13.6611 5.25385C12.643 4.46618 11.3784 4 10.0013 4C6.68989 4 4 6.68989 4 10.0013C4 11.3784 4.46618 12.643 5.24849 13.6557C5.0931 14.4059 4.99665 15.2043 4.99665 16.0027C4.99665 22.0844 9.92096 27.0033 15.9973 27.0033C16.7957 27.0033 17.5887 26.9123 18.3443 26.7515C19.3624 27.5338 20.6269 28 21.9987 28C25.3101 28 28 25.3101 28 21.9987C28.0054 20.6269 27.5392 19.3624 26.7569 18.3496ZM16.3295 23.2525C12.8145 23.2525 9.87274 21.6879 9.87274 19.7696C9.87274 18.9123 10.355 18.1299 11.4535 18.1299C13.1253 18.1299 13.2806 20.5358 16.1741 20.5358C17.5512 20.5358 18.4407 19.925 18.4407 19.1266C18.4407 18.1246 17.5834 17.9692 16.1902 17.6263C12.8413 16.8011 9.8781 16.4474 9.8781 12.9538C9.8781 9.78165 13.0181 8.60817 15.724 8.60817C18.6765 8.60817 21.6611 9.78165 21.6611 11.5767C21.6611 12.4823 21.0502 13.2806 20.0375 13.2806C18.5211 13.2806 18.4729 11.4856 16.0188 11.4856C14.6417 11.4856 13.7683 11.8607 13.7683 12.6912C13.7683 13.7522 14.8828 13.8593 17.4709 14.4595C19.6892 14.9578 22.3309 15.8955 22.3309 18.6175C22.3309 21.7843 19.2713 23.2525 16.3295 23.2525Z" fill="white"/>
<path d="M44.2128 21.5972V19.2534C44.6376 19.6099 45.099 19.8784 45.597 20.0591C46.0951 20.2349 46.598 20.3228 47.1058 20.3228C47.4037 20.3228 47.6625 20.2959 47.8822 20.2422C48.1068 20.1885 48.2923 20.1152 48.4388 20.0225C48.5902 19.9248 48.7025 19.8125 48.7757 19.6855C48.849 19.5537 48.8856 19.4121 48.8856 19.2607C48.8856 19.0557 48.827 18.8726 48.7098 18.7114C48.5926 18.5503 48.4315 18.4014 48.2264 18.2646C48.0262 18.1279 47.787 17.9961 47.5087 17.8691C47.2303 17.7422 46.93 17.6128 46.6078 17.481C45.7875 17.1392 45.1747 16.7217 44.7694 16.2285C44.369 15.7354 44.1688 15.1396 44.1688 14.4414C44.1688 13.8945 44.2787 13.4258 44.4984 13.0352C44.7181 12.6396 45.016 12.3149 45.392 12.061C45.7728 11.8071 46.2123 11.6216 46.7103 11.5044C47.2084 11.3823 47.7357 11.3213 48.2923 11.3213C48.8392 11.3213 49.3226 11.3555 49.7425 11.4238C50.1673 11.4873 50.558 11.5874 50.9144 11.7241V13.9141C50.7386 13.792 50.5458 13.6846 50.3358 13.5918C50.1307 13.499 49.9183 13.4233 49.6986 13.3647C49.4789 13.3013 49.2591 13.2549 49.0394 13.2256C48.8246 13.1963 48.6195 13.1816 48.4242 13.1816C48.1556 13.1816 47.9115 13.2085 47.6918 13.2622C47.472 13.311 47.2865 13.3818 47.1351 13.4746C46.9837 13.5674 46.8666 13.6797 46.7836 13.8115C46.7005 13.9385 46.659 14.0825 46.659 14.2437C46.659 14.4194 46.7054 14.5781 46.7982 14.7197C46.891 14.8564 47.0228 14.9883 47.1937 15.1152C47.3646 15.2373 47.5721 15.3594 47.8163 15.4814C48.0604 15.5986 48.3363 15.7207 48.6439 15.8477C49.0638 16.0234 49.4398 16.2114 49.7718 16.4116C50.1087 16.6069 50.3968 16.8291 50.6361 17.0781C50.8754 17.3271 51.0585 17.6128 51.1854 17.9351C51.3124 18.2524 51.3758 18.6235 51.3758 19.0483C51.3758 19.6343 51.2635 20.1274 51.0389 20.5278C50.8192 20.9233 50.5189 21.2456 50.138 21.4946C49.7572 21.7388 49.3129 21.9146 48.805 22.022C48.3021 22.1294 47.7699 22.1831 47.2084 22.1831C46.6322 22.1831 46.0829 22.1343 45.5604 22.0366C45.0428 21.939 44.5936 21.7925 44.2128 21.5972ZM60.8356 22H58.0597L55.6647 18.2793H55.6354V22H53.321V10.8965H55.6354V17.9644H55.6647L57.8986 14.5H60.6452L57.9572 18.0229L60.8356 22ZM69.0356 14.5L65.9888 22.6006C65.2563 24.5488 64.1528 25.5229 62.6782 25.5229C62.1167 25.5229 61.6553 25.4595 61.2939 25.3325V23.4868C61.6016 23.6675 61.936 23.7578 62.2974 23.7578C62.8931 23.7578 63.3081 23.4771 63.5425 22.9155L63.938 21.9854L60.8911 14.5H63.4546L64.8535 19.063C64.9414 19.3462 65.0098 19.6807 65.0586 20.0664H65.0879C65.1318 19.7832 65.2124 19.4536 65.3296 19.0776L66.7432 14.5H69.0356ZM72.4896 21.1284H72.4603V25.4497H70.1458V14.5H72.4603V15.6279H72.4896C73.0609 14.7539 73.8641 14.3169 74.8992 14.3169C75.8709 14.3169 76.6204 14.6514 77.1478 15.3203C77.68 15.9844 77.9461 16.8901 77.9461 18.0376C77.9461 19.2876 77.6361 20.291 77.0159 21.0479C76.4007 21.8047 75.5804 22.1831 74.555 22.1831C73.6517 22.1831 72.9632 21.8315 72.4896 21.1284ZM72.4237 18.0522V18.6528C72.4237 19.1704 72.5604 19.5928 72.8338 19.9199C73.1072 20.2471 73.4661 20.4106 73.9105 20.4106C74.4378 20.4106 74.8455 20.208 75.1336 19.8027C75.4266 19.3926 75.5731 18.814 75.5731 18.0669C75.5731 16.7485 75.0604 16.0894 74.035 16.0894C73.5613 16.0894 73.1732 16.27 72.8704 16.6313C72.5726 16.9878 72.4237 17.4614 72.4237 18.0522ZM86.3659 18.9092H81.4733C81.5514 19.998 82.2374 20.5425 83.5314 20.5425C84.3566 20.5425 85.0817 20.3472 85.7067 19.9565V21.6265C85.0133 21.9976 84.1124 22.1831 83.004 22.1831C81.7931 22.1831 80.8532 21.8486 80.1842 21.1797C79.5153 20.5059 79.1808 19.5684 79.1808 18.3672C79.1808 17.1221 79.5421 16.1357 80.2648 15.4082C80.9874 14.6807 81.8761 14.3169 82.9308 14.3169C84.0246 14.3169 84.8693 14.6416 85.465 15.291C86.0656 15.9404 86.3659 16.8218 86.3659 17.9351V18.9092ZM84.2199 17.4883C84.2199 16.4141 83.7853 15.877 82.9162 15.877C82.5451 15.877 82.2228 16.0308 81.9494 16.3384C81.6808 16.646 81.5172 17.0293 81.4586 17.4883H84.2199Z" fill="white"/>
<path d="M94 0H5C2.23858 0 0 2.23858 0 5V27C0 29.7614 2.23858 32 5 32H94C96.7614 32 99 29.7614 99 27V5C99 2.23858 96.7614 0 94 0Z" fill="url(#paint0_linear)"/>
<defs>
<linearGradient id="paint0_linear" x1="0" y1="0" x2="0" y2="32" gradientUnits="userSpaceOnUse">
<stop stop-color="#BBBBBB" stop-opacity="0.1"/>
<stop offset="1" stop-opacity="0.1"/>
</linearGradient>
</defs>
</svg>
