<svg width="122" height="32" viewBox="0 0 122 32" fill="none" xmlns="http://www.w3.org/2000/svg">
<path d="M117 0H31V32H117C119.761 32 122 29.7614 122 27V5C122 2.23858 119.761 0 117 0Z" fill="#0F1418"/>
<path d="M31 0H5C2.23858 0 0 2.23858 0 5V27C0 29.7614 2.23858 32 5 32H31V0Z" fill="#FFFC00"/>
<path d="M27.9459 22.4064C27.7016 22.9763 26.669 23.395 24.7884 23.6869C24.6916 23.8175 24.6114 24.3753 24.4834 24.8099C24.4072 25.0708 24.2198 25.2256 23.9149 25.2256L23.9009 25.2254C23.4605 25.2254 23.0008 25.0227 22.0797 25.0227C20.8366 25.0227 20.4081 25.306 19.4428 25.9878C18.4195 26.7115 17.438 27.3361 15.9728 27.2721C14.4894 27.3815 13.2529 26.4796 12.557 25.9876C11.586 25.3012 11.1588 25.0228 9.92071 25.0228C9.03646 25.0228 8.47996 25.244 8.09952 25.244C7.7211 25.244 7.57391 25.0133 7.51724 24.8203C7.39054 24.3896 7.3108 23.8236 7.21147 23.6892C6.24215 23.5388 4.05632 23.1574 4.00063 22.1822C3.99388 22.0596 4.03262 21.9389 4.10941 21.8431C4.1862 21.7474 4.29564 21.6833 4.41674 21.6633C7.67844 21.1264 9.14755 17.7773 9.20863 17.6351C9.2121 17.6269 9.21589 17.619 9.21974 17.611C9.39378 17.2577 9.43274 16.9618 9.33519 16.732C9.09847 16.1743 8.07557 15.9743 7.64521 15.804C6.53357 15.365 6.37888 14.8605 6.44465 14.5148C6.55888 13.9131 7.463 13.5428 7.99161 13.7904C8.40969 13.9864 8.78113 14.0856 9.09538 14.0856C9.33079 14.0856 9.48032 14.0291 9.56225 13.9838C9.46649 12.2993 9.22939 9.8921 9.82883 8.54777C11.4119 4.99849 14.7674 4.72268 15.7574 4.72268C15.8017 4.72268 16.1859 4.71851 16.2313 4.71851C18.6758 4.71851 21.0245 5.97382 22.1715 8.54552C22.7704 9.88849 22.5347 12.2858 22.4384 13.9834C22.5126 14.0243 22.6427 14.0745 22.8415 14.0837C23.1414 14.0703 23.4891 13.9717 23.876 13.7904C24.1612 13.657 24.5513 13.6751 24.836 13.7931L24.8374 13.7936C25.2815 13.9523 25.5611 14.2724 25.5681 14.6313C25.5767 15.0881 25.1686 15.4827 24.3551 15.804C24.2558 15.8431 24.135 15.8816 24.0066 15.9223C23.5474 16.0679 22.8535 16.2882 22.6652 16.7319C22.5678 16.9618 22.6063 17.2574 22.7805 17.6107C22.7846 17.6186 22.7883 17.6268 22.7917 17.6349C22.8527 17.7769 24.3206 21.1252 27.5838 21.663C27.885 21.7126 28.107 22.0323 27.9459 22.4064Z" fill="white" stroke="black"/>
<path d="M44.0756 21.5972V19.2534C44.5004 19.6099 44.9618 19.8784 45.4598 20.0591C45.9579 20.2349 46.4608 20.3228 46.9686 20.3228C47.2665 20.3228 47.5253 20.2959 47.745 20.2422C47.9696 20.1885 48.1552 20.1152 48.3016 20.0225C48.453 19.9248 48.5653 19.8125 48.6386 19.6855C48.7118 19.5537 48.7484 19.4121 48.7484 19.2607C48.7484 19.0557 48.6898 18.8726 48.5726 18.7114C48.4554 18.5503 48.2943 18.4014 48.0892 18.2646C47.889 18.1279 47.6498 17.9961 47.3715 17.8691C47.0931 17.7422 46.7929 17.6128 46.4706 17.481C45.6503 17.1392 45.0375 16.7217 44.6322 16.2285C44.2318 15.7354 44.0316 15.1396 44.0316 14.4414C44.0316 13.8945 44.1415 13.4258 44.3612 13.0352C44.5809 12.6396 44.8788 12.3149 45.2548 12.061C45.6356 11.8071 46.0751 11.6216 46.5731 11.5044C47.0712 11.3823 47.5985 11.3213 48.1552 11.3213C48.702 11.3213 49.1854 11.3555 49.6054 11.4238C50.0302 11.4873 50.4208 11.5874 50.7772 11.7241V13.9141C50.6014 13.792 50.4086 13.6846 50.1986 13.5918C49.9935 13.499 49.7811 13.4233 49.5614 13.3647C49.3417 13.3013 49.122 13.2549 48.9022 13.2256C48.6874 13.1963 48.4823 13.1816 48.287 13.1816C48.0184 13.1816 47.7743 13.2085 47.5546 13.2622C47.3348 13.311 47.1493 13.3818 46.9979 13.4746C46.8466 13.5674 46.7294 13.6797 46.6464 13.8115C46.5634 13.9385 46.5219 14.0825 46.5219 14.2437C46.5219 14.4194 46.5682 14.5781 46.661 14.7197C46.7538 14.8564 46.8856 14.9883 47.0565 15.1152C47.2274 15.2373 47.4349 15.3594 47.6791 15.4814C47.9232 15.5986 48.1991 15.7207 48.5067 15.8477C48.9266 16.0234 49.3026 16.2114 49.6346 16.4116C49.9716 16.6069 50.2596 16.8291 50.4989 17.0781C50.7382 17.3271 50.9213 17.6128 51.0482 17.9351C51.1752 18.2524 51.2387 18.6235 51.2387 19.0483C51.2387 19.6343 51.1263 20.1274 50.9017 20.5278C50.682 20.9233 50.3817 21.2456 50.0009 21.4946C49.62 21.7388 49.1757 21.9146 48.6679 22.022C48.1649 22.1294 47.6327 22.1831 47.0712 22.1831C46.495 22.1831 45.9457 22.1343 45.4232 22.0366C44.9056 21.939 44.4564 21.7925 44.0756 21.5972ZM60.4274 22H58.1203V17.8325C58.1203 16.6704 57.7053 16.0894 56.8752 16.0894C56.4748 16.0894 56.1452 16.2432 55.8864 16.5508C55.6276 16.8584 55.4982 17.249 55.4982 17.7227V22H53.1838V14.5H55.4982V15.6865H55.5275C56.0793 14.7734 56.8825 14.3169 57.9372 14.3169C59.5974 14.3169 60.4274 15.3472 60.4274 17.4077V22ZM68.6861 22H66.4961V20.9233H66.4668C65.9639 21.7632 65.2193 22.1831 64.2329 22.1831C63.5054 22.1831 62.9317 21.978 62.5117 21.5679C62.0967 21.1528 61.8892 20.6011 61.8892 19.9126C61.8892 18.4575 62.751 17.6177 64.4746 17.3931L66.5108 17.1221C66.5108 16.3018 66.0664 15.8916 65.1778 15.8916C64.2842 15.8916 63.4346 16.1577 62.6289 16.6899V14.9468C62.9512 14.7808 63.3906 14.6343 63.9473 14.5073C64.5088 14.3804 65.0191 14.3169 65.478 14.3169C67.6167 14.3169 68.6861 15.3838 68.6861 17.5176V22ZM66.5108 18.9531V18.4478L65.1485 18.6235C64.3965 18.7212 64.0205 19.0605 64.0205 19.6416C64.0205 19.9053 64.1109 20.1226 64.2915 20.2935C64.4771 20.4595 64.7261 20.5425 65.0386 20.5425C65.4732 20.5425 65.8272 20.3936 66.1006 20.0957C66.374 19.793 66.5108 19.4121 66.5108 18.9531ZM73.0409 21.1284H73.0116V25.4497H70.6971V14.5H73.0116V15.6279H73.0409C73.6121 14.7539 74.4154 14.3169 75.4505 14.3169C76.4222 14.3169 77.1717 14.6514 77.6991 15.3203C78.2313 15.9844 78.4974 16.8901 78.4974 18.0376C78.4974 19.2876 78.1873 20.291 77.5672 21.0479C76.952 21.8047 76.1317 22.1831 75.1063 22.1831C74.203 22.1831 73.5145 21.8315 73.0409 21.1284ZM72.9749 18.0522V18.6528C72.9749 19.1704 73.1117 19.5928 73.3851 19.9199C73.6585 20.2471 74.0174 20.4106 74.4618 20.4106C74.9891 20.4106 75.3968 20.208 75.6849 19.8027C75.9779 19.3926 76.1244 18.814 76.1244 18.0669C76.1244 16.7485 75.6117 16.0894 74.5863 16.0894C74.1126 16.0894 73.7245 16.27 73.4217 16.6313C73.1239 16.9878 72.9749 17.4614 72.9749 18.0522ZM85.8625 21.729C85.34 22.0317 84.5856 22.1831 83.5993 22.1831C82.4469 22.1831 81.5143 21.834 80.8014 21.1357C80.0885 20.4375 79.7321 19.5366 79.7321 18.4331C79.7321 17.1587 80.1129 16.1553 80.8747 15.4229C81.6413 14.6855 82.6642 14.3169 83.9435 14.3169C84.8273 14.3169 85.467 14.4341 85.8625 14.6685V16.6313C85.3791 16.27 84.8395 16.0894 84.2438 16.0894C83.5797 16.0894 83.0524 16.2847 82.6618 16.6753C82.276 17.061 82.0832 17.5957 82.0832 18.2793C82.0832 18.9434 82.2687 19.4658 82.6398 19.8467C83.0109 20.2227 83.5212 20.4106 84.1706 20.4106C84.7467 20.4106 85.3107 20.23 85.8625 19.8687V21.729ZM94.7656 22H92.4585V17.7373C92.4585 16.6387 92.0581 16.0894 91.2573 16.0894C90.8471 16.0894 90.5151 16.2432 90.2612 16.5508C90.0073 16.8584 89.8804 17.249 89.8804 17.7227V22H87.5659V10.8965H89.8804V15.6133H89.9096C90.4761 14.749 91.2451 14.3169 92.2168 14.3169C93.916 14.3169 94.7656 15.3423 94.7656 17.3931V22ZM103.024 22H100.834V20.9233H100.805C100.302 21.7632 99.5574 22.1831 98.5711 22.1831C97.8436 22.1831 97.2698 21.978 96.8499 21.5679C96.4349 21.1528 96.2273 20.6011 96.2273 19.9126C96.2273 18.4575 97.0892 17.6177 98.8128 17.3931L100.849 17.1221C100.849 16.3018 100.405 15.8916 99.5159 15.8916C98.6224 15.8916 97.7728 16.1577 96.9671 16.6899V14.9468C97.2894 14.7808 97.7288 14.6343 98.2854 14.5073C98.847 14.3804 99.3572 14.3169 99.8162 14.3169C101.955 14.3169 103.024 15.3838 103.024 17.5176V22ZM100.849 18.9531V18.4478L99.4866 18.6235C98.7347 18.7212 98.3587 19.0605 98.3587 19.6416C98.3587 19.9053 98.449 20.1226 98.6297 20.2935C98.8152 20.4595 99.0643 20.5425 99.3768 20.5425C99.8113 20.5425 100.165 20.3936 100.439 20.0957C100.712 19.793 100.849 19.4121 100.849 18.9531ZM109.569 21.9121C109.227 22.0928 108.712 22.1831 108.024 22.1831C106.393 22.1831 105.577 21.3359 105.577 19.6416V16.2065H104.361V14.5H105.577V12.8813L107.884 12.2222V14.5H109.569V16.2065H107.884V19.2388C107.884 20.02 108.194 20.4106 108.815 20.4106C109.059 20.4106 109.31 20.3398 109.569 20.1982V21.9121Z" fill="white"/>
<path d="M117 0H5C2.23858 0 0 2.23858 0 5V27C0 29.7614 2.23858 32 5 32H117C119.761 32 122 29.7614 122 27V5C122 2.23858 119.761 0 117 0Z" fill="url(#paint0_linear)"/>
<defs>
<linearGradient id="paint0_linear" x1="0" y1="0" x2="0" y2="32" gradientUnits="userSpaceOnUse">
<stop stop-color="#BBBBBB" stop-opacity="0.1"/>
<stop offset="1" stop-opacity="0.1"/>
</linearGradient>
</defs>
</svg>
