<svg width="144" height="32" viewBox="0 0 144 32" fill="none" xmlns="http://www.w3.org/2000/svg">
<path d="M139 0H31V32H139C141.761 32 144 29.7614 144 27V5C144 2.23858 141.761 0 139 0Z" fill="#0F1418"/>
<path d="M31 0H5C2.23858 0 0 2.23858 0 5V27C0 29.7614 2.23858 32 5 32H31V0Z" fill="#FF7700"/>
<path d="M8.17815 16.3209L8.39569 18.7588L8.17815 21.3204C8.1669 21.4142 8.09564 21.4855 8.01313 21.4855C7.93061 21.4855 7.8556 21.4142 7.8556 21.3204L7.64557 18.7588L7.8556 16.3209C7.8556 16.2384 7.92686 16.1634 8.01313 16.1634C8.09564 16.1634 8.1669 16.2384 8.17815 16.3209ZM8.98078 14.6106C8.87576 14.6106 8.8045 14.6932 8.79325 14.7982L8.60572 18.7588L8.79325 21.3204C8.8045 21.4255 8.87576 21.508 8.98078 21.508C9.07454 21.508 9.15705 21.4255 9.15705 21.3204L9.37459 18.7588L9.15705 14.7982C9.15705 14.6932 9.07454 14.6106 8.98078 14.6106ZM9.93718 13.7068C9.82091 13.7068 9.73839 13.7893 9.72714 13.9055L9.56212 18.7813L9.72714 21.3242C9.73839 21.4405 9.82091 21.523 9.93718 21.523C10.0422 21.523 10.136 21.4405 10.136 21.3242L10.3347 18.7813L10.136 13.9055C10.136 13.7893 10.0422 13.7068 9.93718 13.7068ZM4.27004 17.3298C4.21753 17.3298 4.18753 17.3711 4.17628 17.4236L4 18.7588L4.17628 20.0715C4.18753 20.124 4.21753 20.1653 4.27004 20.1653C4.32255 20.1653 4.35255 20.124 4.36381 20.0715L4.57384 18.7588L4.36381 17.4236C4.35255 17.3711 4.32255 17.3298 4.27004 17.3298V17.3298ZM5.15518 16.5084C5.10267 16.5084 5.06142 16.5497 5.06142 16.6022L4.82138 18.7588L5.06142 20.8629C5.06142 20.9266 5.10267 20.9679 5.15518 20.9679C5.20769 20.9679 5.24894 20.9266 5.2602 20.8741L5.53024 18.7588L5.2602 16.6022C5.24894 16.5497 5.20769 16.5084 5.15518 16.5084V16.5084ZM6.10408 16.0809C6.04032 16.0809 5.98781 16.1334 5.98031 16.2046L5.76277 18.7588L5.98031 21.2267C5.99156 21.2904 6.04407 21.3429 6.10408 21.3429C6.16784 21.3429 6.22035 21.2904 6.22035 21.2267L6.47914 18.7588L6.22035 16.2046C6.22035 16.1334 6.16784 16.0809 6.10408 16.0809V16.0809ZM7.05298 15.9984C6.98171 15.9984 6.91795 16.0509 6.91795 16.1334L6.70042 18.7588L6.91795 21.3017C6.91795 21.3842 6.98171 21.4367 7.05298 21.4367C7.12424 21.4367 7.188 21.3842 7.19925 21.3017L7.43929 18.7588L7.19925 16.1334C7.188 16.0509 7.12424 15.9984 7.05298 15.9984ZM16.1069 11.839C16.0656 11.809 16.0019 11.7865 15.9494 11.7865C15.8669 11.7865 15.7918 11.8165 15.7393 11.8577C15.6681 11.9215 15.6231 12.0152 15.6156 12.109V12.139L15.4918 18.7663L15.5556 19.9852L15.6193 21.1742C15.6306 21.3504 15.7768 21.4967 15.9531 21.4967C16.1294 21.4967 16.2757 21.3504 16.2757 21.1742L16.4219 18.7663L16.2757 12.109C16.2607 11.9965 16.2007 11.8915 16.1069 11.839V11.839ZM15.1055 12.4128C15.053 12.3828 15.0005 12.3603 14.9405 12.3603C14.8804 12.3603 14.8242 12.3828 14.7754 12.4128C14.6929 12.4653 14.6404 12.5591 14.6404 12.6641L14.6292 12.7279L14.5241 18.7588C14.5241 18.7588 14.5241 18.77 14.6404 21.2192V21.2304C14.6404 21.2942 14.6629 21.3542 14.7042 21.4067C14.7679 21.478 14.8504 21.523 14.9442 21.523C15.0267 21.523 15.1017 21.4817 15.1542 21.4292C15.218 21.3767 15.248 21.3054 15.248 21.2192L15.2593 20.9679L15.3755 18.77L15.2518 12.6641C15.2405 12.5591 15.188 12.4653 15.1055 12.4128V12.4128ZM10.9273 13.2567C10.8111 13.2567 10.7098 13.3617 10.7098 13.4855L10.5448 18.7588L10.7098 21.2792C10.721 21.403 10.8148 21.4967 10.9273 21.4967C11.0511 21.4967 11.1449 21.403 11.1561 21.2792L11.3436 18.7588L11.1561 13.4855C11.1486 13.3617 11.0548 13.2567 10.9273 13.2567ZM25.0558 15.6121C24.6507 15.6121 24.2644 15.6946 23.9081 15.8408C23.6681 13.1854 21.4402 11.1001 18.721 11.1001C18.0534 11.1001 17.4083 11.2239 16.8345 11.4527C16.6057 11.5352 16.542 11.6177 16.542 11.7977V21.1629C16.542 21.3504 16.6882 21.4855 16.8645 21.508H25.052C26.676 21.508 28 20.1953 28 18.5713C28.0037 16.936 26.6798 15.6121 25.0558 15.6121V15.6121ZM13.9278 13.3504C13.7703 13.3504 13.6465 13.4742 13.6353 13.643L13.5115 18.77L13.6353 21.2304C13.6465 21.388 13.7703 21.5117 13.9278 21.5117C14.0853 21.5117 14.2091 21.388 14.2091 21.2304L14.3554 18.77L14.2091 13.643C14.1978 13.4742 14.0853 13.3504 13.9278 13.3504ZM11.9175 13.0579C11.7937 13.0579 11.6774 13.1742 11.6774 13.3092L11.5312 18.7588L11.6774 21.2679C11.6887 21.403 11.7937 21.508 11.9175 21.508C12.0525 21.508 12.1575 21.403 12.1688 21.2679L12.3338 18.7588L12.1688 13.3092C12.1575 13.1742 12.0525 13.0579 11.9175 13.0579V13.0579ZM12.9189 13.1854C12.7726 13.1854 12.6601 13.3017 12.6601 13.4442L12.5138 18.7588L12.6601 21.2492C12.6714 21.3955 12.7764 21.508 12.9189 21.508C13.0614 21.508 13.1777 21.3917 13.1777 21.2492L13.3352 18.7588L13.1777 13.4442C13.1777 13.2979 13.0652 13.1854 12.9189 13.1854V13.1854Z" fill="white"/>
<path d="M44.0484 21.5972V19.2534C44.4732 19.6099 44.9346 19.8784 45.4327 20.0591C45.9307 20.2349 46.4337 20.3228 46.9415 20.3228C47.2393 20.3228 47.4981 20.2959 47.7178 20.2422C47.9424 20.1885 48.128 20.1152 48.2745 20.0225C48.4258 19.9248 48.5381 19.8125 48.6114 19.6855C48.6846 19.5537 48.7212 19.4121 48.7212 19.2607C48.7212 19.0557 48.6627 18.8726 48.5455 18.7114C48.4283 18.5503 48.2671 18.4014 48.0621 18.2646C47.8619 18.1279 47.6226 17.9961 47.3443 17.8691C47.066 17.7422 46.7657 17.6128 46.4434 17.481C45.6231 17.1392 45.0103 16.7217 44.605 16.2285C44.2046 15.7354 44.0045 15.1396 44.0045 14.4414C44.0045 13.8945 44.1143 13.4258 44.334 13.0352C44.5538 12.6396 44.8516 12.3149 45.2276 12.061C45.6085 11.8071 46.0479 11.6216 46.546 11.5044C47.044 11.3823 47.5713 11.3213 48.128 11.3213C48.6749 11.3213 49.1583 11.3555 49.5782 11.4238C50.003 11.4873 50.3936 11.5874 50.7501 11.7241V13.9141C50.5743 13.792 50.3814 13.6846 50.1714 13.5918C49.9664 13.499 49.754 13.4233 49.5342 13.3647C49.3145 13.3013 49.0948 13.2549 48.8751 13.2256C48.6602 13.1963 48.4551 13.1816 48.2598 13.1816C47.9913 13.1816 47.7471 13.2085 47.5274 13.2622C47.3077 13.311 47.1221 13.3818 46.9708 13.4746C46.8194 13.5674 46.7022 13.6797 46.6192 13.8115C46.5362 13.9385 46.4947 14.0825 46.4947 14.2437C46.4947 14.4194 46.5411 14.5781 46.6338 14.7197C46.7266 14.8564 46.8585 14.9883 47.0294 15.1152C47.2003 15.2373 47.4078 15.3594 47.6519 15.4814C47.8961 15.5986 48.1719 15.7207 48.4795 15.8477C48.8995 16.0234 49.2754 16.2114 49.6075 16.4116C49.9444 16.6069 50.2325 16.8291 50.4717 17.0781C50.711 17.3271 50.8941 17.6128 51.0211 17.9351C51.148 18.2524 51.2115 18.6235 51.2115 19.0483C51.2115 19.6343 51.0992 20.1274 50.8746 20.5278C50.6548 20.9233 50.3545 21.2456 49.9737 21.4946C49.5928 21.7388 49.1485 21.9146 48.6407 22.022C48.1378 22.1294 47.6055 22.1831 47.044 22.1831C46.4678 22.1831 45.9185 22.1343 45.3961 22.0366C44.8785 21.939 44.4293 21.7925 44.0484 21.5972ZM56.7308 22.1831C55.4808 22.1831 54.497 21.834 53.7792 21.1357C53.0663 20.4326 52.7098 19.4805 52.7098 18.2793C52.7098 17.0391 53.0809 16.0698 53.8231 15.3716C54.5653 14.6685 55.5687 14.3169 56.8334 14.3169C58.0785 14.3169 59.0551 14.6685 59.7631 15.3716C60.4711 16.0698 60.8251 16.9951 60.8251 18.1475C60.8251 19.3926 60.4589 20.3765 59.7264 21.0991C58.9989 21.8218 58.0004 22.1831 56.7308 22.1831ZM56.7894 16.0894C56.2426 16.0894 55.8178 16.2773 55.515 16.6533C55.2123 17.0293 55.0609 17.5615 55.0609 18.25C55.0609 19.6904 55.642 20.4106 56.8041 20.4106C57.9125 20.4106 58.4667 19.6709 58.4667 18.1914C58.4667 16.79 57.9076 16.0894 56.7894 16.0894ZM69.633 22H67.3259V20.8574H67.2893C66.718 21.7412 65.9538 22.1831 64.9968 22.1831C63.2585 22.1831 62.3894 21.1309 62.3894 19.0264V14.5H64.6965V18.8213C64.6965 19.8809 65.1164 20.4106 65.9562 20.4106C66.3713 20.4106 66.7033 20.2666 66.9523 19.9785C67.2014 19.6855 67.3259 19.29 67.3259 18.792V14.5H69.633V22ZM79.0122 22H76.7051V17.8325C76.7051 16.6704 76.2901 16.0894 75.46 16.0894C75.0596 16.0894 74.73 16.2432 74.4712 16.5508C74.2124 16.8584 74.083 17.249 74.083 17.7227V22H71.7686V14.5H74.083V15.6865H74.1123C74.6641 14.7734 75.4673 14.3169 76.522 14.3169C78.1821 14.3169 79.0122 15.3472 79.0122 17.4077V22ZM88.3695 22H86.055V20.9673H86.0257C85.4984 21.7778 84.7245 22.1831 83.7039 22.1831C82.7664 22.1831 82.0121 21.8535 81.4408 21.1943C80.8695 20.5303 80.5838 19.605 80.5838 18.4185C80.5838 17.1782 80.8988 16.1846 81.5287 15.4375C82.1585 14.6904 82.9837 14.3169 84.0042 14.3169C84.971 14.3169 85.6449 14.6636 86.0257 15.3569H86.055V10.8965H88.3695V22ZM86.099 18.3525V17.7886C86.099 17.3003 85.9574 16.895 85.6742 16.5728C85.391 16.2505 85.0223 16.0894 84.5682 16.0894C84.0555 16.0894 83.6551 16.292 83.367 16.6973C83.0789 17.0977 82.9349 17.6494 82.9349 18.3525C82.9349 19.0117 83.0741 19.5195 83.3524 19.876C83.6307 20.2324 84.0164 20.4106 84.5096 20.4106C84.9784 20.4106 85.3592 20.2227 85.6522 19.8467C85.95 19.4707 86.099 18.9727 86.099 18.3525ZM98.5177 21.6265C97.7511 21.9976 96.7502 22.1831 95.5148 22.1831C93.9035 22.1831 92.6364 21.7095 91.7135 20.7622C90.7907 19.8149 90.3293 18.5527 90.3293 16.9756C90.3293 15.2959 90.8468 13.9336 91.882 12.8887C92.922 11.8438 94.2697 11.3213 95.925 11.3213C96.9504 11.3213 97.8146 11.4507 98.5177 11.7095V13.9873C97.8146 13.5674 97.0138 13.3574 96.1154 13.3574C95.1291 13.3574 94.3332 13.6675 93.7277 14.2876C93.1222 14.9077 92.8195 15.7476 92.8195 16.8071C92.8195 17.8228 93.1051 18.6333 93.6764 19.2388C94.2477 19.8394 95.0168 20.1396 95.9836 20.1396C96.9064 20.1396 97.7511 19.915 98.5177 19.4658V21.6265ZM102.88 22H100.565V10.8965H102.88V22ZM108.582 22.1831C107.332 22.1831 106.348 21.834 105.631 21.1357C104.918 20.4326 104.561 19.4805 104.561 18.2793C104.561 17.0391 104.932 16.0698 105.675 15.3716C106.417 14.6685 107.42 14.3169 108.685 14.3169C109.93 14.3169 110.907 14.6685 111.615 15.3716C112.323 16.0698 112.677 16.9951 112.677 18.1475C112.677 19.3926 112.31 20.3765 111.578 21.0991C110.85 21.8218 109.852 22.1831 108.582 22.1831ZM108.641 16.0894C108.094 16.0894 107.669 16.2773 107.367 16.6533C107.064 17.0293 106.912 17.5615 106.912 18.25C106.912 19.6904 107.493 20.4106 108.656 20.4106C109.764 20.4106 110.318 19.6709 110.318 18.1914C110.318 16.79 109.759 16.0894 108.641 16.0894ZM121.484 22H119.177V20.8574H119.141C118.569 21.7412 117.805 22.1831 116.848 22.1831C115.11 22.1831 114.241 21.1309 114.241 19.0264V14.5H116.548V18.8213C116.548 19.8809 116.968 20.4106 117.808 20.4106C118.223 20.4106 118.555 20.2666 118.804 19.9785C119.053 19.6855 119.177 19.29 119.177 18.792V14.5H121.484V22ZM130.959 22H128.644V20.9673H128.615C128.088 21.7778 127.314 22.1831 126.293 22.1831C125.356 22.1831 124.602 21.8535 124.03 21.1943C123.459 20.5303 123.173 19.605 123.173 18.4185C123.173 17.1782 123.488 16.1846 124.118 15.4375C124.748 14.6904 125.573 14.3169 126.594 14.3169C127.56 14.3169 128.234 14.6636 128.615 15.3569H128.644V10.8965H130.959V22ZM128.688 18.3525V17.7886C128.688 17.3003 128.547 16.895 128.264 16.5728C127.98 16.2505 127.612 16.0894 127.158 16.0894C126.645 16.0894 126.245 16.292 125.956 16.6973C125.668 17.0977 125.524 17.6494 125.524 18.3525C125.524 19.0117 125.664 19.5195 125.942 19.876C126.22 20.2324 126.606 20.4106 127.099 20.4106C127.568 20.4106 127.949 20.2227 128.242 19.8467C128.539 19.4707 128.688 18.9727 128.688 18.3525Z" fill="white"/>
<path d="M139 0H5C2.23858 0 0 2.23858 0 5V27C0 29.7614 2.23857 32 5 32H139C141.761 32 144 29.7614 144 27V5C144 2.23858 141.761 0 139 0Z" fill="url(#paint0_linear)"/>
<defs>
<linearGradient id="paint0_linear" x1="0" y1="0" x2="0" y2="32" gradientUnits="userSpaceOnUse">
<stop stop-color="#BBBBBB" stop-opacity="0.1"/>
<stop offset="1" stop-opacity="0.1"/>
</linearGradient>
</defs>
</svg>
