<svg width="154" height="32" viewBox="0 0 154 32" fill="none" xmlns="http://www.w3.org/2000/svg">
<path d="M149 0H31V32H149C151.761 32 154 29.7614 154 27V5C154 2.23858 151.761 0 149 0Z" fill="#0F1418"/>
<path d="M31 0H5C2.23858 0 0 2.23858 0 5V27C0 29.7614 2.23858 32 5 32H31V0Z" fill="#009287"/>
<path d="M14.0247 17.375H8.6875C7.4443 17.375 6.25201 16.8811 5.37294 16.0021C4.49386 15.123 4 13.9307 4 12.6875C4 11.4443 4.49386 10.252 5.37294 9.37294C6.25201 8.49386 7.4443 8 8.6875 8H14.9144C15.4117 8 15.8886 8.19754 16.2402 8.54917C16.5918 8.90081 16.7894 9.37772 16.7894 9.875C16.7894 10.3723 16.5918 10.8492 16.2402 11.2008C15.8886 11.5525 15.4117 11.75 14.9144 11.75H8.59375C7.35297 11.75 7.35391 13.625 8.59375 13.625H13.9291C15.1723 13.625 16.3645 14.1189 17.2436 14.9979C18.1227 15.877 18.6166 17.0693 18.6166 18.3125C18.6166 19.5557 18.1227 20.748 17.2436 21.6271C16.3645 22.5061 15.1723 23 13.9291 23H5.875C5.37772 23 4.90081 22.8025 4.54917 22.4508C4.19754 22.0992 4 21.6223 4 21.125C4 20.6277 4.19754 20.1508 4.54917 19.7992C4.90081 19.4475 5.37772 19.25 5.875 19.25H14.0247C15.2659 19.25 15.265 17.375 14.0247 17.375ZM17.9688 23C18.6017 22.5703 19.1406 22.0162 19.5525 21.3715C19.9644 20.7268 20.2407 20.005 20.3645 19.25H23.3903C23.5124 19.249 23.633 19.2239 23.7454 19.1762C23.8578 19.1285 23.9597 19.0592 24.0453 18.9721C24.1308 18.8851 24.1984 18.782 24.2442 18.6688C24.2899 18.5556 24.3129 18.4346 24.3119 18.3125V12.6875C24.3129 12.5654 24.2899 12.4444 24.2442 12.3312C24.1984 12.218 24.1308 12.1149 24.0453 12.0279C23.9597 11.9408 23.8578 11.8715 23.7454 11.8238C23.633 11.7761 23.5124 11.751 23.3903 11.75H17.8947C18.3486 11.2308 18.5988 10.5646 18.5988 9.875C18.5988 9.18538 18.3486 8.51917 17.8947 8H24.3133C26.3495 8 28 9.67906 28 11.75V19.25C28 21.3209 26.3495 23 24.3133 23H17.9688Z" fill="white"/>
<path d="M44.4226 21.5972V19.2534C44.8474 19.6099 45.3088 19.8784 45.8069 20.0591C46.3049 20.2349 46.8078 20.3228 47.3157 20.3228C47.6135 20.3228 47.8723 20.2959 48.092 20.2422C48.3166 20.1885 48.5022 20.1152 48.6487 20.0225C48.8 19.9248 48.9123 19.8125 48.9856 19.6855C49.0588 19.5537 49.0954 19.4121 49.0954 19.2607C49.0954 19.0557 49.0369 18.8726 48.9197 18.7114C48.8025 18.5503 48.6413 18.4014 48.4363 18.2646C48.2361 18.1279 47.9968 17.9961 47.7185 17.8691C47.4402 17.7422 47.1399 17.6128 46.8176 17.481C45.9973 17.1392 45.3845 16.7217 44.9792 16.2285C44.5788 15.7354 44.3787 15.1396 44.3787 14.4414C44.3787 13.8945 44.4885 13.4258 44.7082 13.0352C44.928 12.6396 45.2258 12.3149 45.6018 12.061C45.9827 11.8071 46.4221 11.6216 46.9202 11.5044C47.4182 11.3823 47.9455 11.3213 48.5022 11.3213C49.0491 11.3213 49.5325 11.3555 49.9524 11.4238C50.3772 11.4873 50.7678 11.5874 51.1243 11.7241V13.9141C50.9485 13.792 50.7556 13.6846 50.5456 13.5918C50.3406 13.499 50.1282 13.4233 49.9084 13.3647C49.6887 13.3013 49.469 13.2549 49.2493 13.2256C49.0344 13.1963 48.8293 13.1816 48.634 13.1816C48.3655 13.1816 48.1213 13.2085 47.9016 13.2622C47.6819 13.311 47.4963 13.3818 47.345 13.4746C47.1936 13.5674 47.0764 13.6797 46.9934 13.8115C46.9104 13.9385 46.8689 14.0825 46.8689 14.2437C46.8689 14.4194 46.9153 14.5781 47.008 14.7197C47.1008 14.8564 47.2327 14.9883 47.4036 15.1152C47.5745 15.2373 47.782 15.3594 48.0261 15.4814C48.2703 15.5986 48.5461 15.7207 48.8537 15.8477C49.2737 16.0234 49.6496 16.2114 49.9817 16.4116C50.3186 16.6069 50.6067 16.8291 50.8459 17.0781C51.0852 17.3271 51.2683 17.6128 51.3953 17.9351C51.5222 18.2524 51.5857 18.6235 51.5857 19.0483C51.5857 19.6343 51.4734 20.1274 51.2488 20.5278C51.029 20.9233 50.7287 21.2456 50.3479 21.4946C49.967 21.7388 49.5227 21.9146 49.0149 22.022C48.512 22.1294 47.9797 22.1831 47.4182 22.1831C46.842 22.1831 46.2927 22.1343 45.7703 22.0366C45.2527 21.939 44.8035 21.7925 44.4226 21.5972ZM55.8746 21.1284H55.8453V25.4497H53.5308V14.5H55.8453V15.6279H55.8746C56.4459 14.7539 57.2491 14.3169 58.2842 14.3169C59.2559 14.3169 60.0054 14.6514 60.5328 15.3203C61.065 15.9844 61.3311 16.8901 61.3311 18.0376C61.3311 19.2876 61.0211 20.291 60.4009 21.0479C59.7857 21.8047 58.9654 22.1831 57.94 22.1831C57.0367 22.1831 56.3482 21.8315 55.8746 21.1284ZM55.8087 18.0522V18.6528C55.8087 19.1704 55.9454 19.5928 56.2188 19.9199C56.4922 20.2471 56.8511 20.4106 57.2955 20.4106C57.8228 20.4106 58.2305 20.208 58.5186 19.8027C58.8116 19.3926 58.9581 18.814 58.9581 18.0669C58.9581 16.7485 58.4454 16.0894 57.42 16.0894C56.9463 16.0894 56.5582 16.27 56.2554 16.6313C55.9576 16.9878 55.8087 17.4614 55.8087 18.0522ZM69.7509 18.9092H64.8583C64.9364 19.998 65.6224 20.5425 66.9164 20.5425C67.7416 20.5425 68.4667 20.3472 69.0917 19.9565V21.6265C68.3983 21.9976 67.4974 22.1831 66.389 22.1831C65.1781 22.1831 64.2382 21.8486 63.5692 21.1797C62.9003 20.5059 62.5658 19.5684 62.5658 18.3672C62.5658 17.1221 62.9271 16.1357 63.6498 15.4082C64.3724 14.6807 65.2611 14.3169 66.3158 14.3169C67.4095 14.3169 68.2543 14.6416 68.85 15.291C69.4506 15.9404 69.7509 16.8218 69.7509 17.9351V18.9092ZM67.6049 17.4883C67.6049 16.4141 67.1703 15.877 66.3012 15.877C65.9301 15.877 65.6078 16.0308 65.3344 16.3384C65.0658 16.646 64.9022 17.0293 64.8436 17.4883H67.6049ZM77.548 22H75.3581V20.9233H75.3288C74.8259 21.7632 74.0812 22.1831 73.0949 22.1831C72.3674 22.1831 71.7937 21.978 71.3737 21.5679C70.9587 21.1528 70.7512 20.6011 70.7512 19.9126C70.7512 18.4575 71.613 17.6177 73.3366 17.3931L75.3728 17.1221C75.3728 16.3018 74.9284 15.8916 74.0397 15.8916C73.1462 15.8916 72.2966 16.1577 71.4909 16.6899V14.9468C71.8132 14.7808 72.2526 14.6343 72.8093 14.5073C73.3708 14.3804 73.8811 14.3169 74.34 14.3169C76.4787 14.3169 77.548 15.3838 77.548 17.5176V22ZM75.3728 18.9531V18.4478L74.0104 18.6235C73.2585 18.7212 72.8825 19.0605 72.8825 19.6416C72.8825 19.9053 72.9729 20.1226 73.1535 20.2935C73.3391 20.4595 73.5881 20.5425 73.9006 20.5425C74.3352 20.5425 74.6892 20.3936 74.9626 20.0957C75.236 19.793 75.3728 19.4121 75.3728 18.9531ZM87.0737 22H84.2979L81.9029 18.2793H81.8736V22H79.5591V10.8965H81.8736V17.9644H81.9029L84.1367 14.5H86.8833L84.1953 18.0229L87.0737 22ZM94.6512 18.9092H89.7586C89.8368 19.998 90.5228 20.5425 91.8167 20.5425C92.6419 20.5425 93.367 20.3472 93.992 19.9565V21.6265C93.2987 21.9976 92.3978 22.1831 91.2894 22.1831C90.0785 22.1831 89.1385 21.8486 88.4696 21.1797C87.8006 20.5059 87.4662 19.5684 87.4662 18.3672C87.4662 17.1221 87.8275 16.1357 88.5501 15.4082C89.2728 14.6807 90.1615 14.3169 91.2162 14.3169C92.3099 14.3169 93.1546 14.6416 93.7503 15.291C94.3509 15.9404 94.6512 16.8218 94.6512 17.9351V18.9092ZM92.5052 17.4883C92.5052 16.4141 92.0706 15.877 91.2015 15.877C90.8304 15.877 90.5081 16.0308 90.2347 16.3384C89.9662 16.646 89.8026 17.0293 89.744 17.4883H92.5052ZM101.101 16.5874C100.822 16.436 100.498 16.3604 100.127 16.3604C99.6237 16.3604 99.2306 16.5459 98.9474 16.917C98.6642 17.2832 98.5226 17.7837 98.5226 18.4185V22H96.2082V14.5H98.5226V15.8916H98.5519C98.9181 14.876 99.5773 14.3682 100.529 14.3682C100.774 14.3682 100.964 14.3975 101.101 14.4561V16.5874ZM107.181 22V11.4971H110.902C114.632 11.4971 116.497 13.2036 116.497 16.6167C116.497 18.2524 115.987 19.5586 114.967 20.5352C113.951 21.5117 112.596 22 110.902 22H107.181ZM109.547 13.4233V20.0811H110.719C111.744 20.0811 112.547 19.7734 113.128 19.1582C113.714 18.543 114.007 17.7056 114.007 16.646C114.007 15.645 113.717 14.8589 113.136 14.2876C112.559 13.7114 111.749 13.4233 110.704 13.4233H109.547ZM125.195 18.9092H120.303C120.381 19.998 121.067 20.5425 122.361 20.5425C123.186 20.5425 123.911 20.3472 124.536 19.9565V21.6265C123.843 21.9976 122.942 22.1831 121.834 22.1831C120.623 22.1831 119.683 21.8486 119.014 21.1797C118.345 20.5059 118.01 19.5684 118.01 18.3672C118.01 17.1221 118.372 16.1357 119.094 15.4082C119.817 14.6807 120.706 14.3169 121.76 14.3169C122.854 14.3169 123.699 14.6416 124.295 15.291C124.895 15.9404 125.195 16.8218 125.195 17.9351V18.9092ZM123.049 17.4883C123.049 16.4141 122.615 15.877 121.746 15.877C121.375 15.877 121.052 16.0308 120.779 16.3384C120.51 16.646 120.347 17.0293 120.288 17.4883H123.049ZM132.436 21.729C131.914 22.0317 131.159 22.1831 130.173 22.1831C129.02 22.1831 128.088 21.834 127.375 21.1357C126.662 20.4375 126.306 19.5366 126.306 18.4331C126.306 17.1587 126.686 16.1553 127.448 15.4229C128.215 14.6855 129.238 14.3169 130.517 14.3169C131.401 14.3169 132.04 14.4341 132.436 14.6685V16.6313C131.953 16.27 131.413 16.0894 130.817 16.0894C130.153 16.0894 129.626 16.2847 129.235 16.6753C128.85 17.061 128.657 17.5957 128.657 18.2793C128.657 18.9434 128.842 19.4658 129.213 19.8467C129.584 20.2227 130.095 20.4106 130.744 20.4106C131.32 20.4106 131.884 20.23 132.436 19.8687V21.729ZM141.654 22H138.878L136.483 18.2793H136.454V22H134.139V10.8965H136.454V17.9644H136.483L138.717 14.5H141.464L138.776 18.0229L141.654 22Z" fill="white"/>
<path d="M149 0H5C2.23858 0 0 2.23858 0 5V27C0 29.7614 2.23858 32 5 32H149C151.761 32 154 29.7614 154 27V5C154 2.23858 151.761 0 149 0Z" fill="url(#paint0_linear)"/>
<defs>
<linearGradient id="paint0_linear" x1="0" y1="0" x2="0" y2="32" gradientUnits="userSpaceOnUse">
<stop stop-color="#BBBBBB" stop-opacity="0.1"/>
<stop offset="1" stop-opacity="0.1"/>
</linearGradient>
</defs>
</svg>
