<svg width="157" height="32" viewBox="0 0 157 32" fill="none" xmlns="http://www.w3.org/2000/svg">
<path d="M152 0H31V32H152C154.761 32 157 29.7614 157 27V5C157 2.23858 154.761 0 152 0Z" fill="#0F1418"/>
<path d="M31 0H5C2.23858 0 0 2.23858 0 5V27C0 29.7614 2.23858 32 5 32H31V0Z" fill="#F48024"/>
<path d="M21.1286 18.9464L10.6447 16.7339L10.2054 18.8393L20.6893 21.0357L21.1286 18.9464ZM23.8607 14.2857L15.6375 7.4125L14.2714 9.0625L22.4947 15.9357L23.8607 14.2857ZM22.1893 16.4125L12.4768 11.875L11.5822 13.8304L21.2893 18.3571L22.1893 16.4125ZM19.5911 4L17.8768 5.28571L24.2679 13.8732L25.9822 12.5875L19.5911 4ZM20.6893 21.5714H9.97501V23.6982H20.6893V21.5714ZM22.8161 25.8571H7.84287V19.4286H5.70001V28H24.9589V19.4286H22.8161V25.8571Z" fill="white"/>
<path d="M44.3385 21.5825V19.7881C44.4996 19.9346 44.69 20.0664 44.9097 20.1836C45.1344 20.3008 45.3712 20.4009 45.6202 20.4839C45.8692 20.562 46.1182 20.623 46.3673 20.667C46.6163 20.7109 46.8458 20.7329 47.0557 20.7329C47.7882 20.7329 48.3326 20.6108 48.689 20.3667C49.0504 20.1226 49.231 19.7686 49.231 19.3047C49.231 19.0557 49.17 18.8408 49.0479 18.6602C48.9307 18.4746 48.7647 18.3062 48.5499 18.1548C48.335 18.0034 48.0811 17.8594 47.7882 17.7227C47.5001 17.5811 47.19 17.4346 46.858 17.2832C46.5015 17.0928 46.1695 16.8999 45.8619 16.7046C45.5543 16.5093 45.2857 16.2944 45.0562 16.0601C44.8316 15.8208 44.6534 15.5522 44.5216 15.2544C44.3946 14.9565 44.3311 14.6074 44.3311 14.207C44.3311 13.7139 44.441 13.2866 44.6607 12.9253C44.8853 12.5591 45.1783 12.2588 45.5396 12.0244C45.9058 11.7852 46.3209 11.6094 46.7847 11.4971C47.2486 11.3799 47.7222 11.3213 48.2056 11.3213C49.3043 11.3213 50.1051 11.4458 50.608 11.6948V13.416C50.0123 12.9863 49.2457 12.7715 48.3082 12.7715C48.0494 12.7715 47.7906 12.7959 47.5318 12.8447C47.2779 12.8936 47.0484 12.9741 46.8433 13.0864C46.6431 13.1987 46.4796 13.3428 46.3526 13.5186C46.2257 13.6943 46.1622 13.9067 46.1622 14.1558C46.1622 14.3901 46.211 14.5928 46.3087 14.7637C46.4063 14.9346 46.5479 15.0908 46.7335 15.2324C46.9239 15.374 47.1534 15.5132 47.422 15.6499C47.6954 15.7817 48.0103 15.9258 48.3668 16.082C48.733 16.2725 49.0772 16.4727 49.3995 16.6826C49.7266 16.8926 50.0123 17.1245 50.2564 17.3784C50.5054 17.6323 50.7008 17.9155 50.8424 18.228C50.9888 18.5356 51.0621 18.8872 51.0621 19.2827C51.0621 19.8149 50.9547 20.2642 50.7398 20.6304C50.525 20.9966 50.2345 21.2944 49.8682 21.5239C49.5069 21.7534 49.0894 21.9194 48.6158 22.022C48.1422 22.1245 47.6417 22.1758 47.1143 22.1758C46.9386 22.1758 46.7213 22.1611 46.4625 22.1318C46.2086 22.1074 45.9473 22.0684 45.6788 22.0146C45.4102 21.9658 45.1563 21.9048 44.9171 21.8315C44.6778 21.7583 44.4849 21.6753 44.3385 21.5825ZM56.7645 21.9194C56.4325 22.0854 55.9955 22.1685 55.4535 22.1685C53.9984 22.1685 53.2709 21.4702 53.2709 20.0737V15.833H52.0185V14.5H53.2709V12.7642L54.9701 12.2808V14.5H56.7645V15.833H54.9701V19.583C54.9701 20.0273 55.0507 20.3447 55.2118 20.5352C55.3729 20.7256 55.6415 20.8208 56.0175 20.8208C56.3056 20.8208 56.5546 20.7378 56.7645 20.5718V21.9194ZM64.1662 22H62.5183V20.8281H62.489C61.9714 21.7266 61.2121 22.1758 60.2112 22.1758C59.4738 22.1758 58.8952 21.9756 58.4753 21.5752C58.0603 21.1748 57.8528 20.645 57.8528 19.9858C57.8528 18.5698 58.6682 17.7446 60.299 17.5103L62.5256 17.1953C62.5256 16.126 62.0178 15.5913 61.0022 15.5913C60.1086 15.5913 59.3029 15.8989 58.5852 16.5142V15.0273C59.3762 14.5586 60.2893 14.3242 61.3244 14.3242C63.219 14.3242 64.1662 15.2568 64.1662 17.1221V22ZM62.5256 18.3159L60.9509 18.5356C60.4626 18.5991 60.094 18.7188 59.8449 18.8945C59.6008 19.0654 59.4787 19.3682 59.4787 19.8027C59.4787 20.1201 59.591 20.3813 59.8156 20.5864C60.0451 20.7866 60.3503 20.8867 60.7312 20.8867C61.2487 20.8867 61.676 20.7061 62.0129 20.3447C62.3547 19.9785 62.5256 19.5195 62.5256 18.9678V18.3159ZM71.795 21.6558C71.1944 22.0024 70.4839 22.1758 69.6636 22.1758C68.5503 22.1758 67.6519 21.8291 66.9683 21.1357C66.2847 20.4375 65.9429 19.5342 65.9429 18.4258C65.9429 17.1904 66.3091 16.1992 67.0415 15.4521C67.7788 14.7002 68.7627 14.3242 69.9932 14.3242C70.6768 14.3242 71.2798 14.4438 71.8023 14.6831V16.2651C71.2798 15.8745 70.7232 15.6792 70.1324 15.6792C69.4146 15.6792 68.8262 15.9233 68.3672 16.4116C67.9082 16.895 67.6787 17.5298 67.6787 18.3159C67.6787 19.0923 67.8936 19.7051 68.3233 20.1543C68.7579 20.6035 69.3389 20.8281 70.0664 20.8281C70.6768 20.8281 71.253 20.6108 71.795 20.1763V21.6558ZM80.4711 22H78.3177L75.4027 18.3965H75.3734V22H73.6669V10.8965H75.3734V17.9351H75.4027L78.1566 14.5H80.2001L77.1019 18.1182L80.4711 22ZM85.1701 22.1831C83.9201 22.1831 82.9362 21.834 82.2184 21.1357C81.5055 20.4326 81.1491 19.4805 81.1491 18.2793C81.1491 17.0391 81.5202 16.0698 82.2624 15.3716C83.0046 14.6685 84.008 14.3169 85.2726 14.3169C86.5178 14.3169 87.4943 14.6685 88.2023 15.3716C88.9103 16.0698 89.2643 16.9951 89.2643 18.1475C89.2643 19.3926 88.8981 20.3765 88.1657 21.0991C87.4382 21.8218 86.4396 22.1831 85.1701 22.1831ZM85.2287 16.0894C84.6818 16.0894 84.257 16.2773 83.9543 16.6533C83.6515 17.0293 83.5002 17.5615 83.5002 18.25C83.5002 19.6904 84.0812 20.4106 85.2433 20.4106C86.3517 20.4106 86.9059 19.6709 86.9059 18.1914C86.9059 16.79 86.3469 16.0894 85.2287 16.0894ZM98.0869 14.5L95.2964 22H92.6597L90.001 14.5H92.4766L93.7803 19.1216C93.9268 19.644 94.0122 20.0884 94.0366 20.4546H94.0659C94.1001 20.1079 94.1904 19.6782 94.3369 19.1655L95.6699 14.5H98.0869ZM105.847 18.9092H100.955C101.033 19.998 101.719 20.5425 103.013 20.5425C103.838 20.5425 104.563 20.3472 105.188 19.9565V21.6265C104.495 21.9976 103.594 22.1831 102.486 22.1831C101.275 22.1831 100.335 21.8486 99.6658 21.1797C98.9969 20.5059 98.6624 19.5684 98.6624 18.3672C98.6624 17.1221 99.0237 16.1357 99.7464 15.4082C100.469 14.6807 101.358 14.3169 102.412 14.3169C103.506 14.3169 104.351 14.6416 104.947 15.291C105.547 15.9404 105.847 16.8218 105.847 17.9351V18.9092ZM103.701 17.4883C103.701 16.4141 103.267 15.877 102.398 15.877C102.027 15.877 101.704 16.0308 101.431 16.3384C101.162 16.646 100.999 17.0293 100.94 17.4883H103.701ZM112.297 16.5874C112.019 16.436 111.694 16.3604 111.323 16.3604C110.82 16.3604 110.427 16.5459 110.144 16.917C109.86 17.2832 109.719 17.7837 109.719 18.4185V22H107.404V14.5H109.719V15.8916H109.748C110.114 14.876 110.774 14.3682 111.726 14.3682C111.97 14.3682 112.16 14.3975 112.297 14.4561V16.5874ZM118.834 12.6689C118.537 12.5518 118.251 12.4932 117.978 12.4932C117.235 12.4932 116.864 12.896 116.864 13.7017V14.5H118.578V16.2065H116.864V22H114.557V16.2065H113.297V14.5H114.557V13.5698C114.557 12.7153 114.835 12.0269 115.392 11.5044C115.949 10.9819 116.706 10.7207 117.663 10.7207C118.131 10.7207 118.522 10.7695 118.834 10.8672V12.6689ZM122.266 22H119.952V10.8965H122.266V22ZM127.969 22.1831C126.719 22.1831 125.735 21.834 125.017 21.1357C124.304 20.4326 123.948 19.4805 123.948 18.2793C123.948 17.0391 124.319 16.0698 125.061 15.3716C125.803 14.6685 126.807 14.3169 128.071 14.3169C129.317 14.3169 130.293 14.6685 131.001 15.3716C131.709 16.0698 132.063 16.9951 132.063 18.1475C132.063 19.3926 131.697 20.3765 130.964 21.0991C130.237 21.8218 129.238 22.1831 127.969 22.1831ZM128.027 16.0894C127.481 16.0894 127.056 16.2773 126.753 16.6533C126.45 17.0293 126.299 17.5615 126.299 18.25C126.299 19.6904 126.88 20.4106 128.042 20.4106C129.15 20.4106 129.705 19.6709 129.705 18.1914C129.705 16.79 129.146 16.0894 128.027 16.0894ZM144.606 14.5L142.446 22H140.014L138.908 17.6055C138.835 17.3125 138.793 16.9927 138.784 16.646H138.74C138.705 17.0269 138.657 17.3369 138.593 17.5762L137.407 22H135.004L132.888 14.5H135.246L136.279 19.3926C136.328 19.6221 136.364 19.9004 136.389 20.2275H136.433C136.457 19.8857 136.501 19.5977 136.564 19.3633L137.853 14.5H140.058L141.215 19.3926C141.245 19.5146 141.279 19.7979 141.318 20.2422H141.369C141.393 19.959 141.433 19.6758 141.486 19.3926L142.46 14.5H144.606Z" fill="white"/>
<path d="M152 0H5C2.23858 0 0 2.23858 0 5V27C0 29.7614 2.23857 32 5 32H152C154.761 32 157 29.7614 157 27V5C157 2.23858 154.761 0 152 0Z" fill="url(#paint0_linear)"/>
<defs>
<linearGradient id="paint0_linear" x1="0" y1="0" x2="0" y2="32" gradientUnits="userSpaceOnUse">
<stop stop-color="#BBBBBB" stop-opacity="0.1"/>
<stop offset="1" stop-opacity="0.1"/>
</linearGradient>
</defs>
</svg>
