<svg width="100" height="32" viewBox="0 0 100 32" fill="none" xmlns="http://www.w3.org/2000/svg">
<path d="M95 0H31V32H95C97.7614 32 100 29.7614 100 27V5C100 2.23858 97.7614 0 95 0Z" fill="#0F1418"/>
<path d="M31 0H5C2.23858 0 0 2.23858 0 5V27C0 29.7614 2.23858 32 5 32H31V0Z" fill="url(#paint0_linear)"/>
<path d="M25.1875 12.0804C25.1875 13.8911 23.7143 15.3482 21.9196 15.3482C20.1089 15.3482 18.6518 13.8857 18.6518 12.0804C18.6518 10.275 20.1143 8.8125 21.9196 8.8125C23.7143 8.8125 25.1875 10.2696 25.1875 12.0804ZM28 12.0911C28 15.4661 25.2679 18.1875 21.9089 18.1875L16.0536 22.4625C15.8393 24.7661 13.8839 26.5768 11.5268 26.5768C9.35714 26.5768 7.525 25.0339 7.08036 22.9875L4 21.75V16.0018L9.20714 18.1071C10.0161 17.6143 10.9321 17.3946 11.9929 17.4911L15.7964 12.0429C15.8232 8.70536 18.5554 6 21.9036 6C25.2679 6 28 8.73214 28 12.0911ZM14.875 22.0179C14.875 20.1589 13.3857 18.6696 11.5268 18.6696C11.2857 18.6696 11.0446 18.6964 10.8036 18.75L12.1964 19.3125C13.5625 19.8589 14.2321 21.4018 13.6804 22.7679C13.1339 24.1339 11.5804 24.8036 10.2143 24.2411C9.66786 24.0268 9.11607 23.7964 8.56964 23.5875C9.13214 24.6429 10.2411 25.3661 11.5268 25.3661C13.3857 25.3661 14.875 23.8768 14.875 22.0179ZM25.9911 12.0911C25.9911 9.84107 24.1536 8.00893 21.9089 8.00893C19.6429 8.00893 17.8107 9.84107 17.8107 12.0911C17.8107 14.3518 19.6482 16.1732 21.9089 16.1732C24.1536 16.1786 25.9911 14.3571 25.9911 12.0911Z" fill="white"/>
<path d="M43.9877 21.5972V19.2534C44.4125 19.6099 44.8739 19.8784 45.3719 20.0591C45.87 20.2349 46.3729 20.3228 46.8807 20.3228C47.1786 20.3228 47.4374 20.2959 47.6571 20.2422C47.8817 20.1885 48.0672 20.1152 48.2137 20.0225C48.3651 19.9248 48.4774 19.8125 48.5506 19.6855C48.6239 19.5537 48.6605 19.4121 48.6605 19.2607C48.6605 19.0557 48.6019 18.8726 48.4847 18.7114C48.3675 18.5503 48.2064 18.4014 48.0013 18.2646C47.8011 18.1279 47.5619 17.9961 47.2836 17.8691C47.0052 17.7422 46.7049 17.6128 46.3827 17.481C45.5624 17.1392 44.9496 16.7217 44.5443 16.2285C44.1439 15.7354 43.9437 15.1396 43.9437 14.4414C43.9437 13.8945 44.0536 13.4258 44.2733 13.0352C44.493 12.6396 44.7909 12.3149 45.1669 12.061C45.5477 11.8071 45.9872 11.6216 46.4852 11.5044C46.9833 11.3823 47.5106 11.3213 48.0672 11.3213C48.6141 11.3213 49.0975 11.3555 49.5174 11.4238C49.9422 11.4873 50.3329 11.5874 50.6893 11.7241V13.9141C50.5135 13.792 50.3207 13.6846 50.1107 13.5918C49.9056 13.499 49.6932 13.4233 49.4735 13.3647C49.2538 13.3013 49.034 13.2549 48.8143 13.2256C48.5995 13.1963 48.3944 13.1816 48.1991 13.1816C47.9305 13.1816 47.6864 13.2085 47.4667 13.2622C47.2469 13.311 47.0614 13.3818 46.91 13.4746C46.7587 13.5674 46.6415 13.6797 46.5585 13.8115C46.4754 13.9385 46.4339 14.0825 46.4339 14.2437C46.4339 14.4194 46.4803 14.5781 46.5731 14.7197C46.6659 14.8564 46.7977 14.9883 46.9686 15.1152C47.1395 15.2373 47.347 15.3594 47.5912 15.4814C47.8353 15.5986 48.1112 15.7207 48.4188 15.8477C48.8387 16.0234 49.2147 16.2114 49.5467 16.4116C49.8837 16.6069 50.1717 16.8291 50.411 17.0781C50.6503 17.3271 50.8334 17.6128 50.9603 17.9351C51.0873 18.2524 51.1507 18.6235 51.1507 19.0483C51.1507 19.6343 51.0384 20.1274 50.8138 20.5278C50.5941 20.9233 50.2938 21.2456 49.9129 21.4946C49.5321 21.7388 49.0878 21.9146 48.5799 22.022C48.077 22.1294 47.5448 22.1831 46.9833 22.1831C46.4071 22.1831 45.8578 22.1343 45.3353 22.0366C44.8177 21.939 44.3685 21.7925 43.9877 21.5972ZM57.2487 21.9121C56.9069 22.0928 56.3918 22.1831 55.7033 22.1831C54.0724 22.1831 53.257 21.3359 53.257 19.6416V16.2065H52.0412V14.5H53.257V12.8813L55.5641 12.2222V14.5H57.2487V16.2065H55.5641V19.2388C55.5641 20.02 55.8742 20.4106 56.4943 20.4106C56.7385 20.4106 56.9899 20.3398 57.2487 20.1982V21.9121ZM65.4194 18.9092H60.5269C60.605 19.998 61.291 20.5425 62.585 20.5425C63.4102 20.5425 64.1353 20.3472 64.7603 19.9565V21.6265C64.0669 21.9976 63.166 22.1831 62.0576 22.1831C60.8467 22.1831 59.9067 21.8486 59.2378 21.1797C58.5688 20.5059 58.2344 19.5684 58.2344 18.3672C58.2344 17.1221 58.5957 16.1357 59.3184 15.4082C60.041 14.6807 60.9297 14.3169 61.9844 14.3169C63.0781 14.3169 63.9229 14.6416 64.5186 15.291C65.1191 15.9404 65.4194 16.8218 65.4194 17.9351V18.9092ZM63.2734 17.4883C63.2734 16.4141 62.8389 15.877 61.9697 15.877C61.5986 15.877 61.2764 16.0308 61.0029 16.3384C60.7344 16.646 60.5708 17.0293 60.5122 17.4883H63.2734ZM73.2166 22H71.0267V20.9233H70.9974C70.4945 21.7632 69.7498 22.1831 68.7635 22.1831C68.036 22.1831 67.4622 21.978 67.0423 21.5679C66.6273 21.1528 66.4197 20.6011 66.4197 19.9126C66.4197 18.4575 67.2816 17.6177 69.0052 17.3931L71.0413 17.1221C71.0413 16.3018 70.597 15.8916 69.7083 15.8916C68.8148 15.8916 67.9652 16.1577 67.1595 16.6899V14.9468C67.4818 14.7808 67.9212 14.6343 68.4779 14.5073C69.0394 14.3804 69.5496 14.3169 70.0086 14.3169C72.1473 14.3169 73.2166 15.3838 73.2166 17.5176V22ZM71.0413 18.9531V18.4478L69.679 18.6235C68.9271 18.7212 68.5511 19.0605 68.5511 19.6416C68.5511 19.9053 68.6414 20.1226 68.8221 20.2935C69.0076 20.4595 69.2567 20.5425 69.5692 20.5425C70.0037 20.5425 70.3577 20.3936 70.6312 20.0957C70.9046 19.793 71.0413 19.4121 71.0413 18.9531ZM87.1369 22H84.8297V17.7227C84.8297 16.6338 84.4293 16.0894 83.6286 16.0894C83.2477 16.0894 82.9376 16.2529 82.6984 16.5801C82.4591 16.9072 82.3395 17.3149 82.3395 17.8032V22H80.025V17.6787C80.025 16.6191 79.632 16.0894 78.8458 16.0894C78.4503 16.0894 78.1329 16.2456 77.8937 16.5581C77.6593 16.8706 77.5421 17.2954 77.5421 17.8325V22H75.2277V14.5H77.5421V15.6719H77.5714C77.8107 15.2715 78.1452 14.9468 78.5748 14.6978C79.0094 14.4438 79.483 14.3169 79.9957 14.3169C81.0553 14.3169 81.7804 14.7832 82.171 15.7158C82.7423 14.7832 83.5822 14.3169 84.6906 14.3169C86.3214 14.3169 87.1369 15.3228 87.1369 17.3345V22Z" fill="white"/>
<path d="M95 0H5C2.23858 0 0 2.23858 0 5V27C0 29.7614 2.23858 32 5 32H95C97.7614 32 100 29.7614 100 27V5C100 2.23858 97.7614 0 95 0Z" fill="url(#paint1_linear)"/>
<defs>
<linearGradient id="paint0_linear" x1="15.5" y1="0" x2="15.5" y2="32" gradientUnits="userSpaceOnUse">
<stop stop-color="#0B1B32"/>
<stop offset="0.28125" stop-color="#0C2050"/>
<stop offset="1" stop-color="#1274A5"/>
</linearGradient>
<linearGradient id="paint1_linear" x1="0" y1="0" x2="0" y2="32" gradientUnits="userSpaceOnUse">
<stop stop-color="#BBBBBB" stop-opacity="0.1"/>
<stop offset="1" stop-opacity="0.1"/>
</linearGradient>
</defs>
</svg>
