<svg width="122" height="32" viewBox="0 0 122 32" fill="none" xmlns="http://www.w3.org/2000/svg">
<path d="M117 0H31V32H117C119.761 32 122 29.7614 122 27V5C122 2.23858 119.761 0 117 0Z" fill="#0F1418"/>
<path d="M31 0H5C2.23858 0 0 2.23858 0 5V27C0 29.7614 2.23858 32 5 32H31V0Z" fill="#2BA7DD"/>
<path d="M26.9477 8.23175L23.326 25.3118C23.0527 26.5173 22.3402 26.8173 21.3276 26.2494L15.8092 22.183L13.1465 24.7439C12.8518 25.0386 12.6054 25.2851 12.0375 25.2851L12.4339 19.6649L22.6616 10.423C23.1063 10.0266 22.5652 9.80689 21.9705 10.2034L9.32652 18.1648L3.88317 16.4611C2.69914 16.0914 2.67771 15.277 4.12962 14.7091L25.4208 6.5066C26.4066 6.13692 27.2692 6.72626 26.9477 8.23175Z" fill="white"/>
<path d="M51.9418 13.4233H48.9462V22H46.5731V13.4233H43.5922V11.4971H51.9418V13.4233ZM58.9626 18.9092H54.07C54.1481 19.998 54.8342 20.5425 56.1281 20.5425C56.9533 20.5425 57.6784 20.3472 58.3034 19.9565V21.6265C57.6101 21.9976 56.7092 22.1831 55.6008 22.1831C54.3898 22.1831 53.4499 21.8486 52.781 21.1797C52.112 20.5059 51.7775 19.5684 51.7775 18.3672C51.7775 17.1221 52.1389 16.1357 52.8615 15.4082C53.5842 14.6807 54.4729 14.3169 55.5275 14.3169C56.6213 14.3169 57.466 14.6416 58.0617 15.291C58.6623 15.9404 58.9626 16.8218 58.9626 17.9351V18.9092ZM56.8166 17.4883C56.8166 16.4141 56.382 15.877 55.5129 15.877C55.1418 15.877 54.8195 16.0308 54.5461 16.3384C54.2775 16.646 54.114 17.0293 54.0554 17.4883H56.8166ZM62.834 22H60.5196V10.8965H62.834V22ZM71.7005 18.9092H66.8079C66.8861 19.998 67.5721 20.5425 68.8661 20.5425C69.6912 20.5425 70.4163 20.3472 71.0413 19.9565V21.6265C70.348 21.9976 69.4471 22.1831 68.3387 22.1831C67.1278 22.1831 66.1878 21.8486 65.5189 21.1797C64.8499 20.5059 64.5155 19.5684 64.5155 18.3672C64.5155 17.1221 64.8768 16.1357 65.5995 15.4082C66.3221 14.6807 67.2108 14.3169 68.2655 14.3169C69.3592 14.3169 70.2039 14.6416 70.7996 15.291C71.4002 15.9404 71.7005 16.8218 71.7005 17.9351V18.9092ZM69.5545 17.4883C69.5545 16.4141 69.12 15.877 68.2508 15.877C67.8797 15.877 67.5575 16.0308 67.284 16.3384C67.0155 16.646 66.8519 17.0293 66.7933 17.4883H69.5545ZM80.611 21.1431C80.611 22.5347 80.2082 23.6113 79.4025 24.373C78.5968 25.1396 77.4298 25.5229 75.9015 25.5229C74.8908 25.5229 74.09 25.3789 73.4992 25.0908V23.1426C74.2707 23.5918 75.0495 23.8164 75.8356 23.8164C76.6169 23.8164 77.2223 23.6089 77.652 23.1938C78.0817 22.7837 78.2965 22.2246 78.2965 21.5166V20.9233H78.2672C77.7399 21.7632 76.9611 22.1831 75.9308 22.1831C74.9738 22.1831 74.2145 21.8462 73.653 21.1724C73.0915 20.4985 72.8107 19.5952 72.8107 18.4624C72.8107 17.1929 73.1232 16.1846 73.7482 15.4375C74.3732 14.6904 75.196 14.3169 76.2165 14.3169C77.1295 14.3169 77.8131 14.6685 78.2672 15.3716H78.2965V14.5H80.611V21.1431ZM78.3258 18.3965V17.8032C78.3258 17.3296 78.1842 16.9268 77.901 16.5947C77.6227 16.2578 77.2589 16.0894 76.8097 16.0894C76.297 16.0894 75.8942 16.2896 75.6012 16.6899C75.3083 17.0903 75.1618 17.6543 75.1618 18.3818C75.1618 19.0068 75.3009 19.5024 75.5793 19.8687C75.8576 20.23 76.2384 20.4106 76.7218 20.4106C77.2003 20.4106 77.5861 20.2275 77.8791 19.8613C78.1769 19.4902 78.3258 19.002 78.3258 18.3965ZM87.6172 16.5874C87.3388 16.436 87.0141 16.3604 86.643 16.3604C86.1401 16.3604 85.7471 16.5459 85.4638 16.917C85.1806 17.2832 85.039 17.7837 85.039 18.4185V22H82.7246V14.5H85.039V15.8916H85.0683C85.4346 14.876 86.0937 14.3682 87.0459 14.3682C87.29 14.3682 87.4804 14.3975 87.6172 14.4561V16.5874ZM95.1214 22H92.9314V20.9233H92.9021C92.3992 21.7632 91.6546 22.1831 90.6683 22.1831C89.9407 22.1831 89.367 21.978 88.9471 21.5679C88.532 21.1528 88.3245 20.6011 88.3245 19.9126C88.3245 18.4575 89.1863 17.6177 90.91 17.3931L92.9461 17.1221C92.9461 16.3018 92.5018 15.8916 91.6131 15.8916C90.7195 15.8916 89.8699 16.1577 89.0643 16.6899V14.9468C89.3865 14.7808 89.826 14.6343 90.3826 14.5073C90.9441 14.3804 91.4544 14.3169 91.9134 14.3169C94.0521 14.3169 95.1214 15.3838 95.1214 17.5176V22ZM92.9461 18.9531V18.4478L91.5838 18.6235C90.8318 18.7212 90.4559 19.0605 90.4559 19.6416C90.4559 19.9053 90.5462 20.1226 90.7269 20.2935C90.9124 20.4595 91.1614 20.5425 91.4739 20.5425C91.9085 20.5425 92.2625 20.3936 92.5359 20.0957C92.8094 19.793 92.9461 19.4121 92.9461 18.9531ZM109.042 22H106.734V17.7227C106.734 16.6338 106.334 16.0894 105.533 16.0894C105.152 16.0894 104.842 16.2529 104.603 16.5801C104.364 16.9072 104.244 17.3149 104.244 17.8032V22H101.93V17.6787C101.93 16.6191 101.537 16.0894 100.751 16.0894C100.355 16.0894 100.038 16.2456 99.7985 16.5581C99.5641 16.8706 99.4469 17.2954 99.4469 17.8325V22H97.1324V14.5H99.4469V15.6719H99.4762C99.7154 15.2715 100.05 14.9468 100.48 14.6978C100.914 14.4438 101.388 14.3169 101.901 14.3169C102.96 14.3169 103.685 14.7832 104.076 15.7158C104.647 14.7832 105.487 14.3169 106.595 14.3169C108.226 14.3169 109.042 15.3228 109.042 17.3345V22Z" fill="white"/>
<path d="M117 0H5C2.23858 0 0 2.23858 0 5V27C0 29.7614 2.23858 32 5 32H117C119.761 32 122 29.7614 122 27V5C122 2.23858 119.761 0 117 0Z" fill="url(#paint0_linear)"/>
<defs>
<linearGradient id="paint0_linear" x1="0" y1="0" x2="0" y2="32" gradientUnits="userSpaceOnUse">
<stop stop-color="#BBBBBB" stop-opacity="0.1"/>
<stop offset="1" stop-opacity="0.1"/>
</linearGradient>
</defs>
</svg>
