<svg width="106" height="32" viewBox="0 0 106 32" fill="none" xmlns="http://www.w3.org/2000/svg">
<path d="M101 0H31V32H101C103.761 32 106 29.7614 106 27V5C106 2.23858 103.761 0 101 0Z" fill="#0F1418"/>
<path d="M31 0H5C2.23858 0 0 2.23858 0 5V27C0 29.7614 2.23858 32 5 32H31V0Z" fill="#FF0050"/>
<path d="M25.9992 13.842C23.935 13.847 21.9214 13.2032 20.2429 12.0017V20.3813C20.2424 21.9333 19.768 23.4482 18.8832 24.7233C17.9985 25.9984 16.7456 26.973 15.2919 27.5168C13.8383 28.0606 12.2534 28.1477 10.7489 27.7664C9.24451 27.3851 7.89235 26.5536 6.87326 25.383C5.85417 24.2125 5.21673 22.7587 5.04617 21.2161C4.87561 19.6735 5.18006 18.1156 5.91881 16.7507C6.65756 15.3858 7.7954 14.279 9.18018 13.5782C10.565 12.8775 12.1307 12.6162 13.668 12.8293V17.0439C12.9645 16.8227 12.2091 16.8293 11.5097 17.063C10.8102 17.2966 10.2025 17.7453 9.77322 18.345C9.34399 18.9446 9.1152 19.6646 9.11955 20.402C9.12389 21.1395 9.36114 21.8567 9.79741 22.4512C10.2337 23.0458 10.8467 23.4873 11.5488 23.7127C12.251 23.9381 13.0064 23.9359 13.7072 23.7063C14.408 23.4768 15.0184 23.0316 15.4511 22.4345C15.8839 21.8374 16.1169 21.1188 16.1169 20.3813V4H20.2429C20.2401 4.34844 20.2693 4.6964 20.3301 5.03948C20.4735 5.80537 20.7716 6.53396 21.2062 7.18068C21.6409 7.8274 22.2028 8.37867 22.8578 8.80075C23.7896 9.41688 24.8821 9.74528 25.9992 9.74505V13.842Z" fill="white"/>
<path d="M53.1379 13.4233H50.1423V22H47.7692V13.4233H44.7883V11.4971H53.1379V13.4233ZM55.94 13.3135C55.5493 13.3135 55.2295 13.1987 54.9805 12.9692C54.7315 12.7349 54.607 12.4492 54.607 12.1123C54.607 11.7656 54.7315 11.4824 54.9805 11.2627C55.2295 11.043 55.5493 10.9331 55.94 10.9331C56.3355 10.9331 56.6553 11.043 56.8994 11.2627C57.1485 11.4824 57.273 11.7656 57.273 12.1123C57.273 12.4639 57.1485 12.752 56.8994 12.9766C56.6553 13.2012 56.3355 13.3135 55.94 13.3135ZM57.0825 22H54.7681V14.5H57.0825V22ZM66.7254 22H63.9496L61.5545 18.2793H61.5252V22H59.2108V10.8965H61.5252V17.9644H61.5545L63.7884 14.5H66.535L63.847 18.0229L66.7254 22ZM75.6505 13.4233H72.6549V22H70.2819V13.4233H67.3009V11.4971H75.6505V13.4233ZM79.5073 22.1831C78.2573 22.1831 77.2734 21.834 76.5556 21.1357C75.8428 20.4326 75.4863 19.4805 75.4863 18.2793C75.4863 17.0391 75.8574 16.0698 76.5996 15.3716C77.3418 14.6685 78.3452 14.3169 79.6098 14.3169C80.855 14.3169 81.8315 14.6685 82.5395 15.3716C83.2475 16.0698 83.6015 16.9951 83.6015 18.1475C83.6015 19.3926 83.2353 20.3765 82.5029 21.0991C81.7754 21.8218 80.7768 22.1831 79.5073 22.1831ZM79.5659 16.0894C79.019 16.0894 78.5942 16.2773 78.2915 16.6533C77.9887 17.0293 77.8374 17.5615 77.8374 18.25C77.8374 19.6904 78.4184 20.4106 79.5805 20.4106C80.6889 20.4106 81.2431 19.6709 81.2431 18.1914C81.2431 16.79 80.6841 16.0894 79.5659 16.0894ZM92.7977 22H90.0218L87.6268 18.2793H87.5975V22H85.283V10.8965H87.5975V17.9644H87.6268L89.8606 14.5H92.6072L89.9192 18.0229L92.7977 22Z" fill="white"/>
<path d="M101 0H5C2.23858 0 0 2.23858 0 5V27C0 29.7614 2.23858 32 5 32H101C103.761 32 106 29.7614 106 27V5C106 2.23858 103.761 0 101 0Z" fill="url(#paint0_linear)"/>
<defs>
<linearGradient id="paint0_linear" x1="0" y1="0" x2="0" y2="32" gradientUnits="userSpaceOnUse">
<stop stop-color="#BBBBBB" stop-opacity="0.1"/>
<stop offset="1" stop-opacity="0.1"/>
</linearGradient>
</defs>
</svg>
