<svg width="107" height="32" viewBox="0 0 107 32" fill="none" xmlns="http://www.w3.org/2000/svg">
<path d="M102 0H31V32H102C104.761 32 107 29.7614 107 27V5C107 2.23858 104.761 0 102 0Z" fill="#0F1418"/>
<path d="M31 0H5C2.23858 0 0 2.23858 0 5V27C0 29.7614 2.23858 32 5 32H31V0Z" fill="#1DA1F2"/>
<path d="M25.5331 10.9399C25.5483 11.1531 25.5483 11.3663 25.5483 11.5795C25.5483 18.082 20.5991 25.5745 11.5533 25.5745C8.7665 25.5745 6.17768 24.7673 4 23.3664C4.39595 23.412 4.77663 23.4273 5.18782 23.4273C7.48728 23.4273 9.60407 22.6506 11.2944 21.3257C9.13199 21.28 7.31979 19.8638 6.69542 17.9145C7.00001 17.9602 7.30456 17.9907 7.62439 17.9907C8.066 17.9907 8.50766 17.9297 8.9188 17.8232C6.66499 17.3663 4.97458 15.3866 4.97458 12.9957V12.9349C5.62938 13.3003 6.39087 13.5288 7.19792 13.5592C5.87304 12.6759 5.00505 11.1683 5.00505 9.46272C5.00505 8.54903 5.24866 7.71146 5.67508 6.98049C8.09642 9.96527 11.736 11.9145 15.8172 12.1277C15.7411 11.7622 15.6954 11.3816 15.6954 11.0008C15.6954 8.29013 17.8883 6.08203 20.6142 6.08203C22.0304 6.08203 23.3096 6.67594 24.2081 7.63533C25.3198 7.42215 26.3858 7.01096 27.33 6.44752C26.9644 7.58968 26.1878 8.54907 25.1675 9.15817C26.1574 9.05162 27.1168 8.77745 28 8.39677C27.3301 9.37136 26.4924 10.2393 25.5331 10.9399Z" fill="white"/>
<path d="M52.0025 13.4233H49.0069V22H46.6338V13.4233H43.6529V11.4971H52.0025V13.4233ZM63.8207 14.5L61.66 22H59.2284L58.1224 17.6055C58.0492 17.3125 58.0077 16.9927 57.9979 16.646H57.954C57.9198 17.0269 57.871 17.3369 57.8075 17.5762L56.621 22H54.2186L52.1019 14.5H54.4603L55.493 19.3926C55.5419 19.6221 55.5785 19.9004 55.6029 20.2275H55.6468C55.6712 19.8857 55.7152 19.5977 55.7787 19.3633L57.0677 14.5H59.2723L60.4296 19.3926C60.4588 19.5146 60.493 19.7979 60.5321 20.2422H60.5834C60.6078 19.959 60.6468 19.6758 60.7005 19.3926L61.6747 14.5H63.8207ZM66.2785 13.3135C65.8879 13.3135 65.568 13.1987 65.319 12.9692C65.07 12.7349 64.9455 12.4492 64.9455 12.1123C64.9455 11.7656 65.07 11.4824 65.319 11.2627C65.568 11.043 65.8879 10.9331 66.2785 10.9331C66.674 10.9331 66.9938 11.043 67.238 11.2627C67.487 11.4824 67.6115 11.7656 67.6115 12.1123C67.6115 12.4639 67.487 12.752 67.238 12.9766C66.9938 13.2012 66.674 13.3135 66.2785 13.3135ZM67.4211 22H65.1066V14.5H67.4211V22ZM74.083 21.9121C73.7412 22.0928 73.2261 22.1831 72.5376 22.1831C70.9067 22.1831 70.0913 21.3359 70.0913 19.6416V16.2065H68.8755V14.5H70.0913V12.8813L72.3984 12.2222V14.5H74.083V16.2065H72.3984V19.2388C72.3984 20.02 72.7085 20.4106 73.3286 20.4106C73.5728 20.4106 73.8242 20.3398 74.083 20.1982V21.9121ZM80.1077 21.9121C79.7659 22.0928 79.2508 22.1831 78.5623 22.1831C76.9315 22.1831 76.116 21.3359 76.116 19.6416V16.2065H74.9002V14.5H76.116V12.8813L78.4232 12.2222V14.5H80.1077V16.2065H78.4232V19.2388C78.4232 20.02 78.7332 20.4106 79.3533 20.4106C79.5975 20.4106 79.8489 20.3398 80.1077 20.1982V21.9121ZM88.2785 18.9092H83.3859C83.464 19.998 84.15 20.5425 85.444 20.5425C86.2692 20.5425 86.9943 20.3472 87.6193 19.9565V21.6265C86.9259 21.9976 86.025 22.1831 84.9166 22.1831C83.7057 22.1831 82.7658 21.8486 82.0968 21.1797C81.4279 20.5059 81.0934 19.5684 81.0934 18.3672C81.0934 17.1221 81.4547 16.1357 82.1774 15.4082C82.9 14.6807 83.7887 14.3169 84.8434 14.3169C85.9371 14.3169 86.7819 14.6416 87.3776 15.291C87.9782 15.9404 88.2785 16.8218 88.2785 17.9351V18.9092ZM86.1325 17.4883C86.1325 16.4141 85.6979 15.877 84.8288 15.877C84.4577 15.877 84.1354 16.0308 83.862 16.3384C83.5934 16.646 83.4298 17.0293 83.3712 17.4883H86.1325ZM94.728 16.5874C94.4497 16.436 94.125 16.3604 93.7539 16.3604C93.2509 16.3604 92.8579 16.5459 92.5747 16.917C92.2915 17.2832 92.1499 17.7837 92.1499 18.4185V22H89.8354V14.5H92.1499V15.8916H92.1792C92.5454 14.876 93.2046 14.3682 94.1567 14.3682C94.4008 14.3682 94.5913 14.3975 94.728 14.4561V16.5874Z" fill="white"/>
<path d="M102 0H5C2.23858 0 0 2.23858 0 5V27C0 29.7614 2.23858 32 5 32H102C104.761 32 107 29.7614 107 27V5C107 2.23858 104.761 0 102 0Z" fill="url(#paint0_linear)"/>
<defs>
<linearGradient id="paint0_linear" x1="0" y1="0" x2="0" y2="32" gradientUnits="userSpaceOnUse">
<stop stop-color="#BBBBBB" stop-opacity="0.1"/>
<stop offset="1" stop-opacity="0.1"/>
</linearGradient>
</defs>
</svg>
