<svg width="106" height="32" viewBox="0 0 106 32" fill="none" xmlns="http://www.w3.org/2000/svg">
<path d="M101 0H31V32H101C103.761 32 106 29.7614 106 27V5C106 2.23858 103.761 0 101 0Z" fill="#0F1418"/>
<path d="M31 0H5C2.23858 0 0 2.23858 0 5V27C0 29.7614 2.23858 32 5 32H31V0Z" fill="#FFC000"/>
<path d="M18.679 7.95253C15.5569 14.2164 15.3691 13.919 15.24 14.7289L15.0365 16.0122C14.9622 16.4817 14.7783 16.9316 14.5005 17.3189L8.67488 25.449C8.37754 25.8637 7.87674 26.0828 7.36812 26.0202C5.7914 25.8246 4.32423 24.7604 3.63955 23.3402C3.41654 22.8785 3.46349 22.3308 3.76084 21.9161L9.58649 13.7821C9.86427 13.3948 10.2281 13.0778 10.6507 12.8548L11.797 12.2484C12.5208 11.865 12.1765 11.7828 17.1023 6.81401C17.1414 6.62621 17.1414 6.5284 17.2432 6.50101C17.3605 6.47363 17.5014 6.46189 17.4897 6.32104L17.474 6.14107C17.4662 6.06673 17.5249 6.00022 17.5992 6.00022C17.7753 5.99631 18.1156 6.04717 18.6008 6.39146C19.082 6.73967 19.2424 7.04876 19.2933 7.21699C19.3168 7.28742 19.2698 7.36175 19.1994 7.38132L19.0233 7.42435C18.8903 7.45956 18.9255 7.5965 18.9333 7.71387C18.9373 7.82342 18.8434 7.85472 18.679 7.95253ZM11.9809 7.42435C12.1139 7.45956 12.0787 7.5965 12.0709 7.71387C12.0631 7.81951 12.1531 7.85081 12.3213 7.94862C12.6304 8.5707 12.9199 9.14192 13.1899 9.6701C13.2172 9.72096 13.2798 9.72879 13.319 9.68966C13.7572 9.22017 14.2814 8.6646 14.9035 8.02296C14.9544 7.96818 14.9583 7.88602 14.9074 7.83125C14.5944 7.51043 14.2619 7.17004 13.9058 6.8101C13.8667 6.62621 13.8667 6.52449 13.765 6.4971C13.6476 6.4658 13.5068 6.45798 13.5185 6.31713C13.5302 6.18802 13.5733 6.00022 13.409 5.99631C13.2329 5.99239 12.8925 6.03934 12.4074 6.38755C11.9261 6.73576 11.7657 7.04484 11.7149 7.21308C11.6601 7.3774 11.8557 7.39305 11.9809 7.42435ZM27.2356 21.9122L21.4138 13.7782C20.8974 13.0544 20.3731 12.8627 19.2072 12.2484C18.769 12.0176 18.6517 11.8219 18.0139 11.1177C17.9748 11.0747 17.9005 11.0825 17.8731 11.1373C16.0616 14.6115 16.0303 14.3768 15.956 14.8463C15.8895 15.2649 15.9051 15.6288 15.9677 16.0122C16.042 16.4817 16.2259 16.9316 16.5037 17.3189L22.3294 25.4529C22.6267 25.8677 23.1197 26.0868 23.6244 26.0281C25.2011 25.8364 26.6761 24.7761 27.3686 23.3441C27.5799 22.8785 27.5368 22.3308 27.2356 21.9122Z" fill="white"/>
<path d="M46.8516 17.4517C46.8516 20.606 45.3819 22.1831 42.4424 22.1831C39.5909 22.1831 38.1651 20.6426 38.1651 17.5615V11.4971H40.5381V17.5908C40.5381 19.29 41.2022 20.1396 42.5303 20.1396C43.834 20.1396 44.4859 19.3193 44.4859 17.6787V11.4971H46.8516V17.4517ZM56.6044 22H54.2972V17.8325C54.2972 16.6704 53.8822 16.0894 53.0521 16.0894C52.6517 16.0894 52.3221 16.2432 52.0633 16.5508C51.8046 16.8584 51.6752 17.249 51.6752 17.7227V22H49.3607V14.5H51.6752V15.6865H51.7045C52.2562 14.7734 53.0594 14.3169 54.1141 14.3169C55.7743 14.3169 56.6044 15.3472 56.6044 17.4077V22ZM63.1564 21.9121C62.8146 22.0928 62.2995 22.1831 61.611 22.1831C59.9802 22.1831 59.1647 21.3359 59.1647 19.6416V16.2065H57.9489V14.5H59.1647V12.8813L61.4719 12.2222V14.5H63.1564V16.2065H61.4719V19.2388C61.4719 20.02 61.7819 20.4106 62.402 20.4106C62.6462 20.4106 62.8976 20.3398 63.1564 20.1982V21.9121ZM70.8877 22H68.6978V20.9233H68.6685C68.1655 21.7632 67.4209 22.1831 66.4346 22.1831C65.707 22.1831 65.1333 21.978 64.7134 21.5679C64.2983 21.1528 64.0908 20.6011 64.0908 19.9126C64.0908 18.4575 64.9526 17.6177 66.6763 17.3931L68.7124 17.1221C68.7124 16.3018 68.2681 15.8916 67.3794 15.8916C66.4858 15.8916 65.6362 16.1577 64.8306 16.6899V14.9468C65.1528 14.7808 65.5923 14.6343 66.1489 14.5073C66.7104 14.3804 67.2207 14.3169 67.6797 14.3169C69.8184 14.3169 70.8877 15.3838 70.8877 17.5176V22ZM68.7124 18.9531V18.4478L67.3501 18.6235C66.5981 18.7212 66.2222 19.0605 66.2222 19.6416C66.2222 19.9053 66.3125 20.1226 66.4932 20.2935C66.6787 20.4595 66.9277 20.5425 67.2402 20.5425C67.6748 20.5425 68.0288 20.3936 68.3022 20.0957C68.5757 19.793 68.7124 19.4121 68.7124 18.9531ZM75.2425 21.1284H75.2132V25.4497H72.8988V14.5H75.2132V15.6279H75.2425C75.8138 14.7539 76.617 14.3169 77.6522 14.3169C78.6238 14.3169 79.3734 14.6514 79.9007 15.3203C80.4329 15.9844 80.699 16.8901 80.699 18.0376C80.699 19.2876 80.389 20.291 79.7689 21.0479C79.1536 21.8047 78.3333 22.1831 77.3079 22.1831C76.4046 22.1831 75.7161 21.8315 75.2425 21.1284ZM75.1766 18.0522V18.6528C75.1766 19.1704 75.3133 19.5928 75.5867 19.9199C75.8602 20.2471 76.2191 20.4106 76.6634 20.4106C77.1907 20.4106 77.5985 20.208 77.8865 19.8027C78.1795 19.3926 78.326 18.814 78.326 18.0669C78.326 16.7485 77.8133 16.0894 76.7879 16.0894C76.3143 16.0894 75.9261 16.27 75.6234 16.6313C75.3255 16.9878 75.1766 17.4614 75.1766 18.0522ZM84.7243 21.1284H84.695V25.4497H82.3805V14.5H84.695V15.6279H84.7243C85.2955 14.7539 86.0988 14.3169 87.1339 14.3169C88.1056 14.3169 88.8551 14.6514 89.3825 15.3203C89.9147 15.9844 90.1808 16.8901 90.1808 18.0376C90.1808 19.2876 89.8707 20.291 89.2506 21.0479C88.6354 21.8047 87.8151 22.1831 86.7897 22.1831C85.8864 22.1831 85.1979 21.8315 84.7243 21.1284ZM84.6583 18.0522V18.6528C84.6583 19.1704 84.7951 19.5928 85.0685 19.9199C85.3419 20.2471 85.7008 20.4106 86.1452 20.4106C86.6725 20.4106 87.0802 20.208 87.3683 19.8027C87.6613 19.3926 87.8078 18.814 87.8078 18.0669C87.8078 16.7485 87.2951 16.0894 86.2697 16.0894C85.796 16.0894 85.4079 16.27 85.1051 16.6313C84.8073 16.9878 84.6583 17.4614 84.6583 18.0522ZM99.2011 22H96.8867V20.9673H96.8574C96.33 21.7778 95.5561 22.1831 94.5356 22.1831C93.5981 22.1831 92.8437 21.8535 92.2724 21.1943C91.7011 20.5303 91.4155 19.605 91.4155 18.4185C91.4155 17.1782 91.7304 16.1846 92.3603 15.4375C92.9902 14.6904 93.8154 14.3169 94.8359 14.3169C95.8027 14.3169 96.4765 14.6636 96.8574 15.3569H96.8867V10.8965H99.2011V22ZM96.9306 18.3525V17.7886C96.9306 17.3003 96.789 16.895 96.5058 16.5728C96.2226 16.2505 95.854 16.0894 95.3999 16.0894C94.8872 16.0894 94.4868 16.292 94.1987 16.6973C93.9106 17.0977 93.7666 17.6494 93.7666 18.3525C93.7666 19.0117 93.9057 19.5195 94.184 19.876C94.4624 20.2324 94.8481 20.4106 95.3413 20.4106C95.81 20.4106 96.1909 20.2227 96.4838 19.8467C96.7817 19.4707 96.9306 18.9727 96.9306 18.3525Z" fill="white"/>
<path d="M101 0H5C2.23858 0 0 2.23858 0 5V27C0 29.7614 2.23858 32 5 32H101C103.761 32 106 29.7614 106 27V5C106 2.23858 103.761 0 101 0Z" fill="url(#paint0_linear)"/>
<defs>
<linearGradient id="paint0_linear" x1="0" y1="0" x2="0" y2="32" gradientUnits="userSpaceOnUse">
<stop stop-color="#BBBBBB" stop-opacity="0.1"/>
<stop offset="1" stop-opacity="0.1"/>
</linearGradient>
</defs>
</svg>
