<svg width="94" height="32" viewBox="0 0 94 32" fill="none" xmlns="http://www.w3.org/2000/svg">
<path d="M89 0H31V32H89C91.7614 32 94 29.7614 94 27V5C94 2.23858 91.7614 0 89 0Z" fill="#0F1418"/>
<path d="M31 0H5C2.23858 0 0 2.23858 0 5V27C0 29.7614 2.23858 32 5 32H31V0Z" fill="#7C529D"/>
<path d="M24.3812 6.3746C23.7859 5.82623 21.3768 4.07801 16.0056 4.05458C16.0056 4.05458 9.67363 3.67494 6.58964 6.50583C4.87423 8.22124 4.26962 10.7381 4.204 13.8549C4.13838 16.9717 4.05871 22.8116 9.68769 24.3958H9.69237L9.68769 26.8142C9.68769 26.8142 9.65019 27.7938 10.297 27.9906C11.075 28.2344 11.5343 27.4891 12.2795 26.6877C12.6873 26.2471 13.2497 25.6003 13.6762 25.1082C17.5289 25.4316 20.4863 24.691 20.8238 24.5832C21.6018 24.3302 26.0028 23.7677 26.7152 17.9278C27.4558 11.9005 26.359 8.0947 24.3812 6.3746ZM25.0326 17.4873C24.428 22.3617 20.8613 22.671 20.2051 22.8819C19.9239 22.971 17.3227 23.6177 14.0559 23.4068C14.0559 23.4068 11.6187 26.3455 10.8594 27.1095C10.611 27.3579 10.3392 27.3345 10.3439 26.8423C10.3439 26.5189 10.3626 22.8257 10.3626 22.8257C10.3579 22.8257 10.3579 22.8257 10.3626 22.8257C5.59133 21.5039 5.87254 16.5311 5.9241 13.9299C5.97565 11.3287 6.46778 9.19612 7.92072 7.76192C10.5313 5.39503 15.9072 5.74655 15.9072 5.74655C20.4488 5.7653 22.6236 7.13388 23.1297 7.5932C24.803 9.02739 25.656 12.4582 25.0326 17.4873ZM18.5178 13.7002C18.5366 14.1033 17.932 14.1314 17.9132 13.7284C17.8617 12.6972 17.3789 12.1957 16.3853 12.1395C15.9822 12.1161 16.0197 11.5115 16.4181 11.5349C17.7257 11.6052 18.4522 12.3551 18.5178 13.7002ZM19.4693 14.2299C19.5161 12.2426 18.2741 10.6866 15.9166 10.5131C15.5182 10.485 15.5604 9.88041 15.9588 9.90853C18.6772 10.1054 20.1254 11.9755 20.0739 14.2439C20.0692 14.647 19.4599 14.6282 19.4693 14.2299ZM21.6721 14.8579C21.6768 15.261 21.0675 15.2657 21.0675 14.8626C21.0394 11.0428 18.4944 8.96177 15.4057 8.93834C15.0073 8.93365 15.0073 8.33373 15.4057 8.33373C18.86 8.35716 21.6393 10.7428 21.6721 14.8579ZM21.1425 19.4558V19.4651C20.6363 20.3557 19.6896 21.3399 18.7147 21.0259L18.7053 21.0118C17.7164 20.7353 15.387 19.5354 13.9153 18.3637C13.156 17.7638 12.4623 17.0561 11.928 16.3765C11.4453 15.7719 10.9578 15.0548 10.4845 14.1924C9.48615 12.3879 9.26586 11.5818 9.26586 11.5818C8.95184 10.6069 9.93141 9.66012 10.8266 9.15394H10.836C11.2672 8.92897 11.6796 9.00396 11.9562 9.33673C11.9562 9.33673 12.5373 10.0304 12.7857 10.3725C13.0201 10.6912 13.3341 11.2021 13.4981 11.488C13.784 11.9989 13.6059 12.5191 13.3247 12.7347L12.7623 13.1847C12.4764 13.4143 12.5139 13.8408 12.5139 13.8408C12.5139 13.8408 13.3482 16.9951 16.465 17.7919C16.465 17.7919 16.8915 17.8294 17.1211 17.5435L17.5711 16.9811C17.7867 16.6999 18.3069 16.5218 18.8178 16.8077C19.5068 17.1967 20.3832 17.8013 20.9644 18.3497C21.2925 18.6168 21.3675 19.0246 21.1425 19.4558Z" fill="white"/>
<path d="M53.2557 11.4971L49.6376 22H46.9569L43.3827 11.4971H45.9315L48.1214 18.8066C48.2386 19.2021 48.3094 19.5513 48.3338 19.854H48.3778C48.412 19.5269 48.4877 19.168 48.6048 18.7773L50.7801 11.4971H53.2557ZM55.904 13.3135C55.5134 13.3135 55.1935 13.1987 54.9445 12.9692C54.6955 12.7349 54.571 12.4492 54.571 12.1123C54.571 11.7656 54.6955 11.4824 54.9445 11.2627C55.1935 11.043 55.5134 10.9331 55.904 10.9331C56.2995 10.9331 56.6193 11.043 56.8635 11.2627C57.1125 11.4824 57.237 11.7656 57.237 12.1123C57.237 12.4639 57.1125 12.752 56.8635 12.9766C56.6193 13.2012 56.2995 13.3135 55.904 13.3135ZM57.0466 22H54.7321V14.5H57.0466V22ZM61.5186 21.1284H61.4893V22H59.1748V10.8965H61.4893V15.6279H61.5186C62.0898 14.7539 62.9028 14.3169 63.9575 14.3169C64.9243 14.3169 65.6689 14.6489 66.1914 15.313C66.7139 15.9771 66.9751 16.8853 66.9751 18.0376C66.9751 19.2876 66.6699 20.291 66.0596 21.0479C65.4492 21.8047 64.6338 22.1831 63.6133 22.1831C62.6904 22.1831 61.9922 21.8315 61.5186 21.1284ZM61.4526 17.9644V18.7334C61.4526 19.2168 61.5918 19.6172 61.8701 19.9346C62.1484 20.252 62.5049 20.4106 62.9395 20.4106C63.4668 20.4106 63.8745 20.208 64.1626 19.8027C64.4556 19.3926 64.6021 18.814 64.6021 18.0669C64.6021 17.4468 64.4678 16.9634 64.1992 16.6167C63.9355 16.2651 63.5571 16.0894 63.064 16.0894C62.6001 16.0894 62.2144 16.2627 61.9067 16.6094C61.604 16.9561 61.4526 17.4077 61.4526 17.9644ZM75.3948 18.9092H70.5023C70.5804 19.998 71.2664 20.5425 72.5604 20.5425C73.3856 20.5425 74.1107 20.3472 74.7357 19.9565V21.6265C74.0423 21.9976 73.1414 22.1831 72.033 22.1831C70.8221 22.1831 69.8821 21.8486 69.2132 21.1797C68.5443 20.5059 68.2098 19.5684 68.2098 18.3672C68.2098 17.1221 68.5711 16.1357 69.2938 15.4082C70.0164 14.6807 70.9051 14.3169 71.9598 14.3169C73.0535 14.3169 73.8983 14.6416 74.494 15.291C75.0946 15.9404 75.3948 16.8218 75.3948 17.9351V18.9092ZM73.2488 17.4883C73.2488 16.4141 72.8143 15.877 71.9451 15.877C71.574 15.877 71.2518 16.0308 70.9783 16.3384C70.7098 16.646 70.5462 17.0293 70.4876 17.4883H73.2488ZM81.8444 16.5874C81.5661 16.436 81.2413 16.3604 80.8703 16.3604C80.3673 16.3604 79.9743 16.5459 79.6911 16.917C79.4079 17.2832 79.2663 17.7837 79.2663 18.4185V22H76.9518V14.5H79.2663V15.8916H79.2955C79.6618 14.876 80.3209 14.3682 81.2731 14.3682C81.5172 14.3682 81.7077 14.3975 81.8444 14.4561V16.5874Z" fill="white"/>
<path d="M89 0H5C2.23858 0 0 2.23858 0 5V27C0 29.7614 2.23858 32 5 32H89C91.7614 32 94 29.7614 94 27V5C94 2.23858 91.7614 0 89 0Z" fill="url(#paint0_linear)"/>
<defs>
<linearGradient id="paint0_linear" x1="0" y1="0" x2="0" y2="32" gradientUnits="userSpaceOnUse">
<stop stop-color="#BBBBBB" stop-opacity="0.1"/>
<stop offset="1" stop-opacity="0.1"/>
</linearGradient>
</defs>
</svg>
