<svg width="132" height="32" viewBox="0 0 132 32" fill="none" xmlns="http://www.w3.org/2000/svg">
<path d="M127 0H31V32H127C129.761 32 132 29.7614 132 27V5C132 2.23858 129.761 0 127 0Z" fill="#0F1418"/>
<path d="M31 0H5C2.23858 0 0 2.23858 0 5V27C0 29.7614 2.23858 32 5 32H31V0Z" fill="#3CC04E"/>
<path d="M22.8547 8.55156C20.8906 6.58281 18.275 5.5 15.4953 5.5C9.75781 5.5 5.08906 10.1687 5.08906 15.9062C5.08906 17.7391 5.56719 19.5297 6.47656 21.1094L5 26.5L10.5172 25.0516C12.0359 25.8813 13.7469 26.3172 15.4906 26.3172H15.4953C21.2281 26.3172 26 21.6484 26 15.9109C26 13.1313 24.8188 10.5203 22.8547 8.55156ZM15.4953 24.5641C13.9391 24.5641 12.4156 24.1469 11.0891 23.3594L10.775 23.1719L7.50313 24.0297L8.375 20.8375L8.16875 20.5094C7.30156 19.1313 6.84688 17.5422 6.84688 15.9062C6.84688 11.1391 10.7281 7.25781 15.5 7.25781C17.8109 7.25781 19.9812 8.15781 21.6125 9.79375C23.2437 11.4297 24.2469 13.6 24.2422 15.9109C24.2422 20.6828 20.2625 24.5641 15.4953 24.5641ZM20.2391 18.0859C19.9813 17.9547 18.7016 17.3266 18.4625 17.2422C18.2234 17.1531 18.05 17.1109 17.8766 17.3734C17.7031 17.6359 17.2063 18.2172 17.0516 18.3953C16.9016 18.5688 16.7469 18.5922 16.4891 18.4609C14.9609 17.6969 13.9578 17.0969 12.95 15.3672C12.6828 14.9078 13.2172 14.9406 13.7141 13.9469C13.7984 13.7734 13.7562 13.6234 13.6906 13.4922C13.625 13.3609 13.1047 12.0813 12.8891 11.5609C12.6781 11.0547 12.4625 11.125 12.3031 11.1156C12.1531 11.1063 11.9797 11.1063 11.8062 11.1063C11.6328 11.1063 11.3516 11.1719 11.1125 11.4297C10.8734 11.6922 10.2031 12.3203 10.2031 13.6C10.2031 14.8797 11.1359 16.1172 11.2625 16.2906C11.3938 16.4641 13.0953 19.0891 15.7062 20.2188C17.3562 20.9312 18.0031 20.9922 18.8281 20.8703C19.3297 20.7953 20.3656 20.2422 20.5812 19.6328C20.7969 19.0234 20.7969 18.5031 20.7313 18.3953C20.6703 18.2781 20.4969 18.2125 20.2391 18.0859Z" fill="white"/>
<path d="M58.6556 11.4971L55.8798 22H53.2577L51.5145 15.2617C51.4218 14.9102 51.3656 14.5171 51.3461 14.0825H51.3168C51.2728 14.561 51.2094 14.9541 51.1263 15.2617L49.3392 22H46.6073L43.8461 11.4971H46.4315L47.911 18.4917C47.9745 18.7896 48.0209 19.1899 48.0502 19.6929H48.0941C48.1137 19.3169 48.1845 18.9067 48.3065 18.4624L50.2108 11.4971H52.745L54.4662 18.5503C54.5297 18.8091 54.5858 19.1851 54.6346 19.6782H54.6639C54.6835 19.2925 54.7347 18.9019 54.8178 18.5063L56.2679 11.4971H58.6556ZM67.405 22H65.0979V17.7373C65.0979 16.6387 64.6975 16.0894 63.8967 16.0894C63.4865 16.0894 63.1545 16.2432 62.9006 16.5508C62.6467 16.8584 62.5197 17.249 62.5197 17.7227V22H60.2053V10.8965H62.5197V15.6133H62.549C63.1154 14.749 63.8845 14.3169 64.8562 14.3169C66.5554 14.3169 67.405 15.3423 67.405 17.3931V22ZM75.6636 22H73.4737V20.9233H73.4444C72.9414 21.7632 72.1968 22.1831 71.2105 22.1831C70.4829 22.1831 69.9092 21.978 69.4893 21.5679C69.0742 21.1528 68.8667 20.6011 68.8667 19.9126C68.8667 18.4575 69.7285 17.6177 71.4522 17.3931L73.4883 17.1221C73.4883 16.3018 73.044 15.8916 72.1553 15.8916C71.2617 15.8916 70.4121 16.1577 69.6065 16.6899V14.9468C69.9287 14.7808 70.3682 14.6343 70.9248 14.5073C71.4863 14.3804 71.9966 14.3169 72.4556 14.3169C74.5943 14.3169 75.6636 15.3838 75.6636 17.5176V22ZM73.4883 18.9531V18.4478L72.126 18.6235C71.374 18.7212 70.9981 19.0605 70.9981 19.6416C70.9981 19.9053 71.0884 20.1226 71.2691 20.2935C71.4546 20.4595 71.7036 20.5425 72.0161 20.5425C72.4507 20.5425 72.8047 20.3936 73.0781 20.0957C73.3516 19.793 73.4883 19.4121 73.4883 18.9531ZM82.2083 21.9121C81.8665 22.0928 81.3514 22.1831 80.6629 22.1831C79.0321 22.1831 78.2166 21.3359 78.2166 19.6416V16.2065H77.0008V14.5H78.2166V12.8813L80.5238 12.2222V14.5H82.2083V16.2065H80.5238V19.2388C80.5238 20.02 80.8338 20.4106 81.4539 20.4106C81.6981 20.4106 81.9496 20.3398 82.2083 20.1982V21.9121ZM83.2087 21.8022V19.9272C83.5895 20.1567 83.9679 20.3276 84.3439 20.4399C84.7248 20.5522 85.0837 20.6084 85.4206 20.6084C85.8307 20.6084 86.153 20.5522 86.3874 20.4399C86.6266 20.3276 86.7463 20.1567 86.7463 19.9272C86.7463 19.7808 86.6925 19.6587 86.5851 19.561C86.4777 19.4634 86.3385 19.3779 86.1676 19.3047C86.0016 19.2314 85.8185 19.1655 85.6183 19.1069C85.4181 19.0483 85.2253 18.9824 85.0397 18.9092C84.7419 18.7969 84.4782 18.6772 84.2487 18.5503C84.0241 18.4185 83.8337 18.2671 83.6774 18.0962C83.526 17.9253 83.4088 17.7275 83.3258 17.5029C83.2477 17.2783 83.2087 17.0122 83.2087 16.7046C83.2087 16.2847 83.299 15.9233 83.4796 15.6206C83.6652 15.3179 83.9093 15.0713 84.2121 14.8809C84.5197 14.6855 84.8688 14.5439 85.2594 14.4561C85.6549 14.3633 86.0651 14.3169 86.4899 14.3169C86.8219 14.3169 87.1588 14.3438 87.5006 14.3975C87.8424 14.4463 88.1794 14.5195 88.5114 14.6172V16.4043C88.2184 16.2334 87.9035 16.1064 87.5666 16.0234C87.2345 15.9355 86.9074 15.8916 86.5851 15.8916C86.4338 15.8916 86.2897 15.9062 86.153 15.9355C86.0212 15.96 85.904 15.999 85.8014 16.0527C85.6989 16.1016 85.6183 16.1675 85.5597 16.2505C85.5011 16.3286 85.4718 16.4189 85.4718 16.5215C85.4718 16.6582 85.5158 16.7754 85.6037 16.873C85.6916 16.9707 85.8063 17.0562 85.9479 17.1294C86.0895 17.1978 86.2458 17.2612 86.4167 17.3198C86.5924 17.3735 86.7658 17.4297 86.9367 17.4883C87.2443 17.5957 87.5226 17.7129 87.7716 17.8398C88.0207 17.9668 88.2331 18.1157 88.4088 18.2866C88.5895 18.4575 88.7262 18.6577 88.819 18.8872C88.9167 19.1167 88.9655 19.3901 88.9655 19.7075C88.9655 20.1519 88.8678 20.5327 88.6725 20.8501C88.4821 21.1626 88.2257 21.4189 87.9035 21.6191C87.5861 21.8145 87.2174 21.9561 86.7975 22.0439C86.3825 22.1367 85.9504 22.1831 85.5011 22.1831C84.6759 22.1831 83.9118 22.0562 83.2087 21.8022ZM100.212 22H97.6343L96.8872 19.6636H93.1518L92.4121 22H89.8486L93.6719 11.4971H96.477L100.212 22ZM96.3452 17.8472L95.2173 14.3169C95.1343 14.0532 95.0757 13.7383 95.0415 13.3721H94.9829C94.9585 13.6797 94.8974 13.9849 94.7998 14.2876L93.6572 17.8472H96.3452ZM104.084 21.1284H104.054V25.4497H101.74V14.5H104.054V15.6279H104.084C104.655 14.7539 105.458 14.3169 106.493 14.3169C107.465 14.3169 108.215 14.6514 108.742 15.3203C109.274 15.9844 109.54 16.8901 109.54 18.0376C109.54 19.2876 109.23 20.291 108.61 21.0479C107.995 21.8047 107.175 22.1831 106.149 22.1831C105.246 22.1831 104.557 21.8315 104.084 21.1284ZM104.018 18.0522V18.6528C104.018 19.1704 104.155 19.5928 104.428 19.9199C104.701 20.2471 105.06 20.4106 105.505 20.4106C106.032 20.4106 106.44 20.208 106.728 19.8027C107.021 19.3926 107.167 18.814 107.167 18.0669C107.167 16.7485 106.655 16.0894 105.629 16.0894C105.156 16.0894 104.767 16.27 104.465 16.6313C104.167 16.9878 104.018 17.4614 104.018 18.0522ZM113.566 21.1284H113.536V25.4497H111.222V14.5H113.536V15.6279H113.566C114.137 14.7539 114.94 14.3169 115.975 14.3169C116.947 14.3169 117.696 14.6514 118.224 15.3203C118.756 15.9844 119.022 16.8901 119.022 18.0376C119.022 19.2876 118.712 20.291 118.092 21.0479C117.477 21.8047 116.656 22.1831 115.631 22.1831C114.728 22.1831 114.039 21.8315 113.566 21.1284ZM113.5 18.0522V18.6528C113.5 19.1704 113.636 19.5928 113.91 19.9199C114.183 20.2471 114.542 20.4106 114.986 20.4106C115.514 20.4106 115.922 20.208 116.21 19.8027C116.503 19.3926 116.649 18.814 116.649 18.0669C116.649 16.7485 116.136 16.0894 115.111 16.0894C114.637 16.0894 114.249 16.27 113.946 16.6313C113.649 16.9878 113.5 17.4614 113.5 18.0522Z" fill="white"/>
<path d="M127 0H5C2.23858 0 0 2.23858 0 5V27C0 29.7614 2.23858 32 5 32H127C129.761 32 132 29.7614 132 27V5C132 2.23858 129.761 0 127 0Z" fill="url(#paint0_linear)"/>
<defs>
<linearGradient id="paint0_linear" x1="0" y1="0" x2="0" y2="32" gradientUnits="userSpaceOnUse">
<stop stop-color="#BBBBBB" stop-opacity="0.1"/>
<stop offset="1" stop-opacity="0.1"/>
</linearGradient>
</defs>
</svg>
