<svg width="102" height="33" viewBox="0 0 102 33" fill="none" xmlns="http://www.w3.org/2000/svg">
<path d="M97 0H31V32.3951H97C99.7614 32.3951 102 30.1565 102 27.3951V5C102 2.23858 99.7614 0 97 0Z" fill="#0F1418"/>
<path d="M31 0H5C2.23858 0 0 2.23858 0 5V27C0 29.7614 2.23858 32 5 32H31V0Z" fill="#29BBED"/>
<path d="M8.37048 7.56574C8.1915 7.32556 7.96415 7.12557 7.7031 6.97868C7.44205 6.8318 7.15311 6.74128 6.85492 6.71296C6.55672 6.68465 6.25591 6.71917 5.97188 6.8143C5.68785 6.90944 5.42693 7.06306 5.20595 7.26527C4.38188 8.02371 4.31532 9.30527 4.98329 10.2076L9.28548 15.9732L4.95751 21.7928C4.29048 22.6951 4.34298 23.9767 5.1797 24.7351C5.40067 24.9372 5.66156 25.0908 5.94554 25.1859C6.22952 25.281 6.53028 25.3155 6.82842 25.2872C7.12655 25.2589 7.41544 25.1684 7.67645 25.0215C7.93745 24.8747 8.16478 24.6748 8.34376 24.4346L14.3855 16.314C14.4557 16.217 14.4935 16.1003 14.4935 15.9805C14.4935 15.8607 14.4557 15.744 14.3855 15.647L8.37048 7.56574ZM25.0425 21.7928L20.7145 15.9742L25.0167 10.2086C25.6833 9.30621 25.6181 8.02464 24.7941 7.26621C24.5731 7.064 24.3122 6.91037 24.0281 6.81524C23.7441 6.72011 23.4433 6.68559 23.1451 6.7139C22.8469 6.74221 22.558 6.83273 22.2969 6.97962C22.0359 7.12651 21.8085 7.32649 21.6295 7.56668L15.6295 15.6348C15.5593 15.7318 15.5216 15.8486 15.5216 15.9683C15.5216 16.0881 15.5593 16.2048 15.6295 16.3018L21.6563 24.4346C21.8352 24.6748 22.0626 24.8748 22.3236 25.0217C22.5847 25.1686 22.8736 25.2591 23.1718 25.2874C23.47 25.3157 23.7708 25.2812 24.0549 25.1861C24.3389 25.0909 24.5998 24.9373 24.8208 24.7351C25.657 23.9767 25.7095 22.6951 25.0425 21.7928Z" fill="white"/>
<path d="M58.9403 22H56.6039V15.7158C56.6039 15.0371 56.6332 14.2876 56.6918 13.4673H56.6332C56.5111 14.1118 56.4012 14.5757 56.3036 14.8589L53.8426 22H51.909L49.4042 14.9321C49.3358 14.7417 49.2259 14.2534 49.0746 13.4673H49.0087C49.0721 14.5024 49.1039 15.4106 49.1039 16.1919V22H46.9725V11.4971H50.4369L52.5829 17.7227C52.7538 18.2207 52.8783 18.7212 52.9564 19.2241H53.0004C53.1322 18.6431 53.2713 18.1377 53.4178 17.708L55.5638 11.4971H58.9403V22ZM62.7165 13.3135C62.3259 13.3135 62.006 13.1987 61.757 12.9692C61.508 12.7349 61.3835 12.4492 61.3835 12.1123C61.3835 11.7656 61.508 11.4824 61.757 11.2627C62.006 11.043 62.3259 10.9331 62.7165 10.9331C63.112 10.9331 63.4318 11.043 63.676 11.2627C63.925 11.4824 64.0495 11.7656 64.0495 12.1123C64.0495 12.4639 63.925 12.752 63.676 12.9766C63.4318 13.2012 63.112 13.3135 62.7165 13.3135ZM63.8591 22H61.5446V14.5H63.8591V22ZM73.231 14.5L70.7554 18.1328L73.2163 22H70.5503L69.4663 19.9785C69.3784 19.8174 69.2734 19.5903 69.1514 19.2974H69.1221C69.0488 19.5024 68.9487 19.7222 68.8218 19.9565L67.7305 22H65.0718L67.606 18.2646L65.2256 14.5H67.9062L68.9756 16.6021C69.1172 16.8804 69.2173 17.1147 69.2759 17.3052H69.3052C69.3833 17.0757 69.4883 16.8364 69.6201 16.5874L70.7114 14.5H73.231ZM80.9329 18.9092H76.0404C76.1185 19.998 76.8045 20.5425 78.0985 20.5425C78.9237 20.5425 79.6488 20.3472 80.2738 19.9565V21.6265C79.5804 21.9976 78.6795 22.1831 77.5711 22.1831C76.3602 22.1831 75.4202 21.8486 74.7513 21.1797C74.0823 20.5059 73.7479 19.5684 73.7479 18.3672C73.7479 17.1221 74.1092 16.1357 74.8319 15.4082C75.5545 14.6807 76.4432 14.3169 77.4979 14.3169C78.5916 14.3169 79.4363 14.6416 80.0321 15.291C80.6326 15.9404 80.9329 16.8218 80.9329 17.9351V18.9092ZM78.7869 17.4883C78.7869 16.4141 78.3524 15.877 77.4832 15.877C77.1121 15.877 76.7899 16.0308 76.5164 16.3384C76.2479 16.646 76.0843 17.0293 76.0257 17.4883H78.7869ZM87.3825 16.5874C87.1041 16.436 86.7794 16.3604 86.4083 16.3604C85.9054 16.3604 85.5123 16.5459 85.2291 16.917C84.9459 17.2832 84.8043 17.7837 84.8043 18.4185V22H82.4899V14.5H84.8043V15.8916H84.8336C85.1998 14.876 85.859 14.3682 86.8112 14.3682C87.0553 14.3682 87.2457 14.3975 87.3825 14.4561V16.5874Z" fill="white"/>
<path d="M97 0H5C2.23858 0 0 2.23857 0 5V27.3951C0 30.1565 2.23858 32.3951 5 32.3951H97C99.7614 32.3951 102 30.1565 102 27.3951V5C102 2.23858 99.7614 0 97 0Z" fill="url(#paint0_linear)"/>
<defs>
<linearGradient id="paint0_linear" x1="0" y1="0" x2="0" y2="32.3951" gradientUnits="userSpaceOnUse">
<stop stop-color="#BBBBBB" stop-opacity="0.1"/>
<stop offset="1" stop-opacity="0.1"/>
</linearGradient>
</defs>
</svg>
