<svg width="109" height="32" viewBox="0 0 109 32" fill="none" xmlns="http://www.w3.org/2000/svg">
<path d="M104 0H31V32H104C106.761 32 109 29.7614 109 27V5C109 2.23858 106.761 0 104 0Z" fill="#0F1418"/>
<path d="M31 0H5C2.23858 0 0 2.23858 0 5V27C0 29.7614 2.23858 32 5 32H31V0Z" fill="url(#paint0_linear_2_598)"/>
<mask id="mask0_2_598" style="mask-type:luminance" maskUnits="userSpaceOnUse" x="4" y="4" width="24" height="24">
<path d="M15.9583 4H15.956C9.35288 4 4 9.37206 4 15.9988V16.0012C4 22.6279 9.35288 28 15.956 28H15.9583C22.5614 28 27.9143 22.6279 27.9143 16.0012V15.9988C27.9143 9.37206 22.5614 4 15.9583 4Z" fill="white"/>
</mask>
<g mask="url(#mask0_2_598)">
<path d="M6.01199 13.3485C6.03799 13.3344 6.06073 13.315 6.0787 13.2915C6.09668 13.268 6.10949 13.241 6.11629 13.2122C6.12308 13.1833 6.12372 13.1534 6.11814 13.1243C6.11256 13.0952 6.1009 13.0676 6.08393 13.0434C6.0509 12.9953 6.00108 12.9615 5.94434 12.9485C5.88761 12.9356 5.8281 12.9445 5.77761 12.9735C5.74669 13.0111 5.7283 13.0575 5.72505 13.1061C5.72179 13.1548 5.73383 13.2032 5.75946 13.2446C5.78509 13.286 5.82302 13.3183 5.86791 13.337C5.9128 13.3556 5.96238 13.3596 6.00967 13.3485H6.01199ZM19.0355 7.48646C19.0622 7.47284 19.0856 7.45347 19.1041 7.42974C19.1225 7.40601 19.1355 7.37849 19.1422 7.34914C19.1488 7.3198 19.1489 7.28935 19.1425 7.25995C19.1361 7.23055 19.1233 7.20292 19.1051 7.17904C19.0721 7.13158 19.0227 7.09813 18.9665 7.08522C18.9103 7.0723 18.8514 7.08084 18.8011 7.10917C18.7538 7.14226 18.7205 7.19183 18.7076 7.24823C18.6947 7.30463 18.7032 7.36382 18.7315 7.41427C18.7641 7.46212 18.8133 7.49604 18.8696 7.50939C18.9258 7.52274 18.9849 7.51457 19.0355 7.48646ZM21.804 15.9639C21.7926 16.0127 21.7959 16.0638 21.8133 16.1107C21.8308 16.1576 21.8617 16.1983 21.9022 16.2277C21.9427 16.257 21.9909 16.2737 22.0408 16.2755C22.0907 16.2774 22.14 16.2644 22.1826 16.2382C22.2251 16.212 22.259 16.1738 22.2799 16.1283C22.3009 16.0828 22.3079 16.0321 22.3002 15.9826C22.2925 15.9331 22.2703 15.887 22.2365 15.8501C22.2027 15.8132 22.1588 15.7872 22.1103 15.7753C22.0449 15.7616 21.9768 15.7736 21.9199 15.8086C21.863 15.8437 21.8215 15.8992 21.804 15.9639ZM18.1443 24.5345C18.0492 24.4879 17.9564 24.5578 17.9123 24.6766C17.9032 24.7137 17.9054 24.7528 17.9184 24.7887C17.9315 24.8247 17.9549 24.8559 17.9857 24.8785C18.0165 24.9011 18.0532 24.914 18.0913 24.9156C18.1294 24.9172 18.1671 24.9074 18.1997 24.8875C18.2322 24.8676 18.2582 24.8384 18.2742 24.8037C18.2902 24.7689 18.2956 24.7302 18.2897 24.6924C18.2837 24.6546 18.2668 24.6194 18.2409 24.5913C18.215 24.5632 18.1814 24.5434 18.1443 24.5345ZM7.49489 8.69753C7.51026 8.70093 7.52615 8.70122 7.54163 8.69838C7.55711 8.69554 7.57187 8.68964 7.58505 8.681C7.59823 8.67237 7.60956 8.66119 7.61838 8.64811C7.6272 8.63503 7.63334 8.62032 7.63642 8.60483C7.63951 8.58934 7.63949 8.57339 7.63636 8.55791C7.63323 8.54243 7.62705 8.52774 7.6182 8.51468C7.60934 8.50163 7.59798 8.49048 7.58477 8.48188C7.57157 8.47329 7.55679 8.46742 7.5413 8.46463C7.47168 8.46463 7.39974 8.48792 7.39974 8.55779C7.3947 8.5732 7.39329 8.58957 7.39563 8.60562C7.39797 8.62167 7.40398 8.63696 7.41321 8.65028C7.42243 8.6636 7.43461 8.67459 7.44878 8.68238C7.46295 8.69018 7.47874 8.69456 7.49489 8.6952V8.69753ZM8.24214 20.3703C8.14699 20.3936 8.07737 20.4635 8.10058 20.559C8.10308 20.5808 8.11003 20.6019 8.121 20.621C8.13197 20.6401 8.14672 20.6567 8.16435 20.6698C8.18197 20.6829 8.20209 20.6922 8.22346 20.6972C8.24482 20.7021 8.26698 20.7027 8.28855 20.6987C8.38138 20.6987 8.43011 20.6055 8.43011 20.51C8.4279 20.488 8.42117 20.4666 8.41032 20.4473C8.39948 20.4279 8.38477 20.4111 8.36711 20.3977C8.34945 20.3844 8.32923 20.3748 8.30772 20.3697C8.28622 20.3646 8.26388 20.364 8.24214 20.368V20.3703ZM23.8531 12.3773L23.7116 12.9898L23.1569 13.2553L23.765 13.3974L24.0249 13.9377L24.1641 13.3252L24.7141 13.076L24.1038 12.9339L23.8531 12.3773ZM15.9142 8.3575C15.8818 8.36741 15.8519 8.38432 15.8267 8.40706C15.8015 8.4298 15.7815 8.4578 15.7683 8.4891C15.755 8.5204 15.7487 8.55424 15.7499 8.58824C15.751 8.62223 15.7596 8.65556 15.775 8.68588C15.8759 8.90427 15.9004 9.15045 15.8446 9.38457C15.833 9.45304 15.8487 9.52332 15.8881 9.58036C15.9276 9.63739 15.9878 9.67663 16.0558 9.68967H16.1022C16.1603 9.6899 16.2163 9.66826 16.2593 9.62902C16.3023 9.58978 16.329 9.5358 16.3342 9.47773C16.4217 9.148 16.3888 8.79775 16.2414 8.49025C16.2308 8.45832 16.2134 8.42908 16.1904 8.40456C16.1674 8.38003 16.1394 8.36079 16.1083 8.34818C16.0772 8.33556 16.0437 8.32986 16.0102 8.33147C15.9767 8.33308 15.944 8.34196 15.9142 8.3575ZM15.7982 7.3444C15.7392 7.21524 15.6609 7.09587 15.5661 6.99039C15.5183 6.94536 15.4553 6.92029 15.3897 6.92029C15.3242 6.92029 15.2611 6.94536 15.2134 6.99039C15.1674 7.03778 15.1417 7.10129 15.1417 7.1674C15.1417 7.23351 15.1674 7.29701 15.2134 7.3444C15.2702 7.41566 15.3178 7.49392 15.3549 7.57729C15.388 7.63747 15.4423 7.68304 15.5071 7.70503C15.572 7.72701 15.6427 7.72382 15.7053 7.69607C15.7621 7.65995 15.8032 7.60367 15.8204 7.53848C15.8376 7.47328 15.8297 7.40398 15.7982 7.3444ZM24.7025 23.8218C24.3478 22.3531 23.8823 20.9135 23.3101 19.5156C22.8297 18.2999 21.2656 16.8023 20.2561 16.0571C20.1711 15.9933 20.1008 15.9119 20.0502 15.8182C19.9996 15.7246 19.9699 15.6211 19.9631 15.5148C19.9562 15.4085 19.9724 15.302 20.0106 15.2026C20.0488 15.1032 20.108 15.0133 20.1842 14.9392C21.1705 13.9843 22.9249 12.1444 23.4934 11.1825C23.8647 10.5025 24.5957 9.21223 24.6282 8.09432C24.7002 7.26288 24.5865 6.30102 23.4888 5.86085C23.2197 5.74004 22.9226 5.69612 22.6303 5.73392C22.3379 5.77173 22.0616 5.88979 21.8319 6.07511C21.1357 6.55488 20.9036 7.86841 20.4232 9.17729C19.857 10.6865 18.9659 10.8774 18.4948 10.8774C18.0237 10.8774 18.3323 10.379 17.2532 7.24658C16.1741 4.11412 13.3081 4.68472 11.1522 5.97962C8.4069 7.6262 9.62524 11.136 10.3075 13.3974C9.92925 13.7747 8.47652 14.0565 7.16303 14.7622C6.34617 15.2023 5.64765 15.4865 4.96538 16.0361C4.01624 16.8023 3.60548 17.6664 3.93501 18.8448C4.07773 19.2588 4.37581 19.6006 4.7658 19.7974C5.5409 20.1514 6.68266 19.6367 8.43011 18.3185C9.2873 17.7605 10.2196 17.3284 11.1986 17.0352C11.1986 17.0352 12.2545 18.6655 13.2408 20.5916C14.2271 22.5176 12.1826 23.1534 11.9714 23.1534C11.7602 23.1534 8.53686 22.839 9.27482 25.5709C10.0128 28.3028 13.8976 27.313 15.891 25.9948C17.8844 24.6766 17.3925 20.368 17.3925 20.368C19.3395 20.0629 19.9498 22.1333 20.1401 23.193C20.3304 24.2527 19.908 26.0902 21.8759 26.1368C22.1539 26.1346 22.4302 26.0946 22.6975 26.0181C23.7603 25.7712 24.3753 25.2355 24.6282 24.6649C24.7417 24.399 24.7677 24.1036 24.7025 23.8218ZM14.8815 11.0125C12.8881 11.7671 11.925 10.7796 11.809 8.96536C11.6674 6.91587 13.568 6.40349 13.568 6.40349C15.6798 5.7048 16.2437 6.70859 16.7357 8.21543C17.2277 9.72227 16.8541 10.2649 14.8815 11.0172V11.0125Z" fill="white"/>
</g>
<path d="M49.4011 22.1831C47.8972 22.1831 46.6716 21.6948 45.7243 20.7183C44.7771 19.7368 44.3034 18.46 44.3034 16.8877C44.3034 15.2275 44.7844 13.8848 45.7463 12.8594C46.7082 11.834 47.9826 11.3213 49.5695 11.3213C51.0686 11.3213 52.2795 11.812 53.2023 12.7935C54.1301 13.7749 54.5939 15.0688 54.5939 16.6753C54.5939 18.3257 54.113 19.6562 53.1511 20.667C52.194 21.6777 50.944 22.1831 49.4011 22.1831ZM49.5036 13.3574C48.6735 13.3574 48.0144 13.6699 47.5261 14.2949C47.0378 14.915 46.7937 15.7378 46.7937 16.7632C46.7937 17.8032 47.0378 18.626 47.5261 19.2314C48.0144 19.8369 48.654 20.1396 49.445 20.1396C50.2604 20.1396 50.9074 19.8467 51.3859 19.2607C51.8645 18.6699 52.1037 17.8521 52.1037 16.8071C52.1037 15.7183 51.8718 14.8711 51.4079 14.2656C50.944 13.6602 50.3093 13.3574 49.5036 13.3574ZM63.8999 22H61.5855V20.9673H61.5562C61.0288 21.7778 60.2549 22.1831 59.2344 22.1831C58.2969 22.1831 57.5425 21.8535 56.9712 21.1943C56.3999 20.5303 56.1143 19.605 56.1143 18.4185C56.1143 17.1782 56.4292 16.1846 57.0591 15.4375C57.689 14.6904 58.5142 14.3169 59.5347 14.3169C60.5015 14.3169 61.1753 14.6636 61.5562 15.3569H61.5855V10.8965H63.8999V22ZM61.6294 18.3525V17.7886C61.6294 17.3003 61.4878 16.895 61.2046 16.5728C60.9214 16.2505 60.5528 16.0894 60.0987 16.0894C59.586 16.0894 59.1856 16.292 58.8975 16.6973C58.6094 17.0977 58.4654 17.6494 58.4654 18.3525C58.4654 19.0117 58.6045 19.5195 58.8828 19.876C59.1612 20.2324 59.5469 20.4106 60.0401 20.4106C60.5088 20.4106 60.8897 20.2227 61.1826 19.8467C61.4805 19.4707 61.6294 18.9727 61.6294 18.3525ZM73.1693 14.5L70.1224 22.6006C69.39 24.5488 68.2865 25.5229 66.8119 25.5229C66.2503 25.5229 65.7889 25.4595 65.4276 25.3325V23.4868C65.7352 23.6675 66.0697 23.7578 66.431 23.7578C67.0267 23.7578 67.4417 23.4771 67.6761 22.9155L68.0716 21.9854L65.0247 14.5H67.5882L68.9871 19.063C69.075 19.3462 69.1434 19.6807 69.1922 20.0664H69.2215C69.2655 19.7832 69.346 19.4536 69.4632 19.0776L70.8768 14.5H73.1693ZM73.7887 21.8022V19.9272C74.1696 20.1567 74.548 20.3276 74.924 20.4399C75.3048 20.5522 75.6637 20.6084 76.0006 20.6084C76.4108 20.6084 76.7331 20.5522 76.9674 20.4399C77.2067 20.3276 77.3263 20.1567 77.3263 19.9272C77.3263 19.7808 77.2726 19.6587 77.1652 19.561C77.0578 19.4634 76.9186 19.3779 76.7477 19.3047C76.5817 19.2314 76.3986 19.1655 76.1984 19.1069C75.9982 19.0483 75.8053 18.9824 75.6198 18.9092C75.3219 18.7969 75.0583 18.6772 74.8288 18.5503C74.6042 18.4185 74.4137 18.2671 74.2575 18.0962C74.1061 17.9253 73.9889 17.7275 73.9059 17.5029C73.8278 17.2783 73.7887 17.0122 73.7887 16.7046C73.7887 16.2847 73.8791 15.9233 74.0597 15.6206C74.2453 15.3179 74.4894 15.0713 74.7921 14.8809C75.0998 14.6855 75.4489 14.5439 75.8395 14.4561C76.235 14.3633 76.6452 14.3169 77.07 14.3169C77.402 14.3169 77.7389 14.3438 78.0807 14.3975C78.4225 14.4463 78.7594 14.5195 79.0915 14.6172V16.4043C78.7985 16.2334 78.4836 16.1064 78.1466 16.0234C77.8146 15.9355 77.4875 15.8916 77.1652 15.8916C77.0138 15.8916 76.8698 15.9062 76.7331 15.9355C76.6012 15.96 76.484 15.999 76.3815 16.0527C76.279 16.1016 76.1984 16.1675 76.1398 16.2505C76.0812 16.3286 76.0519 16.4189 76.0519 16.5215C76.0519 16.6582 76.0959 16.7754 76.1838 16.873C76.2716 16.9707 76.3864 17.0562 76.528 17.1294C76.6696 17.1978 76.8258 17.2612 76.9967 17.3198C77.1725 17.3735 77.3459 17.4297 77.5168 17.4883C77.8244 17.5957 78.1027 17.7129 78.3517 17.8398C78.6007 17.9668 78.8131 18.1157 78.9889 18.2866C79.1696 18.4575 79.3063 18.6577 79.3991 18.8872C79.4967 19.1167 79.5456 19.3901 79.5456 19.7075C79.5456 20.1519 79.4479 20.5327 79.2526 20.8501C79.0622 21.1626 78.8058 21.4189 78.4836 21.6191C78.1662 21.8145 77.7975 21.9561 77.3776 22.0439C76.9626 22.1367 76.5304 22.1831 76.0812 22.1831C75.256 22.1831 74.4919 22.0562 73.7887 21.8022ZM87.8042 18.9092H82.9116C82.9897 19.998 83.6758 20.5425 84.9697 20.5425C85.7949 20.5425 86.52 20.3472 87.145 19.9565V21.6265C86.4516 21.9976 85.5508 22.1831 84.4424 22.1831C83.2314 22.1831 82.2915 21.8486 81.6225 21.1797C80.9536 20.5059 80.6191 19.5684 80.6191 18.3672C80.6191 17.1221 80.9804 16.1357 81.7031 15.4082C82.4258 14.6807 83.3144 14.3169 84.3691 14.3169C85.4629 14.3169 86.3076 14.6416 86.9033 15.291C87.5039 15.9404 87.8042 16.8218 87.8042 17.9351V18.9092ZM85.6582 17.4883C85.6582 16.4141 85.2236 15.877 84.3545 15.877C83.9834 15.877 83.6611 16.0308 83.3877 16.3384C83.1191 16.646 82.9555 17.0293 82.897 17.4883H85.6582ZM96.0994 18.9092H91.2068C91.285 19.998 91.971 20.5425 93.2649 20.5425C94.0901 20.5425 94.8152 20.3472 95.4402 19.9565V21.6265C94.7469 21.9976 93.846 22.1831 92.7376 22.1831C91.5267 22.1831 90.5867 21.8486 89.9178 21.1797C89.2488 20.5059 88.9144 19.5684 88.9144 18.3672C88.9144 17.1221 89.2757 16.1357 89.9983 15.4082C90.721 14.6807 91.6097 14.3169 92.6644 14.3169C93.7581 14.3169 94.6028 14.6416 95.1985 15.291C95.7991 15.9404 96.0994 16.8218 96.0994 17.9351V18.9092ZM93.9534 17.4883C93.9534 16.4141 93.5188 15.877 92.6497 15.877C92.2786 15.877 91.9563 16.0308 91.6829 16.3384C91.4144 16.646 91.2508 17.0293 91.1922 17.4883H93.9534Z" fill="white"/>
<path d="M104 0H5C2.23858 0 0 2.23858 0 5V27C0 29.7614 2.23858 32 5 32H104C106.761 32 109 29.7614 109 27V5C109 2.23858 106.761 0 104 0Z" fill="url(#paint1_linear_2_598)"/>
<defs>
<linearGradient id="paint0_linear_2_598" x1="11.1756" y1="0.555847" x2="24.8133" y2="46.2645" gradientUnits="userSpaceOnUse">
<stop stop-color="#EF4519"/>
<stop offset="0.14" stop-color="#F23B5C"/>
<stop offset="0.45" stop-color="#F77D35"/>
<stop offset="0.7" stop-color="#FCAD18"/>
<stop offset="0.89" stop-color="#FECB07"/>
<stop offset="1" stop-color="#FFD600"/>
</linearGradient>
<linearGradient id="paint1_linear_2_598" x1="0" y1="0" x2="0" y2="32" gradientUnits="userSpaceOnUse">
<stop stop-color="#BBBBBB" stop-opacity="0.1"/>
<stop offset="1" stop-opacity="0.1"/>
</linearGradient>
</defs>
</svg>
