<svg width="112" height="33" viewBox="0 0 112 33" fill="none" xmlns="http://www.w3.org/2000/svg">
<path d="M107 0H31V32.3951H107C109.761 32.3951 112 30.1565 112 27.3951V5C112 2.23858 109.761 0 107 0Z" fill="#0F1418"/>
<path d="M31 0H5C2.23858 0 0 2.23858 0 5V27C0 29.7614 2.23858 32 5 32H31V0Z" fill="#FF3828"/>
<path d="M15.25 20.5C17.7353 20.5 19.75 18.4853 19.75 16V8.5C19.75 6.01469 17.7353 4 15.25 4C12.7647 4 10.75 6.01469 10.75 8.5V16C10.75 18.4853 12.7647 20.5 15.25 20.5ZM22.75 13H22C21.5856 13 21.25 13.3356 21.25 13.75V16C21.25 19.5063 18.227 22.3197 14.6505 21.9709C11.5333 21.6667 9.25 18.8645 9.25 15.7328V13.75C9.25 13.3356 8.91438 13 8.5 13H7.75C7.33562 13 7 13.3356 7 13.75V15.6325C7 19.8344 9.99859 23.5802 14.125 24.1492V25.75H11.5C11.0856 25.75 10.75 26.0856 10.75 26.5V27.25C10.75 27.6644 11.0856 28 11.5 28H19C19.4144 28 19.75 27.6644 19.75 27.25V26.5C19.75 26.0856 19.4144 25.75 19 25.75H16.375V24.167C20.3927 23.6158 23.5 20.1672 23.5 16V13.75C23.5 13.3356 23.1644 13 22.75 13Z" fill="white"/>
<path d="M47.0537 18.3818V22H44.688V11.4971H48.3941C51.0406 11.4971 52.3638 12.6128 52.3638 14.8442C52.3638 15.8989 51.9829 16.7534 51.2212 17.4077C50.4644 18.0571 49.4512 18.3818 48.1817 18.3818H47.0537ZM47.0537 13.3135V16.5874H47.9839C49.2437 16.5874 49.8736 16.0356 49.8736 14.9321C49.8736 13.853 49.2437 13.3135 47.9839 13.3135H47.0537ZM57.2386 22.1831C55.9886 22.1831 55.0047 21.834 54.287 21.1357C53.5741 20.4326 53.2176 19.4805 53.2176 18.2793C53.2176 17.0391 53.5887 16.0698 54.3309 15.3716C55.0731 14.6685 56.0765 14.3169 57.3412 14.3169C58.5863 14.3169 59.5629 14.6685 60.2709 15.3716C60.9789 16.0698 61.3329 16.9951 61.3329 18.1475C61.3329 19.3926 60.9667 20.3765 60.2342 21.0991C59.5067 21.8218 58.5082 22.1831 57.2386 22.1831ZM57.2972 16.0894C56.7504 16.0894 56.3255 16.2773 56.0228 16.6533C55.7201 17.0293 55.5687 17.5615 55.5687 18.25C55.5687 19.6904 56.1498 20.4106 57.3119 20.4106C58.4203 20.4106 58.9745 19.6709 58.9745 18.1914C58.9745 16.79 58.4154 16.0894 57.2972 16.0894ZM70.3532 22H68.0387V20.9673H68.0095C67.4821 21.7778 66.7082 22.1831 65.6877 22.1831C64.7502 22.1831 63.9958 21.8535 63.4245 21.1943C62.8532 20.5303 62.5676 19.605 62.5676 18.4185C62.5676 17.1782 62.8825 16.1846 63.5124 15.4375C64.1423 14.6904 64.9675 14.3169 65.988 14.3169C66.9548 14.3169 67.6286 14.6636 68.0095 15.3569H68.0387V10.8965H70.3532V22ZM68.0827 18.3525V17.7886C68.0827 17.3003 67.9411 16.895 67.6579 16.5728C67.3747 16.2505 67.006 16.0894 66.5519 16.0894C66.0392 16.0894 65.6388 16.292 65.3508 16.6973C65.0627 17.0977 64.9186 17.6494 64.9186 18.3525C64.9186 19.0117 65.0578 19.5195 65.3361 19.876C65.6144 20.2324 66.0002 20.4106 66.4933 20.4106C66.9621 20.4106 67.3429 20.2227 67.6359 19.8467C67.9338 19.4707 68.0827 18.9727 68.0827 18.3525ZM78.165 21.729C77.6426 22.0317 76.8882 22.1831 75.9019 22.1831C74.7495 22.1831 73.8169 21.834 73.104 21.1357C72.3911 20.4375 72.0347 19.5366 72.0347 18.4331C72.0347 17.1587 72.4155 16.1553 73.1772 15.4229C73.9438 14.6855 74.9668 14.3169 76.2461 14.3169C77.1299 14.3169 77.7695 14.4341 78.165 14.6685V16.6313C77.6816 16.27 77.1421 16.0894 76.5464 16.0894C75.8823 16.0894 75.355 16.2847 74.9644 16.6753C74.5786 17.061 74.3857 17.5957 74.3857 18.2793C74.3857 18.9434 74.5713 19.4658 74.9424 19.8467C75.3135 20.2227 75.8237 20.4106 76.4731 20.4106C77.0493 20.4106 77.6133 20.23 78.165 19.8687V21.729ZM86.1087 22H83.9188V20.9233H83.8895C83.3865 21.7632 82.6419 22.1831 81.6556 22.1831C80.928 22.1831 80.3543 21.978 79.9344 21.5679C79.5194 21.1528 79.3118 20.6011 79.3118 19.9126C79.3118 18.4575 80.1737 17.6177 81.8973 17.3931L83.9334 17.1221C83.9334 16.3018 83.4891 15.8916 82.6004 15.8916C81.7069 15.8916 80.8572 16.1577 80.0516 16.6899V14.9468C80.3738 14.7808 80.8133 14.6343 81.3699 14.5073C81.9315 14.3804 82.4417 14.3169 82.9007 14.3169C85.0394 14.3169 86.1087 15.3838 86.1087 17.5176V22ZM83.9334 18.9531V18.4478L82.5711 18.6235C81.8192 18.7212 81.4432 19.0605 81.4432 19.6416C81.4432 19.9053 81.5335 20.1226 81.7142 20.2935C81.8997 20.4595 82.1488 20.5425 82.4613 20.5425C82.8958 20.5425 83.2498 20.3936 83.5233 20.0957C83.7967 19.793 83.9334 19.4121 83.9334 18.9531ZM87.629 21.8022V19.9272C88.0099 20.1567 88.3883 20.3276 88.7643 20.4399C89.1452 20.5522 89.504 20.6084 89.841 20.6084C90.2511 20.6084 90.5734 20.5522 90.8078 20.4399C91.047 20.3276 91.1666 20.1567 91.1666 19.9272C91.1666 19.7808 91.1129 19.6587 91.0055 19.561C90.8981 19.4634 90.7589 19.3779 90.588 19.3047C90.422 19.2314 90.2389 19.1655 90.0387 19.1069C89.8385 19.0483 89.6456 18.9824 89.4601 18.9092C89.1622 18.7969 88.8986 18.6772 88.6691 18.5503C88.4445 18.4185 88.254 18.2671 88.0978 18.0962C87.9464 17.9253 87.8292 17.7275 87.7462 17.5029C87.6681 17.2783 87.629 17.0122 87.629 16.7046C87.629 16.2847 87.7194 15.9233 87.9 15.6206C88.0856 15.3179 88.3297 15.0713 88.6325 14.8809C88.9401 14.6855 89.2892 14.5439 89.6798 14.4561C90.0753 14.3633 90.4855 14.3169 90.9103 14.3169C91.2423 14.3169 91.5792 14.3438 91.921 14.3975C92.2628 14.4463 92.5997 14.5195 92.9318 14.6172V16.4043C92.6388 16.2334 92.3239 16.1064 91.987 16.0234C91.6549 15.9355 91.3278 15.8916 91.0055 15.8916C90.8541 15.8916 90.7101 15.9062 90.5734 15.9355C90.4415 15.96 90.3244 15.999 90.2218 16.0527C90.1193 16.1016 90.0387 16.1675 89.9801 16.2505C89.9215 16.3286 89.8922 16.4189 89.8922 16.5215C89.8922 16.6582 89.9362 16.7754 90.0241 16.873C90.112 16.9707 90.2267 17.0562 90.3683 17.1294C90.5099 17.1978 90.6662 17.2612 90.8371 17.3198C91.0128 17.3735 91.1862 17.4297 91.3571 17.4883C91.6647 17.5957 91.943 17.7129 92.192 17.8398C92.4411 17.9668 92.6535 18.1157 92.8292 18.2866C93.0099 18.4575 93.1466 18.6577 93.2394 18.8872C93.3371 19.1167 93.3859 19.3901 93.3859 19.7075C93.3859 20.1519 93.2882 20.5327 93.0929 20.8501C92.9025 21.1626 92.6461 21.4189 92.3239 21.6191C92.0065 21.8145 91.6378 21.9561 91.2179 22.0439C90.8029 22.1367 90.3707 22.1831 89.9215 22.1831C89.0963 22.1831 88.3322 22.0562 87.629 21.8022ZM99.4399 21.9121C99.0981 22.0928 98.583 22.1831 97.8945 22.1831C96.2636 22.1831 95.4482 21.3359 95.4482 19.6416V16.2065H94.2324V14.5H95.4482V12.8813L97.7553 12.2222V14.5H99.4399V16.2065H97.7553V19.2388C97.7553 20.02 98.0654 20.4106 98.6855 20.4106C98.9296 20.4106 99.1811 20.3398 99.4399 20.1982V21.9121Z" fill="white"/>
<path d="M107 0H5C2.23858 0 0 2.23857 0 5V27.3951C0 30.1565 2.23858 32.3951 5 32.3951H107C109.761 32.3951 112 30.1565 112 27.3951V5C112 2.23858 109.761 0 107 0Z" fill="url(#paint0_linear)"/>
<defs>
<linearGradient id="paint0_linear" x1="0" y1="0" x2="0" y2="32.3951" gradientUnits="userSpaceOnUse">
<stop stop-color="#BBBBBB" stop-opacity="0.1"/>
<stop offset="1" stop-opacity="0.1"/>
</linearGradient>
</defs>
</svg>
