<svg width="103" height="32" viewBox="0 0 103 32" fill="none" xmlns="http://www.w3.org/2000/svg">
<path d="M98 0H31V32H98C100.761 32 103 29.7614 103 27V5C103 2.23858 100.761 0 98 0Z" fill="#0F1418"/>
<path d="M31 0H5C2.23858 0 0 2.23858 0 5V27C0 29.7614 2.23858 32 5 32H31V0Z" fill="#6441A5"/>
<path d="M22.5066 8.85016H20.6958V13.9923H22.5066V8.85016ZM17.5299 8.82812H15.7191V13.9727H17.5299V8.82812ZM9.83443 4L5.31006 8.28531V23.7147H10.7396V28L15.2644 23.7147H18.8855L27.031 16V4H9.83443ZM25.2207 15.1445L21.601 18.572H17.9804L14.8116 21.572V18.572H10.7396V5.71469H25.2207V15.1445Z" fill="white"/>
<path d="M51.9382 13.4233H48.9426V22H46.5695V13.4233H43.5886V11.4971H51.9382V13.4233ZM63.7564 14.5L61.5957 22H59.1641L58.0581 17.6055C57.9849 17.3125 57.9434 16.9927 57.9336 16.646H57.8897C57.8555 17.0269 57.8067 17.3369 57.7432 17.5762L56.5567 22H54.1543L52.0376 14.5H54.396L55.4287 19.3926C55.4776 19.6221 55.5142 19.9004 55.5386 20.2275H55.5825C55.607 19.8857 55.6509 19.5977 55.7144 19.3633L57.0034 14.5H59.208L60.3653 19.3926C60.3946 19.5146 60.4287 19.7979 60.4678 20.2422H60.5191C60.5435 19.959 60.5825 19.6758 60.6362 19.3926L61.6104 14.5H63.7564ZM66.2142 13.3135C65.8236 13.3135 65.5037 13.1987 65.2547 12.9692C65.0057 12.7349 64.8812 12.4492 64.8812 12.1123C64.8812 11.7656 65.0057 11.4824 65.2547 11.2627C65.5037 11.043 65.8236 10.9331 66.2142 10.9331C66.6097 10.9331 66.9295 11.043 67.1737 11.2627C67.4227 11.4824 67.5472 11.7656 67.5472 12.1123C67.5472 12.4639 67.4227 12.752 67.1737 12.9766C66.9295 13.2012 66.6097 13.3135 66.2142 13.3135ZM67.3568 22H65.0423V14.5H67.3568V22ZM74.0187 21.9121C73.6769 22.0928 73.1618 22.1831 72.4733 22.1831C70.8424 22.1831 70.027 21.3359 70.027 19.6416V16.2065H68.8112V14.5H70.027V12.8813L72.3341 12.2222V14.5H74.0187V16.2065H72.3341V19.2388C72.3341 20.02 72.6442 20.4106 73.2643 20.4106C73.5085 20.4106 73.7599 20.3398 74.0187 20.1982V21.9121ZM81.1347 21.729C80.6123 22.0317 79.8579 22.1831 78.8716 22.1831C77.7192 22.1831 76.7866 21.834 76.0737 21.1357C75.3608 20.4375 75.0044 19.5366 75.0044 18.4331C75.0044 17.1587 75.3852 16.1553 76.1469 15.4229C76.9136 14.6855 77.9365 14.3169 79.2158 14.3169C80.0996 14.3169 80.7392 14.4341 81.1347 14.6685V16.6313C80.6513 16.27 80.1118 16.0894 79.5161 16.0894C78.852 16.0894 78.3247 16.2847 77.9341 16.6753C77.5483 17.061 77.3554 17.5957 77.3554 18.2793C77.3554 18.9434 77.541 19.4658 77.9121 19.8467C78.2832 20.2227 78.7934 20.4106 79.4428 20.4106C80.019 20.4106 80.583 20.23 81.1347 19.8687V21.729ZM90.0379 22H87.7308V17.7373C87.7308 16.6387 87.3304 16.0894 86.5296 16.0894C86.1194 16.0894 85.7874 16.2432 85.5335 16.5508C85.2796 16.8584 85.1526 17.249 85.1526 17.7227V22H82.8382V10.8965H85.1526V15.6133H85.1819C85.7483 14.749 86.5174 14.3169 87.4891 14.3169C89.1883 14.3169 90.0379 15.3423 90.0379 17.3931V22Z" fill="white"/>
<path d="M98 0H5C2.23858 0 0 2.23858 0 5V27C0 29.7614 2.23858 32 5 32H98C100.761 32 103 29.7614 103 27V5C103 2.23858 100.761 0 98 0Z" fill="url(#paint0_linear)"/>
<defs>
<linearGradient id="paint0_linear" x1="0" y1="0" x2="0" y2="32" gradientUnits="userSpaceOnUse">
<stop stop-color="#BBBBBB" stop-opacity="0.1"/>
<stop offset="1" stop-opacity="0.1"/>
</linearGradient>
</defs>
</svg>
