<svg width="102" height="33" viewBox="0 0 102 33" fill="none" xmlns="http://www.w3.org/2000/svg">
<path d="M97 0H31V32.3951H97C99.7614 32.3951 102 30.1565 102 27.3951V5C102 2.23858 99.7614 0 97 0Z" fill="#0F1418"/>
<path d="M31 0H5C2.23858 0 0 2.23858 0 5V27C0 29.7614 2.23858 32 5 32H31V0Z" fill="#1AB7EA"/>
<path d="M27.9888 10.7935C27.8817 13.1292 26.2531 16.3274 23.0925 20.388C19.8301 24.6308 17.0712 26.7522 14.8105 26.7522C13.4123 26.7522 12.2284 25.4611 11.2588 22.879C9.37311 15.9577 8.56955 11.9024 7.01066 11.9024C6.82852 11.9024 6.20174 12.2828 5.12498 13.0328L4 11.5757C6.76423 9.14893 9.40525 6.44898 11.0606 6.29898C12.9302 6.11684 14.0766 7.39717 14.5105 10.1293C16.048 19.8523 16.7283 21.3201 19.5247 16.9166C20.5265 15.3309 21.0675 14.1256 21.1425 13.2953C21.3997 10.8364 19.2247 11.0025 17.7515 11.6346C18.9301 7.77217 21.1854 5.8972 24.5121 6.00434C26.9656 6.06863 28.1281 7.67038 27.9888 10.7935Z" fill="white"/>
<path d="M53.4398 11.4971L49.8216 22H47.141L43.5668 11.4971H46.1156L48.3055 18.8066C48.4227 19.2021 48.4935 19.5513 48.5179 19.854H48.5619C48.5961 19.5269 48.6717 19.168 48.7889 18.7773L50.9642 11.4971H53.4398ZM56.0881 13.3135C55.6974 13.3135 55.3776 13.1987 55.1286 12.9692C54.8796 12.7349 54.7551 12.4492 54.7551 12.1123C54.7551 11.7656 54.8796 11.4824 55.1286 11.2627C55.3776 11.043 55.6974 10.9331 56.0881 10.9331C56.4836 10.9331 56.8034 11.043 57.0475 11.2627C57.2966 11.4824 57.4211 11.7656 57.4211 12.1123C57.4211 12.4639 57.2966 12.752 57.0475 12.9766C56.8034 13.2012 56.4836 13.3135 56.0881 13.3135ZM57.2306 22H54.9162V14.5H57.2306V22ZM71.2681 22H68.9609V17.7227C68.9609 16.6338 68.5605 16.0894 67.7598 16.0894C67.3789 16.0894 67.0688 16.2529 66.8296 16.5801C66.5903 16.9072 66.4707 17.3149 66.4707 17.8032V22H64.1562V17.6787C64.1562 16.6191 63.7632 16.0894 62.9771 16.0894C62.5815 16.0894 62.2642 16.2456 62.0249 16.5581C61.7905 16.8706 61.6733 17.2954 61.6733 17.8325V22H59.3589V14.5H61.6733V15.6719H61.7026C61.9419 15.2715 62.2764 14.9468 62.7061 14.6978C63.1406 14.4438 63.6143 14.3169 64.127 14.3169C65.1865 14.3169 65.9116 14.7832 66.3022 15.7158C66.8735 14.7832 67.7134 14.3169 68.8218 14.3169C70.4526 14.3169 71.2681 15.3228 71.2681 17.3345V22ZM80.0174 18.9092H75.1248C75.2029 19.998 75.889 20.5425 77.1829 20.5425C78.0081 20.5425 78.7332 20.3472 79.3582 19.9565V21.6265C78.6649 21.9976 77.764 22.1831 76.6556 22.1831C75.4446 22.1831 74.5047 21.8486 73.8358 21.1797C73.1668 20.5059 72.8323 19.5684 72.8323 18.3672C72.8323 17.1221 73.1937 16.1357 73.9163 15.4082C74.639 14.6807 75.5277 14.3169 76.5823 14.3169C77.6761 14.3169 78.5208 14.6416 79.1165 15.291C79.7171 15.9404 80.0174 16.8218 80.0174 17.9351V18.9092ZM77.8714 17.4883C77.8714 16.4141 77.4368 15.877 76.5677 15.877C76.1966 15.877 75.8743 16.0308 75.6009 16.3384C75.3323 16.646 75.1688 17.0293 75.1102 17.4883H77.8714ZM85.1486 22.1831C83.8986 22.1831 82.9147 21.834 82.1969 21.1357C81.484 20.4326 81.1276 19.4805 81.1276 18.2793C81.1276 17.0391 81.4987 16.0698 82.2409 15.3716C82.983 14.6685 83.9865 14.3169 85.2511 14.3169C86.4962 14.3169 87.4728 14.6685 88.1808 15.3716C88.8888 16.0698 89.2428 16.9951 89.2428 18.1475C89.2428 19.3926 88.8766 20.3765 88.1442 21.0991C87.4166 21.8218 86.4181 22.1831 85.1486 22.1831ZM85.2072 16.0894C84.6603 16.0894 84.2355 16.2773 83.9328 16.6533C83.63 17.0293 83.4787 17.5615 83.4787 18.25C83.4787 19.6904 84.0597 20.4106 85.2218 20.4106C86.3302 20.4106 86.8844 19.6709 86.8844 18.1914C86.8844 16.79 86.3253 16.0894 85.2072 16.0894Z" fill="white"/>
<path d="M97 0H5C2.23858 0 0 2.23857 0 5V27.3951C0 30.1565 2.23858 32.3951 5 32.3951H97C99.7614 32.3951 102 30.1565 102 27.3951V5C102 2.23858 99.7614 0 97 0Z" fill="url(#paint0_linear)"/>
<defs>
<linearGradient id="paint0_linear" x1="0" y1="0" x2="0" y2="32.3951" gradientUnits="userSpaceOnUse">
<stop stop-color="#BBBBBB" stop-opacity="0.1"/>
<stop offset="1" stop-opacity="0.1"/>
</linearGradient>
</defs>
</svg>
