<svg width="118" height="32" viewBox="0 0 118 32" fill="none" xmlns="http://www.w3.org/2000/svg">
<path d="M113 0H31V32H113C115.761 32 118 29.7614 118 27V5C118 2.23858 115.761 0 113 0Z" fill="#0F1418"/>
<path d="M31 0H5C2.23858 0 0 2.23858 0 5V27C0 29.7614 2.23858 32 5 32H31V0Z" fill="#FF0000"/>
<path d="M27.4316 10.6404C27.1556 9.60106 26.3423 8.78253 25.3097 8.50476C23.4381 8 15.9331 8 15.9331 8C15.9331 8 8.42813 8 6.55646 8.50476C5.52388 8.78258 4.71063 9.60106 4.43461 10.6404C3.93311 12.5242 3.93311 16.4545 3.93311 16.4545C3.93311 16.4545 3.93311 20.3849 4.43461 22.2687C4.71063 23.308 5.52388 24.0924 6.55646 24.3702C8.42813 24.875 15.9331 24.875 15.9331 24.875C15.9331 24.875 23.4381 24.875 25.3097 24.3702C26.3423 24.0924 27.1556 23.308 27.4316 22.2687C27.9331 20.3849 27.9331 16.4545 27.9331 16.4545C27.9331 16.4545 27.9331 12.5242 27.4316 10.6404ZM13.4785 20.023V12.8861L19.7512 16.4546L13.4785 20.023Z" fill="white"/>
<path d="M52.6831 11.4971L49.2627 18.2646V22H46.897V18.3086L43.5645 11.4971H46.2671L47.959 15.4155C47.9883 15.4888 48.0689 15.7744 48.2007 16.2725H48.23C48.2935 15.9209 48.3692 15.645 48.4571 15.4448L50.1783 11.4971H52.6831ZM56.3202 22.1831C55.0702 22.1831 54.0863 21.834 53.3685 21.1357C52.6556 20.4326 52.2992 19.4805 52.2992 18.2793C52.2992 17.0391 52.6703 16.0698 53.4125 15.3716C54.1546 14.6685 55.1581 14.3169 56.4227 14.3169C57.6678 14.3169 58.6444 14.6685 59.3524 15.3716C60.0604 16.0698 60.4144 16.9951 60.4144 18.1475C60.4144 19.3926 60.0482 20.3765 59.3158 21.0991C58.5882 21.8218 57.5897 22.1831 56.3202 22.1831ZM56.3788 16.0894C55.8319 16.0894 55.4071 16.2773 55.1044 16.6533C54.8016 17.0293 54.6503 17.5615 54.6503 18.25C54.6503 19.6904 55.2313 20.4106 56.3934 20.4106C57.5018 20.4106 58.056 19.6709 58.056 18.1914C58.056 16.79 57.4969 16.0894 56.3788 16.0894ZM69.2223 22H66.9152V20.8574H66.8786C66.3073 21.7412 65.5431 22.1831 64.5861 22.1831C62.8478 22.1831 61.9787 21.1309 61.9787 19.0264V14.5H64.2858V18.8213C64.2858 19.8809 64.7057 20.4106 65.5456 20.4106C65.9606 20.4106 66.2927 20.2666 66.5417 19.9785C66.7907 19.6855 66.9152 19.29 66.9152 18.792V14.5H69.2223V22ZM79.2241 13.4233H76.2285V22H73.8555V13.4233H70.8745V11.4971H79.2241V13.4233ZM86.9407 22H84.6336V20.8574H84.597C84.0257 21.7412 83.2615 22.1831 82.3045 22.1831C80.5662 22.1831 79.6971 21.1309 79.6971 19.0264V14.5H82.0042V18.8213C82.0042 19.8809 82.4241 20.4106 83.264 20.4106C83.679 20.4106 84.0111 20.2666 84.2601 19.9785C84.5091 19.6855 84.6336 19.29 84.6336 18.792V14.5H86.9407V22ZM91.4201 21.1284H91.3908V22H89.0763V10.8965H91.3908V15.6279H91.4201C91.9913 14.7539 92.8043 14.3169 93.859 14.3169C94.8258 14.3169 95.5704 14.6489 96.0929 15.313C96.6154 15.9771 96.8766 16.8853 96.8766 18.0376C96.8766 19.2876 96.5714 20.291 95.9611 21.0479C95.3507 21.8047 94.5353 22.1831 93.5148 22.1831C92.5919 22.1831 91.8937 21.8315 91.4201 21.1284ZM91.3541 17.9644V18.7334C91.3541 19.2168 91.4933 19.6172 91.7716 19.9346C92.0499 20.252 92.4064 20.4106 92.841 20.4106C93.3683 20.4106 93.776 20.208 94.0641 19.8027C94.3571 19.3926 94.5036 18.814 94.5036 18.0669C94.5036 17.4468 94.3693 16.9634 94.1007 16.6167C93.8371 16.2651 93.4586 16.0894 92.9655 16.0894C92.5016 16.0894 92.1159 16.2627 91.8082 16.6094C91.5055 16.9561 91.3541 17.4077 91.3541 17.9644ZM105.296 18.9092H100.404C100.482 19.998 101.168 20.5425 102.462 20.5425C103.287 20.5425 104.012 20.3472 104.637 19.9565V21.6265C103.944 21.9976 103.043 22.1831 101.935 22.1831C100.724 22.1831 99.7837 21.8486 99.1147 21.1797C98.4458 20.5059 98.1113 19.5684 98.1113 18.3672C98.1113 17.1221 98.4726 16.1357 99.1953 15.4082C99.9179 14.6807 100.807 14.3169 101.861 14.3169C102.955 14.3169 103.8 14.6416 104.395 15.291C104.996 15.9404 105.296 16.8218 105.296 17.9351V18.9092ZM103.15 17.4883C103.15 16.4141 102.716 15.877 101.847 15.877C101.476 15.877 101.153 16.0308 100.88 16.3384C100.611 16.646 100.448 17.0293 100.389 17.4883H103.15Z" fill="white"/>
<path d="M113 0H5C2.23858 0 0 2.23858 0 5V27C0 29.7614 2.23858 32 5 32H113C115.761 32 118 29.7614 118 27V5C118 2.23858 115.761 0 113 0Z" fill="url(#paint0_linear)"/>
<defs>
<linearGradient id="paint0_linear" x1="0" y1="0" x2="0" y2="32" gradientUnits="userSpaceOnUse">
<stop stop-color="#BBBBBB" stop-opacity="0.1"/>
<stop offset="1" stop-opacity="0.1"/>
</linearGradient>
</defs>
</svg>
