<svg width="148" height="32" viewBox="0 0 148 32" fill="none" xmlns="http://www.w3.org/2000/svg">
<path d="M143 0H31V32H143C145.761 32 148 29.7614 148 27V5C148 2.23858 145.761 0 143 0Z" fill="#0F1418"/>
<path d="M31 0H5C2.23858 0 0 2.23858 0 5V27C0 29.7614 2.23858 32 5 32H31V0Z" fill="#69B8E0"/>
<g clip-path="url(#clip0)">
<path fill-rule="evenodd" clip-rule="evenodd" d="M15.9999 4C14.9317 6.6191 14.4068 8.14918 13.2174 10.6904C13.9466 11.4634 14.7192 12.5458 16.1728 13.5625C14.9192 13.4761 13.4209 12.5229 12.6243 11.8529C11.1021 15.0291 8.83947 19.3043 3.99994 28C7.80269 25.8046 10.7507 24.4505 13.498 23.9336C13.3804 23.4269 13.3177 22.8763 13.3222 22.3047L13.3251 22.1846C13.3855 19.7476 14.6535 17.8737 16.1552 18.001C17.6569 18.1282 18.8259 20.2076 18.7656 22.6445C18.7542 23.1036 18.7008 23.5446 18.6103 23.9541C21.3281 24.486 24.2482 25.8341 27.9999 28C27.2601 26.6378 26.5974 25.6581 25.9667 24.4886C24.9734 23.7187 24.1851 23.0262 21.8242 21.3848C23.2769 21.7622 24.1325 21.8895 24.9433 22.3763C18.5312 10.4382 18.1988 9.16004 15.9999 4Z" fill="white"/>
<path fill-rule="evenodd" clip-rule="evenodd" d="M22.7548 18.2648C17.553 11.2043 16.3472 5.51384 16.0418 4.15527C18.8166 10.5555 18.7977 10.634 22.7548 18.2648Z" fill="white" fill-opacity="0.16568"/>
<path fill-rule="evenodd" clip-rule="evenodd" d="M16.0468 4.11719C15.9155 4.44012 15.7699 4.7562 15.6484 5.05469C15.5118 5.39016 15.379 5.70164 15.25 6.01562C15.1209 6.32961 15.0018 6.65068 14.875 6.95312C14.7481 7.25558 14.6298 7.54288 14.5 7.84375C14.3702 8.14461 14.2395 8.44861 14.1015 8.75781C14.0735 8.82353 14.0364 8.87874 14.0078 8.94531C13.8952 9.19562 13.7777 9.45603 13.6562 9.71875C13.5136 10.038 13.3759 10.3272 13.2109 10.6797C13.9401 11.4527 14.7104 12.5458 16.164 13.5625C14.9105 13.4761 13.4216 12.5215 12.625 11.8516C12.4308 12.2455 12.2389 12.6751 12.0156 13.1172C11.881 13.3836 11.717 13.6741 11.5703 13.9609C11.4747 14.1503 11.4139 14.3012 11.3125 14.5C11.3073 14.51 11.2942 14.5135 11.289 14.5234C11.1601 14.7735 10.749 15.5504 10.3281 16.3516C10.0124 16.954 9.71509 17.5319 9.3437 18.2266C12.3829 16.5121 15.6718 14.0618 21.625 16.1875C21.326 15.6212 21.0628 15.0931 20.8046 14.5937C20.5465 14.0944 20.3008 13.6297 20.0781 13.1875C19.8554 12.7453 19.6379 12.3167 19.4453 11.9219C19.2527 11.527 19.0741 11.1543 18.9062 10.7969C18.7383 10.4394 18.586 10.1189 18.4375 9.78906C18.2889 9.4592 18.1502 9.14026 18.0156 8.82812C17.8809 8.51597 17.7667 8.19489 17.6406 7.89062C17.5695 7.71906 17.4994 7.54652 17.4296 7.375C17.3779 7.25369 17.3174 7.09867 17.2656 6.97656C16.892 6.09568 16.5063 5.1972 16.0468 4.11719Z" fill="url(#paint0_linear)"/>
</g>
<path d="M61.2388 22H58.6607L57.9136 19.6636H54.1783L53.4385 22H50.8751L54.6983 11.4971H57.5035L61.2388 22ZM57.3716 17.8472L56.2437 14.3169C56.1607 14.0532 56.1021 13.7383 56.0679 13.3721H56.0093C55.9849 13.6797 55.9239 13.9849 55.8262 14.2876L54.6837 17.8472H57.3716ZM67.6591 16.5874C67.3807 16.436 67.056 16.3604 66.6849 16.3604C66.182 16.3604 65.7889 16.5459 65.5057 16.917C65.2225 17.2832 65.0809 17.7837 65.0809 18.4185V22H62.7665V14.5H65.0809V15.8916H65.1102C65.4764 14.876 66.1356 14.3682 67.0878 14.3682C67.3319 14.3682 67.5223 14.3975 67.6591 14.4561V16.5874ZM74.548 21.729C74.0256 22.0317 73.2712 22.1831 72.2849 22.1831C71.1325 22.1831 70.1999 21.834 69.487 21.1357C68.7741 20.4375 68.4177 19.5366 68.4177 18.4331C68.4177 17.1587 68.7985 16.1553 69.5603 15.4229C70.3269 14.6855 71.3498 14.3169 72.6291 14.3169C73.5129 14.3169 74.1525 14.4341 74.548 14.6685V16.6313C74.0646 16.27 73.5251 16.0894 72.9294 16.0894C72.2653 16.0894 71.738 16.2847 71.3474 16.6753C70.9616 17.061 70.7687 17.5957 70.7687 18.2793C70.7687 18.9434 70.9543 19.4658 71.3254 19.8467C71.6965 20.2227 72.2067 20.4106 72.8562 20.4106C73.4323 20.4106 73.9963 20.23 74.548 19.8687V21.729ZM83.4512 22H81.1441V17.7373C81.1441 16.6387 80.7437 16.0894 79.9429 16.0894C79.5327 16.0894 79.2007 16.2432 78.9468 16.5508C78.6929 16.8584 78.5659 17.249 78.5659 17.7227V22H76.2515V10.8965H78.5659V15.6133H78.5952C79.1616 14.749 79.9307 14.3169 80.9024 14.3169C82.6016 14.3169 83.4512 15.3423 83.4512 17.3931V22ZM96.5407 22H90.2858V11.4971H92.6515V20.0811H96.5407V22ZM99.3501 13.3135C98.9595 13.3135 98.6396 13.1987 98.3906 12.9692C98.1416 12.7349 98.0171 12.4492 98.0171 12.1123C98.0171 11.7656 98.1416 11.4824 98.3906 11.2627C98.6396 11.043 98.9595 10.9331 99.3501 10.9331C99.7456 10.9331 100.065 11.043 100.31 11.2627C100.559 11.4824 100.683 11.7656 100.683 12.1123C100.683 12.4639 100.559 12.752 100.31 12.9766C100.065 13.2012 99.7456 13.3135 99.3501 13.3135ZM100.493 22H98.1782V14.5H100.493V22ZM109.865 22H107.557V17.8325C107.557 16.6704 107.142 16.0894 106.312 16.0894C105.912 16.0894 105.582 16.2432 105.324 16.5508C105.065 16.8584 104.935 17.249 104.935 17.7227V22H102.621V14.5H104.935V15.6865H104.965C105.516 14.7734 106.32 14.3169 107.374 14.3169C109.034 14.3169 109.865 15.3472 109.865 17.4077V22ZM119.009 22H116.702V20.8574H116.666C116.094 21.7412 115.33 22.1831 114.373 22.1831C112.635 22.1831 111.766 21.1309 111.766 19.0264V14.5H114.073V18.8213C114.073 19.8809 114.493 20.4106 115.333 20.4106C115.748 20.4106 116.08 20.2666 116.329 19.9785C116.578 19.6855 116.702 19.29 116.702 18.792V14.5H119.009V22ZM128.389 14.5L125.913 18.1328L128.374 22H125.708L124.624 19.9785C124.536 19.8174 124.431 19.5903 124.309 19.2974H124.28C124.206 19.5024 124.106 19.7222 123.979 19.9565L122.888 22H120.229L122.764 18.2646L120.383 14.5H123.064L124.133 16.6021C124.275 16.8804 124.375 17.1147 124.434 17.3052H124.463C124.541 17.0757 124.646 16.8364 124.778 16.5874L125.869 14.5H128.389Z" fill="white"/>
<path d="M143 0H5C2.23858 0 0 2.23858 0 5V27C0 29.7614 2.23858 32 5 32H143C145.761 32 148 29.7614 148 27V5C148 2.23858 145.761 0 143 0Z" fill="url(#paint1_linear)"/>
<defs>
<linearGradient id="paint0_linear" x1="16.055" y1="6.84312" x2="12.7935" y2="16.7227" gradientUnits="userSpaceOnUse">
<stop stop-color="white" stop-opacity="0"/>
<stop offset="1" stop-color="white" stop-opacity="0.27451"/>
</linearGradient>
<linearGradient id="paint1_linear" x1="0" y1="0" x2="0" y2="32" gradientUnits="userSpaceOnUse">
<stop stop-color="#BBBBBB" stop-opacity="0.1"/>
<stop offset="1" stop-opacity="0.1"/>
</linearGradient>
<clipPath id="clip0">
<rect width="24" height="24" fill="white" transform="translate(4 4)"/>
</clipPath>
</defs>
</svg>
