<svg width="107" height="32" viewBox="0 0 107 32" fill="none" xmlns="http://www.w3.org/2000/svg">
<path d="M102 0H31V32H102C104.761 32 107 29.7614 107 27V5C107 2.23858 104.761 0 102 0Z" fill="#0F1418"/>
<path d="M31 0H5C2.23858 0 0 2.23858 0 5V27C0 29.7614 2.23858 32 5 32H31V0Z" fill="#11999D"/>
<path d="M9.06651 11.0366C5.76502 10.7702 2.99088 14.7229 4.35583 17.7884C5.67389 21.109 10.6415 22.014 13.009 19.3509C15.297 17.0804 16.1809 13.5973 18.9658 11.8013C21.8147 9.8329 26.4052 11.6914 26.9449 15.1932C27.4874 18.5465 23.9214 21.8128 20.6842 20.8188C18.298 20.2725 16.5809 18.2105 15.604 16.0431C14.4051 13.9688 12.8378 11.7586 10.3928 11.1753C9.95837 11.0756 9.51175 11.0361 9.06651 11.0366Z" stroke="white" stroke-width="1.5"/>
<path d="M21.45 13.5V18.5M19 16H24H19Z" stroke="white" stroke-width="1.2"/>
<path d="M7 16L12 16" stroke="white" stroke-width="1.2"/>
<path d="M50.2227 22H47.6446L46.8975 19.6636H43.1621L42.4224 22H39.8589L43.6822 11.4971H46.4873L50.2227 22ZM46.3555 17.8472L45.2276 14.3169C45.1446 14.0532 45.086 13.7383 45.0518 13.3721H44.9932C44.9688 13.6797 44.9078 13.9849 44.8101 14.2876L43.6675 17.8472H46.3555ZM56.3793 16.5874C56.1009 16.436 55.7762 16.3604 55.4051 16.3604C54.9022 16.3604 54.5091 16.5459 54.2259 16.917C53.9427 17.2832 53.8011 17.7837 53.8011 18.4185V22H51.4867V14.5H53.8011V15.8916H53.8304C54.1966 14.876 54.8558 14.3682 55.808 14.3682C56.0521 14.3682 56.2425 14.3975 56.3793 14.4561V16.5874ZM64.9235 22H62.6091V20.9673H62.5798C62.0524 21.7778 61.2785 22.1831 60.258 22.1831C59.3205 22.1831 58.5661 21.8535 57.9948 21.1943C57.4235 20.5303 57.1379 19.605 57.1379 18.4185C57.1379 17.1782 57.4528 16.1846 58.0827 15.4375C58.7126 14.6904 59.5378 14.3169 60.5583 14.3169C61.5251 14.3169 62.1989 14.6636 62.5798 15.3569H62.6091V10.8965H64.9235V22ZM62.653 18.3525V17.7886C62.653 17.3003 62.5114 16.895 62.2282 16.5728C61.945 16.2505 61.5763 16.0894 61.1222 16.0894C60.6096 16.0894 60.2092 16.292 59.9211 16.6973C59.633 17.0977 59.4889 17.6494 59.4889 18.3525C59.4889 19.0117 59.6281 19.5195 59.9064 19.876C60.1847 20.2324 60.5705 20.4106 61.0637 20.4106C61.5324 20.4106 61.9133 20.2227 62.2062 19.8467C62.5041 19.4707 62.653 18.9727 62.653 18.3525ZM74.1782 22H71.8711V20.8574H71.8345C71.2632 21.7412 70.499 22.1831 69.542 22.1831C67.8037 22.1831 66.9346 21.1309 66.9346 19.0264V14.5H69.2417V18.8213C69.2417 19.8809 69.6616 20.4106 70.5015 20.4106C70.9165 20.4106 71.2485 20.2666 71.4976 19.9785C71.7466 19.6855 71.8711 19.29 71.8711 18.792V14.5H74.1782V22ZM77.4857 13.3135C77.095 13.3135 76.7752 13.1987 76.5262 12.9692C76.2772 12.7349 76.1527 12.4492 76.1527 12.1123C76.1527 11.7656 76.2772 11.4824 76.5262 11.2627C76.7752 11.043 77.095 10.9331 77.4857 10.9331C77.8812 10.9331 78.201 11.043 78.4451 11.2627C78.6942 11.4824 78.8187 11.7656 78.8187 12.1123C78.8187 12.4639 78.6942 12.752 78.4451 12.9766C78.201 13.2012 77.8812 13.3135 77.4857 13.3135ZM78.6282 22H76.3138V14.5H78.6282V22ZM88.0001 22H85.693V17.8325C85.693 16.6704 85.278 16.0894 84.4479 16.0894C84.0475 16.0894 83.7179 16.2432 83.4591 16.5508C83.2003 16.8584 83.0709 17.249 83.0709 17.7227V22H80.7565V14.5H83.0709V15.6865H83.1002C83.652 14.7734 84.4552 14.3169 85.5099 14.3169C87.1701 14.3169 88.0001 15.3472 88.0001 17.4077V22ZM93.5927 22.1831C92.3427 22.1831 91.3588 21.834 90.6411 21.1357C89.9282 20.4326 89.5717 19.4805 89.5717 18.2793C89.5717 17.0391 89.9428 16.0698 90.685 15.3716C91.4272 14.6685 92.4306 14.3169 93.6953 14.3169C94.9404 14.3169 95.917 14.6685 96.625 15.3716C97.333 16.0698 97.687 16.9951 97.687 18.1475C97.687 19.3926 97.3208 20.3765 96.5883 21.0991C95.8608 21.8218 94.8623 22.1831 93.5927 22.1831ZM93.6513 16.0894C93.1045 16.0894 92.6796 16.2773 92.3769 16.6533C92.0742 17.0293 91.9228 17.5615 91.9228 18.25C91.9228 19.6904 92.5039 20.4106 93.666 20.4106C94.7744 20.4106 95.3286 19.6709 95.3286 18.1914C95.3286 16.79 94.7695 16.0894 93.6513 16.0894Z" fill="white"/>
<path d="M102 0H5C2.23858 0 0 2.23858 0 5V27C0 29.7614 2.23858 32 5 32H102C104.761 32 107 29.7614 107 27V5C107 2.23858 104.761 0 102 0Z" fill="url(#paint0_linear)"/>
<defs>
<linearGradient id="paint0_linear" x1="0" y1="0" x2="0" y2="32" gradientUnits="userSpaceOnUse">
<stop stop-color="#BBBBBB" stop-opacity="0.1"/>
<stop offset="1" stop-opacity="0.1"/>
</linearGradient>
</defs>
</svg>
