<svg width="93" height="32" viewBox="0 0 93 32" fill="none" xmlns="http://www.w3.org/2000/svg">
<path d="M88 0H31V32H88C90.7614 32 93 29.7614 93 27V5C93 2.23858 90.7614 0 88 0Z" fill="#0F1418"/>
<path d="M31 0H5C2.23858 0 0 2.23858 0 5V27C0 29.7614 2.23858 32 5 32H31V0Z" fill="#15495D"/>
<path d="M19.8464 19.1149C19.5746 18.9676 19.2702 18.891 18.9611 18.8923C18.2807 18.8923 17.8087 19.3656 17.8087 20.0046C17.8087 20.6243 18.2604 21.1179 18.9611 21.1179C19.2699 21.1186 19.5742 21.0426 19.8464 20.8966V22.0159C19.5355 22.1111 19.2125 22.161 18.8874 22.164C17.7037 22.164 16.6648 21.348 16.6648 20.004C16.6648 18.7591 17.6048 17.8457 18.8874 17.8457C19.2128 17.8466 19.5362 17.8971 19.8464 17.9954V19.1149ZM8.86225 19.1149C8.59112 18.9673 8.287 18.8907 7.97827 18.8923C7.29662 18.8923 6.82496 19.3656 6.82496 20.0046C6.82496 20.6243 7.27698 21.1179 7.97827 21.1179C8.28676 21.1189 8.59062 21.0428 8.86225 20.8966V22.0159C8.55111 22.1115 8.22773 22.1614 7.90225 22.164C6.71962 22.164 5.68198 21.348 5.68198 20.004C5.68198 18.7591 6.62199 17.8457 7.90259 17.8457C8.22825 17.8463 8.55188 17.8968 8.86225 17.9954V19.1149ZM23.1567 18.908C23.0127 18.9066 22.8699 18.9341 22.7367 18.9888C22.6035 19.0436 22.4826 19.1244 22.3812 19.2267C22.2797 19.3289 22.1998 19.4504 22.1462 19.584C22.0925 19.7177 22.0661 19.8607 22.0687 20.0047C22.066 20.1487 22.0923 20.2918 22.1459 20.4256C22.1995 20.5593 22.2794 20.681 22.3808 20.7833C22.4823 20.8856 22.6032 20.9666 22.7364 21.0214C22.8697 21.0761 23.0126 21.1037 23.1567 21.1023C23.3008 21.1036 23.4437 21.0761 23.5769 21.0213C23.7102 20.9665 23.8311 20.8855 23.9326 20.7832C24.0341 20.6809 24.114 20.5593 24.1677 20.4256C24.2215 20.2919 24.2478 20.1488 24.2453 20.0047C24.2477 19.8607 24.2212 19.7176 24.1675 19.584C24.1137 19.4504 24.0337 19.3289 23.9323 19.2267C23.8308 19.1245 23.7099 19.0437 23.5767 18.9889C23.4435 18.9342 23.3007 18.9066 23.1567 18.908ZM25.3603 20.0047C25.3603 21.1976 24.4393 22.1643 23.157 22.1643C21.8747 22.1643 20.9544 21.1976 20.9544 20.0043C20.9544 18.8136 21.8743 17.846 23.1567 17.846C24.439 17.846 25.3603 18.8135 25.3603 20.0046V20.0047ZM15.3518 18.8679C15.3362 18.863 14.8932 18.7406 14.5292 18.7406C14.1075 18.7406 13.8782 18.8819 13.8782 19.0823C13.8782 19.3363 14.1875 19.4249 14.3605 19.4796L14.6508 19.572C15.3342 19.7892 15.6451 20.2569 15.6451 20.7649C15.6451 21.8126 14.7238 22.1646 13.9185 22.1646C13.5373 22.1609 13.1572 22.1228 12.7829 22.0506V21.0908C12.8755 21.1142 13.3169 21.2462 13.7765 21.2462C14.3002 21.2462 14.5409 21.0929 14.5409 20.8569C14.5409 20.6455 14.3325 20.5235 14.0715 20.4415C14.0082 20.4202 13.9122 20.3902 13.8469 20.3689C13.2609 20.1835 12.7722 19.8388 12.7722 19.1489C12.7722 18.3689 13.3562 17.8452 14.3262 17.8452C14.672 17.8499 15.0162 17.8944 15.3518 17.9779V18.8678V18.8679Z" fill="white"/>
<path d="M11.3611 22.0904H10.3088V17.9199H11.3611V22.0904Z" fill="white"/>
<path d="M4.56595 13.4384C4.56554 13.3001 4.51032 13.1677 4.4124 13.0702C4.31448 12.9726 4.18186 12.9179 4.04365 12.918C3.90544 12.9179 3.77282 12.9725 3.67484 13.07C3.57687 13.1675 3.52154 13.2998 3.521 13.438V14.533C3.52443 14.6693 3.58099 14.7989 3.67861 14.894C3.77622 14.9892 3.90717 15.0424 4.0435 15.0424C4.17983 15.0424 4.31077 14.9892 4.40838 14.894C4.506 14.7989 4.56256 14.6693 4.566 14.533L4.56595 13.4384ZM7.43558 12.0019C7.43558 11.9333 7.42207 11.8653 7.39581 11.802C7.36955 11.7386 7.33106 11.681 7.28254 11.6325C7.23402 11.584 7.17642 11.5455 7.11303 11.5192C7.04964 11.493 6.9817 11.4795 6.91308 11.4795C6.84447 11.4795 6.77652 11.493 6.71313 11.5192C6.64974 11.5455 6.59214 11.584 6.54362 11.6325C6.4951 11.681 6.45661 11.7386 6.43036 11.802C6.4041 11.8653 6.39058 11.9333 6.39058 12.0019V14.5332C6.39058 14.6718 6.44563 14.8047 6.54362 14.9027C6.64161 15.0007 6.77451 15.0557 6.91308 15.0557C7.05166 15.0557 7.18456 15.0007 7.28254 14.9027C7.38053 14.8047 7.43558 14.6718 7.43558 14.5332V12.0016V12.0019ZM10.3056 10.0359C10.3052 9.89769 10.2499 9.76524 10.152 9.66763C10.0541 9.57003 9.92147 9.51524 9.78321 9.51528C9.6449 9.51518 9.5122 9.56993 9.41422 9.66754C9.31624 9.76515 9.26098 9.89764 9.26056 10.0359V15.5736C9.26402 15.7099 9.32059 15.8394 9.4182 15.9345C9.51581 16.0297 9.64674 16.0829 9.78306 16.0829C9.91938 16.0829 10.0503 16.0297 10.1479 15.9345C10.2455 15.8394 10.3021 15.7099 10.3056 15.5736V10.0359ZM13.1752 12.0019C13.1753 11.9333 13.1618 11.8653 13.1356 11.8019C13.1094 11.7385 13.0709 11.6808 13.0224 11.6322C12.9739 11.5837 12.9163 11.5452 12.8529 11.5189C12.7895 11.4926 12.7215 11.479 12.6529 11.479C12.5843 11.479 12.5163 11.4925 12.4529 11.5188C12.3896 11.545 12.332 11.5835 12.2834 11.632C12.2349 11.6805 12.1964 11.7381 12.1702 11.8015C12.1439 11.8649 12.1304 11.9328 12.1304 12.0015V14.5328C12.1304 14.6713 12.1854 14.8043 12.2834 14.9022C12.3814 15.0002 12.5143 15.0553 12.6529 15.0553C12.7915 15.0553 12.9244 15.0002 13.0224 14.9022C13.1203 14.8043 13.1754 14.6713 13.1754 14.5328V12.0012L13.1752 12.0019ZM16.0418 13.4384C16.0419 13.3005 15.9872 13.1683 15.8899 13.0707C15.7925 12.9731 15.6603 12.9182 15.5225 12.918C15.3843 12.9179 15.2518 12.9726 15.1539 13.0701C15.056 13.1675 15.0007 13.2999 15.0002 13.438V14.533C15.0002 14.6711 15.055 14.8036 15.1527 14.9013C15.2504 14.999 15.3829 15.0538 15.521 15.0538C15.6591 15.0538 15.7916 14.999 15.8893 14.9013C15.9869 14.8036 16.0418 14.6711 16.0418 14.533V13.4384ZM18.9128 12.0019C18.9093 11.8661 18.853 11.7369 18.7557 11.6421C18.6584 11.5472 18.5279 11.4941 18.392 11.4941C18.2561 11.4941 18.1256 11.5472 18.0283 11.6421C17.931 11.7369 17.8746 11.8661 17.8711 12.0019V14.5332C17.8712 14.6713 17.926 14.8038 18.0237 14.9015C18.1214 14.9991 18.2538 15.054 18.392 15.054C18.4604 15.054 18.5281 15.0406 18.5913 15.0144C18.6545 14.9882 18.7119 14.9499 18.7602 14.9015C18.8086 14.8531 18.847 14.7957 18.8731 14.7325C18.8993 14.6693 18.9128 14.6016 18.9128 14.5332V12.0016V12.0019ZM21.7844 10.0359C21.7844 9.89782 21.7295 9.76536 21.6318 9.66768C21.5342 9.57001 21.4017 9.51514 21.2636 9.51514C21.1254 9.51514 20.993 9.57001 20.8953 9.66768C20.7976 9.76536 20.7428 9.89782 20.7428 10.0359V15.5736C20.7386 15.6676 20.76 15.7609 20.8047 15.8437C20.8493 15.9265 20.9155 15.9957 20.9963 16.0439C21.0771 16.0922 21.1695 16.1177 21.2635 16.1177C21.3576 16.1177 21.45 16.0922 21.5308 16.0439C21.6116 15.9957 21.6778 15.9266 21.7224 15.8437C21.7671 15.7609 21.7885 15.6676 21.7844 15.5736V10.0359ZM24.6554 12.0019C24.6552 11.933 24.6414 11.8648 24.6148 11.8012C24.5881 11.7376 24.5492 11.68 24.5002 11.6315C24.4512 11.583 24.3931 11.5448 24.3292 11.5189C24.2653 11.493 24.1969 11.48 24.128 11.4806C23.9899 11.4807 23.8575 11.5356 23.7598 11.6333C23.6622 11.731 23.6073 11.8635 23.6073 12.0016V14.5332C23.6072 14.6017 23.6206 14.6695 23.6467 14.7328C23.6728 14.7961 23.7112 14.8536 23.7595 14.9021C23.8079 14.9505 23.8653 14.989 23.9285 15.0153C23.9918 15.0415 24.0596 15.0551 24.128 15.0551C24.197 15.0558 24.2654 15.0428 24.3294 15.0169C24.3933 14.991 24.4515 14.9526 24.5005 14.9041C24.5495 14.8556 24.5884 14.7978 24.615 14.7342C24.6416 14.6705 24.6553 14.6022 24.6554 14.5332V12.0016V12.0019ZM27.521 13.4384C27.521 13.3001 27.4661 13.1675 27.3683 13.0697C27.2705 12.9719 27.1379 12.917 26.9997 12.917C26.8614 12.917 26.7288 12.9719 26.6311 13.0697C26.5333 13.1675 26.4784 13.3001 26.4784 13.4384V14.5331C26.4783 14.6016 26.4917 14.6695 26.5179 14.7328C26.544 14.7962 26.5824 14.8537 26.6308 14.9022C26.6792 14.9507 26.7367 14.9892 26.8 15.0155C26.8633 15.0418 26.9312 15.0553 26.9997 15.0554C27.0682 15.0553 27.136 15.0417 27.1993 15.0154C27.2625 14.9891 27.32 14.9506 27.3684 14.9021C27.4167 14.8536 27.4551 14.7961 27.4812 14.7328C27.5074 14.6694 27.5207 14.6016 27.5207 14.5331V13.4384L27.521 13.4384Z" fill="white"/>
<path d="M52.0672 21.6265C51.3006 21.9976 50.2997 22.1831 49.0643 22.1831C47.453 22.1831 46.1859 21.7095 45.263 20.7622C44.3402 19.8149 43.8788 18.5527 43.8788 16.9756C43.8788 15.2959 44.3963 13.9336 45.4315 12.8887C46.4715 11.8438 47.8192 11.3213 49.4745 11.3213C50.4999 11.3213 51.3641 11.4507 52.0672 11.7095V13.9873C51.3641 13.5674 50.5633 13.3574 49.6649 13.3574C48.6786 13.3574 47.8827 13.6675 47.2772 14.2876C46.6717 14.9077 46.369 15.7476 46.369 16.8071C46.369 17.8228 46.6546 18.6333 47.2259 19.2388C47.7972 19.8394 48.5663 20.1396 49.5331 20.1396C50.4559 20.1396 51.3006 19.915 52.0672 19.4658V21.6265ZM55.2868 13.3135C54.8962 13.3135 54.5763 13.1987 54.3273 12.9692C54.0783 12.7349 53.9538 12.4492 53.9538 12.1123C53.9538 11.7656 54.0783 11.4824 54.3273 11.2627C54.5763 11.043 54.8962 10.9331 55.2868 10.9331C55.6823 10.9331 56.0021 11.043 56.2463 11.2627C56.4953 11.4824 56.6198 11.7656 56.6198 12.1123C56.6198 12.4639 56.4953 12.752 56.2463 12.9766C56.0021 13.2012 55.6823 13.3135 55.2868 13.3135ZM56.4294 22H54.1149V14.5H56.4294V22ZM58.0669 21.8022V19.9272C58.4478 20.1567 58.8262 20.3276 59.2021 20.4399C59.583 20.5522 59.9419 20.6084 60.2788 20.6084C60.689 20.6084 61.0112 20.5522 61.2456 20.4399C61.4849 20.3276 61.6045 20.1567 61.6045 19.9272C61.6045 19.7808 61.5508 19.6587 61.4434 19.561C61.3359 19.4634 61.1968 19.3779 61.0259 19.3047C60.8599 19.2314 60.6768 19.1655 60.4766 19.1069C60.2764 19.0483 60.0835 18.9824 59.8979 18.9092C59.6001 18.7969 59.3364 18.6772 59.1069 18.5503C58.8823 18.4185 58.6919 18.2671 58.5356 18.0962C58.3843 17.9253 58.2671 17.7275 58.1841 17.5029C58.106 17.2783 58.0669 17.0122 58.0669 16.7046C58.0669 16.2847 58.1572 15.9233 58.3379 15.6206C58.5234 15.3179 58.7676 15.0713 59.0703 14.8809C59.3779 14.6855 59.7271 14.5439 60.1177 14.4561C60.5132 14.3633 60.9233 14.3169 61.3481 14.3169C61.6802 14.3169 62.0171 14.3438 62.3589 14.3975C62.7007 14.4463 63.0376 14.5195 63.3696 14.6172V16.4043C63.0767 16.2334 62.7617 16.1064 62.4248 16.0234C62.0928 15.9355 61.7656 15.8916 61.4434 15.8916C61.292 15.8916 61.1479 15.9062 61.0112 15.9355C60.8794 15.96 60.7622 15.999 60.6597 16.0527C60.5571 16.1016 60.4766 16.1675 60.418 16.2505C60.3594 16.3286 60.3301 16.4189 60.3301 16.5215C60.3301 16.6582 60.374 16.7754 60.4619 16.873C60.5498 16.9707 60.6646 17.0562 60.8062 17.1294C60.9478 17.1978 61.104 17.2612 61.2749 17.3198C61.4507 17.3735 61.624 17.4297 61.7949 17.4883C62.1025 17.5957 62.3809 17.7129 62.6299 17.8398C62.8789 17.9668 63.0913 18.1157 63.2671 18.2866C63.4478 18.4575 63.5845 18.6577 63.6772 18.8872C63.7749 19.1167 63.8237 19.3901 63.8237 19.7075C63.8237 20.1519 63.7261 20.5327 63.5308 20.8501C63.3403 21.1626 63.084 21.4189 62.7617 21.6191C62.4443 21.8145 62.0757 21.9561 61.6558 22.0439C61.2407 22.1367 60.8086 22.1831 60.3594 22.1831C59.5342 22.1831 58.77 22.0562 58.0669 21.8022ZM71.0277 21.729C70.5052 22.0317 69.7508 22.1831 68.7645 22.1831C67.6121 22.1831 66.6795 21.834 65.9666 21.1357C65.2537 20.4375 64.8973 19.5366 64.8973 18.4331C64.8973 17.1587 65.2781 16.1553 66.0399 15.4229C66.8065 14.6855 67.8294 14.3169 69.1087 14.3169C69.9925 14.3169 70.6321 14.4341 71.0277 14.6685V16.6313C70.5443 16.27 70.0047 16.0894 69.409 16.0894C68.7449 16.0894 68.2176 16.2847 67.827 16.6753C67.4412 17.061 67.2484 17.5957 67.2484 18.2793C67.2484 18.9434 67.4339 19.4658 67.805 19.8467C68.1761 20.2227 68.6863 20.4106 69.3358 20.4106C69.9119 20.4106 70.4759 20.23 71.0277 19.8687V21.729ZM76.3053 22.1831C75.0553 22.1831 74.0714 21.834 73.3537 21.1357C72.6408 20.4326 72.2843 19.4805 72.2843 18.2793C72.2843 17.0391 72.6554 16.0698 73.3976 15.3716C74.1398 14.6685 75.1432 14.3169 76.4079 14.3169C77.653 14.3169 78.6295 14.6685 79.3375 15.3716C80.0455 16.0698 80.3996 16.9951 80.3996 18.1475C80.3996 19.3926 80.0333 20.3765 79.3009 21.0991C78.5734 21.8218 77.5748 22.1831 76.3053 22.1831ZM76.3639 16.0894C75.817 16.0894 75.3922 16.2773 75.0895 16.6533C74.7868 17.0293 74.6354 17.5615 74.6354 18.25C74.6354 19.6904 75.2164 20.4106 76.3786 20.4106C77.487 20.4106 78.0412 19.6709 78.0412 18.1914C78.0412 16.79 77.4821 16.0894 76.3639 16.0894Z" fill="white"/>
<path d="M88 0H5C2.23858 0 0 2.23858 0 5V27C0 29.7614 2.23858 32 5 32H88C90.7614 32 93 29.7614 93 27V5C93 2.23858 90.7614 0 88 0Z" fill="url(#paint0_linear)"/>
<defs>
<linearGradient id="paint0_linear" x1="0" y1="0" x2="0" y2="32" gradientUnits="userSpaceOnUse">
<stop stop-color="#BBBBBB" stop-opacity="0.1"/>
<stop offset="1" stop-opacity="0.1"/>
</linearGradient>
</defs>
</svg>
