<svg width="124" height="32" viewBox="0 0 124 32" fill="none" xmlns="http://www.w3.org/2000/svg">
<path d="M119 0H31V32H119C121.761 32 124 29.7614 124 27V5C124 2.23858 121.761 0 119 0Z" fill="#0F1418"/>
<path d="M31 0H5C2.23858 0 0 2.23858 0 5V27C0 29.7614 2.23858 32 5 32H31V0Z" fill="#F9C322"/>
<g clip-path="url(#clip0)">
<path d="M15.4033 27.9918C12.2944 27.8059 9.53438 26.5544 7.40164 24.3637C5.55077 22.4625 4.43345 20.1607 4.08012 17.5211C3.97329 16.7231 3.97329 15.2646 4.08012 14.4666C4.43345 11.827 5.55077 9.52523 7.40164 7.62404C9.30499 5.66893 11.7402 4.44855 14.472 4.08078C15.2721 3.97307 16.7285 3.97307 17.5285 4.08078C21.0634 4.55666 24.1512 6.50358 26.0898 9.47884C27.0619 10.9708 27.6774 12.6479 27.9202 14.4666C28.016 15.1843 28.0278 16.6638 27.9432 17.3541C27.4996 20.973 25.5709 24.0748 22.5194 26.0767C21.0951 27.0112 19.2833 27.6782 17.5763 27.8966C16.9918 27.9714 15.8776 28.0202 15.4033 27.9918V27.9918ZM18.3403 26.3034C18.9071 26.1772 19.5969 25.9542 20.1553 25.7166C20.6083 25.5239 21.6071 24.9918 21.8201 24.8297L21.9326 24.744L21.8138 24.4617C21.7484 24.3064 21.6065 23.9841 21.4984 23.7454C21.2741 23.25 21.1905 22.8849 21.2343 22.5924C21.251 22.4808 21.272 22.3895 21.281 22.3895C21.29 22.3895 21.3741 22.4416 21.4678 22.5052C22.0409 22.8938 23.2131 22.7363 24.0609 22.1568C24.643 21.7589 25.313 20.9547 25.6956 20.1947C26.0289 19.5327 26.3659 18.3093 26.511 17.2348C26.5927 16.6297 26.5801 15.2583 26.4866 14.5858C26.1642 12.2676 25.1347 10.1871 23.4985 8.54712C21.7846 6.82929 19.7303 5.82542 17.242 5.48983C17.0187 5.45971 16.4599 5.43508 16.0003 5.43508C15.5406 5.43508 14.9818 5.45971 14.7585 5.48983C12.417 5.80563 10.3743 6.75817 8.76468 8.28486C8.39957 8.63116 8.41143 8.63374 8.90796 8.31603C11.1748 6.86554 13.2656 6.18939 14.9833 6.35127C16.3751 6.48244 17.4697 7.09303 18.3653 8.23788C18.9107 8.9351 18.9727 9.13507 19.0788 10.5397C19.118 11.0588 19.1824 11.5908 19.222 11.7221C19.3559 12.1662 19.8831 12.8706 21.4905 14.7529C22.1953 15.5782 22.4195 15.9228 22.2997 15.9968C22.2122 16.0508 22.1892 16.0447 20.7523 15.5853C18.2074 14.7716 17.9723 14.6989 17.5286 14.5883C16.7339 14.3901 15.3456 14.2109 15.1524 14.2817C15.0933 14.3033 14.905 14.4397 14.7339 14.5847C14.5629 14.7297 14.4017 14.8483 14.3758 14.8483C14.2971 14.8483 14.3225 14.7142 14.4481 14.4665C14.5137 14.337 14.5675 14.2196 14.5675 14.2056C14.5675 14.1916 14.4918 14.1801 14.3994 14.1801C14.2427 14.1801 14.2237 14.1972 14.1189 14.4307L14.0066 14.6813L13.9733 14.5381C13.8962 14.2067 13.8659 14.1733 13.672 14.2061C13.1981 14.2864 12.6622 14.7115 12.4568 15.1701C12.3764 15.3498 12.3542 15.4969 12.3509 15.8745C12.3486 16.137 12.3637 16.4473 12.3845 16.5639C12.4211 16.7691 12.4195 16.7734 12.333 16.6952C12.2092 16.5832 12.1945 16.5907 12.158 16.7854C12.1331 16.9183 12.1528 17.0079 12.2468 17.1875L12.3678 17.4187L12.239 17.4616C12.1219 17.5006 12.1116 17.5232 12.1253 17.7122C12.1359 17.8599 12.1873 17.9815 12.3032 18.1331C12.4913 18.3793 12.5024 18.428 12.3705 18.428C12.2148 18.428 12.26 18.5039 12.5119 18.6654C12.9278 18.9322 13.2305 19.5142 13.6091 20.7753C14.107 22.4337 14.4775 23.0782 15.1224 23.4075C15.572 23.6371 15.7189 23.8677 15.9027 24.6328C16.0599 25.2871 16.2762 25.4107 17.086 25.3091C17.5688 25.2484 18.2197 25.0392 19.2479 24.6139C19.9996 24.303 20.2648 24.2678 20.3556 24.467C20.508 24.8011 19.9715 25.237 18.3405 26.1043C18.0384 26.2649 17.8183 26.3969 17.8515 26.3975C17.8846 26.3985 18.1045 26.3558 18.3403 26.3034V26.3034ZM15.6525 21.8942C14.9427 21.63 14.6211 20.8851 14.9439 20.2529C15.1584 19.8325 15.5337 19.6009 16.0003 19.6009C16.6707 19.6009 17.1668 20.0967 17.1668 20.7667C17.1668 21.1105 17.0654 21.3598 16.8295 21.5955C16.5264 21.8985 16.0135 22.0286 15.6525 21.8942V21.8942ZM16.6118 12.2391C17.3634 11.7768 17.3784 10.6883 16.6395 10.22C16.0713 9.85991 15.334 10.0373 14.9748 10.6206C14.8472 10.8279 14.8302 10.898 14.8302 11.2172C14.8302 11.5266 14.8493 11.6115 14.9626 11.804C15.2109 12.2262 15.5941 12.4282 16.0864 12.3964C16.3118 12.3819 16.4438 12.3424 16.6118 12.2391Z" fill="white"/>
</g>
<path d="M46.6042 21.2969C45.5788 21.8877 44.3044 22.1831 42.781 22.1831C41.0915 22.1831 39.7585 21.7168 38.782 20.7842C37.8103 19.8467 37.3244 18.5576 37.3244 16.917C37.3244 15.2666 37.8567 13.9214 38.9211 12.8813C39.9856 11.8413 41.4016 11.3213 43.1692 11.3213C44.2824 11.3213 45.2639 11.4751 46.1135 11.7827V14.002C45.3029 13.5332 44.3117 13.2988 43.1399 13.2988C42.1584 13.2988 41.3576 13.6187 40.7375 14.2583C40.1223 14.8931 39.8147 15.7427 39.8147 16.8071C39.8147 17.8862 40.0905 18.7212 40.6423 19.312C41.1989 19.9028 41.9485 20.1982 42.8908 20.1982C43.4572 20.1982 43.9065 20.1177 44.2385 19.9565V17.9058H42.1364V16.0161H46.6042V21.2969ZM58.8033 22H56.4156L52.087 15.4009C51.833 15.0151 51.6573 14.7246 51.5596 14.5293H51.5303C51.5694 14.9004 51.5889 15.4668 51.5889 16.2285V22H49.355V11.4971H51.9038L56.0713 17.8911C56.2618 18.1792 56.4375 18.4648 56.5987 18.748H56.628C56.5889 18.5039 56.5694 18.0229 56.5694 17.3052V11.4971H58.8033V22ZM70.475 17.4517C70.475 20.606 69.0052 22.1831 66.0658 22.1831C63.2142 22.1831 61.7884 20.6426 61.7884 17.5615V11.4971H64.1615V17.5908C64.1615 19.29 64.8255 20.1396 66.1537 20.1396C67.4574 20.1396 68.1092 19.3193 68.1092 17.6787V11.4971H70.475V17.4517ZM78.8361 11.4971L73.7165 23.7432H71.6511L76.7487 11.4971H78.8361ZM86.5601 22H80.3052V11.4971H82.6709V20.0811H86.5601V22ZM89.3695 13.3135C88.9788 13.3135 88.659 13.1987 88.41 12.9692C88.161 12.7349 88.0364 12.4492 88.0364 12.1123C88.0364 11.7656 88.161 11.4824 88.41 11.2627C88.659 11.043 88.9788 10.9331 89.3695 10.9331C89.765 10.9331 90.0848 11.043 90.3289 11.2627C90.5779 11.4824 90.7025 11.7656 90.7025 12.1123C90.7025 12.4639 90.5779 12.752 90.3289 12.9766C90.0848 13.2012 89.765 13.3135 89.3695 13.3135ZM90.512 22H88.1976V14.5H90.512V22ZM99.8839 22H97.5768V17.8325C97.5768 16.6704 97.1618 16.0894 96.3317 16.0894C95.9313 16.0894 95.6017 16.2432 95.3429 16.5508C95.0841 16.8584 94.9547 17.249 94.9547 17.7227V22H92.6403V14.5H94.9547V15.6865H94.984C95.5358 14.7734 96.339 14.3169 97.3937 14.3169C99.0538 14.3169 99.8839 15.3472 99.8839 17.4077V22ZM109.029 22H106.722V20.8574H106.685C106.114 21.7412 105.35 22.1831 104.393 22.1831C102.654 22.1831 101.785 21.1309 101.785 19.0264V14.5H104.092V18.8213C104.092 19.8809 104.512 20.4106 105.352 20.4106C105.767 20.4106 106.099 20.2666 106.348 19.9785C106.597 19.6855 106.722 19.29 106.722 18.792V14.5H109.029V22ZM118.408 14.5L115.932 18.1328L118.393 22H115.727L114.643 19.9785C114.555 19.8174 114.45 19.5903 114.328 19.2974H114.299C114.226 19.5024 114.126 19.7222 113.999 19.9565L112.908 22H110.249L112.783 18.2646L110.403 14.5H113.083L114.153 16.6021C114.294 16.8804 114.394 17.1147 114.453 17.3052H114.482C114.56 17.0757 114.665 16.8364 114.797 16.5874L115.888 14.5H118.408Z" fill="white"/>
<path d="M119 0H5C2.23858 0 0 2.23858 0 5V27C0 29.7614 2.23858 32 5 32H119C121.761 32 124 29.7614 124 27V5C124 2.23858 121.761 0 119 0Z" fill="url(#paint0_linear)"/>
<defs>
<linearGradient id="paint0_linear" x1="0" y1="0" x2="0" y2="32" gradientUnits="userSpaceOnUse">
<stop stop-color="#BBBBBB" stop-opacity="0.1"/>
<stop offset="1" stop-opacity="0.1"/>
</linearGradient>
<clipPath id="clip0">
<rect width="24" height="24" fill="white" transform="translate(4 4)"/>
</clipPath>
</defs>
</svg>
