<svg width="86" height="32" viewBox="0 0 86 32" fill="none" xmlns="http://www.w3.org/2000/svg">
<path d="M81 0H31V32H81C83.7614 32 86 29.7614 86 27V5C86 2.23858 83.7614 0 81 0Z" fill="#0F1418"/>
<path d="M31 0H5C2.23858 0 0 2.23858 0 5V27C0 29.7614 2.23858 32 5 32H31V0Z" fill="#79C257"/>
<path d="M6.5 27.25C6.5 27.4489 6.57902 27.6397 6.71967 27.7803C6.86032 27.921 7.05109 28 7.25 28H23.75C23.9489 28 24.1397 27.921 24.2803 27.7803C24.421 27.6397 24.5 27.4489 24.5 27.25V25H6.5V27.25ZM24.5 4H6.5C6.10218 4 5.72064 4.15804 5.43934 4.43934C5.15804 4.72064 5 5.10218 5 5.5V22.75C5 22.9489 5.07902 23.1397 5.21967 23.2803C5.36032 23.421 5.55109 23.5 5.75 23.5H25.25C25.4489 23.5 25.6397 23.421 25.7803 23.2803C25.921 23.1397 26 22.9489 26 22.75V5.5C26 5.10218 25.842 4.72064 25.5607 4.43934C25.2794 4.15804 24.8978 4 24.5 4V4ZM8.75 20.6875C8.56458 20.6875 8.38332 20.6325 8.22915 20.5295C8.07498 20.4265 7.95482 20.2801 7.88386 20.1088C7.81291 19.9375 7.79434 19.749 7.83051 19.5671C7.86669 19.3852 7.95598 19.2182 8.08709 19.0871C8.2182 18.956 8.38525 18.8667 8.5671 18.8305C8.74896 18.7943 8.93746 18.8129 9.10877 18.8839C9.28007 18.9548 9.42649 19.075 9.5295 19.2292C9.63252 19.3833 9.6875 19.5646 9.6875 19.75C9.6875 19.9986 9.58873 20.2371 9.41291 20.4129C9.2371 20.5887 8.99864 20.6875 8.75 20.6875ZM23 20.125C23 20.2245 22.9605 20.3198 22.8902 20.3902C22.8198 20.4605 22.7245 20.5 22.625 20.5H15.875C15.7755 20.5 15.6802 20.4605 15.6098 20.3902C15.5395 20.3198 15.5 20.2245 15.5 20.125V19.375C15.5 19.2755 15.5395 19.1802 15.6098 19.1098C15.6802 19.0395 15.7755 19 15.875 19H22.625C22.7245 19 22.8198 19.0395 22.8902 19.1098C22.9605 19.1802 23 19.2755 23 19.375V20.125ZM23 14.5C23 14.8978 22.842 15.2794 22.5607 15.5607C22.2794 15.842 21.8978 16 21.5 16H9.5C9.10218 16 8.72064 15.842 8.43934 15.5607C8.15804 15.2794 8 14.8978 8 14.5V8.5C8 8.10218 8.15804 7.72064 8.43934 7.43934C8.72064 7.15804 9.10218 7 9.5 7H21.5C21.8978 7 22.2794 7.15804 22.5607 7.43934C22.842 7.72064 23 8.10218 23 8.5V14.5Z" fill="white"/>
<path d="M56.6721 22H54.3356V15.7158C54.3356 15.0371 54.3649 14.2876 54.4235 13.4673H54.3649C54.2429 14.1118 54.133 14.5757 54.0353 14.8589L51.5744 22H49.6408L47.1359 14.9321C47.0676 14.7417 46.9577 14.2534 46.8063 13.4673H46.7404C46.8039 14.5024 46.8356 15.4106 46.8356 16.1919V22H44.7043V11.4971H48.1686L50.3146 17.7227C50.4855 18.2207 50.61 18.7212 50.6882 19.2241H50.7321C50.8639 18.6431 51.0031 18.1377 51.1496 17.708L53.2956 11.4971H56.6721V22ZM65.5166 22H63.3267V20.9233H63.2974C62.7944 21.7632 62.0498 22.1831 61.0635 22.1831C60.3359 22.1831 59.7622 21.978 59.3423 21.5679C58.9272 21.1528 58.7197 20.6011 58.7197 19.9126C58.7197 18.4575 59.5815 17.6177 61.3052 17.3931L63.3413 17.1221C63.3413 16.3018 62.897 15.8916 62.0083 15.8916C61.1147 15.8916 60.2651 16.1577 59.4595 16.6899V14.9468C59.7817 14.7808 60.2212 14.6343 60.7778 14.5073C61.3394 14.3804 61.8496 14.3169 62.3086 14.3169C64.4473 14.3169 65.5166 15.3838 65.5166 17.5176V22ZM63.3413 18.9531V18.4478L61.979 18.6235C61.2271 18.7212 60.8511 19.0605 60.8511 19.6416C60.8511 19.9053 60.9414 20.1226 61.1221 20.2935C61.3076 20.4595 61.5566 20.5425 61.8691 20.5425C62.3037 20.5425 62.6577 20.3936 62.9312 20.0957C63.2046 19.793 63.3413 19.4121 63.3413 18.9531ZM73.2113 21.729C72.6888 22.0317 71.9344 22.1831 70.9481 22.1831C69.7957 22.1831 68.8631 21.834 68.1502 21.1357C67.4373 20.4375 67.0809 19.5366 67.0809 18.4331C67.0809 17.1587 67.4617 16.1553 68.2235 15.4229C68.9901 14.6855 70.013 14.3169 71.2923 14.3169C72.1761 14.3169 72.8157 14.4341 73.2113 14.6685V16.6313C72.7279 16.27 72.1883 16.0894 71.5926 16.0894C70.9285 16.0894 70.4012 16.2847 70.0106 16.6753C69.6248 17.061 69.432 17.5957 69.432 18.2793C69.432 18.9434 69.6175 19.4658 69.9886 19.8467C70.3597 20.2227 70.8699 20.4106 71.5194 20.4106C72.0955 20.4106 72.6595 20.23 73.2113 19.8687V21.729Z" fill="white"/>
<path d="M81 0H5C2.23858 0 0 2.23858 0 5V27C0 29.7614 2.23858 32 5 32H81C83.7614 32 86 29.7614 86 27V5C86 2.23858 83.7614 0 81 0Z" fill="url(#paint0_linear)"/>
<defs>
<linearGradient id="paint0_linear" x1="0" y1="0" x2="0" y2="32" gradientUnits="userSpaceOnUse">
<stop stop-color="#BBBBBB" stop-opacity="0.1"/>
<stop offset="1" stop-opacity="0.1"/>
</linearGradient>
</defs>
</svg>
