<svg width="124" height="32" viewBox="0 0 124 32" fill="none" xmlns="http://www.w3.org/2000/svg">
<path d="M119 0H31V32H119C121.761 32 124 29.7614 124 27V5C124 2.23858 121.761 0 119 0Z" fill="#0F1418"/>
<path d="M31 0H5C2.23858 0 0 2.23858 0 5V27C0 29.7614 2.23858 32 5 32H31V0Z" fill="#E70012"/>
<path d="M23.5 4H8.5C8.10218 4 7.72064 4.15804 7.43934 4.43934C7.15804 4.72064 7 5.10218 7 5.5V26.5C7 26.8978 7.15804 27.2794 7.43934 27.5607C7.72064 27.842 8.10218 28 8.5 28H20.5C21.6935 28 22.8381 27.5259 23.682 26.682C24.5259 25.8381 25 24.6935 25 23.5V5.5C25 5.10218 24.842 4.72064 24.5607 4.43934C24.2794 4.15804 23.8978 4 23.5 4V4ZM14.5 20.125C14.5 20.2245 14.4605 20.3198 14.3902 20.3902C14.3198 20.4605 14.2245 20.5 14.125 20.5H13V21.625C13 21.7245 12.9605 21.8198 12.8902 21.8902C12.8198 21.9605 12.7245 22 12.625 22H11.875C11.7755 22 11.6802 21.9605 11.6098 21.8902C11.5395 21.8198 11.5 21.7245 11.5 21.625V20.5H10.375C10.2755 20.5 10.1802 20.4605 10.1098 20.3902C10.0395 20.3198 10 20.2245 10 20.125V19.375C10 19.2755 10.0395 19.1802 10.1098 19.1098C10.1802 19.0395 10.2755 19 10.375 19H11.5V17.875C11.5 17.7755 11.5395 17.6802 11.6098 17.6098C11.6802 17.5395 11.7755 17.5 11.875 17.5H12.625C12.7245 17.5 12.8198 17.5395 12.8902 17.6098C12.9605 17.6802 13 17.7755 13 17.875V19H14.125C14.2245 19 14.3198 19.0395 14.3902 19.1098C14.4605 19.1802 14.5 19.2755 14.5 19.375V20.125ZM17.875 22C17.6525 22 17.435 21.934 17.25 21.8104C17.065 21.6868 16.9208 21.5111 16.8356 21.3055C16.7505 21.1 16.7282 20.8738 16.7716 20.6555C16.815 20.4373 16.9222 20.2368 17.0795 20.0795C17.2368 19.9222 17.4373 19.815 17.6555 19.7716C17.8738 19.7282 18.1 19.7505 18.3055 19.8356C18.5111 19.9208 18.6868 20.065 18.8104 20.25C18.934 20.435 19 20.6525 19 20.875C19 21.1734 18.8815 21.4595 18.6705 21.6705C18.4595 21.8815 18.1734 22 17.875 22ZM12.25 14.5C12.0511 14.5 11.8603 14.421 11.7197 14.2803C11.579 14.1397 11.5 13.9489 11.5 13.75V7.75C11.5 7.55109 11.579 7.36032 11.7197 7.21967C11.8603 7.07902 12.0511 7 12.25 7H19.75C19.9489 7 20.1397 7.07902 20.2803 7.21967C20.421 7.36032 20.5 7.55109 20.5 7.75V13C20.5 13.3978 20.342 13.7794 20.0607 14.0607C19.7794 14.342 19.3978 14.5 19 14.5H12.25ZM20.875 19.75C20.6525 19.75 20.435 19.684 20.25 19.5604C20.065 19.4368 19.9208 19.2611 19.8356 19.0555C19.7505 18.85 19.7282 18.6238 19.7716 18.4055C19.815 18.1873 19.9222 17.9868 20.0795 17.8295C20.2368 17.6722 20.4373 17.565 20.6555 17.5216C20.8738 17.4782 21.1 17.5005 21.3055 17.5856C21.5111 17.6708 21.6868 17.815 21.8104 18C21.934 18.185 22 18.4025 22 18.625C22 18.9234 21.8815 19.2095 21.6705 19.4205C21.4595 19.6315 21.1734 19.75 20.875 19.75Z" fill="white"/>
<path d="M54.2015 22H51.8138L47.4852 15.4009C47.2313 15.0151 47.0555 14.7246 46.9579 14.5293H46.9286C46.9677 14.9004 46.9872 15.4668 46.9872 16.2285V22H44.7533V11.4971H47.3021L51.4696 17.8911C51.66 18.1792 51.8358 18.4648 51.997 18.748H52.0262C51.9872 18.5039 51.9677 18.0229 51.9677 17.3052V11.4971H54.2015V22ZM57.9924 13.3135C57.6018 13.3135 57.2819 13.1987 57.0329 12.9692C56.7839 12.7349 56.6594 12.4492 56.6594 12.1123C56.6594 11.7656 56.7839 11.4824 57.0329 11.2627C57.2819 11.043 57.6018 10.9331 57.9924 10.9331C58.3879 10.9331 58.7077 11.043 58.9519 11.2627C59.2009 11.4824 59.3254 11.7656 59.3254 12.1123C59.3254 12.4639 59.2009 12.752 58.9519 12.9766C58.7077 13.2012 58.3879 13.3135 57.9924 13.3135ZM59.135 22H56.8205V14.5H59.135V22ZM68.5069 22H66.1997V17.8325C66.1997 16.6704 65.7847 16.0894 64.9546 16.0894C64.5542 16.0894 64.2246 16.2432 63.9658 16.5508C63.7071 16.8584 63.5777 17.249 63.5777 17.7227V22H61.2632V14.5H63.5777V15.6865H63.607C64.1587 14.7734 64.9619 14.3169 66.0166 14.3169C67.6768 14.3169 68.5069 15.3472 68.5069 17.4077V22ZM75.0589 21.9121C74.7171 22.0928 74.202 22.1831 73.5135 22.1831C71.8827 22.1831 71.0672 21.3359 71.0672 19.6416V16.2065H69.8514V14.5H71.0672V12.8813L73.3744 12.2222V14.5H75.0589V16.2065H73.3744V19.2388C73.3744 20.02 73.6844 20.4106 74.3045 20.4106C74.5487 20.4106 74.8001 20.3398 75.0589 20.1982V21.9121ZM83.2296 18.9092H78.3371C78.4152 19.998 79.1012 20.5425 80.3952 20.5425C81.2204 20.5425 81.9455 20.3472 82.5705 19.9565V21.6265C81.8771 21.9976 80.9762 22.1831 79.8678 22.1831C78.6569 22.1831 77.717 21.8486 77.048 21.1797C76.3791 20.5059 76.0446 19.5684 76.0446 18.3672C76.0446 17.1221 76.4059 16.1357 77.1286 15.4082C77.8512 14.6807 78.7399 14.3169 79.7946 14.3169C80.8883 14.3169 81.7331 14.6416 82.3288 15.291C82.9294 15.9404 83.2296 16.8218 83.2296 17.9351V18.9092ZM81.0837 17.4883C81.0837 16.4141 80.6491 15.877 79.7799 15.877C79.4088 15.877 79.0866 16.0308 78.8131 16.3384C78.5446 16.646 78.381 17.0293 78.3224 17.4883H81.0837ZM92.0303 22H89.7231V17.8325C89.7231 16.6704 89.3081 16.0894 88.478 16.0894C88.0776 16.0894 87.748 16.2432 87.4892 16.5508C87.2304 16.8584 87.1011 17.249 87.1011 17.7227V22H84.7866V14.5H87.1011V15.6865H87.1304C87.6821 14.7734 88.4853 14.3169 89.54 14.3169C91.2002 14.3169 92.0303 15.3472 92.0303 17.4077V22ZM101.388 22H99.073V20.9673H99.0438C98.5164 21.7778 97.7425 22.1831 96.722 22.1831C95.7845 22.1831 95.0301 21.8535 94.4588 21.1943C93.8875 20.5303 93.6019 19.605 93.6019 18.4185C93.6019 17.1782 93.9168 16.1846 94.5467 15.4375C95.1766 14.6904 96.0018 14.3169 97.0223 14.3169C97.9891 14.3169 98.6629 14.6636 99.0438 15.3569H99.073V10.8965H101.388V22ZM99.117 18.3525V17.7886C99.117 17.3003 98.9754 16.895 98.6922 16.5728C98.409 16.2505 98.0403 16.0894 97.5862 16.0894C97.0735 16.0894 96.6731 16.292 96.3851 16.6973C96.097 17.0977 95.9529 17.6494 95.9529 18.3525C95.9529 19.0117 96.0921 19.5195 96.3704 19.876C96.6487 20.2324 97.0345 20.4106 97.5276 20.4106C97.9964 20.4106 98.3772 20.2227 98.6702 19.8467C98.9681 19.4707 99.117 18.9727 99.117 18.3525ZM107.09 22.1831C105.84 22.1831 104.856 21.834 104.138 21.1357C103.425 20.4326 103.069 19.4805 103.069 18.2793C103.069 17.0391 103.44 16.0698 104.182 15.3716C104.924 14.6685 105.928 14.3169 107.192 14.3169C108.438 14.3169 109.414 14.6685 110.122 15.3716C110.83 16.0698 111.184 16.9951 111.184 18.1475C111.184 19.3926 110.818 20.3765 110.086 21.0991C109.358 21.8218 108.359 22.1831 107.09 22.1831ZM107.149 16.0894C106.602 16.0894 106.177 16.2773 105.874 16.6533C105.571 17.0293 105.42 17.5615 105.42 18.25C105.42 19.6904 106.001 20.4106 107.163 20.4106C108.272 20.4106 108.826 19.6709 108.826 18.1914C108.826 16.79 108.267 16.0894 107.149 16.0894Z" fill="white"/>
<path d="M119 0H5C2.23858 0 0 2.23858 0 5V27C0 29.7614 2.23858 32 5 32H119C121.761 32 124 29.7614 124 27V5C124 2.23858 121.761 0 119 0Z" fill="url(#paint0_linear)"/>
<defs>
<linearGradient id="paint0_linear" x1="0" y1="0" x2="0" y2="32" gradientUnits="userSpaceOnUse">
<stop stop-color="#BBBBBB" stop-opacity="0.1"/>
<stop offset="1" stop-opacity="0.1"/>
</linearGradient>
</defs>
</svg>
