<?xml version="1.0" encoding="UTF-8" standalone="no"?>
<svg
   width="138"
   height="32"
   viewBox="0 0 138 32"
   fill="none"
   version="1.1"
   id="svg19"
   sodipodi:docname="playstation.svg"
   inkscape:version="1.1 (c68e22c387, 2021-05-23)"
   xmlns:inkscape="http://www.inkscape.org/namespaces/inkscape"
   xmlns:sodipodi="http://sodipodi.sourceforge.net/DTD/sodipodi-0.dtd"
   xmlns="http://www.w3.org/2000/svg"
   xmlns:svg="http://www.w3.org/2000/svg">
  <sodipodi:namedview
     id="namedview21"
     pagecolor="#ffffff"
     bordercolor="#111111"
     borderopacity="1"
     inkscape:pageshadow="0"
     inkscape:pageopacity="0"
     inkscape:pagecheckerboard="1"
     showgrid="false"
     inkscape:zoom="4.2700363"
     inkscape:cx="82.786181"
     inkscape:cy="21.896769"
     inkscape:window-width="1920"
     inkscape:window-height="1001"
     inkscape:window-x="-9"
     inkscape:window-y="-9"
     inkscape:window-maximized="1"
     inkscape:current-layer="svg19" />
  <path
     d="M 132.83167,0 H 30.831665 V 32 H 132.83167 c 2.761,0 5,-2.2386 5,-5 V 5 c 0,-2.76142 -2.239,-5 -5,-5 z"
     fill="#0f1418"
     id="path2"
     style="display:inline" />
  <path
     d="M 31,0 H 5 C 2.23858,0 0,2.23858 0,5 v 22 c 0,2.7614 2.23858,5 5,5 h 26 z"
     fill="#ffffff"
     id="path4"
     style="display:inline" />
  <path
     d="M 25.2021,10.7019 C 24.3265,10.0022 23.31,9.51233 22.213,9.25242 21.589,9.10247 20.9549,9.03249 20.3108,9.0125 c -0.473,-0.02 -0.9561,-0.01 -1.4292,-0.01 h -6.7733 c -0.473,0 -0.9561,0 -1.4291,0.01 C 10.035,9.03249 9.41103,9.10247 8.77697,9.25242 7.67995,9.51233 6.67352,10.0022 5.79791,10.7019 4.02657,12.1115 3,14.2408 3,16.5 c 0,2.2592 1.02657,4.3885 2.79791,5.7981 0.87561,0.6997 1.89211,1.1896 2.98913,1.4495 0.62399,0.1499 1.25806,0.2199 1.90216,0.2399 0.473,0.02 0.9561,0.01 1.4292,0.01 h 6.7733 c 0.473,0 0.9561,0 1.4292,-0.01 0.6441,-0.02 1.2681,-0.09 1.9021,-0.2399 1.097,-0.2599 2.1035,-0.7498 2.9791,-1.4495 C 26.9734,20.8885 28,18.7592 28,16.5 28,14.2408 26.9734,12.1115 25.2021,10.7019 Z m -3.3112,7.8174 c -0.3321,0.23 -0.7045,0.3699 -1.097,0.4299 -0.3925,0.06 -0.7951,0.05 -1.1876,0.05 h -8.2025 c -0.4026,0 -0.7951,0.01 -1.1876,-0.05 C 9.81361,18.8892 9.45129,18.7493 9.11917,18.5193 8.45492,18.0595 8.05234,17.3097 8.05234,16.5 c 0,-0.8097 0.40258,-1.5595 1.06683,-2.0193 0.33212,-0.23 0.7045,-0.3699 1.09703,-0.4299 0.3925,-0.06 0.7951,-0.05 1.1876,-0.05 h 8.2025 c 0.4026,0 0.7951,-0.01 1.1876,0.05 0.4026,0.06 0.7649,0.1999 1.097,0.4299 0.6643,0.4598 1.0668,1.2096 1.0668,2.0193 0.0101,0.8097 -0.3925,1.5595 -1.0668,2.0193 z"
     fill="#1c1e20"
     id="path6"
     style="display:inline" />
  <text
     xml:space="preserve"
     style="font-style:normal;font-weight:normal;font-size:15.169px;line-height:1.25;font-family:sans-serif;display:inline;fill:#000000;fill-opacity:1;stroke:none;stroke-width:0.379226"
     x="37.339619"
     y="20.899557"
     id="text4098"><tspan
       sodipodi:role="line"
       id="tspan4096"
       x="37.339619"
       y="20.899557"
       style="font-style:normal;font-variant:normal;font-weight:bold;font-stretch:normal;font-family:'Segoe UI';-inkscape-font-specification:'Segoe UI Bold';fill:#ffffff;stroke-width:0.379226">Oculus Quest</tspan></text>
  <path
     d="m 132.83167,0 h -128 c -2.76142,0 -5,2.23858 -5,5 v 22 c 0,2.7614 2.23857,5 5,5 h 128 c 8.53323,-1.286693 5,-20.068661 5,-27 0,-2.76142 -2.239,-5 -5,-5 z"
     fill="url(#paint0_linear)"
     id="path10"
     sodipodi:nodetypes="sssssccs"
     style="fill:url(#paint0_linear)" />
  <defs
     id="defs17">
    <linearGradient
       id="paint0_linear"
       x1="0"
       y1="0"
       x2="0"
       y2="32"
       gradientUnits="userSpaceOnUse"
       gradientTransform="translate(-0.16833)">
      <stop
         stop-color="#BBBBBB"
         stop-opacity="0.1"
         id="stop12" />
      <stop
         offset="1"
         stop-opacity="0.1"
         id="stop14" />
    </linearGradient>
  </defs>
</svg>
