<svg width="86" height="32" viewBox="0 0 86 32" fill="none" xmlns="http://www.w3.org/2000/svg">
<path d="M81 0H31V32H81C83.7614 32 86 29.7614 86 27V5C86 2.23858 83.7614 0 81 0Z" fill="#0F1418"/>
<path d="M31 0H5C2.23858 0 0 2.23858 0 5V27C0 29.7614 2.23858 32 5 32H31V0Z" fill="#6057C2"/>
<path d="M5 8.02991L14.0161 6.7875V15.4991H5V8.02991ZM5 23.9701L14.0161 25.2125V16.6089H5V23.9701V23.9701ZM15.008 25.3451L27 27V16.6089H15.008V25.3451V25.3451ZM15.008 6.65491V15.4991H27V5L15.008 6.65491V6.65491Z" fill="white"/>
<path d="M52.4261 18.3818V22H50.0604V11.4971H53.7664C56.4129 11.4971 57.7362 12.6128 57.7362 14.8442C57.7362 15.8989 57.3553 16.7534 56.5936 17.4077C55.8368 18.0571 54.8236 18.3818 53.554 18.3818H52.4261ZM52.4261 13.3135V16.5874H53.3563C54.6161 16.5874 55.2459 16.0356 55.2459 14.9321C55.2459 13.853 54.6161 13.3135 53.3563 13.3135H52.4261ZM67.5109 21.6265C66.7443 21.9976 65.7433 22.1831 64.508 22.1831C62.8966 22.1831 61.6296 21.7095 60.7067 20.7622C59.7838 19.8149 59.3224 18.5527 59.3224 16.9756C59.3224 15.2959 59.84 13.9336 60.8752 12.8887C61.9152 11.8438 63.2629 11.3213 64.9181 11.3213C65.9435 11.3213 66.8078 11.4507 67.5109 11.7095V13.9873C66.8078 13.5674 66.007 13.3574 65.1086 13.3574C64.1222 13.3574 63.3263 13.6675 62.7209 14.2876C62.1154 14.9077 61.8127 15.7476 61.8127 16.8071C61.8127 17.8228 62.0983 18.6333 62.6696 19.2388C63.2409 19.8394 64.0099 20.1396 64.9767 20.1396C65.8996 20.1396 66.7443 19.915 67.5109 19.4658V21.6265Z" fill="white"/>
<path d="M81 0H5C2.23858 0 0 2.23858 0 5V27C0 29.7614 2.23858 32 5 32H81C83.7614 32 86 29.7614 86 27V5C86 2.23858 83.7614 0 81 0Z" fill="url(#paint0_linear)"/>
<defs>
<linearGradient id="paint0_linear" x1="0" y1="0" x2="0" y2="32" gradientUnits="userSpaceOnUse">
<stop stop-color="#BBBBBB" stop-opacity="0.1"/>
<stop offset="1" stop-opacity="0.1"/>
</linearGradient>
</defs>
</svg>
