<svg width="138" height="32" viewBox="0 0 138 32" fill="none" xmlns="http://www.w3.org/2000/svg">
<path d="M133 0H31V32H133C135.761 32 138 29.7614 138 27V5C138 2.23858 135.761 0 133 0Z" fill="#0F1418"/>
<path d="M31 0H5C2.23858 0 0 2.23858 0 5V27C0 29.7614 2.23858 32 5 32H31V0Z" fill="#613079"/>
<path d="M11.5027 25.2965C11.5032 25.5913 11.5904 25.8801 11.754 26.1257L12.555 27.3299C12.6919 27.5358 12.8775 27.7046 13.0954 27.8214C13.3132 27.9382 13.5566 27.9993 13.8038 27.9993H16.6964C16.9435 27.9993 17.1869 27.9382 17.4048 27.8214C17.6226 27.7046 17.8082 27.5358 17.9451 27.3299L18.7462 26.1257C18.9097 25.8801 18.9971 25.5916 18.9974 25.2965L18.9993 23.4989H11.5004L11.5027 25.2965ZM7 12.2491C7 14.3289 7.77108 16.2264 9.04183 17.6762C9.81619 18.5598 11.0274 20.4057 11.4891 21.9628C11.491 21.975 11.4924 21.9872 11.4943 21.9994H19.0054C19.0072 21.9872 19.0087 21.9755 19.0105 21.9628C19.4722 20.4057 20.6835 18.5598 21.4578 17.6762C22.7286 16.2264 23.4996 14.3289 23.4996 12.2491C23.4996 7.68407 19.7924 3.98525 15.224 3.99931C10.4424 4.01384 7 7.88844 7 12.2491ZM15.2498 8.49921C13.1822 8.49921 11.4999 10.1815 11.4999 12.2491C11.4999 12.6635 11.1643 12.9991 10.7499 12.9991C10.3356 12.9991 9.99994 12.6635 9.99994 12.2491C9.99994 9.35419 12.3549 6.99924 15.2498 6.99924C15.6642 6.99924 15.9998 7.33486 15.9998 7.74923C15.9998 8.16359 15.6642 8.49921 15.2498 8.49921Z" fill="white"/>
<path d="M47.0082 18.3818V22H44.6425V11.4971H48.3485C50.995 11.4971 52.3183 12.6128 52.3183 14.8442C52.3183 15.8989 51.9374 16.7534 51.1757 17.4077C50.4188 18.0571 49.4057 18.3818 48.1361 18.3818H47.0082ZM47.0082 13.3135V16.5874H47.9384C49.1981 16.5874 49.828 16.0356 49.828 14.9321C49.828 13.853 49.1981 13.3135 47.9384 13.3135H47.0082ZM61.2727 22H58.9655V17.7373C58.9655 16.6387 58.5652 16.0894 57.7644 16.0894C57.3542 16.0894 57.0222 16.2432 56.7683 16.5508C56.5144 16.8584 56.3874 17.249 56.3874 17.7227V22H54.073V10.8965H56.3874V15.6133H56.4167C56.9831 14.749 57.7522 14.3169 58.7238 14.3169C60.4231 14.3169 61.2727 15.3423 61.2727 17.3931V22ZM64.4629 13.3135C64.0723 13.3135 63.7525 13.1987 63.5035 12.9692C63.2544 12.7349 63.1299 12.4492 63.1299 12.1123C63.1299 11.7656 63.2544 11.4824 63.5035 11.2627C63.7525 11.043 64.0723 10.9331 64.4629 10.9331C64.8584 10.9331 65.1783 11.043 65.4224 11.2627C65.6714 11.4824 65.7959 11.7656 65.7959 12.1123C65.7959 12.4639 65.6714 12.752 65.4224 12.9766C65.1783 13.2012 64.8584 13.3135 64.4629 13.3135ZM65.6055 22H63.2911V14.5H65.6055V22ZM70.0482 22H67.7337V10.8965H70.0482V22ZM73.3483 13.3135C72.9577 13.3135 72.6379 13.1987 72.3888 12.9692C72.1398 12.7349 72.0153 12.4492 72.0153 12.1123C72.0153 11.7656 72.1398 11.4824 72.3888 11.2627C72.6379 11.043 72.9577 10.9331 73.3483 10.9331C73.7438 10.9331 74.0637 11.043 74.3078 11.2627C74.5568 11.4824 74.6813 11.7656 74.6813 12.1123C74.6813 12.4639 74.5568 12.752 74.3078 12.9766C74.0637 13.2012 73.7438 13.3135 73.3483 13.3135ZM74.4909 22H72.1764V14.5H74.4909V22ZM78.9629 21.1284H78.9336V25.4497H76.6191V14.5H78.9336V15.6279H78.9629C79.5342 14.7539 80.3374 14.3169 81.3726 14.3169C82.3442 14.3169 83.0938 14.6514 83.6211 15.3203C84.1533 15.9844 84.4194 16.8901 84.4194 18.0376C84.4194 19.2876 84.1094 20.291 83.4893 21.0479C82.874 21.8047 82.0537 22.1831 81.0283 22.1831C80.125 22.1831 79.4365 21.8315 78.9629 21.1284ZM78.897 18.0522V18.6528C78.897 19.1704 79.0337 19.5928 79.3071 19.9199C79.5806 20.2471 79.9395 20.4106 80.3838 20.4106C80.9111 20.4106 81.3188 20.208 81.6069 19.8027C81.8999 19.3926 82.0464 18.814 82.0464 18.0669C82.0464 16.7485 81.5337 16.0894 80.5083 16.0894C80.0347 16.0894 79.6465 16.27 79.3438 16.6313C79.0459 16.9878 78.897 17.4614 78.897 18.0522ZM85.6102 21.8022V19.9272C85.991 20.1567 86.3695 20.3276 86.7454 20.4399C87.1263 20.5522 87.4852 20.6084 87.8221 20.6084C88.2322 20.6084 88.5545 20.5522 88.7889 20.4399C89.0281 20.3276 89.1478 20.1567 89.1478 19.9272C89.1478 19.7808 89.0941 19.6587 88.9866 19.561C88.8792 19.4634 88.7401 19.3779 88.5692 19.3047C88.4031 19.2314 88.22 19.1655 88.0198 19.1069C87.8196 19.0483 87.6268 18.9824 87.4412 18.9092C87.1434 18.7969 86.8797 18.6772 86.6502 18.5503C86.4256 18.4185 86.2352 18.2671 86.0789 18.0962C85.9276 17.9253 85.8104 17.7275 85.7274 17.5029C85.6492 17.2783 85.6102 17.0122 85.6102 16.7046C85.6102 16.2847 85.7005 15.9233 85.8812 15.6206C86.0667 15.3179 86.3109 15.0713 86.6136 14.8809C86.9212 14.6855 87.2703 14.5439 87.661 14.4561C88.0565 14.3633 88.4666 14.3169 88.8914 14.3169C89.2235 14.3169 89.5604 14.3438 89.9022 14.3975C90.244 14.4463 90.5809 14.5195 90.9129 14.6172V16.4043C90.6199 16.2334 90.305 16.1064 89.9681 16.0234C89.6361 15.9355 89.3089 15.8916 88.9866 15.8916C88.8353 15.8916 88.6912 15.9062 88.5545 15.9355C88.4227 15.96 88.3055 15.999 88.2029 16.0527C88.1004 16.1016 88.0198 16.1675 87.9613 16.2505C87.9027 16.3286 87.8734 16.4189 87.8734 16.5215C87.8734 16.6582 87.9173 16.7754 88.0052 16.873C88.0931 16.9707 88.2078 17.0562 88.3494 17.1294C88.491 17.1978 88.6473 17.2612 88.8182 17.3198C88.994 17.3735 89.1673 17.4297 89.3382 17.4883C89.6458 17.5957 89.9241 17.7129 90.1732 17.8398C90.4222 17.9668 90.6346 18.1157 90.8104 18.2866C90.991 18.4575 91.1278 18.6577 91.2205 18.8872C91.3182 19.1167 91.367 19.3901 91.367 19.7075C91.367 20.1519 91.2694 20.5327 91.074 20.8501C90.8836 21.1626 90.6273 21.4189 90.305 21.6191C89.9876 21.8145 89.619 21.9561 89.199 22.0439C88.784 22.1367 88.3519 22.1831 87.9027 22.1831C87.0775 22.1831 86.3133 22.0562 85.6102 21.8022ZM106.793 22H104.42V17.7227H100.069V22H97.7036V11.4971H100.069V15.6865H104.42V11.4971H106.793V22ZM116.546 22H114.239V20.8574H114.202C113.631 21.7412 112.866 22.1831 111.909 22.1831C110.171 22.1831 109.302 21.1309 109.302 19.0264V14.5H111.609V18.8213C111.609 19.8809 112.029 20.4106 112.869 20.4106C113.284 20.4106 113.616 20.2666 113.865 19.9785C114.114 19.6855 114.239 19.29 114.239 18.792V14.5H116.546V22ZM125.42 18.9092H120.527C120.605 19.998 121.291 20.5425 122.585 20.5425C123.41 20.5425 124.135 20.3472 124.76 19.9565V21.6265C124.067 21.9976 123.166 22.1831 122.058 22.1831C120.847 22.1831 119.907 21.8486 119.238 21.1797C118.569 20.5059 118.234 19.5684 118.234 18.3672C118.234 17.1221 118.596 16.1357 119.318 15.4082C120.041 14.6807 120.93 14.3169 121.984 14.3169C123.078 14.3169 123.923 14.6416 124.519 15.291C125.119 15.9404 125.42 16.8218 125.42 17.9351V18.9092ZM123.274 17.4883C123.274 16.4141 122.839 15.877 121.97 15.877C121.599 15.877 121.276 16.0308 121.003 16.3384C120.734 16.646 120.571 17.0293 120.512 17.4883H123.274Z" fill="white"/>
<path d="M133 0H5C2.23858 0 0 2.23858 0 5V27C0 29.7614 2.23857 32 5 32H133C135.761 32 138 29.7614 138 27V5C138 2.23858 135.761 0 133 0Z" fill="url(#paint0_linear)"/>
<defs>
<linearGradient id="paint0_linear" x1="0" y1="0" x2="0" y2="32" gradientUnits="userSpaceOnUse">
<stop stop-color="#BBBBBB" stop-opacity="0.1"/>
<stop offset="1" stop-opacity="0.1"/>
</linearGradient>
</defs>
</svg>
