<svg width="138" height="32" viewBox="0 0 138 32" fill="none" xmlns="http://www.w3.org/2000/svg">
<path d="M133 0H31V32H133C135.761 32 138 29.7614 138 27V5C138 2.23858 135.761 0 133 0Z" fill="#0F1418"/>
<path d="M31 0H5C2.23858 0 0 2.23858 0 5V27C0 29.7614 2.23858 32 5 32H31V0Z" fill="#00439C"/>
<path d="M27.7863 20.6785C27.3155 21.2702 26.1697 21.691 26.1697 21.691L17.6243 24.7575V22.4951L23.9115 20.2536C24.624 19.9994 24.7365 19.6369 24.1531 19.4453C23.574 19.2536 22.5241 19.3078 21.8116 19.5661L17.6243 21.0452V18.6953C18.5909 18.3703 19.5867 18.1286 20.7783 17.9953C22.4824 17.8078 24.5656 18.0203 26.2031 18.6411C28.0446 19.2244 28.253 20.0869 27.7863 20.6785ZM18.4367 16.8245V11.0331C18.4367 10.354 18.3117 9.72902 17.6743 9.54986C17.1868 9.39154 16.8826 9.84568 16.8826 10.5248V25.02L12.9745 23.7784V6.5C14.6369 6.80832 17.0576 7.53745 18.3576 7.97493C21.6699 9.11238 22.7907 10.529 22.7907 13.7163C22.7907 16.8204 20.8741 17.9995 18.4367 16.8245V16.8245ZM5.79979 22.2576C3.90821 21.7243 3.59156 20.6119 4.45402 19.9744C5.24982 19.3828 6.60809 18.9369 6.60809 18.9369L12.212 16.9454V19.2161L8.17886 20.6577C7.46639 20.9119 7.35806 21.2743 7.9372 21.466C8.51634 21.6577 9.56629 21.6035 10.2788 21.3452L12.212 20.641V22.6743C10.0621 23.0618 7.9872 22.9784 5.79979 22.2576V22.2576Z" fill="white"/>
<path d="M46.9423 18.3818V22H44.5766V11.4971H48.2826C50.9291 11.4971 52.2523 12.6128 52.2523 14.8442C52.2523 15.8989 51.8715 16.7534 51.1098 17.4077C50.3529 18.0571 49.3397 18.3818 48.0702 18.3818H46.9423ZM46.9423 13.3135V16.5874H47.8725C49.1322 16.5874 49.7621 16.0356 49.7621 14.9321C49.7621 13.853 49.1322 13.3135 47.8725 13.3135H46.9423ZM56.3215 22H54.007V10.8965H56.3215V22ZM64.69 22H62.5V20.9233H62.4707C61.9678 21.7632 61.2232 22.1831 60.2369 22.1831C59.5093 22.1831 58.9356 21.978 58.5157 21.5679C58.1006 21.1528 57.8931 20.6011 57.8931 19.9126C57.8931 18.4575 58.7549 17.6177 60.4786 17.3931L62.5147 17.1221C62.5147 16.3018 62.0704 15.8916 61.1817 15.8916C60.2881 15.8916 59.4385 16.1577 58.6329 16.6899V14.9468C58.9551 14.7808 59.3946 14.6343 59.9512 14.5073C60.5127 14.3804 61.023 14.3169 61.482 14.3169C63.6206 14.3169 64.69 15.3838 64.69 17.5176V22ZM62.5147 18.9531V18.4478L61.1524 18.6235C60.4004 18.7212 60.0245 19.0605 60.0245 19.6416C60.0245 19.9053 60.1148 20.1226 60.2954 20.2935C60.481 20.4595 60.73 20.5425 61.0425 20.5425C61.4771 20.5425 61.8311 20.3936 62.1045 20.0957C62.378 19.793 62.5147 19.4121 62.5147 18.9531ZM73.8421 14.5L70.7953 22.6006C70.0629 24.5488 68.9593 25.5229 67.4847 25.5229C66.9232 25.5229 66.4618 25.4595 66.1004 25.3325V23.4868C66.4081 23.6675 66.7425 23.7578 67.1039 23.7578C67.6996 23.7578 68.1146 23.4771 68.349 22.9155L68.7445 21.9854L65.6976 14.5H68.2611L69.66 19.063C69.7479 19.3462 69.8163 19.6807 69.8651 20.0664H69.8944C69.9383 19.7832 70.0189 19.4536 70.1361 19.0776L71.5497 14.5H73.8421ZM74.9596 21.5972V19.2534C75.3845 19.6099 75.8459 19.8784 76.3439 20.0591C76.842 20.2349 77.3449 20.3228 77.8527 20.3228C78.1506 20.3228 78.4094 20.2959 78.6291 20.2422C78.8537 20.1885 79.0392 20.1152 79.1857 20.0225C79.3371 19.9248 79.4494 19.8125 79.5226 19.6855C79.5959 19.5537 79.6325 19.4121 79.6325 19.2607C79.6325 19.0557 79.5739 18.8726 79.4567 18.7114C79.3395 18.5503 79.1784 18.4014 78.9733 18.2646C78.7731 18.1279 78.5339 17.9961 78.2555 17.8691C77.9772 17.7422 77.6769 17.6128 77.3547 17.481C76.5344 17.1392 75.9216 16.7217 75.5163 16.2285C75.1159 15.7354 74.9157 15.1396 74.9157 14.4414C74.9157 13.8945 75.0256 13.4258 75.2453 13.0352C75.465 12.6396 75.7629 12.3149 76.1388 12.061C76.5197 11.8071 76.9592 11.6216 77.4572 11.5044C77.9553 11.3823 78.4826 11.3213 79.0392 11.3213C79.5861 11.3213 80.0695 11.3555 80.4894 11.4238C80.9142 11.4873 81.3049 11.5874 81.6613 11.7241V13.9141C81.4855 13.792 81.2927 13.6846 81.0827 13.5918C80.8776 13.499 80.6652 13.4233 80.4455 13.3647C80.2258 13.3013 80.006 13.2549 79.7863 13.2256C79.5715 13.1963 79.3664 13.1816 79.1711 13.1816C78.9025 13.1816 78.6584 13.2085 78.4387 13.2622C78.2189 13.311 78.0334 13.3818 77.882 13.4746C77.7306 13.5674 77.6135 13.6797 77.5304 13.8115C77.4474 13.9385 77.4059 14.0825 77.4059 14.2437C77.4059 14.4194 77.4523 14.5781 77.5451 14.7197C77.6379 14.8564 77.7697 14.9883 77.9406 15.1152C78.1115 15.2373 78.319 15.3594 78.5632 15.4814C78.8073 15.5986 79.0832 15.7207 79.3908 15.8477C79.8107 16.0234 80.1867 16.2114 80.5187 16.4116C80.8556 16.6069 81.1437 16.8291 81.383 17.0781C81.6222 17.3271 81.8054 17.6128 81.9323 17.9351C82.0593 18.2524 82.1227 18.6235 82.1227 19.0483C82.1227 19.6343 82.0104 20.1274 81.7858 20.5278C81.5661 20.9233 81.2658 21.2456 80.8849 21.4946C80.5041 21.7388 80.0597 21.9146 79.5519 22.022C79.049 22.1294 78.5168 22.1831 77.9553 22.1831C77.3791 22.1831 76.8298 22.1343 76.3073 22.0366C75.7897 21.939 75.3405 21.7925 74.9596 21.5972ZM88.2207 21.9121C87.8789 22.0928 87.3638 22.1831 86.6753 22.1831C85.0444 22.1831 84.229 21.3359 84.229 19.6416V16.2065H83.0132V14.5H84.229V12.8813L86.5361 12.2222V14.5H88.2207V16.2065H86.5361V19.2388C86.5361 20.02 86.8462 20.4106 87.4663 20.4106C87.7104 20.4106 87.9619 20.3398 88.2207 20.1982V21.9121ZM95.952 22H93.762V20.9233H93.7327C93.2298 21.7632 92.4852 22.1831 91.4988 22.1831C90.7713 22.1831 90.1976 21.978 89.7777 21.5679C89.3626 21.1528 89.1551 20.6011 89.1551 19.9126C89.1551 18.4575 90.0169 17.6177 91.7405 17.3931L93.7767 17.1221C93.7767 16.3018 93.3323 15.8916 92.4437 15.8916C91.5501 15.8916 90.7005 16.1577 89.8948 16.6899V14.9468C90.2171 14.7808 90.6566 14.6343 91.2132 14.5073C91.7747 14.3804 92.285 14.3169 92.744 14.3169C94.8826 14.3169 95.952 15.3838 95.952 17.5176V22ZM93.7767 18.9531V18.4478L92.4144 18.6235C91.6624 18.7212 91.2864 19.0605 91.2864 19.6416C91.2864 19.9053 91.3768 20.1226 91.5574 20.2935C91.743 20.4595 91.992 20.5425 92.3045 20.5425C92.7391 20.5425 93.0931 20.3936 93.3665 20.0957C93.64 19.793 93.7767 19.4121 93.7767 18.9531ZM102.497 21.9121C102.155 22.0928 101.64 22.1831 100.951 22.1831C99.3204 22.1831 98.505 21.3359 98.505 19.6416V16.2065H97.2892V14.5H98.505V12.8813L100.812 12.2222V14.5H102.497V16.2065H100.812V19.2388C100.812 20.02 101.122 20.4106 101.742 20.4106C101.986 20.4106 102.238 20.3398 102.497 20.1982V21.9121ZM105.16 13.3135C104.769 13.3135 104.449 13.1987 104.2 12.9692C103.951 12.7349 103.827 12.4492 103.827 12.1123C103.827 11.7656 103.951 11.4824 104.2 11.2627C104.449 11.043 104.769 10.9331 105.16 10.9331C105.555 10.9331 105.875 11.043 106.119 11.2627C106.368 11.4824 106.493 11.7656 106.493 12.1123C106.493 12.4639 106.368 12.752 106.119 12.9766C105.875 13.2012 105.555 13.3135 105.16 13.3135ZM106.302 22H103.988V14.5H106.302V22ZM112.005 22.1831C110.755 22.1831 109.771 21.834 109.053 21.1357C108.34 20.4326 107.984 19.4805 107.984 18.2793C107.984 17.0391 108.355 16.0698 109.097 15.3716C109.839 14.6685 110.843 14.3169 112.107 14.3169C113.352 14.3169 114.329 14.6685 115.037 15.3716C115.745 16.0698 116.099 16.9951 116.099 18.1475C116.099 19.3926 115.733 20.3765 115 21.0991C114.273 21.8218 113.274 22.1831 112.005 22.1831ZM112.063 16.0894C111.516 16.0894 111.092 16.2773 110.789 16.6533C110.486 17.0293 110.335 17.5615 110.335 18.25C110.335 19.6904 110.916 20.4106 112.078 20.4106C113.186 20.4106 113.741 19.6709 113.741 18.1914C113.741 16.79 113.181 16.0894 112.063 16.0894ZM125.024 22H122.717V17.8325C122.717 16.6704 122.302 16.0894 121.472 16.0894C121.071 16.0894 120.742 16.2432 120.483 16.5508C120.224 16.8584 120.095 17.249 120.095 17.7227V22H117.78V14.5H120.095V15.6865H120.124C120.676 14.7734 121.479 14.3169 122.534 14.3169C124.194 14.3169 125.024 15.3472 125.024 17.4077V22Z" fill="white"/>
<path d="M133 0H5C2.23858 0 0 2.23858 0 5V27C0 29.7614 2.23857 32 5 32H133C135.761 32 138 29.7614 138 27V5C138 2.23858 135.761 0 133 0Z" fill="url(#paint0_linear)"/>
<defs>
<linearGradient id="paint0_linear" x1="0" y1="0" x2="0" y2="32" gradientUnits="userSpaceOnUse">
<stop stop-color="#BBBBBB" stop-opacity="0.1"/>
<stop offset="1" stop-opacity="0.1"/>
</linearGradient>
</defs>
</svg>
