<svg width="148" height="32" viewBox="0 0 148 32" fill="none" xmlns="http://www.w3.org/2000/svg">
<path d="M143 0H31V32H143C145.761 32 148 29.7614 148 27V5C148 2.23858 145.761 0 143 0Z" fill="#0F1418"/>
<path d="M31 0H5C2.23858 0 0 2.23858 0 5V27C0 29.7614 2.23858 32 5 32H31V0Z" fill="#FF0050"/>
<path d="M24.4328 14.902L24.2594 14.5974C24.2641 12.423 23.2565 11.5373 22.0803 10.8625C22.4364 10.7688 22.802 10.6938 22.9051 10.2439C23.519 10.0893 23.6455 9.80343 23.7064 9.50351C23.8657 9.39572 24.4 9.09581 24.3437 8.58032C24.6437 8.37413 24.8124 8.10702 24.7233 7.73212C25.0467 7.38065 25.131 7.09011 24.9951 6.82299C25.3841 6.34031 25.2107 6.09194 25.0467 5.84357C25.3372 5.31872 25.0795 4.75637 24.2688 4.8501C23.9454 4.37679 23.2425 4.48457 23.1347 4.48457C23.0128 4.33461 22.8535 4.2034 22.3615 4.26432C22.0428 3.97846 21.6866 4.03001 21.3164 4.16591C20.8806 3.82381 20.5901 4.1003 20.2574 4.2034C19.7278 4.03469 19.606 4.26432 19.3482 4.36273C18.7718 4.24089 18.5937 4.50332 18.3173 4.7798L17.9939 4.77512C17.1223 5.28123 16.6911 6.31219 16.5365 6.84174C16.3819 6.31219 15.9507 5.28123 15.0791 4.77512L14.7557 4.7798C14.4792 4.50332 14.3012 4.24089 13.7248 4.36273C13.4623 4.26901 13.3452 4.03469 12.8156 4.2034C12.6001 4.13779 12.3986 3.9972 12.1643 4.00189C12.0424 4.00658 11.9065 4.04875 11.7566 4.16591C11.3863 4.02532 11.0302 3.97846 10.7115 4.26432C10.2195 4.2034 10.0555 4.32993 9.93831 4.48457C9.83052 4.48457 9.12759 4.37679 8.80424 4.8501C7.99353 4.75637 7.74047 5.31872 8.03102 5.84357C7.867 6.09663 7.69361 6.345 8.08256 6.82299C7.94666 7.09011 8.03102 7.38065 8.35437 7.73212C8.27001 8.10702 8.43872 8.37413 8.73395 8.58032C8.67771 9.09581 9.21194 9.39572 9.37127 9.50351C9.43219 9.80343 9.55872 10.0846 10.1726 10.2439C10.2757 10.6891 10.6412 10.7688 10.9974 10.8625C9.82115 11.5373 8.81361 12.423 8.8183 14.5974L8.64491 14.902C7.29528 15.7081 6.08155 18.3089 7.97947 20.4177C8.10131 21.0785 8.31219 21.5518 8.49495 22.0766C8.77144 24.1948 10.5803 25.1836 11.0536 25.3007C11.7519 25.8256 12.497 26.3223 13.4998 26.6691C14.4511 27.6345 15.4821 28 16.5131 28H16.5599C17.5956 28 18.6219 27.6345 19.5685 26.6691C20.576 26.3223 21.3164 25.8256 22.0147 25.3007C22.4927 25.1836 24.2969 24.1948 24.5734 22.0766C24.7561 21.5518 24.967 21.0785 25.0888 20.4177C26.9914 18.3042 25.7777 15.7081 24.4328 14.902V14.902ZM23.3924 14.5271C23.3221 15.4035 18.7578 11.4764 19.545 11.3452C21.6866 10.9937 23.4627 12.2449 23.3924 14.5271V14.5271ZM21.3774 18.89C20.2292 19.6304 18.575 19.1524 17.6846 17.8215C16.7942 16.4907 17.0004 14.813 18.1486 14.0726C19.2967 13.3321 20.9509 13.8101 21.8413 15.141C22.7317 16.4719 22.5255 18.1496 21.3774 18.89ZM18.1954 5.37964C18.2329 5.57646 18.2798 5.6983 18.3313 5.73579C18.5844 5.46399 18.7906 5.1875 19.1186 4.92508C19.1186 5.07972 19.0389 5.24374 19.2358 5.36558C19.4091 5.13127 19.6481 4.92039 19.9621 4.74231C19.8122 5.00474 19.934 5.08441 20.0184 5.19219C20.2574 4.986 20.487 4.7798 20.9275 4.61578C20.8056 4.76106 20.6369 4.90633 20.815 5.07503C21.0634 4.92039 21.3118 4.76574 21.8975 4.65796C21.7663 4.80323 21.4898 4.95319 21.6585 5.09847C21.9678 4.98131 22.3146 4.89227 22.6942 4.84541C22.5114 4.99537 22.3615 5.14064 22.5114 5.2578C22.8441 5.1547 23.3034 5.0188 23.7486 5.13595L23.4674 5.42181C23.4346 5.4593 24.1282 5.44993 24.5874 5.4593C24.4187 5.69361 24.25 5.91387 24.1516 6.3122C24.1985 6.35906 24.4234 6.33094 24.639 6.3122C24.4187 6.77613 24.0391 6.8886 23.9501 7.09011C24.086 7.1932 24.2688 7.16509 24.4749 7.09479C24.3156 7.41814 23.9876 7.64308 23.7252 7.90551C23.7908 7.95237 23.9079 7.98049 24.1797 7.94768C23.936 8.20543 23.6455 8.43974 23.2987 8.65062C23.3596 8.72091 23.5705 8.72091 23.7673 8.7256C23.4534 9.0302 23.0503 9.18953 22.6708 9.39104C22.8582 9.51757 22.9941 9.48945 23.1394 9.48945C22.8723 9.7097 22.4177 9.82217 21.9959 9.95807C22.0756 10.0846 22.1553 10.1174 22.3287 10.1502C21.8835 10.3986 21.2415 10.2861 21.0634 10.4126C21.1056 10.5392 21.2321 10.6188 21.3774 10.6844C20.6557 10.7266 18.6922 10.6563 18.3126 9.17079C19.0483 8.36007 20.3933 7.41346 22.7036 6.23722C20.9041 6.83705 19.2826 7.64308 17.9236 8.74434C16.3162 7.99923 17.4175 6.12475 18.1954 5.37964V5.37964ZM16.5834 10.75C17.7174 10.736 19.1186 11.5842 19.1139 12.3762C19.1092 13.0791 18.1298 13.6461 16.5927 13.6368C15.0885 13.618 14.0762 12.9244 14.0809 12.2403C14.0809 11.6826 15.3087 10.7172 16.5834 10.75ZM10.8193 10.1502C10.9927 10.1174 11.0724 10.0799 11.152 9.95807C10.7303 9.82686 10.2757 9.7097 10.0086 9.48945C10.1539 9.48945 10.2898 9.52225 10.4772 9.39104C10.0976 9.18953 9.69462 9.0302 9.38065 8.7256C9.57747 8.72091 9.78835 8.7256 9.84927 8.65062C9.50249 8.43974 9.21194 8.20543 8.96826 7.94768C9.24006 7.98049 9.35722 7.95237 9.42282 7.90551C9.16039 7.64308 8.82767 7.41814 8.67303 7.09479C8.87454 7.16509 9.06198 7.18852 9.19788 7.09011C9.10885 6.89329 8.72926 6.77613 8.50901 6.3122C8.72458 6.33094 8.94951 6.35906 8.99638 6.3122C8.89797 5.91387 8.72458 5.68893 8.56056 5.4593C9.01981 5.45462 9.71337 5.4593 9.68056 5.42181L9.39939 5.13595C9.84458 5.0188 10.3038 5.1547 10.6366 5.2578C10.7865 5.14064 10.6319 4.99537 10.4538 4.84541C10.8334 4.89696 11.1755 4.98131 11.4894 5.09847C11.6535 4.95319 11.3817 4.80323 11.2504 4.65796C11.8362 4.76574 12.0846 4.92039 12.333 5.07503C12.511 4.90633 12.3423 4.76106 12.2205 4.61578C12.661 4.77512 12.8906 4.986 13.1296 5.19219C13.2093 5.08441 13.3358 5.00474 13.1859 4.74231C13.4998 4.92039 13.7388 5.13127 13.9122 5.36558C14.1044 5.24374 14.0294 5.07503 14.0294 4.92508C14.3574 5.1875 14.5636 5.46399 14.8167 5.73579C14.8682 5.6983 14.9104 5.57646 14.9526 5.37964C15.7305 6.12475 16.8317 7.99923 15.2337 8.74434C13.8747 7.64308 12.2533 6.83705 10.4538 6.23722C12.7641 7.40877 14.109 8.36007 14.8448 9.17079C14.4699 10.661 12.5017 10.7266 11.78 10.6844C11.9253 10.6188 12.0518 10.5345 12.094 10.4126C11.9065 10.2814 11.2692 10.3939 10.8193 10.1502V10.1502ZM13.6357 11.2796C14.423 11.4108 9.85864 15.3332 9.78835 14.4615C9.71805 12.1793 11.4988 10.9234 13.6357 11.2796ZM8.79018 20.0334C7.67955 19.1524 7.3234 16.5797 9.38065 15.4269C10.6225 15.0988 9.80241 20.4786 8.79018 20.0334ZM13.0546 24.6353C12.4314 25.0055 10.9084 24.8555 9.83052 23.3278C9.10416 22.0438 9.19788 20.7411 9.70868 20.3568C10.4725 19.8975 11.6535 20.5161 12.5626 21.5565C13.3546 22.4937 13.7154 24.1479 13.0546 24.6353V24.6353ZM11.8175 19.0259C10.6694 18.2855 10.4632 16.6078 11.3535 15.2769C12.2439 13.946 13.8982 13.468 15.0463 14.2085C16.1944 14.9489 16.4006 16.6266 15.5102 17.9574C14.6151 19.2883 12.9609 19.7663 11.8175 19.0259V19.0259ZM16.6068 27.2502C15.229 27.3064 13.8794 26.1396 13.8982 25.7366C13.8794 25.1414 15.5758 24.6775 16.6771 24.7056C17.7877 24.6587 19.2826 25.0571 19.2873 25.5913C19.3107 26.1068 17.9377 27.2736 16.6068 27.2502V27.2502ZM19.367 21.3971C19.3763 22.7889 18.1392 23.9183 16.6115 23.9277C15.0838 23.9371 13.8372 22.8124 13.8279 21.4252V21.3971C13.8185 20.0053 15.0557 18.8759 16.5834 18.8666C18.1111 18.8572 19.3576 19.9819 19.367 21.369V21.3971V21.3971ZM23.219 23.3981C22.0334 25.0196 20.4261 25.0805 19.8309 24.6306C19.2076 24.0495 19.6809 22.2453 20.5385 21.2565C21.5179 20.1646 22.5677 19.4523 23.2987 20.01C23.7908 20.4927 24.0813 22.3109 23.219 23.3981ZM24.2922 19.9678C23.2846 20.4083 22.4646 15.0332 23.7017 15.3613C25.759 16.5188 25.4028 19.0915 24.2922 19.9678Z" fill="white"/>
<path d="M53.5369 22H50.8196L49.1863 19.2974C49.0642 19.0923 48.947 18.9092 48.8347 18.748C48.7224 18.5869 48.6077 18.4502 48.4905 18.3379C48.3782 18.2207 48.2585 18.1328 48.1316 18.0742C48.0095 18.0107 47.8752 17.979 47.7287 17.979H47.0915V22H44.7258V11.4971H48.4758C51.0246 11.4971 52.2991 12.4492 52.2991 14.3535C52.2991 14.7197 52.2429 15.0591 52.1306 15.3716C52.0183 15.6792 51.8596 15.9575 51.6545 16.2065C51.4495 16.4556 51.2004 16.6704 50.9075 16.8511C50.6194 17.0317 50.2971 17.1733 49.9407 17.2759V17.3052C50.0969 17.354 50.2483 17.4346 50.3948 17.5469C50.5412 17.6543 50.6828 17.7812 50.8196 17.9277C50.9563 18.0742 51.0857 18.2329 51.2078 18.4038C51.3347 18.5698 51.4495 18.7334 51.552 18.8945L53.5369 22ZM47.0915 13.2695V16.1919H48.1169C48.6247 16.1919 49.0325 16.0454 49.3401 15.7524C49.6526 15.4546 49.8088 15.0859 49.8088 14.6465C49.8088 13.7285 49.2595 13.2695 48.1609 13.2695H47.0915ZM60.9825 22H58.7925V20.9233H58.7632C58.2603 21.7632 57.5157 22.1831 56.5294 22.1831C55.8018 22.1831 55.2281 21.978 54.8082 21.5679C54.3931 21.1528 54.1856 20.6011 54.1856 19.9126C54.1856 18.4575 55.0474 17.6177 56.7711 17.3931L58.8072 17.1221C58.8072 16.3018 58.3629 15.8916 57.4742 15.8916C56.5806 15.8916 55.731 16.1577 54.9254 16.6899V14.9468C55.2476 14.7808 55.6871 14.6343 56.2437 14.5073C56.8052 14.3804 57.3155 14.3169 57.7745 14.3169C59.9131 14.3169 60.9825 15.3838 60.9825 17.5176V22ZM58.8072 18.9531V18.4478L57.4449 18.6235C56.6929 18.7212 56.317 19.0605 56.317 19.6416C56.317 19.9053 56.4073 20.1226 56.5879 20.2935C56.7735 20.4595 57.0225 20.5425 57.335 20.5425C57.7696 20.5425 58.1236 20.3936 58.397 20.0957C58.6705 19.793 58.8072 19.4121 58.8072 18.9531ZM62.5028 21.8022V19.9272C62.8837 20.1567 63.2621 20.3276 63.6381 20.4399C64.0189 20.5522 64.3778 20.6084 64.7147 20.6084C65.1249 20.6084 65.4471 20.5522 65.6815 20.4399C65.9208 20.3276 66.0404 20.1567 66.0404 19.9272C66.0404 19.7808 65.9867 19.6587 65.8793 19.561C65.7719 19.4634 65.6327 19.3779 65.4618 19.3047C65.2958 19.2314 65.1127 19.1655 64.9125 19.1069C64.7123 19.0483 64.5194 18.9824 64.3339 18.9092C64.036 18.7969 63.7723 18.6772 63.5429 18.5503C63.3182 18.4185 63.1278 18.2671 62.9716 18.0962C62.8202 17.9253 62.703 17.7275 62.62 17.5029C62.5419 17.2783 62.5028 17.0122 62.5028 16.7046C62.5028 16.2847 62.5931 15.9233 62.7738 15.6206C62.9594 15.3179 63.2035 15.0713 63.5062 14.8809C63.8138 14.6855 64.163 14.5439 64.5536 14.4561C64.9491 14.3633 65.3593 14.3169 65.7841 14.3169C66.1161 14.3169 66.453 14.3438 66.7948 14.3975C67.1366 14.4463 67.4735 14.5195 67.8055 14.6172V16.4043C67.5126 16.2334 67.1976 16.1064 66.8607 16.0234C66.5287 15.9355 66.2015 15.8916 65.8793 15.8916C65.7279 15.8916 65.5839 15.9062 65.4471 15.9355C65.3153 15.96 65.1981 15.999 65.0956 16.0527C64.993 16.1016 64.9125 16.1675 64.8539 16.2505C64.7953 16.3286 64.766 16.4189 64.766 16.5215C64.766 16.6582 64.8099 16.7754 64.8978 16.873C64.9857 16.9707 65.1005 17.0562 65.2421 17.1294C65.3837 17.1978 65.5399 17.2612 65.7108 17.3198C65.8866 17.3735 66.0599 17.4297 66.2308 17.4883C66.5385 17.5957 66.8168 17.7129 67.0658 17.8398C67.3148 17.9668 67.5272 18.1157 67.703 18.2866C67.8837 18.4575 68.0204 18.6577 68.1132 18.8872C68.2108 19.1167 68.2596 19.3901 68.2596 19.7075C68.2596 20.1519 68.162 20.5327 67.9667 20.8501C67.7762 21.1626 67.5199 21.4189 67.1976 21.6191C66.8803 21.8145 66.5116 21.9561 66.0917 22.0439C65.6766 22.1367 65.2445 22.1831 64.7953 22.1831C63.9701 22.1831 63.2059 22.0562 62.5028 21.8022ZM72.1237 21.1284H72.0944V25.4497H69.78V14.5H72.0944V15.6279H72.1237C72.695 14.7539 73.4982 14.3169 74.5334 14.3169C75.5051 14.3169 76.2546 14.6514 76.7819 15.3203C77.3142 15.9844 77.5803 16.8901 77.5803 18.0376C77.5803 19.2876 77.2702 20.291 76.6501 21.0479C76.0349 21.8047 75.2146 22.1831 74.1892 22.1831C73.2858 22.1831 72.5974 21.8315 72.1237 21.1284ZM72.0578 18.0522V18.6528C72.0578 19.1704 72.1945 19.5928 72.468 19.9199C72.7414 20.2471 73.1003 20.4106 73.5446 20.4106C74.072 20.4106 74.4797 20.208 74.7678 19.8027C75.0607 19.3926 75.2072 18.814 75.2072 18.0669C75.2072 16.7485 74.6945 16.0894 73.6691 16.0894C73.1955 16.0894 72.8073 16.27 72.5046 16.6313C72.2067 16.9878 72.0578 17.4614 72.0578 18.0522ZM81.6055 21.1284H81.5762V22H79.2617V10.8965H81.5762V15.6279H81.6055C82.1768 14.7539 82.9898 14.3169 84.0445 14.3169C85.0112 14.3169 85.7559 14.6489 86.2783 15.313C86.8008 15.9771 87.062 16.8853 87.062 18.0376C87.062 19.2876 86.7569 20.291 86.1465 21.0479C85.5362 21.8047 84.7207 22.1831 83.7002 22.1831C82.7774 22.1831 82.0791 21.8315 81.6055 21.1284ZM81.5396 17.9644V18.7334C81.5396 19.2168 81.6787 19.6172 81.9571 19.9346C82.2354 20.252 82.5918 20.4106 83.0264 20.4106C83.5537 20.4106 83.9614 20.208 84.2495 19.8027C84.5425 19.3926 84.689 18.814 84.689 18.0669C84.689 17.4468 84.5547 16.9634 84.2862 16.6167C84.0225 16.2651 83.6441 16.0894 83.1509 16.0894C82.687 16.0894 82.3013 16.2627 81.9937 16.6094C81.6909 16.9561 81.5396 17.4077 81.5396 17.9644ZM95.4818 18.9092H90.5892C90.6673 19.998 91.3534 20.5425 92.6473 20.5425C93.4725 20.5425 94.1976 20.3472 94.8226 19.9565V21.6265C94.1292 21.9976 93.2284 22.1831 92.12 22.1831C90.909 22.1831 89.9691 21.8486 89.3001 21.1797C88.6312 20.5059 88.2967 19.5684 88.2967 18.3672C88.2967 17.1221 88.658 16.1357 89.3807 15.4082C90.1034 14.6807 90.992 14.3169 92.0467 14.3169C93.1405 14.3169 93.9852 14.6416 94.5809 15.291C95.1815 15.9404 95.4818 16.8218 95.4818 17.9351V18.9092ZM93.3358 17.4883C93.3358 16.4141 92.9012 15.877 92.0321 15.877C91.661 15.877 91.3387 16.0308 91.0653 16.3384C90.7967 16.646 90.6331 17.0293 90.5746 17.4883H93.3358ZM101.931 16.5874C101.653 16.436 101.328 16.3604 100.957 16.3604C100.454 16.3604 100.061 16.5459 99.778 16.917C99.4948 17.2832 99.3532 17.7837 99.3532 18.4185V22H97.0387V14.5H99.3532V15.8916H99.3825C99.7487 14.876 100.408 14.3682 101.36 14.3682C101.604 14.3682 101.795 14.3975 101.931 14.4561V16.5874ZM108.088 16.5874C107.81 16.436 107.485 16.3604 107.114 16.3604C106.611 16.3604 106.218 16.5459 105.935 16.917C105.651 17.2832 105.51 17.7837 105.51 18.4185V22H103.195V14.5H105.51V15.8916H105.539C105.905 14.876 106.564 14.3682 107.517 14.3682C107.761 14.3682 107.951 14.3975 108.088 14.4561V16.5874ZM117.094 14.5L114.047 22.6006C113.314 24.5488 112.211 25.5229 110.736 25.5229C110.175 25.5229 109.713 25.4595 109.352 25.3325V23.4868C109.659 23.6675 109.994 23.7578 110.355 23.7578C110.951 23.7578 111.366 23.4771 111.6 22.9155L111.996 21.9854L108.949 14.5H111.512L112.911 19.063C112.999 19.3462 113.068 19.6807 113.117 20.0664H113.146C113.19 19.7832 113.27 19.4536 113.387 19.0776L114.801 14.5H117.094ZM125.386 18.3818V22H123.02V11.4971H126.726C129.372 11.4971 130.696 12.6128 130.696 14.8442C130.696 15.8989 130.315 16.7534 129.553 17.4077C128.796 18.0571 127.783 18.3818 126.514 18.3818H125.386ZM125.386 13.3135V16.5874H126.316C127.576 16.5874 128.206 16.0356 128.206 14.9321C128.206 13.853 127.576 13.3135 126.316 13.3135H125.386ZM133.622 13.3135C133.232 13.3135 132.912 13.1987 132.663 12.9692C132.414 12.7349 132.289 12.4492 132.289 12.1123C132.289 11.7656 132.414 11.4824 132.663 11.2627C132.912 11.043 133.232 10.9331 133.622 10.9331C134.018 10.9331 134.338 11.043 134.582 11.2627C134.831 11.4824 134.955 11.7656 134.955 12.1123C134.955 12.4639 134.831 12.752 134.582 12.9766C134.338 13.2012 134.018 13.3135 133.622 13.3135ZM134.765 22H132.45V14.5H134.765V22Z" fill="white"/>
<path d="M143 0H5C2.23858 0 0 2.23858 0 5V27C0 29.7614 2.23858 32 5 32H143C145.761 32 148 29.7614 148 27V5C148 2.23858 145.761 0 143 0Z" fill="url(#paint0_linear)"/>
<defs>
<linearGradient id="paint0_linear" x1="0" y1="0" x2="0" y2="32" gradientUnits="userSpaceOnUse">
<stop stop-color="#BBBBBB" stop-opacity="0.1"/>
<stop offset="1" stop-opacity="0.1"/>
</linearGradient>
</defs>
</svg>
