<svg width="131" height="32" viewBox="0 0 131 32" fill="none" xmlns="http://www.w3.org/2000/svg">
<path d="M126 0H31V32H126C128.761 32 131 29.7614 131 27V5C131 2.23858 128.761 0 126 0Z" fill="#0F1418"/>
<path d="M31 0H5C2.23858 0 0 2.23858 0 5V27C0 29.7614 2.23858 32 5 32H31V0Z" fill="#F63462"/>
<path d="M9 26.5C9 27.3283 9.67172 28 10.5 28H19.5C20.3283 28 21 27.3283 21 26.5V25.75H9V26.5ZM21 5.5C21 4.67172 20.3283 4 19.5 4H10.5C9.67172 4 9 4.67172 9 5.5V6.25H21V5.5ZM21 7.75H9C7.34297 7.75 6 9.09297 6 10.75V21.25C6 22.907 7.34297 24.25 9 24.25H21C22.657 24.25 24 22.907 24 21.25V10.75C24 9.09297 22.657 7.75 21 7.75ZM19.433 16.2911L15.4641 20.3055C15.4035 20.367 15.3312 20.4159 15.2516 20.4493C15.1719 20.4827 15.0864 20.4999 15 20.4999C14.9136 20.4999 14.8281 20.4827 14.7484 20.4493C14.6688 20.4159 14.5965 20.367 14.5359 20.3055L10.567 16.2911C9.41391 15.1248 9.48141 13.1913 10.77 12.1155C11.8931 11.177 13.5661 11.3458 14.5959 12.3878L15 12.7966L15.4041 12.3878C16.4339 11.3458 18.1069 11.1775 19.23 12.1155C20.5186 13.1917 20.5861 15.1253 19.433 16.2911Z" fill="white"/>
<path d="M58.6296 11.4971L55.8537 22H53.2317L51.4885 15.2617C51.3957 14.9102 51.3396 14.5171 51.32 14.0825H51.2907C51.2468 14.561 51.1833 14.9541 51.1003 15.2617L49.3132 22H46.5813L43.82 11.4971H46.4055L47.885 18.4917C47.9485 18.7896 47.9948 19.1899 48.0241 19.6929H48.0681C48.0876 19.3169 48.1584 18.9067 48.2805 18.4624L50.1848 11.4971H52.719L54.4402 18.5503C54.5036 18.8091 54.5598 19.1851 54.6086 19.6782H54.6379C54.6574 19.2925 54.7087 18.9019 54.7917 18.5063L56.2419 11.4971H58.6296ZM66.5074 18.9092H61.6148C61.6929 19.998 62.3789 20.5425 63.6729 20.5425C64.4981 20.5425 65.2232 20.3472 65.8482 19.9565V21.6265C65.1548 21.9976 64.2539 22.1831 63.1455 22.1831C61.9346 22.1831 60.9947 21.8486 60.3257 21.1797C59.6568 20.5059 59.3223 19.5684 59.3223 18.3672C59.3223 17.1221 59.6836 16.1357 60.4063 15.4082C61.1289 14.6807 62.0176 14.3169 63.0723 14.3169C64.1661 14.3169 65.0108 14.6416 65.6065 15.291C66.2071 15.9404 66.5074 16.8218 66.5074 17.9351V18.9092ZM64.3614 17.4883C64.3614 16.4141 63.9268 15.877 63.0577 15.877C62.6866 15.877 62.3643 16.0308 62.0909 16.3384C61.8223 16.646 61.6587 17.0293 61.6001 17.4883H64.3614ZM74.3046 22H72.1146V20.9233H72.0853C71.5824 21.7632 70.8378 22.1831 69.8514 22.1831C69.1239 22.1831 68.5502 21.978 68.1302 21.5679C67.7152 21.1528 67.5077 20.6011 67.5077 19.9126C67.5077 18.4575 68.3695 17.6177 70.0931 17.3931L72.1293 17.1221C72.1293 16.3018 71.6849 15.8916 70.7962 15.8916C69.9027 15.8916 69.0531 16.1577 68.2474 16.6899V14.9468C68.5697 14.7808 69.0091 14.6343 69.5658 14.5073C70.1273 14.3804 70.6376 14.3169 71.0965 14.3169C73.2352 14.3169 74.3046 15.3838 74.3046 17.5176V22ZM72.1293 18.9531V18.4478L70.767 18.6235C70.015 18.7212 69.639 19.0605 69.639 19.6416C69.639 19.9053 69.7294 20.1226 69.91 20.2935C70.0956 20.4595 70.3446 20.5425 70.6571 20.5425C71.0917 20.5425 71.4457 20.3936 71.7191 20.0957C71.9925 19.793 72.1293 19.4121 72.1293 18.9531ZM81.2082 16.5874C80.9299 16.436 80.6052 16.3604 80.2341 16.3604C79.7311 16.3604 79.3381 16.5459 79.0549 16.917C78.7717 17.2832 78.6301 17.7837 78.6301 18.4185V22H76.3156V14.5H78.6301V15.8916H78.6594C79.0256 14.876 79.6847 14.3682 80.6369 14.3682C80.881 14.3682 81.0715 14.3975 81.2082 14.4561V16.5874ZM88.7124 22H86.5225V20.9233H86.4932C85.9902 21.7632 85.2456 22.1831 84.2593 22.1831C83.5317 22.1831 82.958 21.978 82.5381 21.5679C82.123 21.1528 81.9155 20.6011 81.9155 19.9126C81.9155 18.4575 82.7773 17.6177 84.501 17.3931L86.5371 17.1221C86.5371 16.3018 86.0928 15.8916 85.2041 15.8916C84.3105 15.8916 83.4609 16.1577 82.6553 16.6899V14.9468C82.9775 14.7808 83.417 14.6343 83.9736 14.5073C84.5352 14.3804 85.0454 14.3169 85.5044 14.3169C87.6431 14.3169 88.7124 15.3838 88.7124 17.5176V22ZM86.5371 18.9531V18.4478L85.1748 18.6235C84.4229 18.7212 84.0469 19.0605 84.0469 19.6416C84.0469 19.9053 84.1372 20.1226 84.3179 20.2935C84.5034 20.4595 84.7524 20.5425 85.0649 20.5425C85.4995 20.5425 85.8535 20.3936 86.127 20.0957C86.4004 19.793 86.5371 19.4121 86.5371 18.9531ZM93.0672 21.1284H93.0379V22H90.7235V10.8965H93.0379V15.6279H93.0672C93.6385 14.7539 94.4515 14.3169 95.5062 14.3169C96.473 14.3169 97.2176 14.6489 97.7401 15.313C98.2625 15.9771 98.5238 16.8853 98.5238 18.0376C98.5238 19.2876 98.2186 20.291 97.6082 21.0479C96.9979 21.8047 96.1824 22.1831 95.1619 22.1831C94.2391 22.1831 93.5408 21.8315 93.0672 21.1284ZM93.0013 17.9644V18.7334C93.0013 19.2168 93.1404 19.6172 93.4188 19.9346C93.6971 20.252 94.0535 20.4106 94.4881 20.4106C95.0154 20.4106 95.4232 20.208 95.7113 19.8027C96.0042 19.3926 96.1507 18.814 96.1507 18.0669C96.1507 17.4468 96.0164 16.9634 95.7479 16.6167C95.4842 16.2651 95.1058 16.0894 94.6126 16.0894C94.1488 16.0894 93.763 16.2627 93.4554 16.6094C93.1527 16.9561 93.0013 17.4077 93.0013 17.9644ZM102.52 22H100.205V10.8965H102.52V22ZM111.386 18.9092H106.494C106.572 19.998 107.258 20.5425 108.552 20.5425C109.377 20.5425 110.102 20.3472 110.727 19.9565V21.6265C110.034 21.9976 109.133 22.1831 108.024 22.1831C106.813 22.1831 105.873 21.8486 105.205 21.1797C104.536 20.5059 104.201 19.5684 104.201 18.3672C104.201 17.1221 104.562 16.1357 105.285 15.4082C106.008 14.6807 106.896 14.3169 107.951 14.3169C109.045 14.3169 109.89 14.6416 110.485 15.291C111.086 15.9404 111.386 16.8218 111.386 17.9351V18.9092ZM109.24 17.4883C109.24 16.4141 108.806 15.877 107.936 15.877C107.565 15.877 107.243 16.0308 106.97 16.3384C106.701 16.646 106.538 17.0293 106.479 17.4883H109.24ZM112.452 21.8022V19.9272C112.833 20.1567 113.212 20.3276 113.588 20.4399C113.969 20.5522 114.327 20.6084 114.664 20.6084C115.074 20.6084 115.397 20.5522 115.631 20.4399C115.87 20.3276 115.99 20.1567 115.99 19.9272C115.99 19.7808 115.936 19.6587 115.829 19.561C115.721 19.4634 115.582 19.3779 115.411 19.3047C115.245 19.2314 115.062 19.1655 114.862 19.1069C114.662 19.0483 114.469 18.9824 114.283 18.9092C113.986 18.7969 113.722 18.6772 113.492 18.5503C113.268 18.4185 113.077 18.2671 112.921 18.0962C112.77 17.9253 112.653 17.7275 112.57 17.5029C112.491 17.2783 112.452 17.0122 112.452 16.7046C112.452 16.2847 112.543 15.9233 112.723 15.6206C112.909 15.3179 113.153 15.0713 113.456 14.8809C113.763 14.6855 114.113 14.5439 114.503 14.4561C114.899 14.3633 115.309 14.3169 115.734 14.3169C116.066 14.3169 116.403 14.3438 116.744 14.3975C117.086 14.4463 117.423 14.5195 117.755 14.6172V16.4043C117.462 16.2334 117.147 16.1064 116.81 16.0234C116.478 15.9355 116.151 15.8916 115.829 15.8916C115.678 15.8916 115.533 15.9062 115.397 15.9355C115.265 15.96 115.148 15.999 115.045 16.0527C114.943 16.1016 114.862 16.1675 114.803 16.2505C114.745 16.3286 114.716 16.4189 114.716 16.5215C114.716 16.6582 114.76 16.7754 114.847 16.873C114.935 16.9707 115.05 17.0562 115.192 17.1294C115.333 17.1978 115.49 17.2612 115.66 17.3198C115.836 17.3735 116.01 17.4297 116.18 17.4883C116.488 17.5957 116.766 17.7129 117.015 17.8398C117.264 17.9668 117.477 18.1157 117.653 18.2866C117.833 18.4575 117.97 18.6577 118.063 18.8872C118.16 19.1167 118.209 19.3901 118.209 19.7075C118.209 20.1519 118.112 20.5327 117.916 20.8501C117.726 21.1626 117.47 21.4189 117.147 21.6191C116.83 21.8145 116.461 21.9561 116.041 22.0439C115.626 22.1367 115.194 22.1831 114.745 22.1831C113.92 22.1831 113.156 22.0562 112.452 21.8022Z" fill="white"/>
<path d="M126 0H5C2.23858 0 0 2.23858 0 5V27C0 29.7614 2.23858 32 5 32H126C128.761 32 131 29.7614 131 27V5C131 2.23858 128.761 0 126 0Z" fill="url(#paint0_linear)"/>
<defs>
<linearGradient id="paint0_linear" x1="0" y1="0" x2="0" y2="32" gradientUnits="userSpaceOnUse">
<stop stop-color="#BBBBBB" stop-opacity="0.1"/>
<stop offset="1" stop-opacity="0.1"/>
</linearGradient>
</defs>
</svg>
