<svg width="93" height="32" viewBox="0 0 93 32" fill="none" xmlns="http://www.w3.org/2000/svg">
<path d="M88 0H31V32H88C90.7614 32 93 29.7614 93 27V5C93 2.23858 90.7614 0 88 0Z" fill="#0F1418"/>
<path d="M31 0H5C2.23858 0 0 2.23858 0 5V27C0 29.7614 2.23858 32 5 32H31V0Z" fill="#107C0D"/>
<path d="M20.8833 19.3821C23.0264 22.009 24.0134 24.1619 23.5151 25.1247C23.1329 25.8552 20.772 27.2824 19.0352 27.829C17.6032 28.279 15.7261 28.4725 14.1779 28.3225C12.3299 28.1435 10.4576 27.4807 8.85141 26.4357C7.50164 25.5552 7.19685 25.1924 7.19685 24.4715C7.19685 23.025 8.78852 20.4899 11.5123 17.5969C13.0604 15.9568 15.2132 14.0314 15.4503 14.0846C15.9051 14.1862 19.5286 17.7178 20.8833 19.3821V19.3821ZM12.1122 10.9448C10.6753 9.64339 9.30134 8.33715 7.93221 7.87755C7.19685 7.63082 7.14363 7.64533 6.54373 8.26942C5.13107 9.74014 3.95546 12.1252 3.62648 14.191C3.36524 15.8456 3.33137 16.31 3.42329 17.1179C3.69421 19.5611 4.26025 21.2495 5.38264 22.967C5.84224 23.6733 5.96803 23.8039 5.83256 23.4459C5.62937 22.9137 5.81805 21.6317 6.29216 20.3497C6.98398 18.4629 8.89979 14.8877 12.1122 10.9448V10.9448ZM27.187 14.0168C26.3694 10.1465 23.9215 7.71306 23.578 7.71306C23.2248 7.71306 22.4072 8.02753 21.8363 8.38553C20.7091 9.08703 19.8528 9.90463 18.7256 10.9399C20.7768 13.5185 23.6699 17.684 24.6713 20.727C25.0003 21.7285 25.1406 22.7154 25.0293 23.2572C24.9471 23.6684 24.9471 23.6684 25.0971 23.4798C25.3922 23.1073 26.0598 21.9655 26.3259 21.3753C26.6839 20.5915 27.0516 19.4305 27.2257 18.5354C27.4338 17.4469 27.4144 15.1102 27.187 14.0168V14.0168ZM9.82383 6.06818C12.1315 5.94723 15.131 7.73725 15.3535 7.7808C15.3874 7.78563 15.8567 7.5776 16.3985 7.31152C19.4899 5.80693 20.9462 6.06334 21.5944 6.09237C18.503 4.19108 14.207 3.67342 10.2786 5.52634C9.14652 6.06334 9.1175 6.10205 9.82383 6.06818Z" fill="white"/>
<path d="M53.3657 22H50.5606L48.7515 18.5796C48.6831 18.4526 48.6123 18.2183 48.5391 17.8765H48.5098C48.4756 18.0376 48.395 18.2817 48.2681 18.6089L46.4517 22H43.6319L46.979 16.7485L43.9175 11.4971H46.7959L48.2974 14.6465C48.4146 14.8955 48.5196 15.1909 48.6123 15.5327H48.6416C48.7002 15.3276 48.8101 15.0225 48.9712 14.6172L50.6411 11.4971H53.2779L50.1284 16.7046L53.3657 22ZM57.1786 21.1284H57.1493V22H54.8348V10.8965H57.1493V15.6279H57.1786C57.7498 14.7539 58.5628 14.3169 59.6175 14.3169C60.5843 14.3169 61.3289 14.6489 61.8514 15.313C62.3739 15.9771 62.6351 16.8853 62.6351 18.0376C62.6351 19.2876 62.3299 20.291 61.7196 21.0479C61.1092 21.8047 60.2938 22.1831 59.2733 22.1831C58.3504 22.1831 57.6522 21.8315 57.1786 21.1284ZM57.1126 17.9644V18.7334C57.1126 19.2168 57.2518 19.6172 57.5301 19.9346C57.8084 20.252 58.1649 20.4106 58.5995 20.4106C59.1268 20.4106 59.5345 20.208 59.8226 19.8027C60.1156 19.3926 60.2621 18.814 60.2621 18.0669C60.2621 17.4468 60.1278 16.9634 59.8592 16.6167C59.5955 16.2651 59.2171 16.0894 58.724 16.0894C58.2601 16.0894 57.8744 16.2627 57.5667 16.6094C57.264 16.9561 57.1126 17.4077 57.1126 17.9644ZM67.8908 22.1831C66.6408 22.1831 65.6569 21.834 64.9391 21.1357C64.2262 20.4326 63.8698 19.4805 63.8698 18.2793C63.8698 17.0391 64.2409 16.0698 64.9831 15.3716C65.7253 14.6685 66.7287 14.3169 67.9933 14.3169C69.2384 14.3169 70.215 14.6685 70.923 15.3716C71.631 16.0698 71.985 16.9951 71.985 18.1475C71.985 19.3926 71.6188 20.3765 70.8864 21.0991C70.1588 21.8218 69.1603 22.1831 67.8908 22.1831ZM67.9494 16.0894C67.4025 16.0894 66.9777 16.2773 66.675 16.6533C66.3722 17.0293 66.2209 17.5615 66.2209 18.25C66.2209 19.6904 66.8019 20.4106 67.964 20.4106C69.0724 20.4106 69.6266 19.6709 69.6266 18.1914C69.6266 16.79 69.0675 16.0894 67.9494 16.0894ZM80.6025 14.5L78.1269 18.1328L80.5879 22H77.9219L76.8379 19.9785C76.75 19.8174 76.645 19.5903 76.5229 19.2974H76.4936C76.4204 19.5024 76.3203 19.7222 76.1933 19.9565L75.102 22H72.4433L74.9775 18.2646L72.5971 14.5H75.2778L76.3471 16.6021C76.4888 16.8804 76.5888 17.1147 76.6474 17.3052H76.6767C76.7549 17.0757 76.8598 16.8364 76.9917 16.5874L78.083 14.5H80.6025Z" fill="white"/>
<path d="M88 0H5C2.23858 0 0 2.23858 0 5V27C0 29.7614 2.23858 32 5 32H88C90.7614 32 93 29.7614 93 27V5C93 2.23858 90.7614 0 88 0Z" fill="url(#paint0_linear)"/>
<defs>
<linearGradient id="paint0_linear" x1="0" y1="0" x2="0" y2="32" gradientUnits="userSpaceOnUse">
<stop stop-color="#BBBBBB" stop-opacity="0.1"/>
<stop offset="1" stop-opacity="0.1"/>
</linearGradient>
</defs>
</svg>
