<svg width="96" height="32" viewBox="0 0 96 32" fill="none" xmlns="http://www.w3.org/2000/svg">
<path d="M91 0H31V32H91C93.7614 32 96 29.7614 96 27V5C96 2.23858 93.7614 0 91 0Z" fill="#0F1418"/>
<path d="M5 0.5H30.5V31.5H5C2.51472 31.5 0.5 29.4853 0.5 27V5C0.5 2.51472 2.51472 0.5 5 0.5Z" fill="white" stroke="#151A1E"/>
<g clip-path="url(#clip0)">
<path d="M11.25 28.1187L11.6998 25.2565L10.6978 25.2332H5.91263L9.23804 4.11323C9.24837 4.04947 9.28191 3.99002 9.33094 3.9478C9.37997 3.90559 9.44276 3.88232 9.50814 3.88232H17.5765C20.2551 3.88232 22.1036 4.44063 23.0687 5.5426C23.5212 6.05955 23.8093 6.59976 23.9487 7.19425C24.0949 7.81804 24.0975 8.56331 23.9547 9.47228L23.9444 9.53862V10.121L24.3968 10.3778C24.7779 10.5803 25.0806 10.812 25.3129 11.0774C25.7 11.5194 25.9503 12.0812 26.0561 12.7472C26.1653 13.4321 26.1292 14.2472 25.9503 15.1699C25.7438 16.2314 25.4101 17.1559 24.9594 17.9123C24.5448 18.6094 24.0166 19.1875 23.3896 19.6355C22.7909 20.0611 22.0795 20.3842 21.2753 20.591C20.4959 20.7943 19.6074 20.8969 18.6328 20.8969H18.0049C17.5559 20.8969 17.1198 21.0589 16.7774 21.3492C16.4342 21.6456 16.2071 22.0505 16.1375 22.4934L16.0902 22.751L15.2954 27.7956L15.2592 27.9808C15.2498 28.0394 15.2334 28.0687 15.2093 28.0885C15.1878 28.1066 15.1569 28.1187 15.1268 28.1187H11.25V28.1187Z" fill="#253B80"/>
<path d="M24.8252 9.60571C24.8011 9.75994 24.7736 9.91761 24.7426 10.0796C23.6786 15.5515 20.0383 17.4418 15.3891 17.4418H13.0219C12.4534 17.4418 11.9742 17.8554 11.8856 18.4171L10.6737 26.1162L10.3305 28.2986C10.2728 28.6674 10.5567 29 10.9283 29H15.1268C15.6239 29 16.0463 28.6381 16.1246 28.147L16.1659 27.9333L16.9563 22.9086L17.0071 22.6329C17.0845 22.14 17.5077 21.7782 18.0049 21.7782H18.6328C22.7006 21.7782 25.8849 20.1239 26.8156 15.337C27.2044 13.3372 27.0031 11.6675 25.9744 10.4931C25.663 10.139 25.2768 9.84523 24.8252 9.60571V9.60571Z" fill="#179BD7"/>
<path d="M23.7121 9.16111C23.5495 9.11372 23.3818 9.07064 23.2098 9.03187C23.0369 8.99396 22.8597 8.96036 22.6773 8.93106C22.0391 8.82767 21.3398 8.77856 20.5906 8.77856H14.2666C14.1109 8.77856 13.963 8.81389 13.8305 8.87765C13.5389 9.01808 13.3221 9.29465 13.2697 9.63326L11.9244 18.1681L11.8857 18.4171C11.9742 17.8553 12.4534 17.4418 13.0219 17.4418H15.3891C20.0383 17.4418 23.6786 15.5506 24.7426 10.0796C24.7744 9.91758 24.8011 9.75991 24.8252 9.60568C24.5559 9.46266 24.2644 9.34032 23.9504 9.23607C23.873 9.21022 23.793 9.18523 23.7121 9.16111V9.16111Z" fill="#222D65"/>
<path d="M13.2697 9.63333C13.3221 9.29473 13.5389 9.01816 13.8305 8.87858C13.9638 8.81483 14.1109 8.7795 14.2666 8.7795H20.5906C21.3398 8.7795 22.0391 8.82861 22.6773 8.932C22.8597 8.9613 23.0369 8.9949 23.2098 9.03281C23.3818 9.07158 23.5495 9.11466 23.7121 9.16204C23.793 9.18617 23.873 9.21115 23.9512 9.23614C24.2652 9.34039 24.5568 9.4636 24.826 9.60576C25.1426 7.58362 24.8235 6.20681 23.7319 4.9601C22.5285 3.5876 20.3566 3 17.5774 3H9.509C8.94129 3 8.45701 3.41356 8.36927 3.97617L5.00859 25.3133C4.94236 25.7355 5.2675 26.1163 5.69243 26.1163H10.6737L11.9244 18.1682L13.2697 9.63333V9.63333Z" fill="#253B80"/>
</g>
<path d="M43.5456 18.3818V22H41.1799V11.4971H44.8859C47.5324 11.4971 48.8557 12.6128 48.8557 14.8442C48.8557 15.8989 48.4748 16.7534 47.7131 17.4077C46.9562 18.0571 45.9431 18.3818 44.6735 18.3818H43.5456ZM43.5456 13.3135V16.5874H44.4758C45.7355 16.5874 46.3654 16.0356 46.3654 14.9321C46.3654 13.853 45.7355 13.3135 44.4758 13.3135H43.5456ZM56.2061 22H54.0161V20.9233H53.9868C53.4839 21.7632 52.7393 22.1831 51.7529 22.1831C51.0254 22.1831 50.4517 21.978 50.0318 21.5679C49.6167 21.1528 49.4092 20.6011 49.4092 19.9126C49.4092 18.4575 50.271 17.6177 51.9946 17.3931L54.0308 17.1221C54.0308 16.3018 53.5864 15.8916 52.6978 15.8916C51.8042 15.8916 50.9546 16.1577 50.1489 16.6899V14.9468C50.4712 14.7808 50.9107 14.6343 51.4673 14.5073C52.0288 14.3804 52.5391 14.3169 52.9981 14.3169C55.1367 14.3169 56.2061 15.3838 56.2061 17.5176V22ZM54.0308 18.9531V18.4478L52.6685 18.6235C51.9165 18.7212 51.5405 19.0605 51.5405 19.6416C51.5405 19.9053 51.6309 20.1226 51.8115 20.2935C51.9971 20.4595 52.2461 20.5425 52.5586 20.5425C52.9932 20.5425 53.3472 20.3936 53.6206 20.0957C53.8941 19.793 54.0308 19.4121 54.0308 18.9531ZM65.3582 14.5L62.3114 22.6006C61.5789 24.5488 60.4754 25.5229 59.0008 25.5229C58.4393 25.5229 57.9779 25.4595 57.6165 25.3325V23.4868C57.9242 23.6675 58.2586 23.7578 58.62 23.7578C59.2157 23.7578 59.6307 23.4771 59.8651 22.9155L60.2606 21.9854L57.2137 14.5H59.7772L61.1761 19.063C61.264 19.3462 61.3324 19.6807 61.3812 20.0664H61.4105C61.4544 19.7832 61.535 19.4536 61.6522 19.0776L63.0658 14.5H65.3582ZM69.0612 18.3818V22H66.6955V11.4971H70.4015C73.048 11.4971 74.3713 12.6128 74.3713 14.8442C74.3713 15.8989 73.9904 16.7534 73.2287 17.4077C72.4718 18.0571 71.4587 18.3818 70.1891 18.3818H69.0612ZM69.0612 13.3135V16.5874H69.9914C71.2511 16.5874 71.881 16.0356 71.881 14.9321C71.881 13.853 71.2511 13.3135 69.9914 13.3135H69.0612ZM81.7217 22H79.5317V20.9233H79.5024C78.9995 21.7632 78.2549 22.1831 77.2685 22.1831C76.541 22.1831 75.9673 21.978 75.5473 21.5679C75.1323 21.1528 74.9248 20.6011 74.9248 19.9126C74.9248 18.4575 75.7866 17.6177 77.5102 17.3931L79.5464 17.1221C79.5464 16.3018 79.102 15.8916 78.2134 15.8916C77.3198 15.8916 76.4702 16.1577 75.6645 16.6899V14.9468C75.9868 14.7808 76.4263 14.6343 76.9829 14.5073C77.5444 14.3804 78.0547 14.3169 78.5137 14.3169C80.6523 14.3169 81.7217 15.3838 81.7217 17.5176V22ZM79.5464 18.9531V18.4478L78.1841 18.6235C77.4321 18.7212 77.0561 19.0605 77.0561 19.6416C77.0561 19.9053 77.1465 20.1226 77.3271 20.2935C77.5127 20.4595 77.7617 20.5425 78.0742 20.5425C78.5088 20.5425 78.8628 20.3936 79.1362 20.0957C79.4096 19.793 79.5464 19.4121 79.5464 18.9531ZM86.0472 22H83.7327V10.8965H86.0472V22Z" fill="white"/>
<path d="M91 0H5C2.23858 0 0 2.23858 0 5V27C0 29.7614 2.23857 32 5 32H91C93.7614 32 96 29.7614 96 27V5C96 2.23858 93.7614 0 91 0Z" fill="url(#paint0_linear)"/>
<defs>
<linearGradient id="paint0_linear" x1="0" y1="0" x2="0" y2="32" gradientUnits="userSpaceOnUse">
<stop stop-color="#BBBBBB" stop-opacity="0.1"/>
<stop offset="1" stop-opacity="0.1"/>
</linearGradient>
<clipPath id="clip0">
<rect width="22" height="26" fill="white" transform="translate(5 3)"/>
</clipPath>
</defs>
</svg>
