<svg width="113" height="32" viewBox="0 0 113 32" fill="none" xmlns="http://www.w3.org/2000/svg">
<path d="M108 0H31V32H108C110.761 32 113 29.7614 113 27V5C113 2.23858 110.761 0 108 0Z" fill="#0F1418"/>
<path d="M31 0H5C2.23858 0 0 2.23858 0 5V27C0 29.7614 2.23858 32 5 32H31V0Z" fill="#FF5722"/>
<path d="M25.9344 14.4391C25.85 14.0641 25.6157 13.7172 25.3485 13.5719C25.2641 13.5251 24.7391 13.4688 24.1766 13.4454C23.2344 13.4032 23.1313 13.3844 22.8313 13.211C22.3578 12.9344 22.2313 12.6344 22.2266 11.8282C22.2219 10.2813 21.5797 8.84225 20.3094 7.5485C19.4047 6.62506 18.3922 6.00162 17.2391 5.65006C16.9625 5.56569 16.3438 5.53756 14.2719 5.51412C11.0188 5.47662 10.2969 5.54225 9.19065 5.98287C7.15159 6.78912 5.68909 8.50475 5.15471 10.6985C5.05628 11.111 5.03284 11.7719 5.0094 15.5688C4.98128 20.3266 5.01409 21.0251 5.3094 21.9672C6.04065 24.2922 8.11721 26.0126 10.2032 26.3876C10.8969 26.5141 19.4516 26.5422 20.3282 26.4251C21.8516 26.2188 23.0469 25.6047 24.1672 24.461C24.9782 23.6313 25.4844 22.736 25.8172 21.5501C26.0469 20.7251 26.0282 14.8563 25.9344 14.4391ZM10.836 11.4579C11.2016 11.0876 11.3047 11.0735 13.5922 11.0735C15.65 11.0735 15.7203 11.0782 16.0203 11.2329C16.4563 11.4532 16.6485 11.7626 16.6485 12.2594C16.6485 12.7047 16.4703 13.0188 16.0719 13.2719C15.8563 13.4079 15.7297 13.4173 13.7141 13.4266C12.4719 13.436 11.4782 13.4079 11.3328 13.3704C10.5547 13.1501 10.2641 12.0344 10.836 11.4579ZM19.8266 20.8235L19.1282 20.936L15.4953 20.9782C12.3032 21.0157 11.4032 20.9594 11.2344 20.8844C10.9016 20.7391 10.5875 20.336 10.536 19.9751C10.4844 19.6329 10.6578 19.1641 10.9203 18.9251C11.2532 18.6251 11.3985 18.6157 15.4813 18.611C19.6813 18.6063 19.6578 18.6063 20.0563 18.9766C20.6235 19.5063 20.5016 20.4391 19.8266 20.8235Z" fill="white"/>
<path d="M44.7998 22V11.4971H48.6231C49.795 11.4971 50.6958 11.7119 51.3257 12.1416C51.9556 12.5713 52.2705 13.1768 52.2705 13.958C52.2705 14.5244 52.0777 15.02 51.6919 15.4448C51.3111 15.8696 50.8228 16.165 50.2271 16.3311V16.3604C50.9742 16.4531 51.5699 16.729 52.0142 17.188C52.4634 17.647 52.688 18.2061 52.688 18.8652C52.688 19.8271 52.3438 20.5913 51.6553 21.1577C50.9668 21.7192 50.0269 22 48.8355 22H44.7998ZM47.1656 13.2402V15.7305H48.2056C48.6939 15.7305 49.0772 15.6133 49.3555 15.3789C49.6387 15.1396 49.7803 14.8125 49.7803 14.3975C49.7803 13.626 49.2041 13.2402 48.0518 13.2402H47.1656ZM47.1656 17.4883V20.2568H48.4473C48.9942 20.2568 49.4214 20.1299 49.729 19.876C50.0415 19.6221 50.1978 19.2754 50.1978 18.8359C50.1978 18.416 50.044 18.0864 49.7364 17.8472C49.4336 17.6079 49.0088 17.4883 48.462 17.4883H47.1656ZM56.9549 22H54.6405V10.8965H56.9549V22ZM62.6574 22.1831C61.4074 22.1831 60.4235 21.834 59.7057 21.1357C58.9929 20.4326 58.6364 19.4805 58.6364 18.2793C58.6364 17.0391 59.0075 16.0698 59.7497 15.3716C60.4919 14.6685 61.4953 14.3169 62.7599 14.3169C64.0051 14.3169 64.9816 14.6685 65.6896 15.3716C66.3976 16.0698 66.7516 16.9951 66.7516 18.1475C66.7516 19.3926 66.3854 20.3765 65.653 21.0991C64.9255 21.8218 63.9269 22.1831 62.6574 22.1831ZM62.716 16.0894C62.1691 16.0894 61.7443 16.2773 61.4416 16.6533C61.1388 17.0293 60.9875 17.5615 60.9875 18.25C60.9875 19.6904 61.5685 20.4106 62.7306 20.4106C63.839 20.4106 64.3932 19.6709 64.3932 18.1914C64.3932 16.79 63.8342 16.0894 62.716 16.0894ZM75.7866 21.1431C75.7866 22.5347 75.3838 23.6113 74.5781 24.373C73.7725 25.1396 72.6055 25.5229 71.0771 25.5229C70.0664 25.5229 69.2656 25.3789 68.6748 25.0908V23.1426C69.4463 23.5918 70.2251 23.8164 71.0112 23.8164C71.7925 23.8164 72.3979 23.6089 72.8276 23.1938C73.2573 22.7837 73.4722 22.2246 73.4722 21.5166V20.9233H73.4429C72.9155 21.7632 72.1367 22.1831 71.1064 22.1831C70.1494 22.1831 69.3901 21.8462 68.8286 21.1724C68.2671 20.4985 67.9863 19.5952 67.9863 18.4624C67.9863 17.1929 68.2988 16.1846 68.9238 15.4375C69.5488 14.6904 70.3716 14.3169 71.3921 14.3169C72.3052 14.3169 72.9888 14.6685 73.4429 15.3716H73.4722V14.5H75.7866V21.1431ZM73.5015 18.3965V17.8032C73.5015 17.3296 73.3599 16.9268 73.0767 16.5947C72.7983 16.2578 72.4346 16.0894 71.9854 16.0894C71.4727 16.0894 71.0698 16.2896 70.7769 16.6899C70.4839 17.0903 70.3374 17.6543 70.3374 18.3818C70.3374 19.0068 70.4766 19.5024 70.7549 19.8687C71.0332 20.23 71.4141 20.4106 71.8975 20.4106C72.376 20.4106 72.7617 20.2275 73.0547 19.8613C73.3525 19.4902 73.5015 19.002 73.5015 18.3965ZM85.2537 21.1431C85.2537 22.5347 84.8509 23.6113 84.0452 24.373C83.2396 25.1396 82.0726 25.5229 80.5443 25.5229C79.5335 25.5229 78.7327 25.3789 78.1419 25.0908V23.1426C78.9134 23.5918 79.6922 23.8164 80.4783 23.8164C81.2596 23.8164 81.8651 23.6089 82.2947 23.1938C82.7244 22.7837 82.9393 22.2246 82.9393 21.5166V20.9233H82.91C82.3826 21.7632 81.6038 22.1831 80.5736 22.1831C79.6165 22.1831 78.8572 21.8462 78.2957 21.1724C77.7342 20.4985 77.4534 19.5952 77.4534 18.4624C77.4534 17.1929 77.7659 16.1846 78.3909 15.4375C79.0159 14.6904 79.8387 14.3169 80.8592 14.3169C81.7723 14.3169 82.4559 14.6685 82.91 15.3716H82.9393V14.5H85.2537V21.1431ZM82.9686 18.3965V17.8032C82.9686 17.3296 82.827 16.9268 82.5438 16.5947C82.2654 16.2578 81.9017 16.0894 81.4525 16.0894C80.9398 16.0894 80.5369 16.2896 80.244 16.6899C79.951 17.0903 79.8045 17.6543 79.8045 18.3818C79.8045 19.0068 79.9437 19.5024 80.222 19.8687C80.5003 20.23 80.8812 20.4106 81.3646 20.4106C81.8431 20.4106 82.2288 20.2275 82.5218 19.8613C82.8196 19.4902 82.9686 19.002 82.9686 18.3965ZM94.1056 18.9092H89.213C89.2912 19.998 89.9772 20.5425 91.2711 20.5425C92.0963 20.5425 92.8214 20.3472 93.4464 19.9565V21.6265C92.7531 21.9976 91.8522 22.1831 90.7438 22.1831C89.5329 22.1831 88.5929 21.8486 87.924 21.1797C87.255 20.5059 86.9205 19.5684 86.9205 18.3672C86.9205 17.1221 87.2819 16.1357 88.0045 15.4082C88.7272 14.6807 89.6159 14.3169 90.6705 14.3169C91.7643 14.3169 92.609 14.6416 93.2047 15.291C93.8053 15.9404 94.1056 16.8218 94.1056 17.9351V18.9092ZM91.9596 17.4883C91.9596 16.4141 91.525 15.877 90.6559 15.877C90.2848 15.877 89.9625 16.0308 89.6891 16.3384C89.4205 16.646 89.257 17.0293 89.1984 17.4883H91.9596ZM100.555 16.5874C100.277 16.436 99.9521 16.3604 99.581 16.3604C99.0781 16.3604 98.685 16.5459 98.4018 16.917C98.1186 17.2832 97.977 17.7837 97.977 18.4185V22H95.6626V14.5H97.977V15.8916H98.0063C98.3725 14.876 99.0317 14.3682 99.9838 14.3682C100.228 14.3682 100.418 14.3975 100.555 14.4561V16.5874Z" fill="white"/>
<path d="M108 0H5C2.23858 0 0 2.23858 0 5V27C0 29.7614 2.23858 32 5 32H108C110.761 32 113 29.7614 113 27V5C113 2.23858 110.761 0 108 0Z" fill="url(#paint0_linear)"/>
<defs>
<linearGradient id="paint0_linear" x1="0" y1="0" x2="0" y2="32" gradientUnits="userSpaceOnUse">
<stop stop-color="#BBBBBB" stop-opacity="0.1"/>
<stop offset="1" stop-opacity="0.1"/>
</linearGradient>
</defs>
</svg>
