<svg width="136" height="32" viewBox="0 0 136 32" fill="none" xmlns="http://www.w3.org/2000/svg">
<path d="M131 0H31V32H131C133.761 32 136 29.7614 136 27V5C136 2.23858 133.761 0 131 0Z" fill="#0F1418"/>
<path d="M31 0H5C2.23858 0 0 2.23858 0 5V27C0 29.7614 2.23858 32 5 32H31V0Z" fill="#FF8800"/>
<path d="M23.72 20.9795C25.1023 19.3534 25.9278 17.3073 25.9278 15.0831C25.9278 9.78859 21.259 5.5 15.5 5.5C9.74092 5.5 5.07217 9.78859 5.07217 15.0831C5.07217 20.3777 9.74092 24.6658 15.5 24.6658C16.7679 24.6678 18.027 24.4547 19.2237 24.0358C19.2917 24.0126 19.3653 24.0117 19.4338 24.0333C19.5022 24.0549 19.562 24.0978 19.6044 24.1558C20.4753 25.3319 21.8361 26.1592 23.3492 26.4958C23.403 26.5069 23.4589 26.4962 23.5048 26.466C23.5507 26.4359 23.5827 26.3888 23.5939 26.335C23.6001 26.3055 23.5998 26.275 23.5929 26.2457C23.586 26.2164 23.5728 26.1889 23.554 26.1653C22.9758 25.415 22.6767 24.4867 22.7083 23.5399C22.7398 22.5931 23.1 21.6869 23.727 20.9767L23.72 20.9795ZM20.4462 13.9563L17.7603 15.9948L18.7344 19.2227C18.7528 19.2833 18.7519 19.3481 18.7317 19.4082C18.7115 19.4683 18.6732 19.5206 18.6219 19.5578C18.5706 19.595 18.509 19.6154 18.4457 19.6159C18.3823 19.6165 18.3204 19.5974 18.2684 19.5611L15.5 17.6369L12.7315 19.5625C12.6796 19.5986 12.6176 19.6177 12.5543 19.6171C12.491 19.6164 12.4294 19.5961 12.3782 19.5589C12.3269 19.5217 12.2885 19.4695 12.2682 19.4095C12.248 19.3495 12.2469 19.2847 12.2651 19.2241L13.2397 15.9963L10.5537 13.9577C10.5033 13.9194 10.466 13.8664 10.447 13.806C10.428 13.7456 10.4284 13.6807 10.448 13.6205C10.4676 13.5603 10.5054 13.5077 10.5563 13.47C10.6072 13.4323 10.6685 13.4114 10.7319 13.4102L14.1012 13.3394L15.2103 10.1556C15.2311 10.0958 15.2699 10.044 15.3215 10.0073C15.3731 9.97064 15.4348 9.95093 15.4981 9.95093C15.5614 9.95093 15.6231 9.97064 15.6747 10.0073C15.7263 10.044 15.7652 10.0958 15.7859 10.1556L16.895 13.3394L20.2644 13.4102C20.328 13.4106 20.3899 13.431 20.4413 13.4684C20.4928 13.5058 20.5313 13.5584 20.5513 13.6188C20.5714 13.6792 20.5721 13.7443 20.5532 13.8051C20.5344 13.8659 20.4969 13.9192 20.4462 13.9577V13.9563Z" fill="white"/>
<path d="M56.9307 22H54.5943V15.7158C54.5943 15.0371 54.6236 14.2876 54.6822 13.4673H54.6236C54.5015 14.1118 54.3917 14.5757 54.294 14.8589L51.8331 22H49.8995L47.3946 14.9321C47.3262 14.7417 47.2164 14.2534 47.065 13.4673H46.9991C47.0626 14.5024 47.0943 15.4106 47.0943 16.1919V22H44.9629V11.4971H48.4273L50.5733 17.7227C50.7442 18.2207 50.8687 18.7212 50.9468 19.2241H50.9908C51.1226 18.6431 51.2618 18.1377 51.4083 17.708L53.5543 11.4971H56.9307V22ZM60.7069 13.3135C60.3163 13.3135 59.9965 13.1987 59.7474 12.9692C59.4984 12.7349 59.3739 12.4492 59.3739 12.1123C59.3739 11.7656 59.4984 11.4824 59.7474 11.2627C59.9965 11.043 60.3163 10.9331 60.7069 10.9331C61.1024 10.9331 61.4222 11.043 61.6664 11.2627C61.9154 11.4824 62.0399 11.7656 62.0399 12.1123C62.0399 12.4639 61.9154 12.752 61.6664 12.9766C61.4222 13.2012 61.1024 13.3135 60.7069 13.3135ZM61.8495 22H59.535V14.5H61.8495V22ZM69.6613 21.729C69.1389 22.0317 68.3845 22.1831 67.3981 22.1831C66.2458 22.1831 65.3132 21.834 64.6003 21.1357C63.8874 20.4375 63.531 19.5366 63.531 18.4331C63.531 17.1587 63.9118 16.1553 64.6735 15.4229C65.4401 14.6855 66.4631 14.3169 67.7424 14.3169C68.6262 14.3169 69.2658 14.4341 69.6613 14.6685V16.6313C69.1779 16.27 68.6384 16.0894 68.0427 16.0894C67.3786 16.0894 66.8513 16.2847 66.4606 16.6753C66.0749 17.061 65.882 17.5957 65.882 18.2793C65.882 18.9434 66.0676 19.4658 66.4387 19.8467C66.8098 20.2227 67.32 20.4106 67.9694 20.4106C68.5456 20.4106 69.1096 20.23 69.6613 19.8687V21.729ZM76.2573 16.5874C75.979 16.436 75.6543 16.3604 75.2832 16.3604C74.7803 16.3604 74.3872 16.5459 74.104 16.917C73.8208 17.2832 73.6792 17.7837 73.6792 18.4185V22H71.3648V14.5H73.6792V15.8916H73.7085C74.0747 14.876 74.7339 14.3682 75.6861 14.3682C75.9302 14.3682 76.1206 14.3975 76.2573 14.4561V16.5874ZM81.037 22.1831C79.787 22.1831 78.8031 21.834 78.0853 21.1357C77.3724 20.4326 77.016 19.4805 77.016 18.2793C77.016 17.0391 77.3871 16.0698 78.1292 15.3716C78.8714 14.6685 79.8748 14.3169 81.1395 14.3169C82.3846 14.3169 83.3612 14.6685 84.0692 15.3716C84.7772 16.0698 85.1312 16.9951 85.1312 18.1475C85.1312 19.3926 84.765 20.3765 84.0326 21.0991C83.305 21.8218 82.3065 22.1831 81.037 22.1831ZM81.0955 16.0894C80.5487 16.0894 80.1239 16.2773 79.8211 16.6533C79.5184 17.0293 79.367 17.5615 79.367 18.25C79.367 19.6904 79.9481 20.4106 81.1102 20.4106C82.2186 20.4106 82.7728 19.6709 82.7728 18.1914C82.7728 16.79 82.2137 16.0894 81.0955 16.0894ZM87.8454 22.1831C87.4645 22.1831 87.1471 22.0659 86.8932 21.8315C86.6393 21.5972 86.5124 21.3091 86.5124 20.9673C86.5124 20.6157 86.6418 20.3276 86.9005 20.103C87.1642 19.8784 87.4914 19.7661 87.882 19.7661C88.2775 19.7661 88.5998 19.8809 88.8488 20.1104C89.1027 20.335 89.2296 20.6206 89.2296 20.9673C89.2296 21.3237 89.1003 21.6167 88.8415 21.8462C88.5876 22.0708 88.2555 22.1831 87.8454 22.1831ZM91.5556 22V11.4971H95.3789C96.5508 11.4971 97.4516 11.7119 98.0815 12.1416C98.7114 12.5713 99.0263 13.1768 99.0263 13.958C99.0263 14.5244 98.8335 15.02 98.4477 15.4448C98.0669 15.8696 97.5786 16.165 96.9829 16.3311V16.3604C97.73 16.4531 98.3257 16.729 98.77 17.188C99.2192 17.647 99.4438 18.2061 99.4438 18.8652C99.4438 19.8271 99.0996 20.5913 98.4111 21.1577C97.7226 21.7192 96.7827 22 95.5913 22H91.5556ZM93.9214 13.2402V15.7305H94.9614C95.4497 15.7305 95.833 15.6133 96.1113 15.3789C96.3945 15.1396 96.5361 14.8125 96.5361 14.3975C96.5361 13.626 95.9599 13.2402 94.8076 13.2402H93.9214ZM93.9214 17.4883V20.2568H95.2031C95.75 20.2568 96.1772 20.1299 96.4848 19.876C96.7973 19.6221 96.9536 19.2754 96.9536 18.8359C96.9536 18.416 96.7998 18.0864 96.4922 17.8472C96.1894 17.6079 95.7646 17.4883 95.2178 17.4883H93.9214ZM103.711 22H101.396V10.8965H103.711V22ZM109.413 22.1831C108.163 22.1831 107.179 21.834 106.462 21.1357C105.749 20.4326 105.392 19.4805 105.392 18.2793C105.392 17.0391 105.763 16.0698 106.505 15.3716C107.248 14.6685 108.251 14.3169 109.516 14.3169C110.761 14.3169 111.737 14.6685 112.445 15.3716C113.153 16.0698 113.507 16.9951 113.507 18.1475C113.507 19.3926 113.141 20.3765 112.409 21.0991C111.681 21.8218 110.683 22.1831 109.413 22.1831ZM109.472 16.0894C108.925 16.0894 108.5 16.2773 108.197 16.6533C107.895 17.0293 107.743 17.5615 107.743 18.25C107.743 19.6904 108.324 20.4106 109.486 20.4106C110.595 20.4106 111.149 19.6709 111.149 18.1914C111.149 16.79 110.59 16.0894 109.472 16.0894ZM122.542 21.1431C122.542 22.5347 122.14 23.6113 121.334 24.373C120.528 25.1396 119.361 25.5229 117.833 25.5229C116.822 25.5229 116.021 25.3789 115.431 25.0908V23.1426C116.202 23.5918 116.981 23.8164 117.767 23.8164C118.548 23.8164 119.154 23.6089 119.583 23.1938C120.013 22.7837 120.228 22.2246 120.228 21.5166V20.9233H120.199C119.671 21.7632 118.893 22.1831 117.862 22.1831C116.905 22.1831 116.146 21.8462 115.584 21.1724C115.023 20.4985 114.742 19.5952 114.742 18.4624C114.742 17.1929 115.055 16.1846 115.68 15.4375C116.305 14.6904 117.127 14.3169 118.148 14.3169C119.061 14.3169 119.745 14.6685 120.199 15.3716H120.228V14.5H122.542V21.1431ZM120.257 18.3965V17.8032C120.257 17.3296 120.116 16.9268 119.832 16.5947C119.554 16.2578 119.19 16.0894 118.741 16.0894C118.228 16.0894 117.826 16.2896 117.533 16.6899C117.24 17.0903 117.093 17.6543 117.093 18.3818C117.093 19.0068 117.232 19.5024 117.511 19.8687C117.789 20.23 118.17 20.4106 118.653 20.4106C119.132 20.4106 119.518 20.2275 119.81 19.8613C120.108 19.4902 120.257 19.002 120.257 18.3965Z" fill="white"/>
<path d="M131 0H5C2.23858 0 0 2.23858 0 5V27C0 29.7614 2.23857 32 5 32H131C133.761 32 136 29.7614 136 27V5C136 2.23858 133.761 0 131 0Z" fill="url(#paint0_linear)"/>
<defs>
<linearGradient id="paint0_linear" x1="0" y1="0" x2="0" y2="32" gradientUnits="userSpaceOnUse">
<stop stop-color="#BBBBBB" stop-opacity="0.1"/>
<stop offset="1" stop-opacity="0.1"/>
</linearGradient>
</defs>
</svg>
