<svg width="84" height="32" viewBox="0 0 84 32" fill="none" xmlns="http://www.w3.org/2000/svg">
<path d="M79 0H31V32H79C81.7614 32 84 29.7614 84 27V5C84 2.23858 81.7614 0 79 0Z" fill="#0F1418"/>
<path d="M31 0H5C2.23858 0 0 2.23858 0 5V27C0 29.7614 2.23858 32 5 32H31V0Z" fill="#EE802F"/>
<path d="M12.2897 23.8551C12.2897 25.592 10.8817 27 9.14481 27C7.40795 27 6 25.592 6 23.8551C6 22.1182 7.408 20.7102 9.14486 20.7102C10.8817 20.7102 12.2897 22.1183 12.2897 23.8551ZM20.9158 26.1754C20.5056 18.5835 14.4246 12.4948 6.82456 12.0841C6.37596 12.0599 6 12.4203 6 12.8696V15.2301C6 15.6433 6.3187 15.9899 6.73106 16.0167C12.2228 16.3744 16.6248 20.7654 16.9832 26.2688C17.0101 26.6812 17.3566 26.9999 17.7698 26.9999H20.1303C20.5796 27 20.9401 26.624 20.9158 26.1754ZM27.9994 26.1895C27.5872 14.7073 18.3487 5.41473 6.81041 5.00051C6.36698 4.9846 6 5.34284 6 5.78652V8.14699C6 8.57054 6.33565 8.91527 6.75885 8.93265C16.1471 9.3176 23.6824 16.8544 24.0673 26.2411C24.0847 26.6644 24.4294 27 24.853 27H27.2135C27.6571 27 28.0154 26.633 27.9994 26.1895Z" fill="white"/>
<path d="M53.4968 22H50.7795L49.1462 19.2974C49.0241 19.0923 48.9069 18.9092 48.7946 18.748C48.6823 18.5869 48.5676 18.4502 48.4504 18.3379C48.3381 18.2207 48.2184 18.1328 48.0915 18.0742C47.9694 18.0107 47.8351 17.979 47.6887 17.979H47.0514V22H44.6857V11.4971H48.4357C50.9846 11.4971 52.259 12.4492 52.259 14.3535C52.259 14.7197 52.2028 15.0591 52.0905 15.3716C51.9782 15.6792 51.8195 15.9575 51.6144 16.2065C51.4094 16.4556 51.1603 16.6704 50.8674 16.8511C50.5793 17.0317 50.257 17.1733 49.9006 17.2759V17.3052C50.0568 17.354 50.2082 17.4346 50.3547 17.5469C50.5012 17.6543 50.6428 17.7812 50.7795 17.9277C50.9162 18.0742 51.0456 18.2329 51.1677 18.4038C51.2946 18.5698 51.4094 18.7334 51.5119 18.8945L53.4968 22ZM47.0514 13.2695V16.1919H48.0768C48.5846 16.1919 48.9924 16.0454 49.3 15.7524C49.6125 15.4546 49.7687 15.0859 49.7687 14.6465C49.7687 13.7285 49.2194 13.2695 48.1208 13.2695H47.0514ZM54.7095 21.5972V19.2534C55.1343 19.6099 55.5957 19.8784 56.0938 20.0591C56.5918 20.2349 57.0947 20.3228 57.6025 20.3228C57.9004 20.3228 58.1592 20.2959 58.3789 20.2422C58.6035 20.1885 58.7891 20.1152 58.9355 20.0225C59.0869 19.9248 59.1992 19.8125 59.2725 19.6855C59.3457 19.5537 59.3823 19.4121 59.3823 19.2607C59.3823 19.0557 59.3237 18.8726 59.2065 18.7114C59.0894 18.5503 58.9282 18.4014 58.7231 18.2646C58.5229 18.1279 58.2837 17.9961 58.0054 17.8691C57.7271 17.7422 57.4268 17.6128 57.1045 17.481C56.2842 17.1392 55.6714 16.7217 55.2661 16.2285C54.8657 15.7354 54.6655 15.1396 54.6655 14.4414C54.6655 13.8945 54.7754 13.4258 54.9951 13.0352C55.2148 12.6396 55.5127 12.3149 55.8887 12.061C56.2695 11.8071 56.709 11.6216 57.207 11.5044C57.7051 11.3823 58.2324 11.3213 58.7891 11.3213C59.3359 11.3213 59.8193 11.3555 60.2393 11.4238C60.6641 11.4873 61.0547 11.5874 61.4111 11.7241V13.9141C61.2354 13.792 61.0425 13.6846 60.8325 13.5918C60.6274 13.499 60.415 13.4233 60.1953 13.3647C59.9756 13.3013 59.7559 13.2549 59.5361 13.2256C59.3213 13.1963 59.1162 13.1816 58.9209 13.1816C58.6523 13.1816 58.4082 13.2085 58.1885 13.2622C57.9688 13.311 57.7832 13.3818 57.6318 13.4746C57.4805 13.5674 57.3633 13.6797 57.2803 13.8115C57.1973 13.9385 57.1558 14.0825 57.1558 14.2437C57.1558 14.4194 57.2021 14.5781 57.2949 14.7197C57.3877 14.8564 57.5195 14.9883 57.6904 15.1152C57.8613 15.2373 58.0688 15.3594 58.313 15.4814C58.5571 15.5986 58.833 15.7207 59.1406 15.8477C59.5605 16.0234 59.9365 16.2114 60.2686 16.4116C60.6055 16.6069 60.8936 16.8291 61.1328 17.0781C61.3721 17.3271 61.5552 17.6128 61.6821 17.9351C61.8091 18.2524 61.8726 18.6235 61.8726 19.0483C61.8726 19.6343 61.7603 20.1274 61.5356 20.5278C61.3159 20.9233 61.0156 21.2456 60.6348 21.4946C60.2539 21.7388 59.8096 21.9146 59.3018 22.022C58.7988 22.1294 58.2666 22.1831 57.7051 22.1831C57.1289 22.1831 56.5796 22.1343 56.0571 22.0366C55.5396 21.939 55.0903 21.7925 54.7095 21.5972ZM63.825 21.5972V19.2534C64.2498 19.6099 64.7113 19.8784 65.2093 20.0591C65.7073 20.2349 66.2103 20.3228 66.7181 20.3228C67.0159 20.3228 67.2747 20.2959 67.4945 20.2422C67.7191 20.1885 67.9046 20.1152 68.0511 20.0225C68.2025 19.9248 68.3148 19.8125 68.388 19.6855C68.4613 19.5537 68.4979 19.4121 68.4979 19.2607C68.4979 19.0557 68.4393 18.8726 68.3221 18.7114C68.2049 18.5503 68.0438 18.4014 67.8387 18.2646C67.6385 18.1279 67.3992 17.9961 67.1209 17.8691C66.8426 17.7422 66.5423 17.6128 66.22 17.481C65.3997 17.1392 64.7869 16.7217 64.3817 16.2285C63.9813 15.7354 63.7811 15.1396 63.7811 14.4414C63.7811 13.8945 63.8909 13.4258 64.1107 13.0352C64.3304 12.6396 64.6282 12.3149 65.0042 12.061C65.3851 11.8071 65.8245 11.6216 66.3226 11.5044C66.8206 11.3823 67.348 11.3213 67.9046 11.3213C68.4515 11.3213 68.9349 11.3555 69.3548 11.4238C69.7796 11.4873 70.1702 11.5874 70.5267 11.7241V13.9141C70.3509 13.792 70.158 13.6846 69.9481 13.5918C69.743 13.499 69.5306 13.4233 69.3109 13.3647C69.0911 13.3013 68.8714 13.2549 68.6517 13.2256C68.4368 13.1963 68.2318 13.1816 68.0364 13.1816C67.7679 13.1816 67.5238 13.2085 67.304 13.2622C67.0843 13.311 66.8988 13.3818 66.7474 13.4746C66.596 13.5674 66.4788 13.6797 66.3958 13.8115C66.3128 13.9385 66.2713 14.0825 66.2713 14.2437C66.2713 14.4194 66.3177 14.5781 66.4105 14.7197C66.5032 14.8564 66.6351 14.9883 66.806 15.1152C66.9769 15.2373 67.1844 15.3594 67.4285 15.4814C67.6727 15.5986 67.9486 15.7207 68.2562 15.8477C68.6761 16.0234 69.0521 16.2114 69.3841 16.4116C69.721 16.6069 70.0091 16.8291 70.2484 17.0781C70.4876 17.3271 70.6707 17.6128 70.7977 17.9351C70.9246 18.2524 70.9881 18.6235 70.9881 19.0483C70.9881 19.6343 70.8758 20.1274 70.6512 20.5278C70.4315 20.9233 70.1312 21.2456 69.7503 21.4946C69.3695 21.7388 68.9251 21.9146 68.4173 22.022C67.9144 22.1294 67.3821 22.1831 66.8206 22.1831C66.2445 22.1831 65.6951 22.1343 65.1727 22.0366C64.6551 21.939 64.2059 21.7925 63.825 21.5972Z" fill="white"/>
<path d="M79 0H5C2.23858 0 0 2.23858 0 5V27C0 29.7614 2.23858 32 5 32H79C81.7614 32 84 29.7614 84 27V5C84 2.23858 81.7614 0 79 0Z" fill="url(#paint0_linear)"/>
<defs>
<linearGradient id="paint0_linear" x1="0" y1="0" x2="0" y2="32" gradientUnits="userSpaceOnUse">
<stop stop-color="#BBBBBB" stop-opacity="0.1"/>
<stop offset="1" stop-opacity="0.1"/>
</linearGradient>
</defs>
</svg>
