<svg width="107" height="32" viewBox="0 0 107 32" fill="none" xmlns="http://www.w3.org/2000/svg">
<path d="M102 0H31V32H102C104.761 32 107 29.7614 107 27V5C107 2.23858 104.761 0 102 0Z" fill="#0F1418"/>
<path d="M31 0H5C2.23858 0 0 2.23858 0 5V27C0 29.7614 2.23858 32 5 32H31V0Z" fill="#001935"/>
<path d="M22.5219 26.5141C21.8844 27.1937 20.1781 28 17.9563 28C12.2938 28 11.0656 23.8375 11.0656 21.4094V14.6594H8.83907C8.58125 14.6594 8.37032 14.4484 8.37032 14.1906V11.0031C8.37032 10.6656 8.58125 10.3656 8.9 10.2531C11.8063 9.23125 12.7203 6.69062 12.8516 4.76406C12.8891 4.24844 13.1563 4 13.6063 4H16.9297C17.1875 4 17.3984 4.21094 17.3984 4.46875V9.86875H21.2891C21.5469 9.86875 21.7578 10.075 21.7578 10.3328V14.1625C21.7578 14.4203 21.5469 14.6313 21.2891 14.6313H17.3797V20.875C17.3797 22.4781 18.4906 23.3875 20.5672 22.5531C20.7922 22.4641 20.9891 22.4031 21.1625 22.45C21.3266 22.4922 21.4344 22.6094 21.5094 22.8203L22.5406 25.8344C22.625 26.0687 22.6953 26.3312 22.5219 26.5141Z" fill="white"/>
<path d="M52.0705 13.4233H49.0749V22H46.7019V13.4233H43.7209V11.4971H52.0705V13.4233ZM59.7871 22H57.48V20.8574H57.4434C56.8721 21.7412 56.1079 22.1831 55.1509 22.1831C53.4126 22.1831 52.5435 21.1309 52.5435 19.0264V14.5H54.8506V18.8213C54.8506 19.8809 55.2705 20.4106 56.1104 20.4106C56.5254 20.4106 56.8574 20.2666 57.1065 19.9785C57.3555 19.6855 57.48 19.29 57.48 18.792V14.5H59.7871V22ZM73.8319 22H71.5247V17.7227C71.5247 16.6338 71.1244 16.0894 70.3236 16.0894C69.9427 16.0894 69.6327 16.2529 69.3934 16.5801C69.1541 16.9072 69.0345 17.3149 69.0345 17.8032V22H66.7201V17.6787C66.7201 16.6191 66.327 16.0894 65.5409 16.0894C65.1454 16.0894 64.828 16.2456 64.5887 16.5581C64.3543 16.8706 64.2371 17.2954 64.2371 17.8325V22H61.9227V14.5H64.2371V15.6719H64.2664C64.5057 15.2715 64.8402 14.9468 65.2699 14.6978C65.7044 14.4438 66.1781 14.3169 66.6908 14.3169C67.7503 14.3169 68.4754 14.7832 68.8661 15.7158C69.4373 14.7832 70.2772 14.3169 71.3856 14.3169C73.0164 14.3169 73.8319 15.3228 73.8319 17.3345V22ZM78.1867 21.1284H78.1574V22H75.8429V10.8965H78.1574V15.6279H78.1867C78.758 14.7539 79.571 14.3169 80.6256 14.3169C81.5924 14.3169 82.3371 14.6489 82.8595 15.313C83.382 15.9771 83.6432 16.8853 83.6432 18.0376C83.6432 19.2876 83.338 20.291 82.7277 21.0479C82.1173 21.8047 81.3019 22.1831 80.2814 22.1831C79.3586 22.1831 78.6603 21.8315 78.1867 21.1284ZM78.1208 17.9644V18.7334C78.1208 19.2168 78.2599 19.6172 78.5382 19.9346C78.8166 20.252 79.173 20.4106 79.6076 20.4106C80.1349 20.4106 80.5426 20.208 80.8307 19.8027C81.1237 19.3926 81.2702 18.814 81.2702 18.0669C81.2702 17.4468 81.1359 16.9634 80.8673 16.6167C80.6037 16.2651 80.2253 16.0894 79.7321 16.0894C79.2682 16.0894 78.8825 16.2627 78.5749 16.6094C78.2721 16.9561 78.1208 17.4077 78.1208 17.9644ZM87.6391 22H85.3247V10.8965H87.6391V22ZM94.66 16.5874C94.3816 16.436 94.0569 16.3604 93.6858 16.3604C93.1829 16.3604 92.7898 16.5459 92.5066 16.917C92.2234 17.2832 92.0818 17.7837 92.0818 18.4185V22H89.7674V14.5H92.0818V15.8916H92.1111C92.4773 14.876 93.1365 14.3682 94.0887 14.3682C94.3328 14.3682 94.5232 14.3975 94.66 14.4561V16.5874Z" fill="white"/>
<path d="M102 0H5C2.23858 0 0 2.23858 0 5V27C0 29.7614 2.23858 32 5 32H102C104.761 32 107 29.7614 107 27V5C107 2.23858 104.761 0 102 0Z" fill="url(#paint0_linear)"/>
<defs>
<linearGradient id="paint0_linear" x1="0" y1="0" x2="0" y2="32" gradientUnits="userSpaceOnUse">
<stop stop-color="#BBBBBB" stop-opacity="0.1"/>
<stop offset="1" stop-opacity="0.1"/>
</linearGradient>
</defs>
</svg>
