<svg width="132" height="32" viewBox="0 0 132 32" fill="none" xmlns="http://www.w3.org/2000/svg">
<path d="M127 0H31V32H127C129.761 32 132 29.7614 132 27V5C132 2.23858 129.761 0 127 0Z" fill="#0F1418"/>
<path d="M31 0H5C2.23858 0 0 2.23858 0 5V27C0 29.7614 2.23858 32 5 32H31V0Z" fill="#135E96"/>
<path d="M16 4C9.38548 4 4 9.38064 4 16C4 22.6145 9.38548 28 16 28C22.6145 28 28 22.6145 28 16C28 9.38064 22.6145 4 16 4ZM5.20968 16C5.20968 14.4371 5.54355 12.9516 6.14355 11.6113L11.2919 25.7113C7.69194 23.9597 5.20968 20.2677 5.20968 16ZM16 26.7903C14.9403 26.7903 13.9194 26.6355 12.9516 26.35L16.1887 16.9435L19.5032 26.0306C19.5274 26.0839 19.5516 26.1323 19.5806 26.1806C18.4629 26.5726 17.2581 26.7903 16 26.7903ZM17.4855 10.9435C18.1339 10.9097 18.7194 10.8419 18.7194 10.8419C19.3 10.7742 19.2323 9.91774 18.6516 9.95161C18.6516 9.95161 16.9048 10.0871 15.7774 10.0871C14.7177 10.0871 12.9371 9.95161 12.9371 9.95161C12.3565 9.91774 12.2887 10.8081 12.8694 10.8419C12.8694 10.8419 13.421 10.9097 14.0016 10.9435L15.6806 15.55L13.3194 22.629L9.39032 10.9435C10.0387 10.9097 10.6242 10.8419 10.6242 10.8419C11.2048 10.7742 11.1371 9.91774 10.5565 9.95161C10.5565 9.95161 8.80968 10.0871 7.68226 10.0871C7.47903 10.0871 7.24194 10.0823 6.98548 10.0726C8.91613 7.14516 12.2306 5.20968 16 5.20968C18.8065 5.20968 21.3661 6.28387 23.2871 8.04032C23.2387 8.03548 23.1952 8.03065 23.1468 8.03065C22.0871 8.03065 21.3371 8.95484 21.3371 9.94677C21.3371 10.8371 21.85 11.5871 22.3968 12.4774C22.8081 13.1935 23.2871 14.1177 23.2871 15.4532C23.2871 16.3774 22.9339 17.4468 22.4645 18.9419L21.3903 22.5371L17.4855 10.9435ZM21.4242 25.3242L24.7194 15.7968C25.3339 14.2581 25.5419 13.029 25.5419 11.9306C25.5419 11.5339 25.5177 11.1661 25.4694 10.8226C26.3113 12.3613 26.7903 14.1226 26.7903 16C26.7903 19.9823 24.6323 23.4565 21.4242 25.3242Z" fill="white"/>
<path d="M44.8892 22V11.4971H48.7125C49.8843 11.4971 50.7852 11.7119 51.4151 12.1416C52.045 12.5713 52.3599 13.1768 52.3599 13.958C52.3599 14.5244 52.167 15.02 51.7813 15.4448C51.4004 15.8696 50.9122 16.165 50.3165 16.3311V16.3604C51.0635 16.4531 51.6592 16.729 52.1036 17.188C52.5528 17.647 52.7774 18.2061 52.7774 18.8652C52.7774 19.8271 52.4332 20.5913 51.7447 21.1577C51.0562 21.7192 50.1163 22 48.9249 22H44.8892ZM47.2549 13.2402V15.7305H48.295C48.7833 15.7305 49.1666 15.6133 49.4449 15.3789C49.7281 15.1396 49.8697 14.8125 49.8697 14.3975C49.8697 13.626 49.2935 13.2402 48.1412 13.2402H47.2549ZM47.2549 17.4883V20.2568H48.5367C49.0836 20.2568 49.5108 20.1299 49.8184 19.876C50.1309 19.6221 50.2872 19.2754 50.2872 18.8359C50.2872 18.416 50.1334 18.0864 49.8257 17.8472C49.523 17.6079 49.0982 17.4883 48.5513 17.4883H47.2549ZM57.0443 22H54.7299V10.8965H57.0443V22ZM62.7468 22.1831C61.4968 22.1831 60.5129 21.834 59.7951 21.1357C59.0822 20.4326 58.7258 19.4805 58.7258 18.2793C58.7258 17.0391 59.0969 16.0698 59.8391 15.3716C60.5812 14.6685 61.5847 14.3169 62.8493 14.3169C64.0944 14.3169 65.071 14.6685 65.779 15.3716C66.487 16.0698 66.841 16.9951 66.841 18.1475C66.841 19.3926 66.4748 20.3765 65.7424 21.0991C65.0148 21.8218 64.0163 22.1831 62.7468 22.1831ZM62.8054 16.0894C62.2585 16.0894 61.8337 16.2773 61.531 16.6533C61.2282 17.0293 61.0769 17.5615 61.0769 18.25C61.0769 19.6904 61.6579 20.4106 62.82 20.4106C63.9284 20.4106 64.4826 19.6709 64.4826 18.1914C64.4826 16.79 63.9235 16.0894 62.8054 16.0894ZM75.876 21.1431C75.876 22.5347 75.4732 23.6113 74.6675 24.373C73.8618 25.1396 72.6948 25.5229 71.1665 25.5229C70.1558 25.5229 69.355 25.3789 68.7642 25.0908V23.1426C69.5357 23.5918 70.3145 23.8164 71.1006 23.8164C71.8819 23.8164 72.4873 23.6089 72.917 23.1938C73.3467 22.7837 73.5615 22.2246 73.5615 21.5166V20.9233H73.5322C73.0049 21.7632 72.2261 22.1831 71.1958 22.1831C70.2388 22.1831 69.4795 21.8462 68.918 21.1724C68.3565 20.4985 68.0757 19.5952 68.0757 18.4624C68.0757 17.1929 68.3882 16.1846 69.0132 15.4375C69.6382 14.6904 70.461 14.3169 71.4815 14.3169C72.3946 14.3169 73.0781 14.6685 73.5322 15.3716H73.5615V14.5H75.876V21.1431ZM73.5908 18.3965V17.8032C73.5908 17.3296 73.4492 16.9268 73.166 16.5947C72.8877 16.2578 72.5239 16.0894 72.0747 16.0894C71.562 16.0894 71.1592 16.2896 70.8662 16.6899C70.5733 17.0903 70.4268 17.6543 70.4268 18.3818C70.4268 19.0068 70.5659 19.5024 70.8443 19.8687C71.1226 20.23 71.5034 20.4106 71.9868 20.4106C72.4654 20.4106 72.8511 20.2275 73.1441 19.8613C73.4419 19.4902 73.5908 19.002 73.5908 18.3965ZM85.1715 18.3818V22H82.8058V11.4971H86.5119C89.1584 11.4971 90.4816 12.6128 90.4816 14.8442C90.4816 15.8989 90.1007 16.7534 89.339 17.4077C88.5822 18.0571 87.569 18.3818 86.2995 18.3818H85.1715ZM85.1715 13.3135V16.5874H86.1017C87.3615 16.5874 87.9914 16.0356 87.9914 14.9321C87.9914 13.853 87.3615 13.3135 86.1017 13.3135H85.1715ZM95.3564 22.1831C94.1064 22.1831 93.1225 21.834 92.4048 21.1357C91.6919 20.4326 91.3354 19.4805 91.3354 18.2793C91.3354 17.0391 91.7065 16.0698 92.4487 15.3716C93.1909 14.6685 94.1943 14.3169 95.459 14.3169C96.7041 14.3169 97.6806 14.6685 98.3887 15.3716C99.0967 16.0698 99.4507 16.9951 99.4507 18.1475C99.4507 19.3926 99.0845 20.3765 98.352 21.0991C97.6245 21.8218 96.626 22.1831 95.3564 22.1831ZM95.415 16.0894C94.8681 16.0894 94.4433 16.2773 94.1406 16.6533C93.8379 17.0293 93.6865 17.5615 93.6865 18.25C93.6865 19.6904 94.2676 20.4106 95.4297 20.4106C96.5381 20.4106 97.0923 19.6709 97.0923 18.1914C97.0923 16.79 96.5332 16.0894 95.415 16.0894ZM100.641 21.8022V19.9272C101.022 20.1567 101.401 20.3276 101.777 20.4399C102.158 20.5522 102.516 20.6084 102.853 20.6084C103.263 20.6084 103.586 20.5522 103.82 20.4399C104.059 20.3276 104.179 20.1567 104.179 19.9272C104.179 19.7808 104.125 19.6587 104.018 19.561C103.91 19.4634 103.771 19.3779 103.6 19.3047C103.434 19.2314 103.251 19.1655 103.051 19.1069C102.851 19.0483 102.658 18.9824 102.472 18.9092C102.175 18.7969 101.911 18.6772 101.681 18.5503C101.457 18.4185 101.266 18.2671 101.11 18.0962C100.959 17.9253 100.842 17.7275 100.759 17.5029C100.68 17.2783 100.641 17.0122 100.641 16.7046C100.641 16.2847 100.732 15.9233 100.912 15.6206C101.098 15.3179 101.342 15.0713 101.645 14.8809C101.952 14.6855 102.302 14.5439 102.692 14.4561C103.088 14.3633 103.498 14.3169 103.923 14.3169C104.255 14.3169 104.592 14.3438 104.933 14.3975C105.275 14.4463 105.612 14.5195 105.944 14.6172V16.4043C105.651 16.2334 105.336 16.1064 104.999 16.0234C104.667 15.9355 104.34 15.8916 104.018 15.8916C103.867 15.8916 103.722 15.9062 103.586 15.9355C103.454 15.96 103.337 15.999 103.234 16.0527C103.132 16.1016 103.051 16.1675 102.992 16.2505C102.934 16.3286 102.905 16.4189 102.905 16.5215C102.905 16.6582 102.949 16.7754 103.036 16.873C103.124 16.9707 103.239 17.0562 103.381 17.1294C103.522 17.1978 103.679 17.2612 103.849 17.3198C104.025 17.3735 104.199 17.4297 104.369 17.4883C104.677 17.5957 104.955 17.7129 105.204 17.8398C105.453 17.9668 105.666 18.1157 105.842 18.2866C106.022 18.4575 106.159 18.6577 106.252 18.8872C106.349 19.1167 106.398 19.3901 106.398 19.7075C106.398 20.1519 106.301 20.5327 106.105 20.8501C105.915 21.1626 105.658 21.4189 105.336 21.6191C105.019 21.8145 104.65 21.9561 104.23 22.0439C103.815 22.1367 103.383 22.1831 102.934 22.1831C102.109 22.1831 101.345 22.0562 100.641 21.8022ZM112.452 21.9121C112.11 22.0928 111.595 22.1831 110.907 22.1831C109.276 22.1831 108.461 21.3359 108.461 19.6416V16.2065H107.245V14.5H108.461V12.8813L110.768 12.2222V14.5H112.452V16.2065H110.768V19.2388C110.768 20.02 111.078 20.4106 111.698 20.4106C111.942 20.4106 112.193 20.3398 112.452 20.1982V21.9121ZM113.453 21.8022V19.9272C113.833 20.1567 114.212 20.3276 114.588 20.4399C114.969 20.5522 115.328 20.6084 115.664 20.6084C116.075 20.6084 116.397 20.5522 116.631 20.4399C116.871 20.3276 116.99 20.1567 116.99 19.9272C116.99 19.7808 116.936 19.6587 116.829 19.561C116.722 19.4634 116.582 19.3779 116.412 19.3047C116.246 19.2314 116.062 19.1655 115.862 19.1069C115.662 19.0483 115.469 18.9824 115.284 18.9092C114.986 18.7969 114.722 18.6772 114.493 18.5503C114.268 18.4185 114.078 18.2671 113.921 18.0962C113.77 17.9253 113.653 17.7275 113.57 17.5029C113.492 17.2783 113.453 17.0122 113.453 16.7046C113.453 16.2847 113.543 15.9233 113.724 15.6206C113.909 15.3179 114.153 15.0713 114.456 14.8809C114.764 14.6855 115.113 14.5439 115.503 14.4561C115.899 14.3633 116.309 14.3169 116.734 14.3169C117.066 14.3169 117.403 14.3438 117.745 14.3975C118.086 14.4463 118.423 14.5195 118.755 14.6172V16.4043C118.462 16.2334 118.147 16.1064 117.81 16.0234C117.478 15.9355 117.151 15.8916 116.829 15.8916C116.678 15.8916 116.534 15.9062 116.397 15.9355C116.265 15.96 116.148 15.999 116.045 16.0527C115.943 16.1016 115.862 16.1675 115.804 16.2505C115.745 16.3286 115.716 16.4189 115.716 16.5215C115.716 16.6582 115.76 16.7754 115.848 16.873C115.935 16.9707 116.05 17.0562 116.192 17.1294C116.333 17.1978 116.49 17.2612 116.661 17.3198C116.836 17.3735 117.01 17.4297 117.181 17.4883C117.488 17.5957 117.767 17.7129 118.016 17.8398C118.265 17.9668 118.477 18.1157 118.653 18.2866C118.833 18.4575 118.97 18.6577 119.063 18.8872C119.161 19.1167 119.209 19.3901 119.209 19.7075C119.209 20.1519 119.112 20.5327 118.916 20.8501C118.726 21.1626 118.47 21.4189 118.147 21.6191C117.83 21.8145 117.461 21.9561 117.041 22.0439C116.626 22.1367 116.194 22.1831 115.745 22.1831C114.92 22.1831 114.156 22.0562 113.453 21.8022Z" fill="white"/>
<path d="M127 0H5C2.23858 0 0 2.23858 0 5V27C0 29.7614 2.23858 32 5 32H127C129.761 32 132 29.7614 132 27V5C132 2.23858 129.761 0 127 0Z" fill="url(#paint0_linear)"/>
<defs>
<linearGradient id="paint0_linear" x1="0" y1="0" x2="0" y2="32" gradientUnits="userSpaceOnUse">
<stop stop-color="#BBBBBB" stop-opacity="0.1"/>
<stop offset="1" stop-opacity="0.1"/>
</linearGradient>
</defs>
</svg>
